  0
SECTION
  2
HEADER
  9
$ACADVER
  1
AC1009
  9
$FILLMODE
 70
 0
  9
$SPLFRAME
 70
 1
  9
$EXTMIN
 10
0
 20
0
 30
0.0
  9
$EXTMAX
 10
41.6667
 20
41.6667
 30
0.0
  0
ENDSEC
  0
SECTION
  2
TABLES
  0
TABLE
  2
LAYER
 70
1
  0
LAYER
  2
0
 70
     0
 62
     7
  6
CONTINUOUS
  0
ENDTAB
  0
ENDSEC
  0
SECTION
  2
ENTITIES
  0
POLYLINE
  8
0
 62
     173
 66
     1
 10
0
 20
0
 30
0.0
 70
     1
 40
0
 41
0
  0
VERTEX
  8
0
 10
0.154297
 20
0.133409
 30
0.0
 40
0
 41
0
  0
VERTEX
  8
0
 10
0.217285
 20
0.133409
 30
0.0
 40
0
 41
0
  0
VERTEX
  8
0
 10
0.217285
 20
0.0997179
 30
0.0
 40
0
 41
0
  0
VERTEX
  8
0
 10
0.154297
 20
0.0997179
 30
0.0
 40
0
 41
0
  0
VERTEX
  8
0
 10
0.154297
 20
0.133409
 30
0.0
 40
0
 41
0
  0
SEQEND
 8
0
  0
POLYLINE
  8
0
 62
     173
 66
     1
 10
0
 20
0
 30
0.0
 70
     1
 40
0
 41
0
  0
VERTEX
  8
0
 10
0.154297
 20
0.253689
 30
0.0
 40
0
 41
0
  0
VERTEX
  8
0
 10
0.217285
 20
0.253689
 30
0.0
 40
0
 41
0
  0
VERTEX
  8
0
 10
0.217285
 20
0.219997
 30
0.0
 40
0
 41
0
  0
VERTEX
  8
0
 10
0.154297
 20
0.219997
 30
0.0
 40
0
 41
0
  0
VERTEX
  8
0
 10
0.154297
 20
0.253689
 30
0.0
 40
0
 41
0
  0
SEQEND
 8
0
  0
POLYLINE
  8
0
 62
     173
 66
     1
 10
0
 20
0
 30
0.0
 70
     1
 40
0
 41
0
  0
VERTEX
  8
0
 10
0.252712
 20
0.133409
 30
0.0
 40
0
 41
0
  0
VERTEX
  8
0
 10
0.315701
 20
0.133409
 30
0.0
 40
0
 41
0
  0
VERTEX
  8
0
 10
0.315701
 20
0.0997179
 30
0.0
 40
0
 41
0
  0
VERTEX
  8
0
 10
0.252712
 20
0.0997179
 30
0.0
 40
0
 41
0
  0
VERTEX
  8
0
 10
0.252712
 20
0.133409
 30
0.0
 40
0
 41
0
  0
SEQEND
 8
0
  0
POLYLINE
  8
0
 62
     173
 66
     1
 10
0
 20
0
 30
0.0
 70
     1
 40
0
 41
0
  0
VERTEX
  8
0
 10
0.252712
 20
0.253689
 30
0.0
 40
0
 41
0
  0
VERTEX
  8
0
 10
0.315701
 20
0.253689
 30
0.0
 40
0
 41
0
  0
VERTEX
  8
0
 10
0.315701
 20
0.219997
 30
0.0
 40
0
 41
0
  0
VERTEX
  8
0
 10
0.252712
 20
0.219997
 30
0.0
 40
0
 41
0
  0
VERTEX
  8
0
 10
0.252712
 20
0.253689
 30
0.0
 40
0
 41
0
  0
SEQEND
 8
0
  0
POLYLINE
  8
0
 62
     173
 66
     1
 10
0
 20
0
 30
0.0
 70
     1
 40
0
 41
0
  0
VERTEX
  8
0
 10
0.360949
 20
0.133409
 30
0.0
 40
0
 41
0
  0
VERTEX
  8
0
 10
0.423936
 20
0.133409
 30
0.0
 40
0
 41
0
  0
VERTEX
  8
0
 10
0.423936
 20
0.0997179
 30
0.0
 40
0
 41
0
  0
VERTEX
  8
0
 10
0.360949
 20
0.0997179
 30
0.0
 40
0
 41
0
  0
VERTEX
  8
0
 10
0.360949
 20
0.133409
 30
0.0
 40
0
 41
0
  0
SEQEND
 8
0
  0
POLYLINE
  8
0
 62
     173
 66
     1
 10
0
 20
0
 30
0.0
 70
     1
 40
0
 41
0
  0
VERTEX
  8
0
 10
0.360949
 20
0.253689
 30
0.0
 40
0
 41
0
  0
VERTEX
  8
0
 10
0.423936
 20
0.253689
 30
0.0
 40
0
 41
0
  0
VERTEX
  8
0
 10
0.423936
 20
0.219997
 30
0.0
 40
0
 41
0
  0
VERTEX
  8
0
 10
0.360949
 20
0.219997
 30
0.0
 40
0
 41
0
  0
VERTEX
  8
0
 10
0.360949
 20
0.253689
 30
0.0
 40
0
 41
0
  0
SEQEND
 8
0
  0
POLYLINE
  8
0
 62
     173
 66
     1
 10
0
 20
0
 30
0.0
 70
     1
 40
0
 41
0
  0
VERTEX
  8
0
 10
0.518446
 20
0.310601
 30
0.0
 40
0
 41
0
  0
VERTEX
  8
0
 10
0.581435
 20
0.310601
 30
0.0
 40
0
 41
0
  0
VERTEX
  8
0
 10
0.581435
 20
0.27691
 30
0.0
 40
0
 41
0
  0
VERTEX
  8
0
 10
0.518446
 20
0.27691
 30
0.0
 40
0
 41
0
  0
VERTEX
  8
0
 10
0.518446
 20
0.310601
 30
0.0
 40
0
 41
0
  0
SEQEND
 8
0
  0
POLYLINE
  8
0
 62
     173
 66
     1
 10
0
 20
0
 30
0.0
 70
     1
 40
0
 41
0
  0
VERTEX
  8
0
 10
0.420031
 20
0.310601
 30
0.0
 40
0
 41
0
  0
VERTEX
  8
0
 10
0.483018
 20
0.310601
 30
0.0
 40
0
 41
0
  0
VERTEX
  8
0
 10
0.483018
 20
0.27691
 30
0.0
 40
0
 41
0
  0
VERTEX
  8
0
 10
0.420031
 20
0.27691
 30
0.0
 40
0
 41
0
  0
VERTEX
  8
0
 10
0.420031
 20
0.310601
 30
0.0
 40
0
 41
0
  0
SEQEND
 8
0
  0
POLYLINE
  8
0
 62
     173
 66
     1
 10
0
 20
0
 30
0.0
 70
     1
 40
0
 41
0
  0
VERTEX
  8
0
 10
0.518446
 20
0.430881
 30
0.0
 40
0
 41
0
  0
VERTEX
  8
0
 10
0.581435
 20
0.430881
 30
0.0
 40
0
 41
0
  0
VERTEX
  8
0
 10
0.581435
 20
0.39719
 30
0.0
 40
0
 41
0
  0
VERTEX
  8
0
 10
0.518446
 20
0.39719
 30
0.0
 40
0
 41
0
  0
VERTEX
  8
0
 10
0.518446
 20
0.430881
 30
0.0
 40
0
 41
0
  0
SEQEND
 8
0
  0
POLYLINE
  8
0
 62
     173
 66
     1
 10
0
 20
0
 30
0.0
 70
     1
 40
0
 41
0
  0
VERTEX
  8
0
 10
0.420031
 20
0.430881
 30
0.0
 40
0
 41
0
  0
VERTEX
  8
0
 10
0.483018
 20
0.430881
 30
0.0
 40
0
 41
0
  0
VERTEX
  8
0
 10
0.483018
 20
0.39719
 30
0.0
 40
0
 41
0
  0
VERTEX
  8
0
 10
0.420031
 20
0.39719
 30
0.0
 40
0
 41
0
  0
VERTEX
  8
0
 10
0.420031
 20
0.430881
 30
0.0
 40
0
 41
0
  0
SEQEND
 8
0
  0
POLYLINE
  8
0
 62
     173
 66
     1
 10
0
 20
0
 30
0.0
 70
     1
 40
0
 41
0
  0
VERTEX
  8
0
 10
0.971192
 20
0.340115
 30
0.0
 40
0
 41
0
  0
VERTEX
  8
0
 10
1.03418
 20
0.340115
 30
0.0
 40
0
 41
0
  0
VERTEX
  8
0
 10
1.03418
 20
0.306424
 30
0.0
 40
0
 41
0
  0
VERTEX
  8
0
 10
0.971192
 20
0.306424
 30
0.0
 40
0
 41
0
  0
VERTEX
  8
0
 10
0.971192
 20
0.340115
 30
0.0
 40
0
 41
0
  0
SEQEND
 8
0
  0
POLYLINE
  8
0
 62
     173
 66
     1
 10
0
 20
0
 30
0.0
 70
     1
 40
0
 41
0
  0
VERTEX
  8
0
 10
0.971192
 20
0.460394
 30
0.0
 40
0
 41
0
  0
VERTEX
  8
0
 10
1.03418
 20
0.460394
 30
0.0
 40
0
 41
0
  0
VERTEX
  8
0
 10
1.03418
 20
0.426704
 30
0.0
 40
0
 41
0
  0
VERTEX
  8
0
 10
0.971192
 20
0.426704
 30
0.0
 40
0
 41
0
  0
VERTEX
  8
0
 10
0.971192
 20
0.460394
 30
0.0
 40
0
 41
0
  0
SEQEND
 8
0
  0
POLYLINE
  8
0
 62
     173
 66
     1
 10
0
 20
0
 30
0.0
 70
     1
 40
0
 41
0
  0
VERTEX
  8
0
 10
1.22711
 20
0.605849
 30
0.0
 40
0
 41
0
  0
VERTEX
  8
0
 10
1.29009
 20
0.605849
 30
0.0
 40
0
 41
0
  0
VERTEX
  8
0
 10
1.29009
 20
0.572157
 30
0.0
 40
0
 41
0
  0
VERTEX
  8
0
 10
1.22711
 20
0.572157
 30
0.0
 40
0
 41
0
  0
VERTEX
  8
0
 10
1.22711
 20
0.605849
 30
0.0
 40
0
 41
0
  0
SEQEND
 8
0
  0
POLYLINE
  8
0
 62
     173
 66
     1
 10
0
 20
0
 30
0.0
 70
     1
 40
0
 41
0
  0
VERTEX
  8
0
 10
1.22711
 20
0.812554
 30
0.0
 40
0
 41
0
  0
VERTEX
  8
0
 10
1.29009
 20
0.812554
 30
0.0
 40
0
 41
0
  0
VERTEX
  8
0
 10
1.29009
 20
0.778862
 30
0.0
 40
0
 41
0
  0
VERTEX
  8
0
 10
1.22711
 20
0.778862
 30
0.0
 40
0
 41
0
  0
VERTEX
  8
0
 10
1.22711
 20
0.812554
 30
0.0
 40
0
 41
0
  0
SEQEND
 8
0
  0
POLYLINE
  8
0
 62
     173
 66
     1
 10
0
 20
0
 30
0.0
 70
     1
 40
0
 41
0
  0
VERTEX
  8
0
 10
1.22711
 20
0.726129
 30
0.0
 40
0
 41
0
  0
VERTEX
  8
0
 10
1.29009
 20
0.726129
 30
0.0
 40
0
 41
0
  0
VERTEX
  8
0
 10
1.29009
 20
0.692437
 30
0.0
 40
0
 41
0
  0
VERTEX
  8
0
 10
1.22711
 20
0.692437
 30
0.0
 40
0
 41
0
  0
VERTEX
  8
0
 10
1.22711
 20
0.726129
 30
0.0
 40
0
 41
0
  0
SEQEND
 8
0
  0
POLYLINE
  8
0
 62
     173
 66
     1
 10
0
 20
0
 30
0.0
 70
     1
 40
0
 41
0
  0
VERTEX
  8
0
 10
1.22711
 20
0.932835
 30
0.0
 40
0
 41
0
  0
VERTEX
  8
0
 10
1.29009
 20
0.932835
 30
0.0
 40
0
 41
0
  0
VERTEX
  8
0
 10
1.29009
 20
0.899143
 30
0.0
 40
0
 41
0
  0
VERTEX
  8
0
 10
1.22711
 20
0.899143
 30
0.0
 40
0
 41
0
  0
VERTEX
  8
0
 10
1.22711
 20
0.932835
 30
0.0
 40
0
 41
0
  0
SEQEND
 8
0
  0
POLYLINE
  8
0
 62
     173
 66
     1
 10
0
 20
0
 30
0.0
 70
     1
 40
0
 41
0
  0
VERTEX
  8
0
 10
1.22711
 20
1.42279
 30
0.0
 40
0
 41
0
  0
VERTEX
  8
0
 10
1.29009
 20
1.42279
 30
0.0
 40
0
 41
0
  0
VERTEX
  8
0
 10
1.29009
 20
1.38911
 30
0.0
 40
0
 41
0
  0
VERTEX
  8
0
 10
1.22711
 20
1.38911
 30
0.0
 40
0
 41
0
  0
VERTEX
  8
0
 10
1.22711
 20
1.42279
 30
0.0
 40
0
 41
0
  0
SEQEND
 8
0
  0
POLYLINE
  8
0
 62
     173
 66
     1
 10
0
 20
0
 30
0.0
 70
     1
 40
0
 41
0
  0
VERTEX
  8
0
 10
1.22711
 20
1.54308
 30
0.0
 40
0
 41
0
  0
VERTEX
  8
0
 10
1.29009
 20
1.54308
 30
0.0
 40
0
 41
0
  0
VERTEX
  8
0
 10
1.29009
 20
1.50939
 30
0.0
 40
0
 41
0
  0
VERTEX
  8
0
 10
1.22711
 20
1.50939
 30
0.0
 40
0
 41
0
  0
VERTEX
  8
0
 10
1.22711
 20
1.54308
 30
0.0
 40
0
 41
0
  0
SEQEND
 8
0
  0
POLYLINE
  8
0
 62
     173
 66
     1
 10
0
 20
0
 30
0.0
 70
     1
 40
0
 41
0
  0
VERTEX
  8
0
 10
1.32552
 20
1.42279
 30
0.0
 40
0
 41
0
  0
VERTEX
  8
0
 10
1.38851
 20
1.42279
 30
0.0
 40
0
 41
0
  0
VERTEX
  8
0
 10
1.38851
 20
1.38911
 30
0.0
 40
0
 41
0
  0
VERTEX
  8
0
 10
1.32552
 20
1.38911
 30
0.0
 40
0
 41
0
  0
VERTEX
  8
0
 10
1.32552
 20
1.42279
 30
0.0
 40
0
 41
0
  0
SEQEND
 8
0
  0
POLYLINE
  8
0
 62
     173
 66
     1
 10
0
 20
0
 30
0.0
 70
     1
 40
0
 41
0
  0
VERTEX
  8
0
 10
1.32552
 20
1.54308
 30
0.0
 40
0
 41
0
  0
VERTEX
  8
0
 10
1.38851
 20
1.54308
 30
0.0
 40
0
 41
0
  0
VERTEX
  8
0
 10
1.38851
 20
1.50939
 30
0.0
 40
0
 41
0
  0
VERTEX
  8
0
 10
1.32552
 20
1.50939
 30
0.0
 40
0
 41
0
  0
VERTEX
  8
0
 10
1.32552
 20
1.54308
 30
0.0
 40
0
 41
0
  0
SEQEND
 8
0
  0
POLYLINE
  8
0
 62
     173
 66
     1
 10
0
 20
0
 30
0.0
 70
     1
 40
0
 41
0
  0
VERTEX
  8
0
 10
0.184028
 20
0.540907
 30
0.0
 40
0
 41
0
  0
VERTEX
  8
0
 10
0.184028
 20
0.545031
 30
0.0
 40
0
 41
0
  0
VERTEX
  8
0
 10
0.177137
 20
0.5574
 30
0.0
 40
0
 41
0
  0
VERTEX
  8
0
 10
0.162001
 20
0.562879
 30
0.0
 40
0
 41
0
  0
VERTEX
  8
0
 10
0.146864
 20
0.5574
 30
0.0
 40
0
 41
0
  0
VERTEX
  8
0
 10
0.140028
 20
0.545031
 30
0.0
 40
0
 41
0
  0
VERTEX
  8
0
 10
0.140028
 20
0.540907
 30
0.0
 40
0
 41
0
  0
VERTEX
  8
0
 10
0.140028
 20
0.536783
 30
0.0
 40
0
 41
0
  0
VERTEX
  8
0
 10
0.146864
 20
0.524414
 30
0.0
 40
0
 41
0
  0
VERTEX
  8
0
 10
0.162001
 20
0.518935
 30
0.0
 40
0
 41
0
  0
VERTEX
  8
0
 10
0.177137
 20
0.524414
 30
0.0
 40
0
 41
0
  0
VERTEX
  8
0
 10
0.184028
 20
0.536783
 30
0.0
 40
0
 41
0
  0
VERTEX
  8
0
 10
0.184028
 20
0.540907
 30
0.0
 40
0
 41
0
  0
SEQEND
 8
0
  0
POLYLINE
  8
0
 62
     173
 66
     1
 10
0
 20
0
 30
0.0
 70
     1
 40
0
 41
0
  0
VERTEX
  8
0
 10
0.11339
 20
0.885363
 30
0.0
 40
0
 41
0
  0
VERTEX
  8
0
 10
0.11339
 20
0.88954
 30
0.0
 40
0
 41
0
  0
VERTEX
  8
0
 10
0.1065
 20
0.90191
 30
0.0
 40
0
 41
0
  0
VERTEX
  8
0
 10
0.0913629
 20
0.907389
 30
0.0
 40
0
 41
0
  0
VERTEX
  8
0
 10
0.0762261
 20
0.90191
 30
0.0
 40
0
 41
0
  0
VERTEX
  8
0
 10
0.0693901
 20
0.88954
 30
0.0
 40
0
 41
0
  0
VERTEX
  8
0
 10
0.0693901
 20
0.885363
 30
0.0
 40
0
 41
0
  0
VERTEX
  8
0
 10
0.0693901
 20
0.881293
 30
0.0
 40
0
 41
0
  0
VERTEX
  8
0
 10
0.0762261
 20
0.868924
 30
0.0
 40
0
 41
0
  0
VERTEX
  8
0
 10
0.0913629
 20
0.86339
 30
0.0
 40
0
 41
0
  0
VERTEX
  8
0
 10
0.1065
 20
0.868924
 30
0.0
 40
0
 41
0
  0
VERTEX
  8
0
 10
0.11339
 20
0.881293
 30
0.0
 40
0
 41
0
  0
VERTEX
  8
0
 10
0.11339
 20
0.885363
 30
0.0
 40
0
 41
0
  0
SEQEND
 8
0
  0
POLYLINE
  8
0
 62
     173
 66
     1
 10
0
 20
0
 30
0.0
 70
     1
 40
0
 41
0
  0
VERTEX
  8
0
 10
0.197917
 20
1.38732
 30
0.0
 40
0
 41
0
  0
VERTEX
  8
0
 10
0.197917
 20
1.3915
 30
0.0
 40
0
 41
0
  0
VERTEX
  8
0
 10
0.191026
 20
1.40386
 30
0.0
 40
0
 41
0
  0
VERTEX
  8
0
 10
0.17589
 20
1.40935
 30
0.0
 40
0
 41
0
  0
VERTEX
  8
0
 10
0.160753
 20
1.40386
 30
0.0
 40
0
 41
0
  0
VERTEX
  8
0
 10
0.153917
 20
1.3915
 30
0.0
 40
0
 41
0
  0
VERTEX
  8
0
 10
0.153917
 20
1.38732
 30
0.0
 40
0
 41
0
  0
VERTEX
  8
0
 10
0.153917
 20
1.38325
 30
0.0
 40
0
 41
0
  0
VERTEX
  8
0
 10
0.160753
 20
1.37088
 30
0.0
 40
0
 41
0
  0
VERTEX
  8
0
 10
0.17589
 20
1.36534
 30
0.0
 40
0
 41
0
  0
VERTEX
  8
0
 10
0.191026
 20
1.37088
 30
0.0
 40
0
 41
0
  0
VERTEX
  8
0
 10
0.197917
 20
1.38325
 30
0.0
 40
0
 41
0
  0
VERTEX
  8
0
 10
0.197917
 20
1.38732
 30
0.0
 40
0
 41
0
  0
SEQEND
 8
0
  0
POLYLINE
  8
0
 62
     173
 66
     1
 10
0
 20
0
 30
0.0
 70
     1
 40
0
 41
0
  0
VERTEX
  8
0
 10
0.290582
 20
0.578287
 30
0.0
 40
0
 41
0
  0
VERTEX
  8
0
 10
0.290582
 20
0.582465
 30
0.0
 40
0
 41
0
  0
VERTEX
  8
0
 10
0.283692
 20
0.594835
 30
0.0
 40
0
 41
0
  0
VERTEX
  8
0
 10
0.268554
 20
0.600315
 30
0.0
 40
0
 41
0
  0
VERTEX
  8
0
 10
0.253418
 20
0.594835
 30
0.0
 40
0
 41
0
  0
VERTEX
  8
0
 10
0.246582
 20
0.582465
 30
0.0
 40
0
 41
0
  0
VERTEX
  8
0
 10
0.246582
 20
0.578287
 30
0.0
 40
0
 41
0
  0
VERTEX
  8
0
 10
0.246582
 20
0.574164
 30
0.0
 40
0
 41
0
  0
VERTEX
  8
0
 10
0.253418
 20
0.561794
 30
0.0
 40
0
 41
0
  0
VERTEX
  8
0
 10
0.268554
 20
0.556315
 30
0.0
 40
0
 41
0
  0
VERTEX
  8
0
 10
0.283692
 20
0.561794
 30
0.0
 40
0
 41
0
  0
VERTEX
  8
0
 10
0.290582
 20
0.574164
 30
0.0
 40
0
 41
0
  0
VERTEX
  8
0
 10
0.290582
 20
0.578287
 30
0.0
 40
0
 41
0
  0
SEQEND
 8
0
  0
POLYLINE
  8
0
 62
     173
 66
     1
 10
0
 20
0
 30
0.0
 70
     1
 40
0
 41
0
  0
VERTEX
  8
0
 10
0.414442
 20
0.117676
 30
0.0
 40
0
 41
0
  0
VERTEX
  8
0
 10
0.414442
 20
0.121799
 30
0.0
 40
0
 41
0
  0
VERTEX
  8
0
 10
0.407553
 20
0.134169
 30
0.0
 40
0
 41
0
  0
VERTEX
  8
0
 10
0.392415
 20
0.139649
 30
0.0
 40
0
 41
0
  0
VERTEX
  8
0
 10
0.377279
 20
0.134169
 30
0.0
 40
0
 41
0
  0
VERTEX
  8
0
 10
0.370443
 20
0.121799
 30
0.0
 40
0
 41
0
  0
VERTEX
  8
0
 10
0.370443
 20
0.117676
 30
0.0
 40
0
 41
0
  0
VERTEX
  8
0
 10
0.370443
 20
0.113553
 30
0.0
 40
0
 41
0
  0
VERTEX
  8
0
 10
0.377279
 20
0.101183
 30
0.0
 40
0
 41
0
  0
VERTEX
  8
0
 10
0.392415
 20
0.0957032
 30
0.0
 40
0
 41
0
  0
VERTEX
  8
0
 10
0.407553
 20
0.101183
 30
0.0
 40
0
 41
0
  0
VERTEX
  8
0
 10
0.414442
 20
0.113553
 30
0.0
 40
0
 41
0
  0
VERTEX
  8
0
 10
0.414442
 20
0.117676
 30
0.0
 40
0
 41
0
  0
SEQEND
 8
0
  0
POLYLINE
  8
0
 62
     173
 66
     1
 10
0
 20
0
 30
0.0
 70
     1
 40
0
 41
0
  0
VERTEX
  8
0
 10
0.341581
 20
0.176704
 30
0.0
 40
0
 41
0
  0
VERTEX
  8
0
 10
0.341581
 20
0.180881
 30
0.0
 40
0
 41
0
  0
VERTEX
  8
0
 10
0.33469
 20
0.193251
 30
0.0
 40
0
 41
0
  0
VERTEX
  8
0
 10
0.319553
 20
0.198731
 30
0.0
 40
0
 41
0
  0
VERTEX
  8
0
 10
0.304417
 20
0.193251
 30
0.0
 40
0
 41
0
  0
VERTEX
  8
0
 10
0.297581
 20
0.180881
 30
0.0
 40
0
 41
0
  0
VERTEX
  8
0
 10
0.297581
 20
0.176704
 30
0.0
 40
0
 41
0
  0
VERTEX
  8
0
 10
0.297581
 20
0.172581
 30
0.0
 40
0
 41
0
  0
VERTEX
  8
0
 10
0.304417
 20
0.160211
 30
0.0
 40
0
 41
0
  0
VERTEX
  8
0
 10
0.319553
 20
0.154731
 30
0.0
 40
0
 41
0
  0
VERTEX
  8
0
 10
0.33469
 20
0.160211
 30
0.0
 40
0
 41
0
  0
VERTEX
  8
0
 10
0.341581
 20
0.172581
 30
0.0
 40
0
 41
0
  0
VERTEX
  8
0
 10
0.341581
 20
0.176704
 30
0.0
 40
0
 41
0
  0
SEQEND
 8
0
  0
POLYLINE
  8
0
 62
     173
 66
     1
 10
0
 20
0
 30
0.0
 70
     1
 40
0
 41
0
  0
VERTEX
  8
0
 10
0.408583
 20
0.176704
 30
0.0
 40
0
 41
0
  0
VERTEX
  8
0
 10
0.408583
 20
0.180881
 30
0.0
 40
0
 41
0
  0
VERTEX
  8
0
 10
0.401693
 20
0.193251
 30
0.0
 40
0
 41
0
  0
VERTEX
  8
0
 10
0.386556
 20
0.198731
 30
0.0
 40
0
 41
0
  0
VERTEX
  8
0
 10
0.371419
 20
0.193251
 30
0.0
 40
0
 41
0
  0
VERTEX
  8
0
 10
0.364583
 20
0.180881
 30
0.0
 40
0
 41
0
  0
VERTEX
  8
0
 10
0.364583
 20
0.176704
 30
0.0
 40
0
 41
0
  0
VERTEX
  8
0
 10
0.364583
 20
0.172581
 30
0.0
 40
0
 41
0
  0
VERTEX
  8
0
 10
0.371419
 20
0.160211
 30
0.0
 40
0
 41
0
  0
VERTEX
  8
0
 10
0.386556
 20
0.154731
 30
0.0
 40
0
 41
0
  0
VERTEX
  8
0
 10
0.401693
 20
0.160211
 30
0.0
 40
0
 41
0
  0
VERTEX
  8
0
 10
0.408583
 20
0.172581
 30
0.0
 40
0
 41
0
  0
VERTEX
  8
0
 10
0.408583
 20
0.176704
 30
0.0
 40
0
 41
0
  0
SEQEND
 8
0
  0
POLYLINE
  8
0
 62
     173
 66
     1
 10
0
 20
0
 30
0.0
 70
     1
 40
0
 41
0
  0
VERTEX
  8
0
 10
0.444011
 20
0.92475
 30
0.0
 40
0
 41
0
  0
VERTEX
  8
0
 10
0.444011
 20
0.928928
 30
0.0
 40
0
 41
0
  0
VERTEX
  8
0
 10
0.437121
 20
0.941297
 30
0.0
 40
0
 41
0
  0
VERTEX
  8
0
 10
0.421983
 20
0.946778
 30
0.0
 40
0
 41
0
  0
VERTEX
  8
0
 10
0.406847
 20
0.941297
 30
0.0
 40
0
 41
0
  0
VERTEX
  8
0
 10
0.400011
 20
0.928928
 30
0.0
 40
0
 41
0
  0
VERTEX
  8
0
 10
0.400011
 20
0.92475
 30
0.0
 40
0
 41
0
  0
VERTEX
  8
0
 10
0.400011
 20
0.920628
 30
0.0
 40
0
 41
0
  0
VERTEX
  8
0
 10
0.406847
 20
0.908257
 30
0.0
 40
0
 41
0
  0
VERTEX
  8
0
 10
0.421983
 20
0.902778
 30
0.0
 40
0
 41
0
  0
VERTEX
  8
0
 10
0.437121
 20
0.908257
 30
0.0
 40
0
 41
0
  0
VERTEX
  8
0
 10
0.444011
 20
0.920628
 30
0.0
 40
0
 41
0
  0
VERTEX
  8
0
 10
0.444011
 20
0.92475
 30
0.0
 40
0
 41
0
  0
SEQEND
 8
0
  0
POLYLINE
  8
0
 62
     173
 66
     1
 10
0
 20
0
 30
0.0
 70
     1
 40
0
 41
0
  0
VERTEX
  8
0
 10
0.414442
 20
1.23969
 30
0.0
 40
0
 41
0
  0
VERTEX
  8
0
 10
0.414442
 20
1.24387
 30
0.0
 40
0
 41
0
  0
VERTEX
  8
0
 10
0.407553
 20
1.25624
 30
0.0
 40
0
 41
0
  0
VERTEX
  8
0
 10
0.392415
 20
1.26172
 30
0.0
 40
0
 41
0
  0
VERTEX
  8
0
 10
0.377279
 20
1.25624
 30
0.0
 40
0
 41
0
  0
VERTEX
  8
0
 10
0.370443
 20
1.24387
 30
0.0
 40
0
 41
0
  0
VERTEX
  8
0
 10
0.370443
 20
1.23969
 30
0.0
 40
0
 41
0
  0
VERTEX
  8
0
 10
0.370443
 20
1.23562
 30
0.0
 40
0
 41
0
  0
VERTEX
  8
0
 10
0.377279
 20
1.22325
 30
0.0
 40
0
 41
0
  0
VERTEX
  8
0
 10
0.392415
 20
1.21772
 30
0.0
 40
0
 41
0
  0
VERTEX
  8
0
 10
0.407553
 20
1.22325
 30
0.0
 40
0
 41
0
  0
VERTEX
  8
0
 10
0.414442
 20
1.23562
 30
0.0
 40
0
 41
0
  0
VERTEX
  8
0
 10
0.414442
 20
1.23969
 30
0.0
 40
0
 41
0
  0
SEQEND
 8
0
  0
POLYLINE
  8
0
 62
     173
 66
     1
 10
0
 20
0
 30
0.0
 70
     1
 40
0
 41
0
  0
VERTEX
  8
0
 10
0.414442
 20
1.45622
 30
0.0
 40
0
 41
0
  0
VERTEX
  8
0
 10
0.414442
 20
1.46039
 30
0.0
 40
0
 41
0
  0
VERTEX
  8
0
 10
0.407553
 20
1.47276
 30
0.0
 40
0
 41
0
  0
VERTEX
  8
0
 10
0.392415
 20
1.47825
 30
0.0
 40
0
 41
0
  0
VERTEX
  8
0
 10
0.377279
 20
1.47276
 30
0.0
 40
0
 41
0
  0
VERTEX
  8
0
 10
0.370443
 20
1.46039
 30
0.0
 40
0
 41
0
  0
VERTEX
  8
0
 10
0.370443
 20
1.45622
 30
0.0
 40
0
 41
0
  0
VERTEX
  8
0
 10
0.370443
 20
1.45215
 30
0.0
 40
0
 41
0
  0
VERTEX
  8
0
 10
0.377279
 20
1.43978
 30
0.0
 40
0
 41
0
  0
VERTEX
  8
0
 10
0.392415
 20
1.43425
 30
0.0
 40
0
 41
0
  0
VERTEX
  8
0
 10
0.407553
 20
1.43978
 30
0.0
 40
0
 41
0
  0
VERTEX
  8
0
 10
0.414442
 20
1.45215
 30
0.0
 40
0
 41
0
  0
VERTEX
  8
0
 10
0.414442
 20
1.45622
 30
0.0
 40
0
 41
0
  0
SEQEND
 8
0
  0
POLYLINE
  8
0
 62
     173
 66
     1
 10
0
 20
0
 30
0.0
 70
     1
 40
0
 41
0
  0
VERTEX
  8
0
 10
0.424317
 20
1.66292
 30
0.0
 40
0
 41
0
  0
VERTEX
  8
0
 10
0.424317
 20
1.6671
 30
0.0
 40
0
 41
0
  0
VERTEX
  8
0
 10
0.417426
 20
1.67947
 30
0.0
 40
0
 41
0
  0
VERTEX
  8
0
 10
0.402289
 20
1.68494
 30
0.0
 40
0
 41
0
  0
VERTEX
  8
0
 10
0.387153
 20
1.67947
 30
0.0
 40
0
 41
0
  0
VERTEX
  8
0
 10
0.380317
 20
1.6671
 30
0.0
 40
0
 41
0
  0
VERTEX
  8
0
 10
0.380317
 20
1.66292
 30
0.0
 40
0
 41
0
  0
VERTEX
  8
0
 10
0.380317
 20
1.65881
 30
0.0
 40
0
 41
0
  0
VERTEX
  8
0
 10
0.387153
 20
1.64643
 30
0.0
 40
0
 41
0
  0
VERTEX
  8
0
 10
0.402289
 20
1.64094
 30
0.0
 40
0
 41
0
  0
VERTEX
  8
0
 10
0.417426
 20
1.64643
 30
0.0
 40
0
 41
0
  0
VERTEX
  8
0
 10
0.424317
 20
1.65881
 30
0.0
 40
0
 41
0
  0
VERTEX
  8
0
 10
0.424317
 20
1.66292
 30
0.0
 40
0
 41
0
  0
SEQEND
 8
0
  0
POLYLINE
  8
0
 62
     173
 66
     1
 10
0
 20
0
 30
0.0
 70
     1
 40
0
 41
0
  0
VERTEX
  8
0
 10
0.531467
 20
0.137316
 30
0.0
 40
0
 41
0
  0
VERTEX
  8
0
 10
0.531467
 20
0.141493
 30
0.0
 40
0
 41
0
  0
VERTEX
  8
0
 10
0.524576
 20
0.153863
 30
0.0
 40
0
 41
0
  0
VERTEX
  8
0
 10
0.50944
 20
0.159343
 30
0.0
 40
0
 41
0
  0
VERTEX
  8
0
 10
0.494303
 20
0.153863
 30
0.0
 40
0
 41
0
  0
VERTEX
  8
0
 10
0.487468
 20
0.141493
 30
0.0
 40
0
 41
0
  0
VERTEX
  8
0
 10
0.487468
 20
0.137316
 30
0.0
 40
0
 41
0
  0
VERTEX
  8
0
 10
0.487468
 20
0.133247
 30
0.0
 40
0
 41
0
  0
VERTEX
  8
0
 10
0.494303
 20
0.120877
 30
0.0
 40
0
 41
0
  0
VERTEX
  8
0
 10
0.50944
 20
0.115343
 30
0.0
 40
0
 41
0
  0
VERTEX
  8
0
 10
0.524576
 20
0.120877
 30
0.0
 40
0
 41
0
  0
VERTEX
  8
0
 10
0.531467
 20
0.133247
 30
0.0
 40
0
 41
0
  0
VERTEX
  8
0
 10
0.531467
 20
0.137316
 30
0.0
 40
0
 41
0
  0
SEQEND
 8
0
  0
POLYLINE
  8
0
 62
     173
 66
     1
 10
0
 20
0
 30
0.0
 70
     1
 40
0
 41
0
  0
VERTEX
  8
0
 10
0.57194
 20
0.294814
 30
0.0
 40
0
 41
0
  0
VERTEX
  8
0
 10
0.57194
 20
0.29899
 30
0.0
 40
0
 41
0
  0
VERTEX
  8
0
 10
0.56505
 20
0.311361
 30
0.0
 40
0
 41
0
  0
VERTEX
  8
0
 10
0.549914
 20
0.31684
 30
0.0
 40
0
 41
0
  0
VERTEX
  8
0
 10
0.534776
 20
0.311361
 30
0.0
 40
0
 41
0
  0
VERTEX
  8
0
 10
0.52794
 20
0.29899
 30
0.0
 40
0
 41
0
  0
VERTEX
  8
0
 10
0.52794
 20
0.294814
 30
0.0
 40
0
 41
0
  0
VERTEX
  8
0
 10
0.52794
 20
0.29069
 30
0.0
 40
0
 41
0
  0
VERTEX
  8
0
 10
0.534776
 20
0.278321
 30
0.0
 40
0
 41
0
  0
VERTEX
  8
0
 10
0.549914
 20
0.27284
 30
0.0
 40
0
 41
0
  0
VERTEX
  8
0
 10
0.56505
 20
0.278321
 30
0.0
 40
0
 41
0
  0
VERTEX
  8
0
 10
0.57194
 20
0.29069
 30
0.0
 40
0
 41
0
  0
VERTEX
  8
0
 10
0.57194
 20
0.294814
 30
0.0
 40
0
 41
0
  0
SEQEND
 8
0
  0
POLYLINE
  8
0
 62
     173
 66
     1
 10
0
 20
0
 30
0.0
 70
     1
 40
0
 41
0
  0
VERTEX
  8
0
 10
0.57194
 20
0.414008
 30
0.0
 40
0
 41
0
  0
VERTEX
  8
0
 10
0.57194
 20
0.418186
 30
0.0
 40
0
 41
0
  0
VERTEX
  8
0
 10
0.56505
 20
0.430556
 30
0.0
 40
0
 41
0
  0
VERTEX
  8
0
 10
0.549914
 20
0.436035
 30
0.0
 40
0
 41
0
  0
VERTEX
  8
0
 10
0.534776
 20
0.430556
 30
0.0
 40
0
 41
0
  0
VERTEX
  8
0
 10
0.52794
 20
0.418186
 30
0.0
 40
0
 41
0
  0
VERTEX
  8
0
 10
0.52794
 20
0.414008
 30
0.0
 40
0
 41
0
  0
VERTEX
  8
0
 10
0.52794
 20
0.409939
 30
0.0
 40
0
 41
0
  0
VERTEX
  8
0
 10
0.534776
 20
0.397569
 30
0.0
 40
0
 41
0
  0
VERTEX
  8
0
 10
0.549914
 20
0.392036
 30
0.0
 40
0
 41
0
  0
VERTEX
  8
0
 10
0.56505
 20
0.397569
 30
0.0
 40
0
 41
0
  0
VERTEX
  8
0
 10
0.57194
 20
0.409939
 30
0.0
 40
0
 41
0
  0
VERTEX
  8
0
 10
0.57194
 20
0.414008
 30
0.0
 40
0
 41
0
  0
SEQEND
 8
0
  0
POLYLINE
  8
0
 62
     173
 66
     1
 10
0
 20
0
 30
0.0
 70
     1
 40
0
 41
0
  0
VERTEX
  8
0
 10
0.473525
 20
0.511339
 30
0.0
 40
0
 41
0
  0
VERTEX
  8
0
 10
0.473525
 20
0.515517
 30
0.0
 40
0
 41
0
  0
VERTEX
  8
0
 10
0.466635
 20
0.527886
 30
0.0
 40
0
 41
0
  0
VERTEX
  8
0
 10
0.451497
 20
0.533365
 30
0.0
 40
0
 41
0
  0
VERTEX
  8
0
 10
0.436361
 20
0.527886
 30
0.0
 40
0
 41
0
  0
VERTEX
  8
0
 10
0.429525
 20
0.515517
 30
0.0
 40
0
 41
0
  0
VERTEX
  8
0
 10
0.429525
 20
0.511339
 30
0.0
 40
0
 41
0
  0
VERTEX
  8
0
 10
0.429525
 20
0.507269
 30
0.0
 40
0
 41
0
  0
VERTEX
  8
0
 10
0.436361
 20
0.4949
 30
0.0
 40
0
 41
0
  0
VERTEX
  8
0
 10
0.451497
 20
0.489367
 30
0.0
 40
0
 41
0
  0
VERTEX
  8
0
 10
0.466635
 20
0.4949
 30
0.0
 40
0
 41
0
  0
VERTEX
  8
0
 10
0.473525
 20
0.507269
 30
0.0
 40
0
 41
0
  0
VERTEX
  8
0
 10
0.473525
 20
0.511339
 30
0.0
 40
0
 41
0
  0
SEQEND
 8
0
  0
POLYLINE
  8
0
 62
     173
 66
     1
 10
0
 20
0
 30
0.0
 70
     1
 40
0
 41
0
  0
VERTEX
  8
0
 10
0.46365
 20
0.619629
 30
0.0
 40
0
 41
0
  0
VERTEX
  8
0
 10
0.46365
 20
0.623807
 30
0.0
 40
0
 41
0
  0
VERTEX
  8
0
 10
0.45676
 20
0.636176
 30
0.0
 40
0
 41
0
  0
VERTEX
  8
0
 10
0.441624
 20
0.641656
 30
0.0
 40
0
 41
0
  0
VERTEX
  8
0
 10
0.426486
 20
0.636176
 30
0.0
 40
0
 41
0
  0
VERTEX
  8
0
 10
0.41965
 20
0.623807
 30
0.0
 40
0
 41
0
  0
VERTEX
  8
0
 10
0.41965
 20
0.619629
 30
0.0
 40
0
 41
0
  0
VERTEX
  8
0
 10
0.41965
 20
0.615506
 30
0.0
 40
0
 41
0
  0
VERTEX
  8
0
 10
0.426486
 20
0.603136
 30
0.0
 40
0
 41
0
  0
VERTEX
  8
0
 10
0.441624
 20
0.597657
 30
0.0
 40
0
 41
0
  0
VERTEX
  8
0
 10
0.45676
 20
0.603136
 30
0.0
 40
0
 41
0
  0
VERTEX
  8
0
 10
0.46365
 20
0.615506
 30
0.0
 40
0
 41
0
  0
VERTEX
  8
0
 10
0.46365
 20
0.619629
 30
0.0
 40
0
 41
0
  0
SEQEND
 8
0
  0
POLYLINE
  8
0
 62
     173
 66
     1
 10
0
 20
0
 30
0.0
 70
     1
 40
0
 41
0
  0
VERTEX
  8
0
 10
0.512858
 20
1.54482
 30
0.0
 40
0
 41
0
  0
VERTEX
  8
0
 10
0.512858
 20
1.54899
 30
0.0
 40
0
 41
0
  0
VERTEX
  8
0
 10
0.505968
 20
1.56136
 30
0.0
 40
0
 41
0
  0
VERTEX
  8
0
 10
0.490831
 20
1.56685
 30
0.0
 40
0
 41
0
  0
VERTEX
  8
0
 10
0.475694
 20
1.56136
 30
0.0
 40
0
 41
0
  0
VERTEX
  8
0
 10
0.468858
 20
1.54899
 30
0.0
 40
0
 41
0
  0
VERTEX
  8
0
 10
0.468858
 20
1.54482
 30
0.0
 40
0
 41
0
  0
VERTEX
  8
0
 10
0.468858
 20
1.54069
 30
0.0
 40
0
 41
0
  0
VERTEX
  8
0
 10
0.475694
 20
1.52832
 30
0.0
 40
0
 41
0
  0
VERTEX
  8
0
 10
0.490831
 20
1.52285
 30
0.0
 40
0
 41
0
  0
VERTEX
  8
0
 10
0.505968
 20
1.52832
 30
0.0
 40
0
 41
0
  0
VERTEX
  8
0
 10
0.512858
 20
1.54069
 30
0.0
 40
0
 41
0
  0
VERTEX
  8
0
 10
0.512858
 20
1.54482
 30
0.0
 40
0
 41
0
  0
SEQEND
 8
0
  0
POLYLINE
  8
0
 62
     173
 66
     1
 10
0
 20
0
 30
0.0
 70
     1
 40
0
 41
0
  0
VERTEX
  8
0
 10
0.709744
 20
0.117676
 30
0.0
 40
0
 41
0
  0
VERTEX
  8
0
 10
0.709744
 20
0.121799
 30
0.0
 40
0
 41
0
  0
VERTEX
  8
0
 10
0.702854
 20
0.134169
 30
0.0
 40
0
 41
0
  0
VERTEX
  8
0
 10
0.687717
 20
0.139649
 30
0.0
 40
0
 41
0
  0
VERTEX
  8
0
 10
0.672581
 20
0.134169
 30
0.0
 40
0
 41
0
  0
VERTEX
  8
0
 10
0.665744
 20
0.121799
 30
0.0
 40
0
 41
0
  0
VERTEX
  8
0
 10
0.665744
 20
0.117676
 30
0.0
 40
0
 41
0
  0
VERTEX
  8
0
 10
0.665744
 20
0.113553
 30
0.0
 40
0
 41
0
  0
VERTEX
  8
0
 10
0.672581
 20
0.101183
 30
0.0
 40
0
 41
0
  0
VERTEX
  8
0
 10
0.687717
 20
0.0957032
 30
0.0
 40
0
 41
0
  0
VERTEX
  8
0
 10
0.702854
 20
0.101183
 30
0.0
 40
0
 41
0
  0
VERTEX
  8
0
 10
0.709744
 20
0.113553
 30
0.0
 40
0
 41
0
  0
VERTEX
  8
0
 10
0.709744
 20
0.117676
 30
0.0
 40
0
 41
0
  0
SEQEND
 8
0
  0
POLYLINE
  8
0
 62
     173
 66
     1
 10
0
 20
0
 30
0.0
 70
     1
 40
0
 41
0
  0
VERTEX
  8
0
 10
0.630968
 20
0.294814
 30
0.0
 40
0
 41
0
  0
VERTEX
  8
0
 10
0.630968
 20
0.29899
 30
0.0
 40
0
 41
0
  0
VERTEX
  8
0
 10
0.624078
 20
0.311361
 30
0.0
 40
0
 41
0
  0
VERTEX
  8
0
 10
0.608942
 20
0.31684
 30
0.0
 40
0
 41
0
  0
VERTEX
  8
0
 10
0.593804
 20
0.311361
 30
0.0
 40
0
 41
0
  0
VERTEX
  8
0
 10
0.586968
 20
0.29899
 30
0.0
 40
0
 41
0
  0
VERTEX
  8
0
 10
0.586968
 20
0.294814
 30
0.0
 40
0
 41
0
  0
VERTEX
  8
0
 10
0.586968
 20
0.29069
 30
0.0
 40
0
 41
0
  0
VERTEX
  8
0
 10
0.593804
 20
0.278321
 30
0.0
 40
0
 41
0
  0
VERTEX
  8
0
 10
0.608942
 20
0.27284
 30
0.0
 40
0
 41
0
  0
VERTEX
  8
0
 10
0.624078
 20
0.278321
 30
0.0
 40
0
 41
0
  0
VERTEX
  8
0
 10
0.630968
 20
0.29069
 30
0.0
 40
0
 41
0
  0
VERTEX
  8
0
 10
0.630968
 20
0.294814
 30
0.0
 40
0
 41
0
  0
SEQEND
 8
0
  0
POLYLINE
  8
0
 62
     173
 66
     1
 10
0
 20
0
 30
0.0
 70
     1
 40
0
 41
0
  0
VERTEX
  8
0
 10
0.699869
 20
0.196397
 30
0.0
 40
0
 41
0
  0
VERTEX
  8
0
 10
0.699869
 20
0.200575
 30
0.0
 40
0
 41
0
  0
VERTEX
  8
0
 10
0.692979
 20
0.212944
 30
0.0
 40
0
 41
0
  0
VERTEX
  8
0
 10
0.677843
 20
0.218425
 30
0.0
 40
0
 41
0
  0
VERTEX
  8
0
 10
0.662706
 20
0.212944
 30
0.0
 40
0
 41
0
  0
VERTEX
  8
0
 10
0.655871
 20
0.200575
 30
0.0
 40
0
 41
0
  0
VERTEX
  8
0
 10
0.655871
 20
0.196397
 30
0.0
 40
0
 41
0
  0
VERTEX
  8
0
 10
0.655871
 20
0.192275
 30
0.0
 40
0
 41
0
  0
VERTEX
  8
0
 10
0.662706
 20
0.179904
 30
0.0
 40
0
 41
0
  0
VERTEX
  8
0
 10
0.677843
 20
0.174425
 30
0.0
 40
0
 41
0
  0
VERTEX
  8
0
 10
0.692979
 20
0.179904
 30
0.0
 40
0
 41
0
  0
VERTEX
  8
0
 10
0.699869
 20
0.192275
 30
0.0
 40
0
 41
0
  0
VERTEX
  8
0
 10
0.699869
 20
0.196397
 30
0.0
 40
0
 41
0
  0
SEQEND
 8
0
  0
POLYLINE
  8
0
 62
     173
 66
     1
 10
0
 20
0
 30
0.0
 70
     1
 40
0
 41
0
  0
VERTEX
  8
0
 10
0.651747
 20
0.205132
 30
0.0
 40
0
 41
0
  0
VERTEX
  8
0
 10
0.651747
 20
0.20931
 30
0.0
 40
0
 41
0
  0
VERTEX
  8
0
 10
0.644857
 20
0.221679
 30
0.0
 40
0
 41
0
  0
VERTEX
  8
0
 10
0.629719
 20
0.22716
 30
0.0
 40
0
 41
0
  0
VERTEX
  8
0
 10
0.614583
 20
0.221679
 30
0.0
 40
0
 41
0
  0
VERTEX
  8
0
 10
0.607747
 20
0.20931
 30
0.0
 40
0
 41
0
  0
VERTEX
  8
0
 10
0.607747
 20
0.205132
 30
0.0
 40
0
 41
0
  0
VERTEX
  8
0
 10
0.607747
 20
0.201064
 30
0.0
 40
0
 41
0
  0
VERTEX
  8
0
 10
0.614583
 20
0.188693
 30
0.0
 40
0
 41
0
  0
VERTEX
  8
0
 10
0.629719
 20
0.18316
 30
0.0
 40
0
 41
0
  0
VERTEX
  8
0
 10
0.644857
 20
0.188693
 30
0.0
 40
0
 41
0
  0
VERTEX
  8
0
 10
0.651747
 20
0.201064
 30
0.0
 40
0
 41
0
  0
VERTEX
  8
0
 10
0.651747
 20
0.205132
 30
0.0
 40
0
 41
0
  0
SEQEND
 8
0
  0
POLYLINE
  8
0
 62
     173
 66
     1
 10
0
 20
0
 30
0.0
 70
     1
 40
0
 41
0
  0
VERTEX
  8
0
 10
0.591635
 20
0.885363
 30
0.0
 40
0
 41
0
  0
VERTEX
  8
0
 10
0.591635
 20
0.88954
 30
0.0
 40
0
 41
0
  0
VERTEX
  8
0
 10
0.584744
 20
0.90191
 30
0.0
 40
0
 41
0
  0
VERTEX
  8
0
 10
0.569607
 20
0.907389
 30
0.0
 40
0
 41
0
  0
VERTEX
  8
0
 10
0.554471
 20
0.90191
 30
0.0
 40
0
 41
0
  0
VERTEX
  8
0
 10
0.547635
 20
0.88954
 30
0.0
 40
0
 41
0
  0
VERTEX
  8
0
 10
0.547635
 20
0.885363
 30
0.0
 40
0
 41
0
  0
VERTEX
  8
0
 10
0.547635
 20
0.881293
 30
0.0
 40
0
 41
0
  0
VERTEX
  8
0
 10
0.554471
 20
0.868924
 30
0.0
 40
0
 41
0
  0
VERTEX
  8
0
 10
0.569607
 20
0.86339
 30
0.0
 40
0
 41
0
  0
VERTEX
  8
0
 10
0.584744
 20
0.868924
 30
0.0
 40
0
 41
0
  0
VERTEX
  8
0
 10
0.591635
 20
0.881293
 30
0.0
 40
0
 41
0
  0
VERTEX
  8
0
 10
0.591635
 20
0.885363
 30
0.0
 40
0
 41
0
  0
SEQEND
 8
0
  0
POLYLINE
  8
0
 62
     173
 66
     1
 10
0
 20
0
 30
0.0
 70
     1
 40
0
 41
0
  0
VERTEX
  8
0
 10
0.705675
 20
0.885363
 30
0.0
 40
0
 41
0
  0
VERTEX
  8
0
 10
0.705675
 20
0.88954
 30
0.0
 40
0
 41
0
  0
VERTEX
  8
0
 10
0.698785
 20
0.90191
 30
0.0
 40
0
 41
0
  0
VERTEX
  8
0
 10
0.683649
 20
0.907389
 30
0.0
 40
0
 41
0
  0
VERTEX
  8
0
 10
0.668511
 20
0.90191
 30
0.0
 40
0
 41
0
  0
VERTEX
  8
0
 10
0.661675
 20
0.88954
 30
0.0
 40
0
 41
0
  0
VERTEX
  8
0
 10
0.661675
 20
0.885363
 30
0.0
 40
0
 41
0
  0
VERTEX
  8
0
 10
0.661675
 20
0.881293
 30
0.0
 40
0
 41
0
  0
VERTEX
  8
0
 10
0.668511
 20
0.868924
 30
0.0
 40
0
 41
0
  0
VERTEX
  8
0
 10
0.683649
 20
0.86339
 30
0.0
 40
0
 41
0
  0
VERTEX
  8
0
 10
0.698785
 20
0.868924
 30
0.0
 40
0
 41
0
  0
VERTEX
  8
0
 10
0.705675
 20
0.881293
 30
0.0
 40
0
 41
0
  0
VERTEX
  8
0
 10
0.705675
 20
0.885363
 30
0.0
 40
0
 41
0
  0
SEQEND
 8
0
  0
POLYLINE
  8
0
 62
     173
 66
     1
 10
0
 20
0
 30
0.0
 70
     1
 40
0
 41
0
  0
VERTEX
  8
0
 10
0.590983
 20
1.44575
 30
0.0
 40
0
 41
0
  0
VERTEX
  8
0
 10
0.590983
 20
1.44993
 30
0.0
 40
0
 41
0
  0
VERTEX
  8
0
 10
0.584093
 20
1.46229
 30
0.0
 40
0
 41
0
  0
VERTEX
  8
0
 10
0.568956
 20
1.46778
 30
0.0
 40
0
 41
0
  0
VERTEX
  8
0
 10
0.553819
 20
1.46229
 30
0.0
 40
0
 41
0
  0
VERTEX
  8
0
 10
0.546983
 20
1.44993
 30
0.0
 40
0
 41
0
  0
VERTEX
  8
0
 10
0.546983
 20
1.44575
 30
0.0
 40
0
 41
0
  0
VERTEX
  8
0
 10
0.546983
 20
1.44162
 30
0.0
 40
0
 41
0
  0
VERTEX
  8
0
 10
0.553819
 20
1.42925
 30
0.0
 40
0
 41
0
  0
VERTEX
  8
0
 10
0.568956
 20
1.42378
 30
0.0
 40
0
 41
0
  0
VERTEX
  8
0
 10
0.584093
 20
1.42925
 30
0.0
 40
0
 41
0
  0
VERTEX
  8
0
 10
0.590983
 20
1.44162
 30
0.0
 40
0
 41
0
  0
VERTEX
  8
0
 10
0.590983
 20
1.44575
 30
0.0
 40
0
 41
0
  0
SEQEND
 8
0
  0
POLYLINE
  8
0
 62
     173
 66
     1
 10
0
 20
0
 30
0.0
 70
     1
 40
0
 41
0
  0
VERTEX
  8
0
 10
0.699869
 20
1.39139
 30
0.0
 40
0
 41
0
  0
VERTEX
  8
0
 10
0.699869
 20
1.39556
 30
0.0
 40
0
 41
0
  0
VERTEX
  8
0
 10
0.692979
 20
1.40793
 30
0.0
 40
0
 41
0
  0
VERTEX
  8
0
 10
0.677843
 20
1.41342
 30
0.0
 40
0
 41
0
  0
VERTEX
  8
0
 10
0.662706
 20
1.40793
 30
0.0
 40
0
 41
0
  0
VERTEX
  8
0
 10
0.655871
 20
1.39556
 30
0.0
 40
0
 41
0
  0
VERTEX
  8
0
 10
0.655871
 20
1.39139
 30
0.0
 40
0
 41
0
  0
VERTEX
  8
0
 10
0.655871
 20
1.38732
 30
0.0
 40
0
 41
0
  0
VERTEX
  8
0
 10
0.662706
 20
1.37495
 30
0.0
 40
0
 41
0
  0
VERTEX
  8
0
 10
0.677843
 20
1.36941
 30
0.0
 40
0
 41
0
  0
VERTEX
  8
0
 10
0.692979
 20
1.37495
 30
0.0
 40
0
 41
0
  0
VERTEX
  8
0
 10
0.699869
 20
1.38732
 30
0.0
 40
0
 41
0
  0
VERTEX
  8
0
 10
0.699869
 20
1.39139
 30
0.0
 40
0
 41
0
  0
SEQEND
 8
0
  0
POLYLINE
  8
0
 62
     173
 66
     1
 10
0
 20
0
 30
0.0
 70
     1
 40
0
 41
0
  0
VERTEX
  8
0
 10
0.749078
 20
0.196397
 30
0.0
 40
0
 41
0
  0
VERTEX
  8
0
 10
0.749078
 20
0.200575
 30
0.0
 40
0
 41
0
  0
VERTEX
  8
0
 10
0.742188
 20
0.212944
 30
0.0
 40
0
 41
0
  0
VERTEX
  8
0
 10
0.727051
 20
0.218425
 30
0.0
 40
0
 41
0
  0
VERTEX
  8
0
 10
0.711914
 20
0.212944
 30
0.0
 40
0
 41
0
  0
VERTEX
  8
0
 10
0.705078
 20
0.200575
 30
0.0
 40
0
 41
0
  0
VERTEX
  8
0
 10
0.705078
 20
0.196397
 30
0.0
 40
0
 41
0
  0
VERTEX
  8
0
 10
0.705078
 20
0.192275
 30
0.0
 40
0
 41
0
  0
VERTEX
  8
0
 10
0.711914
 20
0.179904
 30
0.0
 40
0
 41
0
  0
VERTEX
  8
0
 10
0.727051
 20
0.174425
 30
0.0
 40
0
 41
0
  0
VERTEX
  8
0
 10
0.742188
 20
0.179904
 30
0.0
 40
0
 41
0
  0
VERTEX
  8
0
 10
0.749078
 20
0.192275
 30
0.0
 40
0
 41
0
  0
VERTEX
  8
0
 10
0.749078
 20
0.196397
 30
0.0
 40
0
 41
0
  0
SEQEND
 8
0
  0
POLYLINE
  8
0
 62
     173
 66
     1
 10
0
 20
0
 30
0.0
 70
     1
 40
0
 41
0
  0
VERTEX
  8
0
 10
0.817979
 20
0.186632
 30
0.0
 40
0
 41
0
  0
VERTEX
  8
0
 10
0.817979
 20
0.19081
 30
0.0
 40
0
 41
0
  0
VERTEX
  8
0
 10
0.811089
 20
0.203179
 30
0.0
 40
0
 41
0
  0
VERTEX
  8
0
 10
0.795953
 20
0.208658
 30
0.0
 40
0
 41
0
  0
VERTEX
  8
0
 10
0.780817
 20
0.203179
 30
0.0
 40
0
 41
0
  0
VERTEX
  8
0
 10
0.773981
 20
0.19081
 30
0.0
 40
0
 41
0
  0
VERTEX
  8
0
 10
0.773981
 20
0.186632
 30
0.0
 40
0
 41
0
  0
VERTEX
  8
0
 10
0.773981
 20
0.182508
 30
0.0
 40
0
 41
0
  0
VERTEX
  8
0
 10
0.780817
 20
0.170139
 30
0.0
 40
0
 41
0
  0
VERTEX
  8
0
 10
0.795953
 20
0.16466
 30
0.0
 40
0
 41
0
  0
VERTEX
  8
0
 10
0.811089
 20
0.170139
 30
0.0
 40
0
 41
0
  0
VERTEX
  8
0
 10
0.817979
 20
0.182508
 30
0.0
 40
0
 41
0
  0
VERTEX
  8
0
 10
0.817979
 20
0.186632
 30
0.0
 40
0
 41
0
  0
SEQEND
 8
0
  0
POLYLINE
  8
0
 62
     173
 66
     1
 10
0
 20
0
 30
0.0
 70
     1
 40
0
 41
0
  0
VERTEX
  8
0
 10
0.729438
 20
0.304688
 30
0.0
 40
0
 41
0
  0
VERTEX
  8
0
 10
0.729438
 20
0.308811
 30
0.0
 40
0
 41
0
  0
VERTEX
  8
0
 10
0.722547
 20
0.321181
 30
0.0
 40
0
 41
0
  0
VERTEX
  8
0
 10
0.707411
 20
0.32666
 30
0.0
 40
0
 41
0
  0
VERTEX
  8
0
 10
0.692275
 20
0.321181
 30
0.0
 40
0
 41
0
  0
VERTEX
  8
0
 10
0.685439
 20
0.308811
 30
0.0
 40
0
 41
0
  0
VERTEX
  8
0
 10
0.685439
 20
0.304688
 30
0.0
 40
0
 41
0
  0
VERTEX
  8
0
 10
0.685439
 20
0.300564
 30
0.0
 40
0
 41
0
  0
VERTEX
  8
0
 10
0.692275
 20
0.288194
 30
0.0
 40
0
 41
0
  0
VERTEX
  8
0
 10
0.707411
 20
0.282715
 30
0.0
 40
0
 41
0
  0
VERTEX
  8
0
 10
0.722547
 20
0.288194
 30
0.0
 40
0
 41
0
  0
VERTEX
  8
0
 10
0.729438
 20
0.300564
 30
0.0
 40
0
 41
0
  0
VERTEX
  8
0
 10
0.729438
 20
0.304688
 30
0.0
 40
0
 41
0
  0
SEQEND
 8
0
  0
POLYLINE
  8
0
 62
     173
 66
     1
 10
0
 20
0
 30
0.0
 70
     1
 40
0
 41
0
  0
VERTEX
  8
0
 10
0.749078
 20
0.422797
 30
0.0
 40
0
 41
0
  0
VERTEX
  8
0
 10
0.749078
 20
0.426921
 30
0.0
 40
0
 41
0
  0
VERTEX
  8
0
 10
0.742188
 20
0.43929
 30
0.0
 40
0
 41
0
  0
VERTEX
  8
0
 10
0.727051
 20
0.444769
 30
0.0
 40
0
 41
0
  0
VERTEX
  8
0
 10
0.711914
 20
0.43929
 30
0.0
 40
0
 41
0
  0
VERTEX
  8
0
 10
0.705078
 20
0.426921
 30
0.0
 40
0
 41
0
  0
VERTEX
  8
0
 10
0.705078
 20
0.422797
 30
0.0
 40
0
 41
0
  0
VERTEX
  8
0
 10
0.705078
 20
0.418674
 30
0.0
 40
0
 41
0
  0
VERTEX
  8
0
 10
0.711914
 20
0.406304
 30
0.0
 40
0
 41
0
  0
VERTEX
  8
0
 10
0.727051
 20
0.400825
 30
0.0
 40
0
 41
0
  0
VERTEX
  8
0
 10
0.742188
 20
0.406304
 30
0.0
 40
0
 41
0
  0
VERTEX
  8
0
 10
0.749078
 20
0.418674
 30
0.0
 40
0
 41
0
  0
VERTEX
  8
0
 10
0.749078
 20
0.422797
 30
0.0
 40
0
 41
0
  0
SEQEND
 8
0
  0
POLYLINE
  8
0
 62
     173
 66
     1
 10
0
 20
0
 30
0.0
 70
     1
 40
0
 41
0
  0
VERTEX
  8
0
 10
0.739258
 20
0.363715
 30
0.0
 40
0
 41
0
  0
VERTEX
  8
0
 10
0.739258
 20
0.367893
 30
0.0
 40
0
 41
0
  0
VERTEX
  8
0
 10
0.732368
 20
0.380263
 30
0.0
 40
0
 41
0
  0
VERTEX
  8
0
 10
0.717231
 20
0.385742
 30
0.0
 40
0
 41
0
  0
VERTEX
  8
0
 10
0.702094
 20
0.380263
 30
0.0
 40
0
 41
0
  0
VERTEX
  8
0
 10
0.695258
 20
0.367893
 30
0.0
 40
0
 41
0
  0
VERTEX
  8
0
 10
0.695258
 20
0.363715
 30
0.0
 40
0
 41
0
  0
VERTEX
  8
0
 10
0.695258
 20
0.359592
 30
0.0
 40
0
 41
0
  0
VERTEX
  8
0
 10
0.702094
 20
0.347222
 30
0.0
 40
0
 41
0
  0
VERTEX
  8
0
 10
0.717231
 20
0.341743
 30
0.0
 40
0
 41
0
  0
VERTEX
  8
0
 10
0.732368
 20
0.347222
 30
0.0
 40
0
 41
0
  0
VERTEX
  8
0
 10
0.739258
 20
0.359592
 30
0.0
 40
0
 41
0
  0
VERTEX
  8
0
 10
0.739258
 20
0.363715
 30
0.0
 40
0
 41
0
  0
SEQEND
 8
0
  0
POLYLINE
  8
0
 62
     173
 66
     1
 10
0
 20
0
 30
0.0
 70
     1
 40
0
 41
0
  0
VERTEX
  8
0
 10
0.739258
 20
0.668837
 30
0.0
 40
0
 41
0
  0
VERTEX
  8
0
 10
0.739258
 20
0.673014
 30
0.0
 40
0
 41
0
  0
VERTEX
  8
0
 10
0.732368
 20
0.685385
 30
0.0
 40
0
 41
0
  0
VERTEX
  8
0
 10
0.717231
 20
0.690864
 30
0.0
 40
0
 41
0
  0
VERTEX
  8
0
 10
0.702094
 20
0.685385
 30
0.0
 40
0
 41
0
  0
VERTEX
  8
0
 10
0.695258
 20
0.673014
 30
0.0
 40
0
 41
0
  0
VERTEX
  8
0
 10
0.695258
 20
0.668837
 30
0.0
 40
0
 41
0
  0
VERTEX
  8
0
 10
0.695258
 20
0.664714
 30
0.0
 40
0
 41
0
  0
VERTEX
  8
0
 10
0.702094
 20
0.652344
 30
0.0
 40
0
 41
0
  0
VERTEX
  8
0
 10
0.717231
 20
0.646864
 30
0.0
 40
0
 41
0
  0
VERTEX
  8
0
 10
0.732368
 20
0.652344
 30
0.0
 40
0
 41
0
  0
VERTEX
  8
0
 10
0.739258
 20
0.664714
 30
0.0
 40
0
 41
0
  0
VERTEX
  8
0
 10
0.739258
 20
0.668837
 30
0.0
 40
0
 41
0
  0
SEQEND
 8
0
  0
POLYLINE
  8
0
 62
     173
 66
     1
 10
0
 20
0
 30
0.0
 70
     1
 40
0
 41
0
  0
VERTEX
  8
0
 10
0.817979
 20
0.668837
 30
0.0
 40
0
 41
0
  0
VERTEX
  8
0
 10
0.817979
 20
0.673014
 30
0.0
 40
0
 41
0
  0
VERTEX
  8
0
 10
0.811089
 20
0.685385
 30
0.0
 40
0
 41
0
  0
VERTEX
  8
0
 10
0.795953
 20
0.690864
 30
0.0
 40
0
 41
0
  0
VERTEX
  8
0
 10
0.780817
 20
0.685385
 30
0.0
 40
0
 41
0
  0
VERTEX
  8
0
 10
0.773981
 20
0.673014
 30
0.0
 40
0
 41
0
  0
VERTEX
  8
0
 10
0.773981
 20
0.668837
 30
0.0
 40
0
 41
0
  0
VERTEX
  8
0
 10
0.773981
 20
0.664714
 30
0.0
 40
0
 41
0
  0
VERTEX
  8
0
 10
0.780817
 20
0.652344
 30
0.0
 40
0
 41
0
  0
VERTEX
  8
0
 10
0.795953
 20
0.646864
 30
0.0
 40
0
 41
0
  0
VERTEX
  8
0
 10
0.811089
 20
0.652344
 30
0.0
 40
0
 41
0
  0
VERTEX
  8
0
 10
0.817979
 20
0.664714
 30
0.0
 40
0
 41
0
  0
VERTEX
  8
0
 10
0.817979
 20
0.668837
 30
0.0
 40
0
 41
0
  0
SEQEND
 8
0
  0
POLYLINE
  8
0
 62
     173
 66
     1
 10
0
 20
0
 30
0.0
 70
     1
 40
0
 41
0
  0
VERTEX
  8
0
 10
0.788465
 20
0.737739
 30
0.0
 40
0
 41
0
  0
VERTEX
  8
0
 10
0.788465
 20
0.741917
 30
0.0
 40
0
 41
0
  0
VERTEX
  8
0
 10
0.781575
 20
0.754286
 30
0.0
 40
0
 41
0
  0
VERTEX
  8
0
 10
0.766439
 20
0.759765
 30
0.0
 40
0
 41
0
  0
VERTEX
  8
0
 10
0.751303
 20
0.754286
 30
0.0
 40
0
 41
0
  0
VERTEX
  8
0
 10
0.744467
 20
0.741917
 30
0.0
 40
0
 41
0
  0
VERTEX
  8
0
 10
0.744467
 20
0.737739
 30
0.0
 40
0
 41
0
  0
VERTEX
  8
0
 10
0.744467
 20
0.733615
 30
0.0
 40
0
 41
0
  0
VERTEX
  8
0
 10
0.751303
 20
0.721246
 30
0.0
 40
0
 41
0
  0
VERTEX
  8
0
 10
0.766439
 20
0.715767
 30
0.0
 40
0
 41
0
  0
VERTEX
  8
0
 10
0.781575
 20
0.721246
 30
0.0
 40
0
 41
0
  0
VERTEX
  8
0
 10
0.788465
 20
0.733615
 30
0.0
 40
0
 41
0
  0
VERTEX
  8
0
 10
0.788465
 20
0.737739
 30
0.0
 40
0
 41
0
  0
SEQEND
 8
0
  0
POLYLINE
  8
0
 62
     173
 66
     1
 10
0
 20
0
 30
0.0
 70
     1
 40
0
 41
0
  0
VERTEX
  8
0
 10
0.965657
 20
0.304688
 30
0.0
 40
0
 41
0
  0
VERTEX
  8
0
 10
0.965657
 20
0.308811
 30
0.0
 40
0
 41
0
  0
VERTEX
  8
0
 10
0.958768
 20
0.321181
 30
0.0
 40
0
 41
0
  0
VERTEX
  8
0
 10
0.943631
 20
0.32666
 30
0.0
 40
0
 41
0
  0
VERTEX
  8
0
 10
0.928494
 20
0.321181
 30
0.0
 40
0
 41
0
  0
VERTEX
  8
0
 10
0.921658
 20
0.308811
 30
0.0
 40
0
 41
0
  0
VERTEX
  8
0
 10
0.921658
 20
0.304688
 30
0.0
 40
0
 41
0
  0
VERTEX
  8
0
 10
0.921658
 20
0.300564
 30
0.0
 40
0
 41
0
  0
VERTEX
  8
0
 10
0.928494
 20
0.288194
 30
0.0
 40
0
 41
0
  0
VERTEX
  8
0
 10
0.943631
 20
0.282715
 30
0.0
 40
0
 41
0
  0
VERTEX
  8
0
 10
0.958768
 20
0.288194
 30
0.0
 40
0
 41
0
  0
VERTEX
  8
0
 10
0.965657
 20
0.300564
 30
0.0
 40
0
 41
0
  0
VERTEX
  8
0
 10
0.965657
 20
0.304688
 30
0.0
 40
0
 41
0
  0
SEQEND
 8
0
  0
POLYLINE
  8
0
 62
     173
 66
     1
 10
0
 20
0
 30
0.0
 70
     1
 40
0
 41
0
  0
VERTEX
  8
0
 10
0.849175
 20
0.306315
 30
0.0
 40
0
 41
0
  0
VERTEX
  8
0
 10
0.849175
 20
0.310493
 30
0.0
 40
0
 41
0
  0
VERTEX
  8
0
 10
0.842285
 20
0.322862
 30
0.0
 40
0
 41
0
  0
VERTEX
  8
0
 10
0.827149
 20
0.328342
 30
0.0
 40
0
 41
0
  0
VERTEX
  8
0
 10
0.812011
 20
0.322862
 30
0.0
 40
0
 41
0
  0
VERTEX
  8
0
 10
0.805176
 20
0.310493
 30
0.0
 40
0
 41
0
  0
VERTEX
  8
0
 10
0.805176
 20
0.306315
 30
0.0
 40
0
 41
0
  0
VERTEX
  8
0
 10
0.805176
 20
0.302246
 30
0.0
 40
0
 41
0
  0
VERTEX
  8
0
 10
0.812011
 20
0.289876
 30
0.0
 40
0
 41
0
  0
VERTEX
  8
0
 10
0.827149
 20
0.284343
 30
0.0
 40
0
 41
0
  0
VERTEX
  8
0
 10
0.842285
 20
0.289876
 30
0.0
 40
0
 41
0
  0
VERTEX
  8
0
 10
0.849175
 20
0.302246
 30
0.0
 40
0
 41
0
  0
VERTEX
  8
0
 10
0.849175
 20
0.306315
 30
0.0
 40
0
 41
0
  0
SEQEND
 8
0
  0
POLYLINE
  8
0
 62
     173
 66
     1
 10
0
 20
0
 30
0.0
 70
     1
 40
0
 41
0
  0
VERTEX
  8
0
 10
0.968479
 20
0.422797
 30
0.0
 40
0
 41
0
  0
VERTEX
  8
0
 10
0.968479
 20
0.426921
 30
0.0
 40
0
 41
0
  0
VERTEX
  8
0
 10
0.961589
 20
0.43929
 30
0.0
 40
0
 41
0
  0
VERTEX
  8
0
 10
0.946451
 20
0.444769
 30
0.0
 40
0
 41
0
  0
VERTEX
  8
0
 10
0.931315
 20
0.43929
 30
0.0
 40
0
 41
0
  0
VERTEX
  8
0
 10
0.924479
 20
0.426921
 30
0.0
 40
0
 41
0
  0
VERTEX
  8
0
 10
0.924479
 20
0.422797
 30
0.0
 40
0
 41
0
  0
VERTEX
  8
0
 10
0.924479
 20
0.418674
 30
0.0
 40
0
 41
0
  0
VERTEX
  8
0
 10
0.931315
 20
0.406304
 30
0.0
 40
0
 41
0
  0
VERTEX
  8
0
 10
0.946451
 20
0.400825
 30
0.0
 40
0
 41
0
  0
VERTEX
  8
0
 10
0.961589
 20
0.406304
 30
0.0
 40
0
 41
0
  0
VERTEX
  8
0
 10
0.968479
 20
0.418674
 30
0.0
 40
0
 41
0
  0
VERTEX
  8
0
 10
0.968479
 20
0.422797
 30
0.0
 40
0
 41
0
  0
SEQEND
 8
0
  0
POLYLINE
  8
0
 62
     173
 66
     1
 10
0
 20
0
 30
0.0
 70
     1
 40
0
 41
0
  0
VERTEX
  8
0
 10
0.906575
 20
0.314507
 30
0.0
 40
0
 41
0
  0
VERTEX
  8
0
 10
0.906575
 20
0.318685
 30
0.0
 40
0
 41
0
  0
VERTEX
  8
0
 10
0.899685
 20
0.331054
 30
0.0
 40
0
 41
0
  0
VERTEX
  8
0
 10
0.884549
 20
0.336535
 30
0.0
 40
0
 41
0
  0
VERTEX
  8
0
 10
0.869412
 20
0.331054
 30
0.0
 40
0
 41
0
  0
VERTEX
  8
0
 10
0.862576
 20
0.318685
 30
0.0
 40
0
 41
0
  0
VERTEX
  8
0
 10
0.862576
 20
0.314507
 30
0.0
 40
0
 41
0
  0
VERTEX
  8
0
 10
0.862576
 20
0.310385
 30
0.0
 40
0
 41
0
  0
VERTEX
  8
0
 10
0.869412
 20
0.298014
 30
0.0
 40
0
 41
0
  0
VERTEX
  8
0
 10
0.884549
 20
0.292535
 30
0.0
 40
0
 41
0
  0
VERTEX
  8
0
 10
0.899685
 20
0.298014
 30
0.0
 40
0
 41
0
  0
VERTEX
  8
0
 10
0.906575
 20
0.310385
 30
0.0
 40
0
 41
0
  0
VERTEX
  8
0
 10
0.906575
 20
0.314507
 30
0.0
 40
0
 41
0
  0
SEQEND
 8
0
  0
POLYLINE
  8
0
 62
     173
 66
     1
 10
0
 20
0
 30
0.0
 70
     1
 40
0
 41
0
  0
VERTEX
  8
0
 10
0.925185
 20
0.511339
 30
0.0
 40
0
 41
0
  0
VERTEX
  8
0
 10
0.925185
 20
0.515517
 30
0.0
 40
0
 41
0
  0
VERTEX
  8
0
 10
0.918294
 20
0.527886
 30
0.0
 40
0
 41
0
  0
VERTEX
  8
0
 10
0.903157
 20
0.533365
 30
0.0
 40
0
 41
0
  0
VERTEX
  8
0
 10
0.888021
 20
0.527886
 30
0.0
 40
0
 41
0
  0
VERTEX
  8
0
 10
0.881185
 20
0.515517
 30
0.0
 40
0
 41
0
  0
VERTEX
  8
0
 10
0.881185
 20
0.511339
 30
0.0
 40
0
 41
0
  0
VERTEX
  8
0
 10
0.881185
 20
0.507269
 30
0.0
 40
0
 41
0
  0
VERTEX
  8
0
 10
0.888021
 20
0.4949
 30
0.0
 40
0
 41
0
  0
VERTEX
  8
0
 10
0.903157
 20
0.489367
 30
0.0
 40
0
 41
0
  0
VERTEX
  8
0
 10
0.918294
 20
0.4949
 30
0.0
 40
0
 41
0
  0
VERTEX
  8
0
 10
0.925185
 20
0.507269
 30
0.0
 40
0
 41
0
  0
VERTEX
  8
0
 10
0.925185
 20
0.511339
 30
0.0
 40
0
 41
0
  0
SEQEND
 8
0
  0
POLYLINE
  8
0
 62
     173
 66
     1
 10
0
 20
0
 30
0.0
 70
     1
 40
0
 41
0
  0
VERTEX
  8
0
 10
0.847547
 20
0.737739
 30
0.0
 40
0
 41
0
  0
VERTEX
  8
0
 10
0.847547
 20
0.741917
 30
0.0
 40
0
 41
0
  0
VERTEX
  8
0
 10
0.840657
 20
0.754286
 30
0.0
 40
0
 41
0
  0
VERTEX
  8
0
 10
0.825521
 20
0.759765
 30
0.0
 40
0
 41
0
  0
VERTEX
  8
0
 10
0.810385
 20
0.754286
 30
0.0
 40
0
 41
0
  0
VERTEX
  8
0
 10
0.803549
 20
0.741917
 30
0.0
 40
0
 41
0
  0
VERTEX
  8
0
 10
0.803549
 20
0.737739
 30
0.0
 40
0
 41
0
  0
VERTEX
  8
0
 10
0.803549
 20
0.733615
 30
0.0
 40
0
 41
0
  0
VERTEX
  8
0
 10
0.810385
 20
0.721246
 30
0.0
 40
0
 41
0
  0
VERTEX
  8
0
 10
0.825521
 20
0.715767
 30
0.0
 40
0
 41
0
  0
VERTEX
  8
0
 10
0.840657
 20
0.721246
 30
0.0
 40
0
 41
0
  0
VERTEX
  8
0
 10
0.847547
 20
0.733615
 30
0.0
 40
0
 41
0
  0
VERTEX
  8
0
 10
0.847547
 20
0.737739
 30
0.0
 40
0
 41
0
  0
SEQEND
 8
0
  0
POLYLINE
  8
0
 62
     173
 66
     1
 10
0
 20
0
 30
0.0
 70
     1
 40
0
 41
0
  0
VERTEX
  8
0
 10
1.09359
 20
0.196397
 30
0.0
 40
0
 41
0
  0
VERTEX
  8
0
 10
1.09359
 20
0.200575
 30
0.0
 40
0
 41
0
  0
VERTEX
  8
0
 10
1.0867
 20
0.212944
 30
0.0
 40
0
 41
0
  0
VERTEX
  8
0
 10
1.07156
 20
0.218425
 30
0.0
 40
0
 41
0
  0
VERTEX
  8
0
 10
1.05642
 20
0.212944
 30
0.0
 40
0
 41
0
  0
VERTEX
  8
0
 10
1.04959
 20
0.200575
 30
0.0
 40
0
 41
0
  0
VERTEX
  8
0
 10
1.04959
 20
0.196397
 30
0.0
 40
0
 41
0
  0
VERTEX
  8
0
 10
1.04959
 20
0.192275
 30
0.0
 40
0
 41
0
  0
VERTEX
  8
0
 10
1.05642
 20
0.179904
 30
0.0
 40
0
 41
0
  0
VERTEX
  8
0
 10
1.07156
 20
0.174425
 30
0.0
 40
0
 41
0
  0
VERTEX
  8
0
 10
1.0867
 20
0.179904
 30
0.0
 40
0
 41
0
  0
VERTEX
  8
0
 10
1.09359
 20
0.192275
 30
0.0
 40
0
 41
0
  0
VERTEX
  8
0
 10
1.09359
 20
0.196397
 30
0.0
 40
0
 41
0
  0
SEQEND
 8
0
  0
POLYLINE
  8
0
 62
     173
 66
     1
 10
0
 20
0
 30
0.0
 70
     1
 40
0
 41
0
  0
VERTEX
  8
0
 10
1.02468
 20
0.323242
 30
0.0
 40
0
 41
0
  0
VERTEX
  8
0
 10
1.02468
 20
0.327419
 30
0.0
 40
0
 41
0
  0
VERTEX
  8
0
 10
1.0178
 20
0.339789
 30
0.0
 40
0
 41
0
  0
VERTEX
  8
0
 10
1.00266
 20
0.345269
 30
0.0
 40
0
 41
0
  0
VERTEX
  8
0
 10
0.987522
 20
0.339789
 30
0.0
 40
0
 41
0
  0
VERTEX
  8
0
 10
0.980686
 20
0.327419
 30
0.0
 40
0
 41
0
  0
VERTEX
  8
0
 10
0.980686
 20
0.323242
 30
0.0
 40
0
 41
0
  0
VERTEX
  8
0
 10
0.980686
 20
0.319174
 30
0.0
 40
0
 41
0
  0
VERTEX
  8
0
 10
0.987522
 20
0.306803
 30
0.0
 40
0
 41
0
  0
VERTEX
  8
0
 10
1.00266
 20
0.301269
 30
0.0
 40
0
 41
0
  0
VERTEX
  8
0
 10
1.0178
 20
0.306803
 30
0.0
 40
0
 41
0
  0
VERTEX
  8
0
 10
1.02468
 20
0.319174
 30
0.0
 40
0
 41
0
  0
VERTEX
  8
0
 10
1.02468
 20
0.323242
 30
0.0
 40
0
 41
0
  0
SEQEND
 8
0
  0
POLYLINE
  8
0
 62
     173
 66
     1
 10
0
 20
0
 30
0.0
 70
     1
 40
0
 41
0
  0
VERTEX
  8
0
 10
0.995171
 20
0.747558
 30
0.0
 40
0
 41
0
  0
VERTEX
  8
0
 10
0.995171
 20
0.751736
 30
0.0
 40
0
 41
0
  0
VERTEX
  8
0
 10
0.988282
 20
0.764106
 30
0.0
 40
0
 41
0
  0
VERTEX
  8
0
 10
0.973144
 20
0.769586
 30
0.0
 40
0
 41
0
  0
VERTEX
  8
0
 10
0.958008
 20
0.764106
 30
0.0
 40
0
 41
0
  0
VERTEX
  8
0
 10
0.951172
 20
0.751736
 30
0.0
 40
0
 41
0
  0
VERTEX
  8
0
 10
0.951172
 20
0.747558
 30
0.0
 40
0
 41
0
  0
VERTEX
  8
0
 10
0.951172
 20
0.74349
 30
0.0
 40
0
 41
0
  0
VERTEX
  8
0
 10
0.958008
 20
0.731119
 30
0.0
 40
0
 41
0
  0
VERTEX
  8
0
 10
0.973144
 20
0.725586
 30
0.0
 40
0
 41
0
  0
VERTEX
  8
0
 10
0.988282
 20
0.731119
 30
0.0
 40
0
 41
0
  0
VERTEX
  8
0
 10
0.995171
 20
0.74349
 30
0.0
 40
0
 41
0
  0
VERTEX
  8
0
 10
0.995171
 20
0.747558
 30
0.0
 40
0
 41
0
  0
SEQEND
 8
0
  0
POLYLINE
  8
0
 62
     173
 66
     1
 10
0
 20
0
 30
0.0
 70
     1
 40
0
 41
0
  0
VERTEX
  8
0
 10
1.09359
 20
0.747558
 30
0.0
 40
0
 41
0
  0
VERTEX
  8
0
 10
1.09359
 20
0.751736
 30
0.0
 40
0
 41
0
  0
VERTEX
  8
0
 10
1.0867
 20
0.764106
 30
0.0
 40
0
 41
0
  0
VERTEX
  8
0
 10
1.07156
 20
0.769586
 30
0.0
 40
0
 41
0
  0
VERTEX
  8
0
 10
1.05642
 20
0.764106
 30
0.0
 40
0
 41
0
  0
VERTEX
  8
0
 10
1.04959
 20
0.751736
 30
0.0
 40
0
 41
0
  0
VERTEX
  8
0
 10
1.04959
 20
0.747558
 30
0.0
 40
0
 41
0
  0
VERTEX
  8
0
 10
1.04959
 20
0.74349
 30
0.0
 40
0
 41
0
  0
VERTEX
  8
0
 10
1.05642
 20
0.731119
 30
0.0
 40
0
 41
0
  0
VERTEX
  8
0
 10
1.07156
 20
0.725586
 30
0.0
 40
0
 41
0
  0
VERTEX
  8
0
 10
1.0867
 20
0.731119
 30
0.0
 40
0
 41
0
  0
VERTEX
  8
0
 10
1.09359
 20
0.74349
 30
0.0
 40
0
 41
0
  0
VERTEX
  8
0
 10
1.09359
 20
0.747558
 30
0.0
 40
0
 41
0
  0
SEQEND
 8
0
  0
POLYLINE
  8
0
 62
     173
 66
     1
 10
0
 20
0
 30
0.0
 70
     1
 40
0
 41
0
  0
VERTEX
  8
0
 10
1.04438
 20
0.747558
 30
0.0
 40
0
 41
0
  0
VERTEX
  8
0
 10
1.04438
 20
0.751736
 30
0.0
 40
0
 41
0
  0
VERTEX
  8
0
 10
1.03749
 20
0.764106
 30
0.0
 40
0
 41
0
  0
VERTEX
  8
0
 10
1.02235
 20
0.769586
 30
0.0
 40
0
 41
0
  0
VERTEX
  8
0
 10
1.00722
 20
0.764106
 30
0.0
 40
0
 41
0
  0
VERTEX
  8
0
 10
1.00038
 20
0.751736
 30
0.0
 40
0
 41
0
  0
VERTEX
  8
0
 10
1.00038
 20
0.747558
 30
0.0
 40
0
 41
0
  0
VERTEX
  8
0
 10
1.00038
 20
0.74349
 30
0.0
 40
0
 41
0
  0
VERTEX
  8
0
 10
1.00722
 20
0.731119
 30
0.0
 40
0
 41
0
  0
VERTEX
  8
0
 10
1.02235
 20
0.725586
 30
0.0
 40
0
 41
0
  0
VERTEX
  8
0
 10
1.03749
 20
0.731119
 30
0.0
 40
0
 41
0
  0
VERTEX
  8
0
 10
1.04438
 20
0.74349
 30
0.0
 40
0
 41
0
  0
VERTEX
  8
0
 10
1.04438
 20
0.747558
 30
0.0
 40
0
 41
0
  0
SEQEND
 8
0
  0
POLYLINE
  8
0
 62
     173
 66
     1
 10
0
 20
0
 30
0.0
 70
     1
 40
0
 41
0
  0
VERTEX
  8
0
 10
1.13189
 20
0.443576
 30
0.0
 40
0
 41
0
  0
VERTEX
  8
0
 10
1.13189
 20
0.4477
 30
0.0
 40
0
 41
0
  0
VERTEX
  8
0
 10
1.125
 20
0.460069
 30
0.0
 40
0
 41
0
  0
VERTEX
  8
0
 10
1.10986
 20
0.465549
 30
0.0
 40
0
 41
0
  0
VERTEX
  8
0
 10
1.09473
 20
0.460069
 30
0.0
 40
0
 41
0
  0
VERTEX
  8
0
 10
1.08789
 20
0.4477
 30
0.0
 40
0
 41
0
  0
VERTEX
  8
0
 10
1.08789
 20
0.443576
 30
0.0
 40
0
 41
0
  0
VERTEX
  8
0
 10
1.08789
 20
0.439453
 30
0.0
 40
0
 41
0
  0
VERTEX
  8
0
 10
1.09473
 20
0.427083
 30
0.0
 40
0
 41
0
  0
VERTEX
  8
0
 10
1.10986
 20
0.421604
 30
0.0
 40
0
 41
0
  0
VERTEX
  8
0
 10
1.125
 20
0.427083
 30
0.0
 40
0
 41
0
  0
VERTEX
  8
0
 10
1.13189
 20
0.439453
 30
0.0
 40
0
 41
0
  0
VERTEX
  8
0
 10
1.13189
 20
0.443576
 30
0.0
 40
0
 41
0
  0
SEQEND
 8
0
  0
POLYLINE
  8
0
 62
     173
 66
     1
 10
0
 20
0
 30
0.0
 70
     1
 40
0
 41
0
  0
VERTEX
  8
0
 10
1.18538
 20
0.75076
 30
0.0
 40
0
 41
0
  0
VERTEX
  8
0
 10
1.18538
 20
0.754937
 30
0.0
 40
0
 41
0
  0
VERTEX
  8
0
 10
1.17849
 20
0.767307
 30
0.0
 40
0
 41
0
  0
VERTEX
  8
0
 10
1.16336
 20
0.772786
 30
0.0
 40
0
 41
0
  0
VERTEX
  8
0
 10
1.14822
 20
0.767307
 30
0.0
 40
0
 41
0
  0
VERTEX
  8
0
 10
1.14138
 20
0.754937
 30
0.0
 40
0
 41
0
  0
VERTEX
  8
0
 10
1.14138
 20
0.75076
 30
0.0
 40
0
 41
0
  0
VERTEX
  8
0
 10
1.14138
 20
0.746636
 30
0.0
 40
0
 41
0
  0
VERTEX
  8
0
 10
1.14822
 20
0.734267
 30
0.0
 40
0
 41
0
  0
VERTEX
  8
0
 10
1.16336
 20
0.728787
 30
0.0
 40
0
 41
0
  0
VERTEX
  8
0
 10
1.17849
 20
0.734267
 30
0.0
 40
0
 41
0
  0
VERTEX
  8
0
 10
1.18538
 20
0.746636
 30
0.0
 40
0
 41
0
  0
VERTEX
  8
0
 10
1.18538
 20
0.75076
 30
0.0
 40
0
 41
0
  0
SEQEND
 8
0
  0
POLYLINE
  8
0
 62
     173
 66
     1
 10
0
 20
0
 30
0.0
 70
     1
 40
0
 41
0
  0
VERTEX
  8
0
 10
1.1231
 20
0.859918
 30
0.0
 40
0
 41
0
  0
VERTEX
  8
0
 10
1.1231
 20
0.86404
 30
0.0
 40
0
 41
0
  0
VERTEX
  8
0
 10
1.11621
 20
0.876411
 30
0.0
 40
0
 41
0
  0
VERTEX
  8
0
 10
1.10107
 20
0.88189
 30
0.0
 40
0
 41
0
  0
VERTEX
  8
0
 10
1.08594
 20
0.876411
 30
0.0
 40
0
 41
0
  0
VERTEX
  8
0
 10
1.0791
 20
0.86404
 30
0.0
 40
0
 41
0
  0
VERTEX
  8
0
 10
1.0791
 20
0.859918
 30
0.0
 40
0
 41
0
  0
VERTEX
  8
0
 10
1.0791
 20
0.855794
 30
0.0
 40
0
 41
0
  0
VERTEX
  8
0
 10
1.08594
 20
0.843425
 30
0.0
 40
0
 41
0
  0
VERTEX
  8
0
 10
1.10107
 20
0.837944
 30
0.0
 40
0
 41
0
  0
VERTEX
  8
0
 10
1.11621
 20
0.843425
 30
0.0
 40
0
 41
0
  0
VERTEX
  8
0
 10
1.1231
 20
0.855794
 30
0.0
 40
0
 41
0
  0
VERTEX
  8
0
 10
1.1231
 20
0.859918
 30
0.0
 40
0
 41
0
  0
SEQEND
 8
0
  0
POLYLINE
  8
0
 62
     173
 66
     1
 10
0
 20
0
 30
0.0
 70
     1
 40
0
 41
0
  0
VERTEX
  8
0
 10
1.1231
 20
0.969889
 30
0.0
 40
0
 41
0
  0
VERTEX
  8
0
 10
1.1231
 20
0.974067
 30
0.0
 40
0
 41
0
  0
VERTEX
  8
0
 10
1.11621
 20
0.986436
 30
0.0
 40
0
 41
0
  0
VERTEX
  8
0
 10
1.10107
 20
0.991917
 30
0.0
 40
0
 41
0
  0
VERTEX
  8
0
 10
1.08594
 20
0.986436
 30
0.0
 40
0
 41
0
  0
VERTEX
  8
0
 10
1.0791
 20
0.974067
 30
0.0
 40
0
 41
0
  0
VERTEX
  8
0
 10
1.0791
 20
0.969889
 30
0.0
 40
0
 41
0
  0
VERTEX
  8
0
 10
1.0791
 20
0.965821
 30
0.0
 40
0
 41
0
  0
VERTEX
  8
0
 10
1.08594
 20
0.95345
 30
0.0
 40
0
 41
0
  0
VERTEX
  8
0
 10
1.10107
 20
0.947917
 30
0.0
 40
0
 41
0
  0
VERTEX
  8
0
 10
1.11621
 20
0.95345
 30
0.0
 40
0
 41
0
  0
VERTEX
  8
0
 10
1.1231
 20
0.965821
 30
0.0
 40
0
 41
0
  0
VERTEX
  8
0
 10
1.1231
 20
0.969889
 30
0.0
 40
0
 41
0
  0
SEQEND
 8
0
  0
POLYLINE
  8
0
 62
     173
 66
     1
 10
0
 20
0
 30
0.0
 70
     1
 40
0
 41
0
  0
VERTEX
  8
0
 10
1.13298
 20
1.14128
 30
0.0
 40
0
 41
0
  0
VERTEX
  8
0
 10
1.13298
 20
1.14545
 30
0.0
 40
0
 41
0
  0
VERTEX
  8
0
 10
1.12608
 20
1.15782
 30
0.0
 40
0
 41
0
  0
VERTEX
  8
0
 10
1.11095
 20
1.1633
 30
0.0
 40
0
 41
0
  0
VERTEX
  8
0
 10
1.09581
 20
1.15782
 30
0.0
 40
0
 41
0
  0
VERTEX
  8
0
 10
1.08898
 20
1.14545
 30
0.0
 40
0
 41
0
  0
VERTEX
  8
0
 10
1.08898
 20
1.14128
 30
0.0
 40
0
 41
0
  0
VERTEX
  8
0
 10
1.08898
 20
1.13715
 30
0.0
 40
0
 41
0
  0
VERTEX
  8
0
 10
1.09581
 20
1.12478
 30
0.0
 40
0
 41
0
  0
VERTEX
  8
0
 10
1.11095
 20
1.1193
 30
0.0
 40
0
 41
0
  0
VERTEX
  8
0
 10
1.12608
 20
1.12478
 30
0.0
 40
0
 41
0
  0
VERTEX
  8
0
 10
1.13298
 20
1.13715
 30
0.0
 40
0
 41
0
  0
VERTEX
  8
0
 10
1.13298
 20
1.14128
 30
0.0
 40
0
 41
0
  0
SEQEND
 8
0
  0
POLYLINE
  8
0
 62
     173
 66
     1
 10
0
 20
0
 30
0.0
 70
     1
 40
0
 41
0
  0
VERTEX
  8
0
 10
1.1231
 20
1.44575
 30
0.0
 40
0
 41
0
  0
VERTEX
  8
0
 10
1.1231
 20
1.44993
 30
0.0
 40
0
 41
0
  0
VERTEX
  8
0
 10
1.11621
 20
1.46229
 30
0.0
 40
0
 41
0
  0
VERTEX
  8
0
 10
1.10107
 20
1.46778
 30
0.0
 40
0
 41
0
  0
VERTEX
  8
0
 10
1.08594
 20
1.46229
 30
0.0
 40
0
 41
0
  0
VERTEX
  8
0
 10
1.0791
 20
1.44993
 30
0.0
 40
0
 41
0
  0
VERTEX
  8
0
 10
1.0791
 20
1.44575
 30
0.0
 40
0
 41
0
  0
VERTEX
  8
0
 10
1.0791
 20
1.44162
 30
0.0
 40
0
 41
0
  0
VERTEX
  8
0
 10
1.08594
 20
1.42925
 30
0.0
 40
0
 41
0
  0
VERTEX
  8
0
 10
1.10107
 20
1.42378
 30
0.0
 40
0
 41
0
  0
VERTEX
  8
0
 10
1.11621
 20
1.42925
 30
0.0
 40
0
 41
0
  0
VERTEX
  8
0
 10
1.1231
 20
1.44162
 30
0.0
 40
0
 41
0
  0
VERTEX
  8
0
 10
1.1231
 20
1.44575
 30
0.0
 40
0
 41
0
  0
SEQEND
 8
0
  0
POLYLINE
  8
0
 62
     173
 66
     1
 10
0
 20
0
 30
0.0
 70
     1
 40
0
 41
0
  0
VERTEX
  8
0
 10
1.30029
 20
0.131565
 30
0.0
 40
0
 41
0
  0
VERTEX
  8
0
 10
1.30029
 20
0.135688
 30
0.0
 40
0
 41
0
  0
VERTEX
  8
0
 10
1.2934
 20
0.148058
 30
0.0
 40
0
 41
0
  0
VERTEX
  8
0
 10
1.27827
 20
0.153537
 30
0.0
 40
0
 41
0
  0
VERTEX
  8
0
 10
1.26313
 20
0.148058
 30
0.0
 40
0
 41
0
  0
VERTEX
  8
0
 10
1.25629
 20
0.135688
 30
0.0
 40
0
 41
0
  0
VERTEX
  8
0
 10
1.25629
 20
0.131565
 30
0.0
 40
0
 41
0
  0
VERTEX
  8
0
 10
1.25629
 20
0.127441
 30
0.0
 40
0
 41
0
  0
VERTEX
  8
0
 10
1.26313
 20
0.115072
 30
0.0
 40
0
 41
0
  0
VERTEX
  8
0
 10
1.27827
 20
0.109592
 30
0.0
 40
0
 41
0
  0
VERTEX
  8
0
 10
1.2934
 20
0.115072
 30
0.0
 40
0
 41
0
  0
VERTEX
  8
0
 10
1.30029
 20
0.127441
 30
0.0
 40
0
 41
0
  0
VERTEX
  8
0
 10
1.30029
 20
0.131565
 30
0.0
 40
0
 41
0
  0
SEQEND
 8
0
  0
POLYLINE
  8
0
 62
     173
 66
     1
 10
0
 20
0
 30
0.0
 70
     1
 40
0
 41
0
  0
VERTEX
  8
0
 10
1.30029
 20
0.241536
 30
0.0
 40
0
 41
0
  0
VERTEX
  8
0
 10
1.30029
 20
0.245714
 30
0.0
 40
0
 41
0
  0
VERTEX
  8
0
 10
1.2934
 20
0.258083
 30
0.0
 40
0
 41
0
  0
VERTEX
  8
0
 10
1.27827
 20
0.263564
 30
0.0
 40
0
 41
0
  0
VERTEX
  8
0
 10
1.26313
 20
0.258083
 30
0.0
 40
0
 41
0
  0
VERTEX
  8
0
 10
1.25629
 20
0.245714
 30
0.0
 40
0
 41
0
  0
VERTEX
  8
0
 10
1.25629
 20
0.241536
 30
0.0
 40
0
 41
0
  0
VERTEX
  8
0
 10
1.25629
 20
0.237468
 30
0.0
 40
0
 41
0
  0
VERTEX
  8
0
 10
1.26313
 20
0.225097
 30
0.0
 40
0
 41
0
  0
VERTEX
  8
0
 10
1.27827
 20
0.219564
 30
0.0
 40
0
 41
0
  0
VERTEX
  8
0
 10
1.2934
 20
0.225097
 30
0.0
 40
0
 41
0
  0
VERTEX
  8
0
 10
1.30029
 20
0.237468
 30
0.0
 40
0
 41
0
  0
VERTEX
  8
0
 10
1.30029
 20
0.241536
 30
0.0
 40
0
 41
0
  0
SEQEND
 8
0
  0
POLYLINE
  8
0
 62
     173
 66
     1
 10
0
 20
0
 30
0.0
 70
     1
 40
0
 41
0
  0
VERTEX
  8
0
 10
1.27479
 20
0.314507
 30
0.0
 40
0
 41
0
  0
VERTEX
  8
0
 10
1.27479
 20
0.318685
 30
0.0
 40
0
 41
0
  0
VERTEX
  8
0
 10
1.2679
 20
0.331054
 30
0.0
 40
0
 41
0
  0
VERTEX
  8
0
 10
1.25277
 20
0.336535
 30
0.0
 40
0
 41
0
  0
VERTEX
  8
0
 10
1.23763
 20
0.331054
 30
0.0
 40
0
 41
0
  0
VERTEX
  8
0
 10
1.23079
 20
0.318685
 30
0.0
 40
0
 41
0
  0
VERTEX
  8
0
 10
1.23079
 20
0.314507
 30
0.0
 40
0
 41
0
  0
VERTEX
  8
0
 10
1.23079
 20
0.310385
 30
0.0
 40
0
 41
0
  0
VERTEX
  8
0
 10
1.23763
 20
0.298014
 30
0.0
 40
0
 41
0
  0
VERTEX
  8
0
 10
1.25277
 20
0.292535
 30
0.0
 40
0
 41
0
  0
VERTEX
  8
0
 10
1.2679
 20
0.298014
 30
0.0
 40
0
 41
0
  0
VERTEX
  8
0
 10
1.27479
 20
0.310385
 30
0.0
 40
0
 41
0
  0
VERTEX
  8
0
 10
1.27479
 20
0.314507
 30
0.0
 40
0
 41
0
  0
SEQEND
 8
0
  0
POLYLINE
  8
0
 62
     173
 66
     1
 10
0
 20
0
 30
0.0
 70
     1
 40
0
 41
0
  0
VERTEX
  8
0
 10
1.2806
 20
0.520128
 30
0.0
 40
0
 41
0
  0
VERTEX
  8
0
 10
1.2806
 20
0.524251
 30
0.0
 40
0
 41
0
  0
VERTEX
  8
0
 10
1.27371
 20
0.536621
 30
0.0
 40
0
 41
0
  0
VERTEX
  8
0
 10
1.25857
 20
0.542101
 30
0.0
 40
0
 41
0
  0
VERTEX
  8
0
 10
1.24343
 20
0.536621
 30
0.0
 40
0
 41
0
  0
VERTEX
  8
0
 10
1.2366
 20
0.524251
 30
0.0
 40
0
 41
0
  0
VERTEX
  8
0
 10
1.2366
 20
0.520128
 30
0.0
 40
0
 41
0
  0
VERTEX
  8
0
 10
1.2366
 20
0.516004
 30
0.0
 40
0
 41
0
  0
VERTEX
  8
0
 10
1.24343
 20
0.503635
 30
0.0
 40
0
 41
0
  0
VERTEX
  8
0
 10
1.25857
 20
0.498156
 30
0.0
 40
0
 41
0
  0
VERTEX
  8
0
 10
1.27371
 20
0.503635
 30
0.0
 40
0
 41
0
  0
VERTEX
  8
0
 10
1.2806
 20
0.516004
 30
0.0
 40
0
 41
0
  0
VERTEX
  8
0
 10
1.2806
 20
0.520128
 30
0.0
 40
0
 41
0
  0
SEQEND
 8
0
  0
POLYLINE
  8
0
 62
     173
 66
     1
 10
0
 20
0
 30
0.0
 70
     1
 40
0
 41
0
  0
VERTEX
  8
0
 10
1.31999
 20
0.747558
 30
0.0
 40
0
 41
0
  0
VERTEX
  8
0
 10
1.31999
 20
0.751736
 30
0.0
 40
0
 41
0
  0
VERTEX
  8
0
 10
1.3131
 20
0.764106
 30
0.0
 40
0
 41
0
  0
VERTEX
  8
0
 10
1.29796
 20
0.769586
 30
0.0
 40
0
 41
0
  0
VERTEX
  8
0
 10
1.28282
 20
0.764106
 30
0.0
 40
0
 41
0
  0
VERTEX
  8
0
 10
1.27599
 20
0.751736
 30
0.0
 40
0
 41
0
  0
VERTEX
  8
0
 10
1.27599
 20
0.747558
 30
0.0
 40
0
 41
0
  0
VERTEX
  8
0
 10
1.27599
 20
0.74349
 30
0.0
 40
0
 41
0
  0
VERTEX
  8
0
 10
1.28282
 20
0.731119
 30
0.0
 40
0
 41
0
  0
VERTEX
  8
0
 10
1.29796
 20
0.725586
 30
0.0
 40
0
 41
0
  0
VERTEX
  8
0
 10
1.3131
 20
0.731119
 30
0.0
 40
0
 41
0
  0
VERTEX
  8
0
 10
1.31999
 20
0.74349
 30
0.0
 40
0
 41
0
  0
VERTEX
  8
0
 10
1.31999
 20
0.747558
 30
0.0
 40
0
 41
0
  0
SEQEND
 8
0
  0
POLYLINE
  8
0
 62
     173
 66
     1
 10
0
 20
0
 30
0.0
 70
     1
 40
0
 41
0
  0
VERTEX
  8
0
 10
1.2806
 20
0.70931
 30
0.0
 40
0
 41
0
  0
VERTEX
  8
0
 10
1.2806
 20
0.713488
 30
0.0
 40
0
 41
0
  0
VERTEX
  8
0
 10
1.27371
 20
0.725857
 30
0.0
 40
0
 41
0
  0
VERTEX
  8
0
 10
1.25857
 20
0.731337
 30
0.0
 40
0
 41
0
  0
VERTEX
  8
0
 10
1.24343
 20
0.725857
 30
0.0
 40
0
 41
0
  0
VERTEX
  8
0
 10
1.2366
 20
0.713488
 30
0.0
 40
0
 41
0
  0
VERTEX
  8
0
 10
1.2366
 20
0.70931
 30
0.0
 40
0
 41
0
  0
VERTEX
  8
0
 10
1.2366
 20
0.705186
 30
0.0
 40
0
 41
0
  0
VERTEX
  8
0
 10
1.24343
 20
0.692817
 30
0.0
 40
0
 41
0
  0
VERTEX
  8
0
 10
1.25857
 20
0.687338
 30
0.0
 40
0
 41
0
  0
VERTEX
  8
0
 10
1.27371
 20
0.692817
 30
0.0
 40
0
 41
0
  0
VERTEX
  8
0
 10
1.2806
 20
0.705186
 30
0.0
 40
0
 41
0
  0
VERTEX
  8
0
 10
1.2806
 20
0.70931
 30
0.0
 40
0
 41
0
  0
SEQEND
 8
0
  0
POLYLINE
  8
0
 62
     173
 66
     1
 10
0
 20
0
 30
0.0
 70
     1
 40
0
 41
0
  0
VERTEX
  8
0
 10
1.2806
 20
0.795682
 30
0.0
 40
0
 41
0
  0
VERTEX
  8
0
 10
1.2806
 20
0.799858
 30
0.0
 40
0
 41
0
  0
VERTEX
  8
0
 10
1.27371
 20
0.812229
 30
0.0
 40
0
 41
0
  0
VERTEX
  8
0
 10
1.25857
 20
0.817708
 30
0.0
 40
0
 41
0
  0
VERTEX
  8
0
 10
1.24343
 20
0.812229
 30
0.0
 40
0
 41
0
  0
VERTEX
  8
0
 10
1.2366
 20
0.799858
 30
0.0
 40
0
 41
0
  0
VERTEX
  8
0
 10
1.2366
 20
0.795682
 30
0.0
 40
0
 41
0
  0
VERTEX
  8
0
 10
1.2366
 20
0.791613
 30
0.0
 40
0
 41
0
  0
VERTEX
  8
0
 10
1.24343
 20
0.779243
 30
0.0
 40
0
 41
0
  0
VERTEX
  8
0
 10
1.25857
 20
0.773708
 30
0.0
 40
0
 41
0
  0
VERTEX
  8
0
 10
1.27371
 20
0.779243
 30
0.0
 40
0
 41
0
  0
VERTEX
  8
0
 10
1.2806
 20
0.791613
 30
0.0
 40
0
 41
0
  0
VERTEX
  8
0
 10
1.2806
 20
0.795682
 30
0.0
 40
0
 41
0
  0
SEQEND
 8
0
  0
POLYLINE
  8
0
 62
     173
 66
     1
 10
0
 20
0
 30
0.0
 70
     1
 40
0
 41
0
  0
VERTEX
  8
0
 10
1.2806
 20
0.914876
 30
0.0
 40
0
 41
0
  0
VERTEX
  8
0
 10
1.2806
 20
0.919054
 30
0.0
 40
0
 41
0
  0
VERTEX
  8
0
 10
1.27371
 20
0.931424
 30
0.0
 40
0
 41
0
  0
VERTEX
  8
0
 10
1.25857
 20
0.936903
 30
0.0
 40
0
 41
0
  0
VERTEX
  8
0
 10
1.24343
 20
0.931424
 30
0.0
 40
0
 41
0
  0
VERTEX
  8
0
 10
1.2366
 20
0.919054
 30
0.0
 40
0
 41
0
  0
VERTEX
  8
0
 10
1.2366
 20
0.914876
 30
0.0
 40
0
 41
0
  0
VERTEX
  8
0
 10
1.2366
 20
0.910807
 30
0.0
 40
0
 41
0
  0
VERTEX
  8
0
 10
1.24343
 20
0.898438
 30
0.0
 40
0
 41
0
  0
VERTEX
  8
0
 10
1.25857
 20
0.892904
 30
0.0
 40
0
 41
0
  0
VERTEX
  8
0
 10
1.27371
 20
0.898438
 30
0.0
 40
0
 41
0
  0
VERTEX
  8
0
 10
1.2806
 20
0.910807
 30
0.0
 40
0
 41
0
  0
VERTEX
  8
0
 10
1.2806
 20
0.914876
 30
0.0
 40
0
 41
0
  0
SEQEND
 8
0
  0
POLYLINE
  8
0
 62
     173
 66
     1
 10
0
 20
0
 30
0.0
 70
     1
 40
0
 41
0
  0
VERTEX
  8
0
 10
1.4184
 20
0.747558
 30
0.0
 40
0
 41
0
  0
VERTEX
  8
0
 10
1.4184
 20
0.751736
 30
0.0
 40
0
 41
0
  0
VERTEX
  8
0
 10
1.41151
 20
0.764106
 30
0.0
 40
0
 41
0
  0
VERTEX
  8
0
 10
1.39638
 20
0.769586
 30
0.0
 40
0
 41
0
  0
VERTEX
  8
0
 10
1.38124
 20
0.764106
 30
0.0
 40
0
 41
0
  0
VERTEX
  8
0
 10
1.3744
 20
0.751736
 30
0.0
 40
0
 41
0
  0
VERTEX
  8
0
 10
1.3744
 20
0.747558
 30
0.0
 40
0
 41
0
  0
VERTEX
  8
0
 10
1.3744
 20
0.74349
 30
0.0
 40
0
 41
0
  0
VERTEX
  8
0
 10
1.38124
 20
0.731119
 30
0.0
 40
0
 41
0
  0
VERTEX
  8
0
 10
1.39638
 20
0.725586
 30
0.0
 40
0
 41
0
  0
VERTEX
  8
0
 10
1.41151
 20
0.731119
 30
0.0
 40
0
 41
0
  0
VERTEX
  8
0
 10
1.4184
 20
0.74349
 30
0.0
 40
0
 41
0
  0
VERTEX
  8
0
 10
1.4184
 20
0.747558
 30
0.0
 40
0
 41
0
  0
SEQEND
 8
0
  0
POLYLINE
  8
0
 62
     173
 66
     1
 10
0
 20
0
 30
0.0
 70
     1
 40
0
 41
0
  0
VERTEX
  8
0
 10
1.42714
 20
0.795682
 30
0.0
 40
0
 41
0
  0
VERTEX
  8
0
 10
1.42714
 20
0.799858
 30
0.0
 40
0
 41
0
  0
VERTEX
  8
0
 10
1.42025
 20
0.812229
 30
0.0
 40
0
 41
0
  0
VERTEX
  8
0
 10
1.40511
 20
0.817708
 30
0.0
 40
0
 41
0
  0
VERTEX
  8
0
 10
1.38997
 20
0.812229
 30
0.0
 40
0
 41
0
  0
VERTEX
  8
0
 10
1.38314
 20
0.799858
 30
0.0
 40
0
 41
0
  0
VERTEX
  8
0
 10
1.38314
 20
0.795682
 30
0.0
 40
0
 41
0
  0
VERTEX
  8
0
 10
1.38314
 20
0.791613
 30
0.0
 40
0
 41
0
  0
VERTEX
  8
0
 10
1.38997
 20
0.779243
 30
0.0
 40
0
 41
0
  0
VERTEX
  8
0
 10
1.40511
 20
0.773708
 30
0.0
 40
0
 41
0
  0
VERTEX
  8
0
 10
1.42025
 20
0.779243
 30
0.0
 40
0
 41
0
  0
VERTEX
  8
0
 10
1.42714
 20
0.791613
 30
0.0
 40
0
 41
0
  0
VERTEX
  8
0
 10
1.42714
 20
0.795682
 30
0.0
 40
0
 41
0
  0
SEQEND
 8
0
  0
POLYLINE
  8
0
 62
     173
 66
     1
 10
0
 20
0
 30
0.0
 70
     1
 40
0
 41
0
  0
VERTEX
  8
0
 10
1.42714
 20
1.00239
 30
0.0
 40
0
 41
0
  0
VERTEX
  8
0
 10
1.42714
 20
1.00657
 30
0.0
 40
0
 41
0
  0
VERTEX
  8
0
 10
1.42025
 20
1.01893
 30
0.0
 40
0
 41
0
  0
VERTEX
  8
0
 10
1.40511
 20
1.02441
 30
0.0
 40
0
 41
0
  0
VERTEX
  8
0
 10
1.38997
 20
1.01893
 30
0.0
 40
0
 41
0
  0
VERTEX
  8
0
 10
1.38314
 20
1.00657
 30
0.0
 40
0
 41
0
  0
VERTEX
  8
0
 10
1.38314
 20
1.00239
 30
0.0
 40
0
 41
0
  0
VERTEX
  8
0
 10
1.38314
 20
0.998264
 30
0.0
 40
0
 41
0
  0
VERTEX
  8
0
 10
1.38997
 20
0.985894
 30
0.0
 40
0
 41
0
  0
VERTEX
  8
0
 10
1.40511
 20
0.980414
 30
0.0
 40
0
 41
0
  0
VERTEX
  8
0
 10
1.42025
 20
0.985894
 30
0.0
 40
0
 41
0
  0
VERTEX
  8
0
 10
1.42714
 20
0.998264
 30
0.0
 40
0
 41
0
  0
VERTEX
  8
0
 10
1.42714
 20
1.00239
 30
0.0
 40
0
 41
0
  0
SEQEND
 8
0
  0
POLYLINE
  8
0
 62
     173
 66
     1
 10
0
 20
0
 30
0.0
 70
     1
 40
0
 41
0
  0
VERTEX
  8
0
 10
1.35932
 20
1.12158
 30
0.0
 40
0
 41
0
  0
VERTEX
  8
0
 10
1.35932
 20
1.12576
 30
0.0
 40
0
 41
0
  0
VERTEX
  8
0
 10
1.35243
 20
1.13813
 30
0.0
 40
0
 41
0
  0
VERTEX
  8
0
 10
1.33729
 20
1.14361
 30
0.0
 40
0
 41
0
  0
VERTEX
  8
0
 10
1.32216
 20
1.13813
 30
0.0
 40
0
 41
0
  0
VERTEX
  8
0
 10
1.31532
 20
1.12576
 30
0.0
 40
0
 41
0
  0
VERTEX
  8
0
 10
1.31532
 20
1.12158
 30
0.0
 40
0
 41
0
  0
VERTEX
  8
0
 10
1.31532
 20
1.11751
 30
0.0
 40
0
 41
0
  0
VERTEX
  8
0
 10
1.32216
 20
1.10514
 30
0.0
 40
0
 41
0
  0
VERTEX
  8
0
 10
1.33729
 20
1.09961
 30
0.0
 40
0
 41
0
  0
VERTEX
  8
0
 10
1.35243
 20
1.10514
 30
0.0
 40
0
 41
0
  0
VERTEX
  8
0
 10
1.35932
 20
1.11751
 30
0.0
 40
0
 41
0
  0
VERTEX
  8
0
 10
1.35932
 20
1.12158
 30
0.0
 40
0
 41
0
  0
SEQEND
 8
0
  0
POLYLINE
  8
0
 62
     173
 66
     1
 10
0
 20
0
 30
0.0
 70
     1
 40
0
 41
0
  0
VERTEX
  8
0
 10
0.912001
 20
0.15115
 30
0.0
 40
0
 41
0
  0
VERTEX
  8
0
 10
0.944011
 20
0.15115
 30
0.0
 40
0
 41
0
  0
VERTEX
  8
0
 10
0.944011
 20
0.0841471
 30
0.0
 40
0
 41
0
  0
VERTEX
  8
0
 10
0.912001
 20
0.0841471
 30
0.0
 40
0
 41
0
  0
VERTEX
  8
0
 10
0.912001
 20
0.15115
 30
0.0
 40
0
 41
0
  0
SEQEND
 8
0
  0
POLYLINE
  8
0
 62
     173
 66
     1
 10
0
 20
0
 30
0.0
 70
     1
 40
0
 41
0
  0
VERTEX
  8
0
 10
1.02203
 20
0.15115
 30
0.0
 40
0
 41
0
  0
VERTEX
  8
0
 10
1.05404
 20
0.15115
 30
0.0
 40
0
 41
0
  0
VERTEX
  8
0
 10
1.05404
 20
0.0841471
 30
0.0
 40
0
 41
0
  0
VERTEX
  8
0
 10
1.02203
 20
0.0841471
 30
0.0
 40
0
 41
0
  0
VERTEX
  8
0
 10
1.02203
 20
0.15115
 30
0.0
 40
0
 41
0
  0
SEQEND
 8
0
  0
POLYLINE
  8
0
 62
     173
 66
     1
 10
0
 20
0
 30
0.0
 70
     1
 40
0
 41
0
  0
VERTEX
  8
0
 10
1.24664
 20
1.36176
 30
0.0
 40
0
 41
0
  0
VERTEX
  8
0
 10
1.27865
 20
1.36176
 30
0.0
 40
0
 41
0
  0
VERTEX
  8
0
 10
1.27865
 20
1.29476
 30
0.0
 40
0
 41
0
  0
VERTEX
  8
0
 10
1.24664
 20
1.29476
 30
0.0
 40
0
 41
0
  0
VERTEX
  8
0
 10
1.24664
 20
1.36176
 30
0.0
 40
0
 41
0
  0
SEQEND
 8
0
  0
POLYLINE
  8
0
 62
     173
 66
     1
 10
0
 20
0
 30
0.0
 70
     1
 40
0
 41
0
  0
VERTEX
  8
0
 10
1.35666
 20
1.36176
 30
0.0
 40
0
 41
0
  0
VERTEX
  8
0
 10
1.38867
 20
1.36176
 30
0.0
 40
0
 41
0
  0
VERTEX
  8
0
 10
1.38867
 20
1.29476
 30
0.0
 40
0
 41
0
  0
VERTEX
  8
0
 10
1.35666
 20
1.29476
 30
0.0
 40
0
 41
0
  0
VERTEX
  8
0
 10
1.35666
 20
1.36176
 30
0.0
 40
0
 41
0
  0
SEQEND
 8
0
  0
POLYLINE
  8
0
 62
     173
 66
     1
 10
0
 20
0
 30
0.0
 70
     1
 40
0
 41
0
  0
VERTEX
  8
0
 10
0.811415
 20
1.26503
 30
0.0
 40
0
 41
0
  0
VERTEX
  8
0
 10
0.957411
 20
1.26503
 30
0.0
 40
0
 41
0
  0
VERTEX
  8
0
 10
0.957411
 20
1.11903
 30
0.0
 40
0
 41
0
  0
VERTEX
  8
0
 10
0.811415
 20
1.11903
 30
0.0
 40
0
 41
0
  0
VERTEX
  8
0
 10
0.811415
 20
1.26503
 30
0.0
 40
0
 41
0
  0
SEQEND
 8
0
  0
POLYLINE
  8
0
 62
     173
 66
     1
 10
0
 20
0
 30
0.0
 70
     1
 40
0
 41
0
  0
VERTEX
  8
0
 10
0.201932
 20
1.54482
 30
0.0
 40
0
 41
0
  0
VERTEX
  8
0
 10
0.201932
 20
1.54969
 30
0.0
 40
0
 41
0
  0
VERTEX
  8
0
 10
0.193793
 20
1.56435
 30
0.0
 40
0
 41
0
  0
VERTEX
  8
0
 10
0.17589
 20
1.57086
 30
0.0
 40
0
 41
0
  0
VERTEX
  8
0
 10
0.157986
 20
1.56435
 30
0.0
 40
0
 41
0
  0
VERTEX
  8
0
 10
0.149903
 20
1.54969
 30
0.0
 40
0
 41
0
  0
VERTEX
  8
0
 10
0.149903
 20
1.54482
 30
0.0
 40
0
 41
0
  0
VERTEX
  8
0
 10
0.149903
 20
1.53999
 30
0.0
 40
0
 41
0
  0
VERTEX
  8
0
 10
0.157986
 20
1.52533
 30
0.0
 40
0
 41
0
  0
VERTEX
  8
0
 10
0.17589
 20
1.51882
 30
0.0
 40
0
 41
0
  0
VERTEX
  8
0
 10
0.193793
 20
1.52533
 30
0.0
 40
0
 41
0
  0
VERTEX
  8
0
 10
0.201932
 20
1.53999
 30
0.0
 40
0
 41
0
  0
VERTEX
  8
0
 10
0.201932
 20
1.54482
 30
0.0
 40
0
 41
0
  0
SEQEND
 8
0
  0
POLYLINE
  8
0
 62
     173
 66
     1
 10
0
 20
0
 30
0.0
 70
     1
 40
0
 41
0
  0
VERTEX
  8
0
 10
0.280653
 20
1.54482
 30
0.0
 40
0
 41
0
  0
VERTEX
  8
0
 10
0.280653
 20
1.54969
 30
0.0
 40
0
 41
0
  0
VERTEX
  8
0
 10
0.272515
 20
1.56435
 30
0.0
 40
0
 41
0
  0
VERTEX
  8
0
 10
0.254665
 20
1.57086
 30
0.0
 40
0
 41
0
  0
VERTEX
  8
0
 10
0.236762
 20
1.56435
 30
0.0
 40
0
 41
0
  0
VERTEX
  8
0
 10
0.228678
 20
1.54969
 30
0.0
 40
0
 41
0
  0
VERTEX
  8
0
 10
0.228678
 20
1.54482
 30
0.0
 40
0
 41
0
  0
VERTEX
  8
0
 10
0.228678
 20
1.53999
 30
0.0
 40
0
 41
0
  0
VERTEX
  8
0
 10
0.236762
 20
1.52533
 30
0.0
 40
0
 41
0
  0
VERTEX
  8
0
 10
0.254665
 20
1.51882
 30
0.0
 40
0
 41
0
  0
VERTEX
  8
0
 10
0.272515
 20
1.52533
 30
0.0
 40
0
 41
0
  0
VERTEX
  8
0
 10
0.280653
 20
1.53999
 30
0.0
 40
0
 41
0
  0
VERTEX
  8
0
 10
0.280653
 20
1.54482
 30
0.0
 40
0
 41
0
  0
SEQEND
 8
0
  0
POLYLINE
  8
0
 62
     173
 66
     1
 10
0
 20
0
 30
0.0
 70
     1
 40
0
 41
0
  0
VERTEX
  8
0
 10
0.197808
 20
1.69829
 30
0.0
 40
0
 41
0
  0
VERTEX
  8
0
 10
0.232801
 20
1.69829
 30
0.0
 40
0
 41
0
  0
VERTEX
  8
0
 10
0.232801
 20
1.64729
 30
0.0
 40
0
 41
0
  0
VERTEX
  8
0
 10
0.197808
 20
1.64729
 30
0.0
 40
0
 41
0
  0
VERTEX
  8
0
 10
0.197808
 20
1.69829
 30
0.0
 40
0
 41
0
  0
SEQEND
 8
0
  0
POLYLINE
  8
0
 62
     173
 66
     1
 10
0
 20
0
 30
0.0
 70
     1
 40
0
 41
0
  0
VERTEX
  8
0
 10
1.24479
 20
0.147569
 30
0.0
 40
0
 41
0
  0
VERTEX
  8
0
 10
1.31179
 20
0.147569
 30
0.0
 40
0
 41
0
  0
VERTEX
  8
0
 10
1.31179
 20
0.11556
 30
0.0
 40
0
 41
0
  0
VERTEX
  8
0
 10
1.24479
 20
0.11556
 30
0.0
 40
0
 41
0
  0
VERTEX
  8
0
 10
1.24479
 20
0.147569
 30
0.0
 40
0
 41
0
  0
SEQEND
 8
0
  0
POLYLINE
  8
0
 62
     173
 66
     1
 10
0
 20
0
 30
0.0
 70
     1
 40
0
 41
0
  0
VERTEX
  8
0
 10
1.24479
 20
0.257542
 30
0.0
 40
0
 41
0
  0
VERTEX
  8
0
 10
1.31179
 20
0.257542
 30
0.0
 40
0
 41
0
  0
VERTEX
  8
0
 10
1.31179
 20
0.225532
 30
0.0
 40
0
 41
0
  0
VERTEX
  8
0
 10
1.24479
 20
0.225532
 30
0.0
 40
0
 41
0
  0
VERTEX
  8
0
 10
1.24479
 20
0.257542
 30
0.0
 40
0
 41
0
  0
SEQEND
 8
0
  0
POLYLINE
  8
0
 62
     173
 66
     1
 10
0
 20
0
 30
0.0
 70
     1
 40
0
 41
0
  0
VERTEX
  8
0
 10
0.161783
 20
1.70731
 30
0.0
 40
0
 41
0
  0
VERTEX
  8
0
 10
0.189779
 20
1.70731
 30
0.0
 40
0
 41
0
  0
VERTEX
  8
0
 10
0.189779
 20
1.69732
 30
0.0
 40
0
 41
0
  0
VERTEX
  8
0
 10
0.161783
 20
1.69732
 30
0.0
 40
0
 41
0
  0
VERTEX
  8
0
 10
0.161783
 20
1.70731
 30
0.0
 40
0
 41
0
  0
SEQEND
 8
0
  0
POLYLINE
  8
0
 62
     173
 66
     1
 10
0
 20
0
 30
0.0
 70
     1
 40
0
 41
0
  0
VERTEX
  8
0
 10
0.161783
 20
1.68761
 30
0.0
 40
0
 41
0
  0
VERTEX
  8
0
 10
0.189779
 20
1.68761
 30
0.0
 40
0
 41
0
  0
VERTEX
  8
0
 10
0.189779
 20
1.67763
 30
0.0
 40
0
 41
0
  0
VERTEX
  8
0
 10
0.161783
 20
1.67763
 30
0.0
 40
0
 41
0
  0
VERTEX
  8
0
 10
0.161783
 20
1.68761
 30
0.0
 40
0
 41
0
  0
SEQEND
 8
0
  0
POLYLINE
  8
0
 62
     173
 66
     1
 10
0
 20
0
 30
0.0
 70
     1
 40
0
 41
0
  0
VERTEX
  8
0
 10
0.161783
 20
1.66792
 30
0.0
 40
0
 41
0
  0
VERTEX
  8
0
 10
0.189779
 20
1.66792
 30
0.0
 40
0
 41
0
  0
VERTEX
  8
0
 10
0.189779
 20
1.65793
 30
0.0
 40
0
 41
0
  0
VERTEX
  8
0
 10
0.161783
 20
1.65793
 30
0.0
 40
0
 41
0
  0
VERTEX
  8
0
 10
0.161783
 20
1.66792
 30
0.0
 40
0
 41
0
  0
SEQEND
 8
0
  0
POLYLINE
  8
0
 62
     173
 66
     1
 10
0
 20
0
 30
0.0
 70
     1
 40
0
 41
0
  0
VERTEX
  8
0
 10
0.161783
 20
1.64822
 30
0.0
 40
0
 41
0
  0
VERTEX
  8
0
 10
0.189779
 20
1.64822
 30
0.0
 40
0
 41
0
  0
VERTEX
  8
0
 10
0.189779
 20
1.63824
 30
0.0
 40
0
 41
0
  0
VERTEX
  8
0
 10
0.161783
 20
1.63824
 30
0.0
 40
0
 41
0
  0
VERTEX
  8
0
 10
0.161783
 20
1.64822
 30
0.0
 40
0
 41
0
  0
SEQEND
 8
0
  0
POLYLINE
  8
0
 62
     173
 66
     1
 10
0
 20
0
 30
0.0
 70
     1
 40
0
 41
0
  0
VERTEX
  8
0
 10
0.240776
 20
1.64822
 30
0.0
 40
0
 41
0
  0
VERTEX
  8
0
 10
0.268772
 20
1.64822
 30
0.0
 40
0
 41
0
  0
VERTEX
  8
0
 10
0.268772
 20
1.63824
 30
0.0
 40
0
 41
0
  0
VERTEX
  8
0
 10
0.240776
 20
1.63824
 30
0.0
 40
0
 41
0
  0
VERTEX
  8
0
 10
0.240776
 20
1.64822
 30
0.0
 40
0
 41
0
  0
SEQEND
 8
0
  0
POLYLINE
  8
0
 62
     173
 66
     1
 10
0
 20
0
 30
0.0
 70
     1
 40
0
 41
0
  0
VERTEX
  8
0
 10
0.240776
 20
1.66792
 30
0.0
 40
0
 41
0
  0
VERTEX
  8
0
 10
0.268772
 20
1.66792
 30
0.0
 40
0
 41
0
  0
VERTEX
  8
0
 10
0.268772
 20
1.65793
 30
0.0
 40
0
 41
0
  0
VERTEX
  8
0
 10
0.240776
 20
1.65793
 30
0.0
 40
0
 41
0
  0
VERTEX
  8
0
 10
0.240776
 20
1.66792
 30
0.0
 40
0
 41
0
  0
SEQEND
 8
0
  0
POLYLINE
  8
0
 62
     173
 66
     1
 10
0
 20
0
 30
0.0
 70
     1
 40
0
 41
0
  0
VERTEX
  8
0
 10
0.240776
 20
1.68761
 30
0.0
 40
0
 41
0
  0
VERTEX
  8
0
 10
0.268772
 20
1.68761
 30
0.0
 40
0
 41
0
  0
VERTEX
  8
0
 10
0.268772
 20
1.67763
 30
0.0
 40
0
 41
0
  0
VERTEX
  8
0
 10
0.240776
 20
1.67763
 30
0.0
 40
0
 41
0
  0
VERTEX
  8
0
 10
0.240776
 20
1.68761
 30
0.0
 40
0
 41
0
  0
SEQEND
 8
0
  0
POLYLINE
  8
0
 62
     173
 66
     1
 10
0
 20
0
 30
0.0
 70
     1
 40
0
 41
0
  0
VERTEX
  8
0
 10
0.240776
 20
1.70731
 30
0.0
 40
0
 41
0
  0
VERTEX
  8
0
 10
0.268772
 20
1.70731
 30
0.0
 40
0
 41
0
  0
VERTEX
  8
0
 10
0.268772
 20
1.69732
 30
0.0
 40
0
 41
0
  0
VERTEX
  8
0
 10
0.240776
 20
1.69732
 30
0.0
 40
0
 41
0
  0
VERTEX
  8
0
 10
0.240776
 20
1.70731
 30
0.0
 40
0
 41
0
  0
SEQEND
 8
0
  0
POLYLINE
  8
0
 62
     173
 66
     1
 10
0
 20
0
 30
0.0
 70
     1
 40
0
 41
0
  0
VERTEX
  8
0
 10
1.44928
 20
0.458225
 30
0.0
 40
0
 41
0
  0
VERTEX
  8
0
 10
1.44928
 20
0.460232
 30
0.0
 40
0
 41
0
  0
VERTEX
  8
0
 10
1.44125
 20
0.466254
 30
0.0
 40
0
 41
0
  0
VERTEX
  8
0
 10
1.43326
 20
0.460232
 30
0.0
 40
0
 41
0
  0
VERTEX
  8
0
 10
1.43326
 20
0.458225
 30
0.0
 40
0
 41
0
  0
VERTEX
  8
0
 10
1.43326
 20
0.456272
 30
0.0
 40
0
 41
0
  0
VERTEX
  8
0
 10
1.44125
 20
0.45025
 30
0.0
 40
0
 41
0
  0
VERTEX
  8
0
 10
1.44928
 20
0.456272
 30
0.0
 40
0
 41
0
  0
VERTEX
  8
0
 10
1.44928
 20
0.458225
 30
0.0
 40
0
 41
0
  0
SEQEND
 8
0
  0
POLYLINE
  8
0
 62
     173
 66
     1
 10
0
 20
0
 30
0.0
 70
     1
 40
0
 41
0
  0
VERTEX
  8
0
 10
1.42231
 20
0.458225
 30
0.0
 40
0
 41
0
  0
VERTEX
  8
0
 10
1.42231
 20
0.460232
 30
0.0
 40
0
 41
0
  0
VERTEX
  8
0
 10
1.41428
 20
0.466254
 30
0.0
 40
0
 41
0
  0
VERTEX
  8
0
 10
1.40631
 20
0.460232
 30
0.0
 40
0
 41
0
  0
VERTEX
  8
0
 10
1.40631
 20
0.458225
 30
0.0
 40
0
 41
0
  0
VERTEX
  8
0
 10
1.40631
 20
0.456272
 30
0.0
 40
0
 41
0
  0
VERTEX
  8
0
 10
1.41428
 20
0.45025
 30
0.0
 40
0
 41
0
  0
VERTEX
  8
0
 10
1.42231
 20
0.456272
 30
0.0
 40
0
 41
0
  0
VERTEX
  8
0
 10
1.42231
 20
0.458225
 30
0.0
 40
0
 41
0
  0
SEQEND
 8
0
  0
POLYLINE
  8
0
 62
     173
 66
     1
 10
0
 20
0
 30
0.0
 70
     1
 40
0
 41
0
  0
VERTEX
  8
0
 10
1.44928
 20
0.643229
 30
0.0
 40
0
 41
0
  0
VERTEX
  8
0
 10
1.44928
 20
0.645236
 30
0.0
 40
0
 41
0
  0
VERTEX
  8
0
 10
1.44125
 20
0.651258
 30
0.0
 40
0
 41
0
  0
VERTEX
  8
0
 10
1.43326
 20
0.645236
 30
0.0
 40
0
 41
0
  0
VERTEX
  8
0
 10
1.43326
 20
0.643229
 30
0.0
 40
0
 41
0
  0
VERTEX
  8
0
 10
1.43326
 20
0.641276
 30
0.0
 40
0
 41
0
  0
VERTEX
  8
0
 10
1.44125
 20
0.635254
 30
0.0
 40
0
 41
0
  0
VERTEX
  8
0
 10
1.44928
 20
0.641276
 30
0.0
 40
0
 41
0
  0
VERTEX
  8
0
 10
1.44928
 20
0.643229
 30
0.0
 40
0
 41
0
  0
SEQEND
 8
0
  0
POLYLINE
  8
0
 62
     173
 66
     1
 10
0
 20
0
 30
0.0
 70
     1
 40
0
 41
0
  0
VERTEX
  8
0
 10
1.42231
 20
0.643229
 30
0.0
 40
0
 41
0
  0
VERTEX
  8
0
 10
1.42231
 20
0.645236
 30
0.0
 40
0
 41
0
  0
VERTEX
  8
0
 10
1.41428
 20
0.651258
 30
0.0
 40
0
 41
0
  0
VERTEX
  8
0
 10
1.40631
 20
0.645236
 30
0.0
 40
0
 41
0
  0
VERTEX
  8
0
 10
1.40631
 20
0.643229
 30
0.0
 40
0
 41
0
  0
VERTEX
  8
0
 10
1.40631
 20
0.641276
 30
0.0
 40
0
 41
0
  0
VERTEX
  8
0
 10
1.41428
 20
0.635254
 30
0.0
 40
0
 41
0
  0
VERTEX
  8
0
 10
1.42231
 20
0.641276
 30
0.0
 40
0
 41
0
  0
VERTEX
  8
0
 10
1.42231
 20
0.643229
 30
0.0
 40
0
 41
0
  0
SEQEND
 8
0
  0
POLYLINE
  8
0
 62
     173
 66
     1
 10
0
 20
0
 30
0.0
 70
     1
 40
0
 41
0
  0
VERTEX
  8
0
 10
1.44928
 20
0.704264
 30
0.0
 40
0
 41
0
  0
VERTEX
  8
0
 10
1.44928
 20
0.706272
 30
0.0
 40
0
 41
0
  0
VERTEX
  8
0
 10
1.44125
 20
0.712294
 30
0.0
 40
0
 41
0
  0
VERTEX
  8
0
 10
1.43326
 20
0.706272
 30
0.0
 40
0
 41
0
  0
VERTEX
  8
0
 10
1.43326
 20
0.704264
 30
0.0
 40
0
 41
0
  0
VERTEX
  8
0
 10
1.43326
 20
0.702311
 30
0.0
 40
0
 41
0
  0
VERTEX
  8
0
 10
1.44125
 20
0.696289
 30
0.0
 40
0
 41
0
  0
VERTEX
  8
0
 10
1.44928
 20
0.702311
 30
0.0
 40
0
 41
0
  0
VERTEX
  8
0
 10
1.44928
 20
0.704264
 30
0.0
 40
0
 41
0
  0
SEQEND
 8
0
  0
POLYLINE
  8
0
 62
     173
 66
     1
 10
0
 20
0
 30
0.0
 70
     1
 40
0
 41
0
  0
VERTEX
  8
0
 10
1.42231
 20
0.704264
 30
0.0
 40
0
 41
0
  0
VERTEX
  8
0
 10
1.42231
 20
0.706272
 30
0.0
 40
0
 41
0
  0
VERTEX
  8
0
 10
1.41428
 20
0.712294
 30
0.0
 40
0
 41
0
  0
VERTEX
  8
0
 10
1.40631
 20
0.706272
 30
0.0
 40
0
 41
0
  0
VERTEX
  8
0
 10
1.40631
 20
0.704264
 30
0.0
 40
0
 41
0
  0
VERTEX
  8
0
 10
1.40631
 20
0.702311
 30
0.0
 40
0
 41
0
  0
VERTEX
  8
0
 10
1.41428
 20
0.696289
 30
0.0
 40
0
 41
0
  0
VERTEX
  8
0
 10
1.42231
 20
0.702311
 30
0.0
 40
0
 41
0
  0
VERTEX
  8
0
 10
1.42231
 20
0.704264
 30
0.0
 40
0
 41
0
  0
SEQEND
 8
0
  0
POLYLINE
  8
0
 62
     173
 66
     1
 10
0
 20
0
 30
0.0
 70
     1
 40
0
 41
0
  0
VERTEX
  8
0
 10
1.44928
 20
0.889268
 30
0.0
 40
0
 41
0
  0
VERTEX
  8
0
 10
1.44928
 20
0.891276
 30
0.0
 40
0
 41
0
  0
VERTEX
  8
0
 10
1.44125
 20
0.897299
 30
0.0
 40
0
 41
0
  0
VERTEX
  8
0
 10
1.43326
 20
0.891276
 30
0.0
 40
0
 41
0
  0
VERTEX
  8
0
 10
1.43326
 20
0.889268
 30
0.0
 40
0
 41
0
  0
VERTEX
  8
0
 10
1.43326
 20
0.887315
 30
0.0
 40
0
 41
0
  0
VERTEX
  8
0
 10
1.44125
 20
0.881293
 30
0.0
 40
0
 41
0
  0
VERTEX
  8
0
 10
1.44928
 20
0.887315
 30
0.0
 40
0
 41
0
  0
VERTEX
  8
0
 10
1.44928
 20
0.889268
 30
0.0
 40
0
 41
0
  0
SEQEND
 8
0
  0
POLYLINE
  8
0
 62
     173
 66
     1
 10
0
 20
0
 30
0.0
 70
     1
 40
0
 41
0
  0
VERTEX
  8
0
 10
1.42231
 20
0.889268
 30
0.0
 40
0
 41
0
  0
VERTEX
  8
0
 10
1.42231
 20
0.891276
 30
0.0
 40
0
 41
0
  0
VERTEX
  8
0
 10
1.41428
 20
0.897299
 30
0.0
 40
0
 41
0
  0
VERTEX
  8
0
 10
1.40631
 20
0.891276
 30
0.0
 40
0
 41
0
  0
VERTEX
  8
0
 10
1.40631
 20
0.889268
 30
0.0
 40
0
 41
0
  0
VERTEX
  8
0
 10
1.40631
 20
0.887315
 30
0.0
 40
0
 41
0
  0
VERTEX
  8
0
 10
1.41428
 20
0.881293
 30
0.0
 40
0
 41
0
  0
VERTEX
  8
0
 10
1.42231
 20
0.887315
 30
0.0
 40
0
 41
0
  0
VERTEX
  8
0
 10
1.42231
 20
0.889268
 30
0.0
 40
0
 41
0
  0
SEQEND
 8
0
  0
POLYLINE
  8
0
 62
     173
 66
     1
 10
0
 20
0
 30
0.0
 70
     1
 40
0
 41
0
  0
VERTEX
  8
0
 10
1.44928
 20
0.950358
 30
0.0
 40
0
 41
0
  0
VERTEX
  8
0
 10
1.44928
 20
0.952365
 30
0.0
 40
0
 41
0
  0
VERTEX
  8
0
 10
1.44125
 20
0.958333
 30
0.0
 40
0
 41
0
  0
VERTEX
  8
0
 10
1.43326
 20
0.952365
 30
0.0
 40
0
 41
0
  0
VERTEX
  8
0
 10
1.43326
 20
0.950358
 30
0.0
 40
0
 41
0
  0
VERTEX
  8
0
 10
1.43326
 20
0.948406
 30
0.0
 40
0
 41
0
  0
VERTEX
  8
0
 10
1.44125
 20
0.942383
 30
0.0
 40
0
 41
0
  0
VERTEX
  8
0
 10
1.44928
 20
0.948406
 30
0.0
 40
0
 41
0
  0
VERTEX
  8
0
 10
1.44928
 20
0.950358
 30
0.0
 40
0
 41
0
  0
SEQEND
 8
0
  0
POLYLINE
  8
0
 62
     173
 66
     1
 10
0
 20
0
 30
0.0
 70
     1
 40
0
 41
0
  0
VERTEX
  8
0
 10
1.42231
 20
0.950358
 30
0.0
 40
0
 41
0
  0
VERTEX
  8
0
 10
1.42231
 20
0.952365
 30
0.0
 40
0
 41
0
  0
VERTEX
  8
0
 10
1.41428
 20
0.958333
 30
0.0
 40
0
 41
0
  0
VERTEX
  8
0
 10
1.40631
 20
0.952365
 30
0.0
 40
0
 41
0
  0
VERTEX
  8
0
 10
1.40631
 20
0.950358
 30
0.0
 40
0
 41
0
  0
VERTEX
  8
0
 10
1.40631
 20
0.948406
 30
0.0
 40
0
 41
0
  0
VERTEX
  8
0
 10
1.41428
 20
0.942383
 30
0.0
 40
0
 41
0
  0
VERTEX
  8
0
 10
1.42231
 20
0.948406
 30
0.0
 40
0
 41
0
  0
VERTEX
  8
0
 10
1.42231
 20
0.950358
 30
0.0
 40
0
 41
0
  0
SEQEND
 8
0
  0
POLYLINE
  8
0
 62
     173
 66
     1
 10
0
 20
0
 30
0.0
 70
     1
 40
0
 41
0
  0
VERTEX
  8
0
 10
1.44928
 20
1.13536
 30
0.0
 40
0
 41
0
  0
VERTEX
  8
0
 10
1.44928
 20
1.13737
 30
0.0
 40
0
 41
0
  0
VERTEX
  8
0
 10
1.44125
 20
1.14334
 30
0.0
 40
0
 41
0
  0
VERTEX
  8
0
 10
1.43326
 20
1.13737
 30
0.0
 40
0
 41
0
  0
VERTEX
  8
0
 10
1.43326
 20
1.13536
 30
0.0
 40
0
 41
0
  0
VERTEX
  8
0
 10
1.43326
 20
1.13341
 30
0.0
 40
0
 41
0
  0
VERTEX
  8
0
 10
1.44125
 20
1.12739
 30
0.0
 40
0
 41
0
  0
VERTEX
  8
0
 10
1.44928
 20
1.13341
 30
0.0
 40
0
 41
0
  0
VERTEX
  8
0
 10
1.44928
 20
1.13536
 30
0.0
 40
0
 41
0
  0
SEQEND
 8
0
  0
POLYLINE
  8
0
 62
     173
 66
     1
 10
0
 20
0
 30
0.0
 70
     1
 40
0
 41
0
  0
VERTEX
  8
0
 10
1.42231
 20
1.13536
 30
0.0
 40
0
 41
0
  0
VERTEX
  8
0
 10
1.42231
 20
1.13737
 30
0.0
 40
0
 41
0
  0
VERTEX
  8
0
 10
1.41428
 20
1.14334
 30
0.0
 40
0
 41
0
  0
VERTEX
  8
0
 10
1.40631
 20
1.13737
 30
0.0
 40
0
 41
0
  0
VERTEX
  8
0
 10
1.40631
 20
1.13536
 30
0.0
 40
0
 41
0
  0
VERTEX
  8
0
 10
1.40631
 20
1.13341
 30
0.0
 40
0
 41
0
  0
VERTEX
  8
0
 10
1.41428
 20
1.12739
 30
0.0
 40
0
 41
0
  0
VERTEX
  8
0
 10
1.42231
 20
1.13341
 30
0.0
 40
0
 41
0
  0
VERTEX
  8
0
 10
1.42231
 20
1.13536
 30
0.0
 40
0
 41
0
  0
SEQEND
 8
0
  0
POLYLINE
  8
0
 62
     173
 66
     1
 10
0
 20
0
 30
0.0
 70
     1
 40
0
 41
0
  0
VERTEX
  8
0
 10
0.492622
 20
0.168837
 30
0.0
 40
0
 41
0
  0
VERTEX
  8
0
 10
0.526313
 20
0.168837
 30
0.0
 40
0
 41
0
  0
VERTEX
  8
0
 10
0.526313
 20
0.105848
 30
0.0
 40
0
 41
0
  0
VERTEX
  8
0
 10
0.492622
 20
0.105848
 30
0.0
 40
0
 41
0
  0
VERTEX
  8
0
 10
0.492622
 20
0.168837
 30
0.0
 40
0
 41
0
  0
SEQEND
 8
0
  0
POLYLINE
  8
0
 62
     173
 66
     1
 10
0
 20
0
 30
0.0
 70
     1
 40
0
 41
0
  0
VERTEX
  8
0
 10
0.612956
 20
0.168837
 30
0.0
 40
0
 41
0
  0
VERTEX
  8
0
 10
0.646647
 20
0.168837
 30
0.0
 40
0
 41
0
  0
VERTEX
  8
0
 10
0.646647
 20
0.105848
 30
0.0
 40
0
 41
0
  0
VERTEX
  8
0
 10
0.612956
 20
0.105848
 30
0.0
 40
0
 41
0
  0
VERTEX
  8
0
 10
0.612956
 20
0.168837
 30
0.0
 40
0
 41
0
  0
SEQEND
 8
0
  0
POLYLINE
  8
0
 62
     173
 66
     1
 10
0
 20
0
 30
0.0
 70
     1
 40
0
 41
0
  0
VERTEX
  8
0
 10
1.24067
 20
1.26134
 30
0.0
 40
0
 41
0
  0
VERTEX
  8
0
 10
1.27436
 20
1.26134
 30
0.0
 40
0
 41
0
  0
VERTEX
  8
0
 10
1.27436
 20
1.19835
 30
0.0
 40
0
 41
0
  0
VERTEX
  8
0
 10
1.24067
 20
1.19835
 30
0.0
 40
0
 41
0
  0
VERTEX
  8
0
 10
1.24067
 20
1.26134
 30
0.0
 40
0
 41
0
  0
SEQEND
 8
0
  0
POLYLINE
  8
0
 62
     173
 66
     1
 10
0
 20
0
 30
0.0
 70
     1
 40
0
 41
0
  0
VERTEX
  8
0
 10
1.36095
 20
1.26134
 30
0.0
 40
0
 41
0
  0
VERTEX
  8
0
 10
1.39464
 20
1.26134
 30
0.0
 40
0
 41
0
  0
VERTEX
  8
0
 10
1.39464
 20
1.19835
 30
0.0
 40
0
 41
0
  0
VERTEX
  8
0
 10
1.36095
 20
1.19835
 30
0.0
 40
0
 41
0
  0
VERTEX
  8
0
 10
1.36095
 20
1.26134
 30
0.0
 40
0
 41
0
  0
SEQEND
 8
0
  0
POLYLINE
  8
0
 62
     173
 66
     1
 10
0
 20
0
 30
0.0
 70
     1
 40
0
 41
0
  0
VERTEX
  8
0
 10
1.41379
 20
0.473742
 30
0.0
 40
0
 41
0
  0
VERTEX
  8
0
 10
1.41086
 20
0.473742
 30
0.0
 40
0
 41
0
  0
VERTEX
  8
0
 10
1.40213
 20
0.468912
 30
0.0
 40
0
 41
0
  0
VERTEX
  8
0
 10
1.39828
 20
0.458225
 30
0.0
 40
0
 41
0
  0
VERTEX
  8
0
 10
1.40213
 20
0.447592
 30
0.0
 40
0
 41
0
  0
VERTEX
  8
0
 10
1.41086
 20
0.442708
 30
0.0
 40
0
 41
0
  0
VERTEX
  8
0
 10
1.41379
 20
0.442708
 30
0.0
 40
0
 41
0
  0
VERTEX
  8
0
 10
1.44179
 20
0.442708
 30
0.0
 40
0
 41
0
  0
VERTEX
  8
0
 10
1.44467
 20
0.442708
 30
0.0
 40
0
 41
0
  0
VERTEX
  8
0
 10
1.4534
 20
0.447592
 30
0.0
 40
0
 41
0
  0
VERTEX
  8
0
 10
1.45725
 20
0.458225
 30
0.0
 40
0
 41
0
  0
VERTEX
  8
0
 10
1.4534
 20
0.468912
 30
0.0
 40
0
 41
0
  0
VERTEX
  8
0
 10
1.44467
 20
0.473742
 30
0.0
 40
0
 41
0
  0
VERTEX
  8
0
 10
1.44179
 20
0.473742
 30
0.0
 40
0
 41
0
  0
VERTEX
  8
0
 10
1.41379
 20
0.473742
 30
0.0
 40
0
 41
0
  0
SEQEND
 8
0
  0
POLYLINE
  8
0
 62
     173
 66
     1
 10
0
 20
0
 30
0.0
 70
     1
 40
0
 41
0
  0
VERTEX
  8
0
 10
1.41379
 20
0.658746
 30
0.0
 40
0
 41
0
  0
VERTEX
  8
0
 10
1.41086
 20
0.658746
 30
0.0
 40
0
 41
0
  0
VERTEX
  8
0
 10
1.40213
 20
0.653917
 30
0.0
 40
0
 41
0
  0
VERTEX
  8
0
 10
1.39828
 20
0.643229
 30
0.0
 40
0
 41
0
  0
VERTEX
  8
0
 10
1.40213
 20
0.632596
 30
0.0
 40
0
 41
0
  0
VERTEX
  8
0
 10
1.41086
 20
0.627713
 30
0.0
 40
0
 41
0
  0
VERTEX
  8
0
 10
1.41379
 20
0.627713
 30
0.0
 40
0
 41
0
  0
VERTEX
  8
0
 10
1.44179
 20
0.627713
 30
0.0
 40
0
 41
0
  0
VERTEX
  8
0
 10
1.44467
 20
0.627713
 30
0.0
 40
0
 41
0
  0
VERTEX
  8
0
 10
1.4534
 20
0.632596
 30
0.0
 40
0
 41
0
  0
VERTEX
  8
0
 10
1.45725
 20
0.643229
 30
0.0
 40
0
 41
0
  0
VERTEX
  8
0
 10
1.4534
 20
0.653917
 30
0.0
 40
0
 41
0
  0
VERTEX
  8
0
 10
1.44467
 20
0.658746
 30
0.0
 40
0
 41
0
  0
VERTEX
  8
0
 10
1.44179
 20
0.658746
 30
0.0
 40
0
 41
0
  0
VERTEX
  8
0
 10
1.41379
 20
0.658746
 30
0.0
 40
0
 41
0
  0
SEQEND
 8
0
  0
POLYLINE
  8
0
 62
     173
 66
     1
 10
0
 20
0
 30
0.0
 70
     1
 40
0
 41
0
  0
VERTEX
  8
0
 10
1.41379
 20
0.719781
 30
0.0
 40
0
 41
0
  0
VERTEX
  8
0
 10
1.41086
 20
0.719781
 30
0.0
 40
0
 41
0
  0
VERTEX
  8
0
 10
1.40213
 20
0.714953
 30
0.0
 40
0
 41
0
  0
VERTEX
  8
0
 10
1.39828
 20
0.704318
 30
0.0
 40
0
 41
0
  0
VERTEX
  8
0
 10
1.40213
 20
0.693685
 30
0.0
 40
0
 41
0
  0
VERTEX
  8
0
 10
1.41086
 20
0.688803
 30
0.0
 40
0
 41
0
  0
VERTEX
  8
0
 10
1.41379
 20
0.688803
 30
0.0
 40
0
 41
0
  0
VERTEX
  8
0
 10
1.44179
 20
0.688803
 30
0.0
 40
0
 41
0
  0
VERTEX
  8
0
 10
1.44467
 20
0.688803
 30
0.0
 40
0
 41
0
  0
VERTEX
  8
0
 10
1.4534
 20
0.693685
 30
0.0
 40
0
 41
0
  0
VERTEX
  8
0
 10
1.45725
 20
0.704318
 30
0.0
 40
0
 41
0
  0
VERTEX
  8
0
 10
1.4534
 20
0.714953
 30
0.0
 40
0
 41
0
  0
VERTEX
  8
0
 10
1.44467
 20
0.719781
 30
0.0
 40
0
 41
0
  0
VERTEX
  8
0
 10
1.44179
 20
0.719781
 30
0.0
 40
0
 41
0
  0
VERTEX
  8
0
 10
1.41379
 20
0.719781
 30
0.0
 40
0
 41
0
  0
SEQEND
 8
0
  0
POLYLINE
  8
0
 62
     173
 66
     1
 10
0
 20
0
 30
0.0
 70
     1
 40
0
 41
0
  0
VERTEX
  8
0
 10
1.41379
 20
0.904785
 30
0.0
 40
0
 41
0
  0
VERTEX
  8
0
 10
1.41086
 20
0.904785
 30
0.0
 40
0
 41
0
  0
VERTEX
  8
0
 10
1.40213
 20
0.899957
 30
0.0
 40
0
 41
0
  0
VERTEX
  8
0
 10
1.39828
 20
0.889324
 30
0.0
 40
0
 41
0
  0
VERTEX
  8
0
 10
1.40213
 20
0.878689
 30
0.0
 40
0
 41
0
  0
VERTEX
  8
0
 10
1.41086
 20
0.873807
 30
0.0
 40
0
 41
0
  0
VERTEX
  8
0
 10
1.41379
 20
0.873807
 30
0.0
 40
0
 41
0
  0
VERTEX
  8
0
 10
1.44179
 20
0.873807
 30
0.0
 40
0
 41
0
  0
VERTEX
  8
0
 10
1.44467
 20
0.873807
 30
0.0
 40
0
 41
0
  0
VERTEX
  8
0
 10
1.4534
 20
0.878689
 30
0.0
 40
0
 41
0
  0
VERTEX
  8
0
 10
1.45725
 20
0.889324
 30
0.0
 40
0
 41
0
  0
VERTEX
  8
0
 10
1.4534
 20
0.899957
 30
0.0
 40
0
 41
0
  0
VERTEX
  8
0
 10
1.44467
 20
0.904785
 30
0.0
 40
0
 41
0
  0
VERTEX
  8
0
 10
1.44179
 20
0.904785
 30
0.0
 40
0
 41
0
  0
VERTEX
  8
0
 10
1.41379
 20
0.904785
 30
0.0
 40
0
 41
0
  0
SEQEND
 8
0
  0
POLYLINE
  8
0
 62
     173
 66
     1
 10
0
 20
0
 30
0.0
 70
     1
 40
0
 41
0
  0
VERTEX
  8
0
 10
1.41379
 20
0.965875
 30
0.0
 40
0
 41
0
  0
VERTEX
  8
0
 10
1.41086
 20
0.965875
 30
0.0
 40
0
 41
0
  0
VERTEX
  8
0
 10
1.40213
 20
0.961046
 30
0.0
 40
0
 41
0
  0
VERTEX
  8
0
 10
1.39828
 20
0.950358
 30
0.0
 40
0
 41
0
  0
VERTEX
  8
0
 10
1.40213
 20
0.939725
 30
0.0
 40
0
 41
0
  0
VERTEX
  8
0
 10
1.41086
 20
0.934842
 30
0.0
 40
0
 41
0
  0
VERTEX
  8
0
 10
1.41379
 20
0.934842
 30
0.0
 40
0
 41
0
  0
VERTEX
  8
0
 10
1.44179
 20
0.934842
 30
0.0
 40
0
 41
0
  0
VERTEX
  8
0
 10
1.44467
 20
0.934842
 30
0.0
 40
0
 41
0
  0
VERTEX
  8
0
 10
1.4534
 20
0.939725
 30
0.0
 40
0
 41
0
  0
VERTEX
  8
0
 10
1.45725
 20
0.950358
 30
0.0
 40
0
 41
0
  0
VERTEX
  8
0
 10
1.4534
 20
0.961046
 30
0.0
 40
0
 41
0
  0
VERTEX
  8
0
 10
1.44467
 20
0.965875
 30
0.0
 40
0
 41
0
  0
VERTEX
  8
0
 10
1.44179
 20
0.965875
 30
0.0
 40
0
 41
0
  0
VERTEX
  8
0
 10
1.41379
 20
0.965875
 30
0.0
 40
0
 41
0
  0
SEQEND
 8
0
  0
POLYLINE
  8
0
 62
     173
 66
     1
 10
0
 20
0
 30
0.0
 70
     1
 40
0
 41
0
  0
VERTEX
  8
0
 10
1.41379
 20
1.15088
 30
0.0
 40
0
 41
0
  0
VERTEX
  8
0
 10
1.41086
 20
1.15088
 30
0.0
 40
0
 41
0
  0
VERTEX
  8
0
 10
1.40213
 20
1.14605
 30
0.0
 40
0
 41
0
  0
VERTEX
  8
0
 10
1.39828
 20
1.13536
 30
0.0
 40
0
 41
0
  0
VERTEX
  8
0
 10
1.40213
 20
1.12473
 30
0.0
 40
0
 41
0
  0
VERTEX
  8
0
 10
1.41086
 20
1.11985
 30
0.0
 40
0
 41
0
  0
VERTEX
  8
0
 10
1.41379
 20
1.11985
 30
0.0
 40
0
 41
0
  0
VERTEX
  8
0
 10
1.44179
 20
1.11985
 30
0.0
 40
0
 41
0
  0
VERTEX
  8
0
 10
1.44467
 20
1.11985
 30
0.0
 40
0
 41
0
  0
VERTEX
  8
0
 10
1.4534
 20
1.12473
 30
0.0
 40
0
 41
0
  0
VERTEX
  8
0
 10
1.45725
 20
1.13536
 30
0.0
 40
0
 41
0
  0
VERTEX
  8
0
 10
1.4534
 20
1.14605
 30
0.0
 40
0
 41
0
  0
VERTEX
  8
0
 10
1.44467
 20
1.15088
 30
0.0
 40
0
 41
0
  0
VERTEX
  8
0
 10
1.44179
 20
1.15088
 30
0.0
 40
0
 41
0
  0
VERTEX
  8
0
 10
1.41379
 20
1.15088
 30
0.0
 40
0
 41
0
  0
SEQEND
 8
0
  0
POLYLINE
  8
0
 62
     173
 66
     1
 10
0
 20
0
 30
0.0
 70
     1
 40
0
 41
0
  0
VERTEX
  8
0
 10
0.53304
 20
0.819933
 30
0.0
 40
0
 41
0
  0
VERTEX
  8
0
 10
0.568033
 20
0.819933
 30
0.0
 40
0
 41
0
  0
VERTEX
  8
0
 10
0.568033
 20
0.786947
 30
0.0
 40
0
 41
0
  0
VERTEX
  8
0
 10
0.53304
 20
0.786947
 30
0.0
 40
0
 41
0
  0
VERTEX
  8
0
 10
0.53304
 20
0.819933
 30
0.0
 40
0
 41
0
  0
SEQEND
 8
0
  0
POLYLINE
  8
0
 62
     173
 66
     1
 10
0
 20
0
 30
0.0
 70
     1
 40
0
 41
0
  0
VERTEX
  8
0
 10
0.583008
 20
0.819933
 30
0.0
 40
0
 41
0
  0
VERTEX
  8
0
 10
0.618001
 20
0.819933
 30
0.0
 40
0
 41
0
  0
VERTEX
  8
0
 10
0.618001
 20
0.786947
 30
0.0
 40
0
 41
0
  0
VERTEX
  8
0
 10
0.583008
 20
0.786947
 30
0.0
 40
0
 41
0
  0
VERTEX
  8
0
 10
0.583008
 20
0.819933
 30
0.0
 40
0
 41
0
  0
SEQEND
 8
0
  0
POLYLINE
  8
0
 62
     173
 66
     1
 10
0
 20
0
 30
0.0
 70
     1
 40
0
 41
0
  0
VERTEX
  8
0
 10
0.633029
 20
0.819933
 30
0.0
 40
0
 41
0
  0
VERTEX
  8
0
 10
0.668024
 20
0.819933
 30
0.0
 40
0
 41
0
  0
VERTEX
  8
0
 10
0.668024
 20
0.786947
 30
0.0
 40
0
 41
0
  0
VERTEX
  8
0
 10
0.633029
 20
0.786947
 30
0.0
 40
0
 41
0
  0
VERTEX
  8
0
 10
0.633029
 20
0.819933
 30
0.0
 40
0
 41
0
  0
SEQEND
 8
0
  0
POLYLINE
  8
0
 62
     173
 66
     1
 10
0
 20
0
 30
0.0
 70
     1
 40
0
 41
0
  0
VERTEX
  8
0
 10
0.683051
 20
0.819933
 30
0.0
 40
0
 41
0
  0
VERTEX
  8
0
 10
0.718044
 20
0.819933
 30
0.0
 40
0
 41
0
  0
VERTEX
  8
0
 10
0.718044
 20
0.786947
 30
0.0
 40
0
 41
0
  0
VERTEX
  8
0
 10
0.683051
 20
0.786947
 30
0.0
 40
0
 41
0
  0
VERTEX
  8
0
 10
0.683051
 20
0.819933
 30
0.0
 40
0
 41
0
  0
SEQEND
 8
0
  0
POLYLINE
  8
0
 62
     173
 66
     1
 10
0
 20
0
 30
0.0
 70
     1
 40
0
 41
0
  0
VERTEX
  8
0
 10
0.733018
 20
0.819933
 30
0.0
 40
0
 41
0
  0
VERTEX
  8
0
 10
0.768013
 20
0.819933
 30
0.0
 40
0
 41
0
  0
VERTEX
  8
0
 10
0.768013
 20
0.786947
 30
0.0
 40
0
 41
0
  0
VERTEX
  8
0
 10
0.733018
 20
0.786947
 30
0.0
 40
0
 41
0
  0
VERTEX
  8
0
 10
0.733018
 20
0.819933
 30
0.0
 40
0
 41
0
  0
SEQEND
 8
0
  0
POLYLINE
  8
0
 62
     173
 66
     1
 10
0
 20
0
 30
0.0
 70
     1
 40
0
 41
0
  0
VERTEX
  8
0
 10
0.78304
 20
0.819933
 30
0.0
 40
0
 41
0
  0
VERTEX
  8
0
 10
0.818033
 20
0.819933
 30
0.0
 40
0
 41
0
  0
VERTEX
  8
0
 10
0.818033
 20
0.786947
 30
0.0
 40
0
 41
0
  0
VERTEX
  8
0
 10
0.78304
 20
0.786947
 30
0.0
 40
0
 41
0
  0
VERTEX
  8
0
 10
0.78304
 20
0.819933
 30
0.0
 40
0
 41
0
  0
SEQEND
 8
0
  0
POLYLINE
  8
0
 62
     173
 66
     1
 10
0
 20
0
 30
0.0
 70
     1
 40
0
 41
0
  0
VERTEX
  8
0
 10
0.833008
 20
0.819933
 30
0.0
 40
0
 41
0
  0
VERTEX
  8
0
 10
0.868001
 20
0.819933
 30
0.0
 40
0
 41
0
  0
VERTEX
  8
0
 10
0.868001
 20
0.786947
 30
0.0
 40
0
 41
0
  0
VERTEX
  8
0
 10
0.833008
 20
0.786947
 30
0.0
 40
0
 41
0
  0
VERTEX
  8
0
 10
0.833008
 20
0.819933
 30
0.0
 40
0
 41
0
  0
SEQEND
 8
0
  0
POLYLINE
  8
0
 62
     173
 66
     1
 10
0
 20
0
 30
0.0
 70
     1
 40
0
 41
0
  0
VERTEX
  8
0
 10
0.883029
 20
0.819933
 30
0.0
 40
0
 41
0
  0
VERTEX
  8
0
 10
0.918024
 20
0.819933
 30
0.0
 40
0
 41
0
  0
VERTEX
  8
0
 10
0.918024
 20
0.786947
 30
0.0
 40
0
 41
0
  0
VERTEX
  8
0
 10
0.883029
 20
0.786947
 30
0.0
 40
0
 41
0
  0
VERTEX
  8
0
 10
0.883029
 20
0.819933
 30
0.0
 40
0
 41
0
  0
SEQEND
 8
0
  0
POLYLINE
  8
0
 62
     173
 66
     1
 10
0
 20
0
 30
0.0
 70
     1
 40
0
 41
0
  0
VERTEX
  8
0
 10
0.933051
 20
0.819933
 30
0.0
 40
0
 41
0
  0
VERTEX
  8
0
 10
0.968045
 20
0.819933
 30
0.0
 40
0
 41
0
  0
VERTEX
  8
0
 10
0.968045
 20
0.786947
 30
0.0
 40
0
 41
0
  0
VERTEX
  8
0
 10
0.933051
 20
0.786947
 30
0.0
 40
0
 41
0
  0
VERTEX
  8
0
 10
0.933051
 20
0.819933
 30
0.0
 40
0
 41
0
  0
SEQEND
 8
0
  0
POLYLINE
  8
0
 62
     173
 66
     1
 10
0
 20
0
 30
0.0
 70
     1
 40
0
 41
0
  0
VERTEX
  8
0
 10
0.983018
 20
0.819933
 30
0.0
 40
0
 41
0
  0
VERTEX
  8
0
 10
1.01801
 20
0.819933
 30
0.0
 40
0
 41
0
  0
VERTEX
  8
0
 10
1.01801
 20
0.786947
 30
0.0
 40
0
 41
0
  0
VERTEX
  8
0
 10
0.983018
 20
0.786947
 30
0.0
 40
0
 41
0
  0
VERTEX
  8
0
 10
0.983018
 20
0.819933
 30
0.0
 40
0
 41
0
  0
SEQEND
 8
0
  0
POLYLINE
  8
0
 62
     173
 66
     1
 10
0
 20
0
 30
0.0
 70
     1
 40
0
 41
0
  0
VERTEX
  8
0
 10
1.03304
 20
0.819933
 30
0.0
 40
0
 41
0
  0
VERTEX
  8
0
 10
1.06803
 20
0.819933
 30
0.0
 40
0
 41
0
  0
VERTEX
  8
0
 10
1.06803
 20
0.786947
 30
0.0
 40
0
 41
0
  0
VERTEX
  8
0
 10
1.03304
 20
0.786947
 30
0.0
 40
0
 41
0
  0
VERTEX
  8
0
 10
1.03304
 20
0.819933
 30
0.0
 40
0
 41
0
  0
SEQEND
 8
0
  0
POLYLINE
  8
0
 62
     173
 66
     1
 10
0
 20
0
 30
0.0
 70
     1
 40
0
 41
0
  0
VERTEX
  8
0
 10
1.08301
 20
0.819933
 30
0.0
 40
0
 41
0
  0
VERTEX
  8
0
 10
1.118
 20
0.819933
 30
0.0
 40
0
 41
0
  0
VERTEX
  8
0
 10
1.118
 20
0.786947
 30
0.0
 40
0
 41
0
  0
VERTEX
  8
0
 10
1.08301
 20
0.786947
 30
0.0
 40
0
 41
0
  0
VERTEX
  8
0
 10
1.08301
 20
0.819933
 30
0.0
 40
0
 41
0
  0
SEQEND
 8
0
  0
POLYLINE
  8
0
 62
     173
 66
     1
 10
0
 20
0
 30
0.0
 70
     1
 40
0
 41
0
  0
VERTEX
  8
0
 10
1.3788
 20
0.521485
 30
0.0
 40
0
 41
0
  0
VERTEX
  8
0
 10
1.43381
 20
0.521485
 30
0.0
 40
0
 41
0
  0
VERTEX
  8
0
 10
1.43381
 20
0.489475
 30
0.0
 40
0
 41
0
  0
VERTEX
  8
0
 10
1.3788
 20
0.489475
 30
0.0
 40
0
 41
0
  0
VERTEX
  8
0
 10
1.3788
 20
0.521485
 30
0.0
 40
0
 41
0
  0
SEQEND
 8
0
  0
POLYLINE
  8
0
 62
     173
 66
     1
 10
0
 20
0
 30
0.0
 70
     1
 40
0
 41
0
  0
VERTEX
  8
0
 10
1.3788
 20
0.566732
 30
0.0
 40
0
 41
0
  0
VERTEX
  8
0
 10
1.43381
 20
0.566732
 30
0.0
 40
0
 41
0
  0
VERTEX
  8
0
 10
1.43381
 20
0.534722
 30
0.0
 40
0
 41
0
  0
VERTEX
  8
0
 10
1.3788
 20
0.534722
 30
0.0
 40
0
 41
0
  0
VERTEX
  8
0
 10
1.3788
 20
0.566732
 30
0.0
 40
0
 41
0
  0
SEQEND
 8
0
  0
POLYLINE
  8
0
 62
     173
 66
     1
 10
0
 20
0
 30
0.0
 70
     1
 40
0
 41
0
  0
VERTEX
  8
0
 10
1.3788
 20
0.611979
 30
0.0
 40
0
 41
0
  0
VERTEX
  8
0
 10
1.43381
 20
0.611979
 30
0.0
 40
0
 41
0
  0
VERTEX
  8
0
 10
1.43381
 20
0.579969
 30
0.0
 40
0
 41
0
  0
VERTEX
  8
0
 10
1.3788
 20
0.579969
 30
0.0
 40
0
 41
0
  0
VERTEX
  8
0
 10
1.3788
 20
0.611979
 30
0.0
 40
0
 41
0
  0
SEQEND
 8
0
  0
POLYLINE
  8
0
 62
     173
 66
     1
 10
0
 20
0
 30
0.0
 70
     1
 40
0
 41
0
  0
VERTEX
  8
0
 10
1.3788
 20
0.767524
 30
0.0
 40
0
 41
0
  0
VERTEX
  8
0
 10
1.43381
 20
0.767524
 30
0.0
 40
0
 41
0
  0
VERTEX
  8
0
 10
1.43381
 20
0.735514
 30
0.0
 40
0
 41
0
  0
VERTEX
  8
0
 10
1.3788
 20
0.735514
 30
0.0
 40
0
 41
0
  0
VERTEX
  8
0
 10
1.3788
 20
0.767524
 30
0.0
 40
0
 41
0
  0
SEQEND
 8
0
  0
POLYLINE
  8
0
 62
     173
 66
     1
 10
0
 20
0
 30
0.0
 70
     1
 40
0
 41
0
  0
VERTEX
  8
0
 10
1.3788
 20
0.812825
 30
0.0
 40
0
 41
0
  0
VERTEX
  8
0
 10
1.43381
 20
0.812825
 30
0.0
 40
0
 41
0
  0
VERTEX
  8
0
 10
1.43381
 20
0.780817
 30
0.0
 40
0
 41
0
  0
VERTEX
  8
0
 10
1.3788
 20
0.780817
 30
0.0
 40
0
 41
0
  0
VERTEX
  8
0
 10
1.3788
 20
0.812825
 30
0.0
 40
0
 41
0
  0
SEQEND
 8
0
  0
POLYLINE
  8
0
 62
     173
 66
     1
 10
0
 20
0
 30
0.0
 70
     1
 40
0
 41
0
  0
VERTEX
  8
0
 10
1.3788
 20
0.858074
 30
0.0
 40
0
 41
0
  0
VERTEX
  8
0
 10
1.43381
 20
0.858074
 30
0.0
 40
0
 41
0
  0
VERTEX
  8
0
 10
1.43381
 20
0.826064
 30
0.0
 40
0
 41
0
  0
VERTEX
  8
0
 10
1.3788
 20
0.826064
 30
0.0
 40
0
 41
0
  0
VERTEX
  8
0
 10
1.3788
 20
0.858074
 30
0.0
 40
0
 41
0
  0
SEQEND
 8
0
  0
POLYLINE
  8
0
 62
     173
 66
     1
 10
0
 20
0
 30
0.0
 70
     1
 40
0
 41
0
  0
VERTEX
  8
0
 10
1.3788
 20
1.01362
 30
0.0
 40
0
 41
0
  0
VERTEX
  8
0
 10
1.43381
 20
1.01362
 30
0.0
 40
0
 41
0
  0
VERTEX
  8
0
 10
1.43381
 20
0.981608
 30
0.0
 40
0
 41
0
  0
VERTEX
  8
0
 10
1.3788
 20
0.981608
 30
0.0
 40
0
 41
0
  0
VERTEX
  8
0
 10
1.3788
 20
1.01362
 30
0.0
 40
0
 41
0
  0
SEQEND
 8
0
  0
POLYLINE
  8
0
 62
     173
 66
     1
 10
0
 20
0
 30
0.0
 70
     1
 40
0
 41
0
  0
VERTEX
  8
0
 10
1.3788
 20
1.05887
 30
0.0
 40
0
 41
0
  0
VERTEX
  8
0
 10
1.43381
 20
1.05887
 30
0.0
 40
0
 41
0
  0
VERTEX
  8
0
 10
1.43381
 20
1.02686
 30
0.0
 40
0
 41
0
  0
VERTEX
  8
0
 10
1.3788
 20
1.02686
 30
0.0
 40
0
 41
0
  0
VERTEX
  8
0
 10
1.3788
 20
1.05887
 30
0.0
 40
0
 41
0
  0
SEQEND
 8
0
  0
POLYLINE
  8
0
 62
     173
 66
     1
 10
0
 20
0
 30
0.0
 70
     1
 40
0
 41
0
  0
VERTEX
  8
0
 10
1.3788
 20
1.10411
 30
0.0
 40
0
 41
0
  0
VERTEX
  8
0
 10
1.43381
 20
1.10411
 30
0.0
 40
0
 41
0
  0
VERTEX
  8
0
 10
1.43381
 20
1.0721
 30
0.0
 40
0
 41
0
  0
VERTEX
  8
0
 10
1.3788
 20
1.0721
 30
0.0
 40
0
 41
0
  0
VERTEX
  8
0
 10
1.3788
 20
1.10411
 30
0.0
 40
0
 41
0
  0
SEQEND
 8
0
  0
POLYLINE
  8
0
 62
     173
 66
     1
 10
0
 20
0
 30
0.0
 70
     1
 40
0
 41
0
  0
VERTEX
  8
0
 10
0.471192
 20
0.963271
 30
0.0
 40
0
 41
0
  0
VERTEX
  8
0
 10
0.504178
 20
0.963271
 30
0.0
 40
0
 41
0
  0
VERTEX
  8
0
 10
0.504178
 20
0.928276
 30
0.0
 40
0
 41
0
  0
VERTEX
  8
0
 10
0.471192
 20
0.928276
 30
0.0
 40
0
 41
0
  0
VERTEX
  8
0
 10
0.471192
 20
0.963271
 30
0.0
 40
0
 41
0
  0
SEQEND
 8
0
  0
POLYLINE
  8
0
 62
     173
 66
     1
 10
0
 20
0
 30
0.0
 70
     1
 40
0
 41
0
  0
VERTEX
  8
0
 10
0.471192
 20
0.913249
 30
0.0
 40
0
 41
0
  0
VERTEX
  8
0
 10
0.504178
 20
0.913249
 30
0.0
 40
0
 41
0
  0
VERTEX
  8
0
 10
0.504178
 20
0.878256
 30
0.0
 40
0
 41
0
  0
VERTEX
  8
0
 10
0.471192
 20
0.878256
 30
0.0
 40
0
 41
0
  0
VERTEX
  8
0
 10
0.471192
 20
0.913249
 30
0.0
 40
0
 41
0
  0
SEQEND
 8
0
  0
POLYLINE
  8
0
 62
     173
 66
     1
 10
0
 20
0
 30
0.0
 70
     1
 40
0
 41
0
  0
VERTEX
  8
0
 10
0.471192
 20
0.863226
 30
0.0
 40
0
 41
0
  0
VERTEX
  8
0
 10
0.504178
 20
0.863226
 30
0.0
 40
0
 41
0
  0
VERTEX
  8
0
 10
0.504178
 20
0.828233
 30
0.0
 40
0
 41
0
  0
VERTEX
  8
0
 10
0.471192
 20
0.828233
 30
0.0
 40
0
 41
0
  0
VERTEX
  8
0
 10
0.471192
 20
0.863226
 30
0.0
 40
0
 41
0
  0
SEQEND
 8
0
  0
POLYLINE
  8
0
 62
     173
 66
     1
 10
0
 20
0
 30
0.0
 70
     1
 40
0
 41
0
  0
VERTEX
  8
0
 10
0.471192
 20
1.06326
 30
0.0
 40
0
 41
0
  0
VERTEX
  8
0
 10
0.504178
 20
1.06326
 30
0.0
 40
0
 41
0
  0
VERTEX
  8
0
 10
0.504178
 20
1.02827
 30
0.0
 40
0
 41
0
  0
VERTEX
  8
0
 10
0.471192
 20
1.02827
 30
0.0
 40
0
 41
0
  0
VERTEX
  8
0
 10
0.471192
 20
1.06326
 30
0.0
 40
0
 41
0
  0
SEQEND
 8
0
  0
POLYLINE
  8
0
 62
     173
 66
     1
 10
0
 20
0
 30
0.0
 70
     1
 40
0
 41
0
  0
VERTEX
  8
0
 10
0.471192
 20
1.01324
 30
0.0
 40
0
 41
0
  0
VERTEX
  8
0
 10
0.504178
 20
1.01324
 30
0.0
 40
0
 41
0
  0
VERTEX
  8
0
 10
0.504178
 20
0.978244
 30
0.0
 40
0
 41
0
  0
VERTEX
  8
0
 10
0.471192
 20
0.978244
 30
0.0
 40
0
 41
0
  0
VERTEX
  8
0
 10
0.471192
 20
1.01324
 30
0.0
 40
0
 41
0
  0
SEQEND
 8
0
  0
POLYLINE
  8
0
 62
     173
 66
     1
 10
0
 20
0
 30
0.0
 70
     1
 40
0
 41
0
  0
VERTEX
  8
0
 10
0.471192
 20
1.21327
 30
0.0
 40
0
 41
0
  0
VERTEX
  8
0
 10
0.504178
 20
1.21327
 30
0.0
 40
0
 41
0
  0
VERTEX
  8
0
 10
0.504178
 20
1.17828
 30
0.0
 40
0
 41
0
  0
VERTEX
  8
0
 10
0.471192
 20
1.17828
 30
0.0
 40
0
 41
0
  0
VERTEX
  8
0
 10
0.471192
 20
1.21327
 30
0.0
 40
0
 41
0
  0
SEQEND
 8
0
  0
POLYLINE
  8
0
 62
     173
 66
     1
 10
0
 20
0
 30
0.0
 70
     1
 40
0
 41
0
  0
VERTEX
  8
0
 10
0.471192
 20
1.16325
 30
0.0
 40
0
 41
0
  0
VERTEX
  8
0
 10
0.504178
 20
1.16325
 30
0.0
 40
0
 41
0
  0
VERTEX
  8
0
 10
0.504178
 20
1.12826
 30
0.0
 40
0
 41
0
  0
VERTEX
  8
0
 10
0.471192
 20
1.12826
 30
0.0
 40
0
 41
0
  0
VERTEX
  8
0
 10
0.471192
 20
1.16325
 30
0.0
 40
0
 41
0
  0
SEQEND
 8
0
  0
POLYLINE
  8
0
 62
     173
 66
     1
 10
0
 20
0
 30
0.0
 70
     1
 40
0
 41
0
  0
VERTEX
  8
0
 10
0.471192
 20
1.11323
 30
0.0
 40
0
 41
0
  0
VERTEX
  8
0
 10
0.504178
 20
1.11323
 30
0.0
 40
0
 41
0
  0
VERTEX
  8
0
 10
0.504178
 20
1.07823
 30
0.0
 40
0
 41
0
  0
VERTEX
  8
0
 10
0.471192
 20
1.07823
 30
0.0
 40
0
 41
0
  0
VERTEX
  8
0
 10
0.471192
 20
1.11323
 30
0.0
 40
0
 41
0
  0
SEQEND
 8
0
  0
POLYLINE
  8
0
 62
     173
 66
     1
 10
0
 20
0
 30
0.0
 70
     1
 40
0
 41
0
  0
VERTEX
  8
0
 10
0.471192
 20
1.31326
 30
0.0
 40
0
 41
0
  0
VERTEX
  8
0
 10
0.504178
 20
1.31326
 30
0.0
 40
0
 41
0
  0
VERTEX
  8
0
 10
0.504178
 20
1.27827
 30
0.0
 40
0
 41
0
  0
VERTEX
  8
0
 10
0.471192
 20
1.27827
 30
0.0
 40
0
 41
0
  0
VERTEX
  8
0
 10
0.471192
 20
1.31326
 30
0.0
 40
0
 41
0
  0
SEQEND
 8
0
  0
POLYLINE
  8
0
 62
     173
 66
     1
 10
0
 20
0
 30
0.0
 70
     1
 40
0
 41
0
  0
VERTEX
  8
0
 10
0.471192
 20
1.26324
 30
0.0
 40
0
 41
0
  0
VERTEX
  8
0
 10
0.504178
 20
1.26324
 30
0.0
 40
0
 41
0
  0
VERTEX
  8
0
 10
0.504178
 20
1.22824
 30
0.0
 40
0
 41
0
  0
VERTEX
  8
0
 10
0.471192
 20
1.22824
 30
0.0
 40
0
 41
0
  0
VERTEX
  8
0
 10
0.471192
 20
1.26324
 30
0.0
 40
0
 41
0
  0
SEQEND
 8
0
  0
POLYLINE
  8
0
 62
     173
 66
     1
 10
0
 20
0
 30
0.0
 70
     1
 40
0
 41
0
  0
VERTEX
  8
0
 10
0.471192
 20
1.46326
 30
0.0
 40
0
 41
0
  0
VERTEX
  8
0
 10
0.504178
 20
1.46326
 30
0.0
 40
0
 41
0
  0
VERTEX
  8
0
 10
0.504178
 20
1.42828
 30
0.0
 40
0
 41
0
  0
VERTEX
  8
0
 10
0.471192
 20
1.42828
 30
0.0
 40
0
 41
0
  0
VERTEX
  8
0
 10
0.471192
 20
1.46326
 30
0.0
 40
0
 41
0
  0
SEQEND
 8
0
  0
POLYLINE
  8
0
 62
     173
 66
     1
 10
0
 20
0
 30
0.0
 70
     1
 40
0
 41
0
  0
VERTEX
  8
0
 10
0.471192
 20
1.41325
 30
0.0
 40
0
 41
0
  0
VERTEX
  8
0
 10
0.504178
 20
1.41325
 30
0.0
 40
0
 41
0
  0
VERTEX
  8
0
 10
0.504178
 20
1.37826
 30
0.0
 40
0
 41
0
  0
VERTEX
  8
0
 10
0.471192
 20
1.37826
 30
0.0
 40
0
 41
0
  0
VERTEX
  8
0
 10
0.471192
 20
1.41325
 30
0.0
 40
0
 41
0
  0
SEQEND
 8
0
  0
POLYLINE
  8
0
 62
     173
 66
     1
 10
0
 20
0
 30
0.0
 70
     1
 40
0
 41
0
  0
VERTEX
  8
0
 10
0.471192
 20
1.36323
 30
0.0
 40
0
 41
0
  0
VERTEX
  8
0
 10
0.504178
 20
1.36323
 30
0.0
 40
0
 41
0
  0
VERTEX
  8
0
 10
0.504178
 20
1.32823
 30
0.0
 40
0
 41
0
  0
VERTEX
  8
0
 10
0.471192
 20
1.32823
 30
0.0
 40
0
 41
0
  0
VERTEX
  8
0
 10
0.471192
 20
1.36323
 30
0.0
 40
0
 41
0
  0
SEQEND
 8
0
  0
POLYLINE
  8
0
 62
     173
 66
     1
 10
0
 20
0
 30
0.0
 70
     1
 40
0
 41
0
  0
VERTEX
  8
0
 10
0.471192
 20
1.51324
 30
0.0
 40
0
 41
0
  0
VERTEX
  8
0
 10
0.504178
 20
1.51324
 30
0.0
 40
0
 41
0
  0
VERTEX
  8
0
 10
0.504178
 20
1.47825
 30
0.0
 40
0
 41
0
  0
VERTEX
  8
0
 10
0.471192
 20
1.47825
 30
0.0
 40
0
 41
0
  0
VERTEX
  8
0
 10
0.471192
 20
1.51324
 30
0.0
 40
0
 41
0
  0
SEQEND
 8
0
  0
POLYLINE
  8
0
 62
     173
 66
     1
 10
0
 20
0
 30
0.0
 70
     1
 40
0
 41
0
  0
VERTEX
  8
0
 10
1.14686
 20
0.863226
 30
0.0
 40
0
 41
0
  0
VERTEX
  8
0
 10
1.17985
 20
0.863226
 30
0.0
 40
0
 41
0
  0
VERTEX
  8
0
 10
1.17985
 20
0.828233
 30
0.0
 40
0
 41
0
  0
VERTEX
  8
0
 10
1.14686
 20
0.828233
 30
0.0
 40
0
 41
0
  0
VERTEX
  8
0
 10
1.14686
 20
0.863226
 30
0.0
 40
0
 41
0
  0
SEQEND
 8
0
  0
POLYLINE
  8
0
 62
     173
 66
     1
 10
0
 20
0
 30
0.0
 70
     1
 40
0
 41
0
  0
VERTEX
  8
0
 10
1.14686
 20
0.913249
 30
0.0
 40
0
 41
0
  0
VERTEX
  8
0
 10
1.17985
 20
0.913249
 30
0.0
 40
0
 41
0
  0
VERTEX
  8
0
 10
1.17985
 20
0.878256
 30
0.0
 40
0
 41
0
  0
VERTEX
  8
0
 10
1.14686
 20
0.878256
 30
0.0
 40
0
 41
0
  0
VERTEX
  8
0
 10
1.14686
 20
0.913249
 30
0.0
 40
0
 41
0
  0
SEQEND
 8
0
  0
POLYLINE
  8
0
 62
     173
 66
     1
 10
0
 20
0
 30
0.0
 70
     1
 40
0
 41
0
  0
VERTEX
  8
0
 10
1.14686
 20
0.963271
 30
0.0
 40
0
 41
0
  0
VERTEX
  8
0
 10
1.17985
 20
0.963271
 30
0.0
 40
0
 41
0
  0
VERTEX
  8
0
 10
1.17985
 20
0.928276
 30
0.0
 40
0
 41
0
  0
VERTEX
  8
0
 10
1.14686
 20
0.928276
 30
0.0
 40
0
 41
0
  0
VERTEX
  8
0
 10
1.14686
 20
0.963271
 30
0.0
 40
0
 41
0
  0
SEQEND
 8
0
  0
POLYLINE
  8
0
 62
     173
 66
     1
 10
0
 20
0
 30
0.0
 70
     1
 40
0
 41
0
  0
VERTEX
  8
0
 10
1.14686
 20
1.01324
 30
0.0
 40
0
 41
0
  0
VERTEX
  8
0
 10
1.17985
 20
1.01324
 30
0.0
 40
0
 41
0
  0
VERTEX
  8
0
 10
1.17985
 20
0.978244
 30
0.0
 40
0
 41
0
  0
VERTEX
  8
0
 10
1.14686
 20
0.978244
 30
0.0
 40
0
 41
0
  0
VERTEX
  8
0
 10
1.14686
 20
1.01324
 30
0.0
 40
0
 41
0
  0
SEQEND
 8
0
  0
POLYLINE
  8
0
 62
     173
 66
     1
 10
0
 20
0
 30
0.0
 70
     1
 40
0
 41
0
  0
VERTEX
  8
0
 10
1.14686
 20
1.06326
 30
0.0
 40
0
 41
0
  0
VERTEX
  8
0
 10
1.17985
 20
1.06326
 30
0.0
 40
0
 41
0
  0
VERTEX
  8
0
 10
1.17985
 20
1.02827
 30
0.0
 40
0
 41
0
  0
VERTEX
  8
0
 10
1.14686
 20
1.02827
 30
0.0
 40
0
 41
0
  0
VERTEX
  8
0
 10
1.14686
 20
1.06326
 30
0.0
 40
0
 41
0
  0
SEQEND
 8
0
  0
POLYLINE
  8
0
 62
     173
 66
     1
 10
0
 20
0
 30
0.0
 70
     1
 40
0
 41
0
  0
VERTEX
  8
0
 10
1.14686
 20
1.11323
 30
0.0
 40
0
 41
0
  0
VERTEX
  8
0
 10
1.17985
 20
1.11323
 30
0.0
 40
0
 41
0
  0
VERTEX
  8
0
 10
1.17985
 20
1.07823
 30
0.0
 40
0
 41
0
  0
VERTEX
  8
0
 10
1.14686
 20
1.07823
 30
0.0
 40
0
 41
0
  0
VERTEX
  8
0
 10
1.14686
 20
1.11323
 30
0.0
 40
0
 41
0
  0
SEQEND
 8
0
  0
POLYLINE
  8
0
 62
     173
 66
     1
 10
0
 20
0
 30
0.0
 70
     1
 40
0
 41
0
  0
VERTEX
  8
0
 10
1.14686
 20
1.16325
 30
0.0
 40
0
 41
0
  0
VERTEX
  8
0
 10
1.17985
 20
1.16325
 30
0.0
 40
0
 41
0
  0
VERTEX
  8
0
 10
1.17985
 20
1.12826
 30
0.0
 40
0
 41
0
  0
VERTEX
  8
0
 10
1.14686
 20
1.12826
 30
0.0
 40
0
 41
0
  0
VERTEX
  8
0
 10
1.14686
 20
1.16325
 30
0.0
 40
0
 41
0
  0
SEQEND
 8
0
  0
POLYLINE
  8
0
 62
     173
 66
     1
 10
0
 20
0
 30
0.0
 70
     1
 40
0
 41
0
  0
VERTEX
  8
0
 10
1.14686
 20
1.21327
 30
0.0
 40
0
 41
0
  0
VERTEX
  8
0
 10
1.17985
 20
1.21327
 30
0.0
 40
0
 41
0
  0
VERTEX
  8
0
 10
1.17985
 20
1.17828
 30
0.0
 40
0
 41
0
  0
VERTEX
  8
0
 10
1.14686
 20
1.17828
 30
0.0
 40
0
 41
0
  0
VERTEX
  8
0
 10
1.14686
 20
1.21327
 30
0.0
 40
0
 41
0
  0
SEQEND
 8
0
  0
POLYLINE
  8
0
 62
     173
 66
     1
 10
0
 20
0
 30
0.0
 70
     1
 40
0
 41
0
  0
VERTEX
  8
0
 10
1.14686
 20
1.26324
 30
0.0
 40
0
 41
0
  0
VERTEX
  8
0
 10
1.17985
 20
1.26324
 30
0.0
 40
0
 41
0
  0
VERTEX
  8
0
 10
1.17985
 20
1.22824
 30
0.0
 40
0
 41
0
  0
VERTEX
  8
0
 10
1.14686
 20
1.22824
 30
0.0
 40
0
 41
0
  0
VERTEX
  8
0
 10
1.14686
 20
1.26324
 30
0.0
 40
0
 41
0
  0
SEQEND
 8
0
  0
POLYLINE
  8
0
 62
     173
 66
     1
 10
0
 20
0
 30
0.0
 70
     1
 40
0
 41
0
  0
VERTEX
  8
0
 10
1.14686
 20
1.31326
 30
0.0
 40
0
 41
0
  0
VERTEX
  8
0
 10
1.17985
 20
1.31326
 30
0.0
 40
0
 41
0
  0
VERTEX
  8
0
 10
1.17985
 20
1.27827
 30
0.0
 40
0
 41
0
  0
VERTEX
  8
0
 10
1.14686
 20
1.27827
 30
0.0
 40
0
 41
0
  0
VERTEX
  8
0
 10
1.14686
 20
1.31326
 30
0.0
 40
0
 41
0
  0
SEQEND
 8
0
  0
POLYLINE
  8
0
 62
     173
 66
     1
 10
0
 20
0
 30
0.0
 70
     1
 40
0
 41
0
  0
VERTEX
  8
0
 10
1.14686
 20
1.36323
 30
0.0
 40
0
 41
0
  0
VERTEX
  8
0
 10
1.17985
 20
1.36323
 30
0.0
 40
0
 41
0
  0
VERTEX
  8
0
 10
1.17985
 20
1.32823
 30
0.0
 40
0
 41
0
  0
VERTEX
  8
0
 10
1.14686
 20
1.32823
 30
0.0
 40
0
 41
0
  0
VERTEX
  8
0
 10
1.14686
 20
1.36323
 30
0.0
 40
0
 41
0
  0
SEQEND
 8
0
  0
POLYLINE
  8
0
 62
     173
 66
     1
 10
0
 20
0
 30
0.0
 70
     1
 40
0
 41
0
  0
VERTEX
  8
0
 10
1.14686
 20
1.41325
 30
0.0
 40
0
 41
0
  0
VERTEX
  8
0
 10
1.17985
 20
1.41325
 30
0.0
 40
0
 41
0
  0
VERTEX
  8
0
 10
1.17985
 20
1.37826
 30
0.0
 40
0
 41
0
  0
VERTEX
  8
0
 10
1.14686
 20
1.37826
 30
0.0
 40
0
 41
0
  0
VERTEX
  8
0
 10
1.14686
 20
1.41325
 30
0.0
 40
0
 41
0
  0
SEQEND
 8
0
  0
POLYLINE
  8
0
 62
     173
 66
     1
 10
0
 20
0
 30
0.0
 70
     1
 40
0
 41
0
  0
VERTEX
  8
0
 10
1.14686
 20
1.46326
 30
0.0
 40
0
 41
0
  0
VERTEX
  8
0
 10
1.17985
 20
1.46326
 30
0.0
 40
0
 41
0
  0
VERTEX
  8
0
 10
1.17985
 20
1.42828
 30
0.0
 40
0
 41
0
  0
VERTEX
  8
0
 10
1.14686
 20
1.42828
 30
0.0
 40
0
 41
0
  0
VERTEX
  8
0
 10
1.14686
 20
1.46326
 30
0.0
 40
0
 41
0
  0
SEQEND
 8
0
  0
POLYLINE
  8
0
 62
     173
 66
     1
 10
0
 20
0
 30
0.0
 70
     1
 40
0
 41
0
  0
VERTEX
  8
0
 10
1.14686
 20
1.51324
 30
0.0
 40
0
 41
0
  0
VERTEX
  8
0
 10
1.17985
 20
1.51324
 30
0.0
 40
0
 41
0
  0
VERTEX
  8
0
 10
1.17985
 20
1.47825
 30
0.0
 40
0
 41
0
  0
VERTEX
  8
0
 10
1.14686
 20
1.47825
 30
0.0
 40
0
 41
0
  0
VERTEX
  8
0
 10
1.14686
 20
1.51324
 30
0.0
 40
0
 41
0
  0
SEQEND
 8
0
  0
POLYLINE
  8
0
 62
     173
 66
     1
 10
0
 20
0
 30
0.0
 70
     1
 40
0
 41
0
  0
VERTEX
  8
0
 10
0.693631
 20
1.07237
 30
0.0
 40
0
 41
0
  0
VERTEX
  8
0
 10
0.693631
 20
1.07737
 30
0.0
 40
0
 41
0
  0
VERTEX
  8
0
 10
0.689725
 20
1.09223
 30
0.0
 40
0
 41
0
  0
VERTEX
  8
0
 10
0.679471
 20
1.10639
 30
0.0
 40
0
 41
0
  0
VERTEX
  8
0
 10
0.664931
 20
1.11485
 30
0.0
 40
0
 41
0
  0
VERTEX
  8
0
 10
0.648329
 20
1.11768
 30
0.0
 40
0
 41
0
  0
VERTEX
  8
0
 10
0.631728
 20
1.11485
 30
0.0
 40
0
 41
0
  0
VERTEX
  8
0
 10
0.617188
 20
1.10639
 30
0.0
 40
0
 41
0
  0
VERTEX
  8
0
 10
0.606933
 20
1.09223
 30
0.0
 40
0
 41
0
  0
VERTEX
  8
0
 10
0.603082
 20
1.07737
 30
0.0
 40
0
 41
0
  0
VERTEX
  8
0
 10
0.603082
 20
1.07237
 30
0.0
 40
0
 41
0
  0
VERTEX
  8
0
 10
0.603082
 20
1.06744
 30
0.0
 40
0
 41
0
  0
VERTEX
  8
0
 10
0.606933
 20
1.05257
 30
0.0
 40
0
 41
0
  0
VERTEX
  8
0
 10
0.617188
 20
1.03841
 30
0.0
 40
0
 41
0
  0
VERTEX
  8
0
 10
0.631728
 20
1.02995
 30
0.0
 40
0
 41
0
  0
VERTEX
  8
0
 10
0.648329
 20
1.02713
 30
0.0
 40
0
 41
0
  0
VERTEX
  8
0
 10
0.664931
 20
1.02995
 30
0.0
 40
0
 41
0
  0
VERTEX
  8
0
 10
0.679471
 20
1.03841
 30
0.0
 40
0
 41
0
  0
VERTEX
  8
0
 10
0.689725
 20
1.05257
 30
0.0
 40
0
 41
0
  0
VERTEX
  8
0
 10
0.693631
 20
1.06744
 30
0.0
 40
0
 41
0
  0
VERTEX
  8
0
 10
0.693631
 20
1.07237
 30
0.0
 40
0
 41
0
  0
SEQEND
 8
0
  0
POLYLINE
  8
0
 62
     173
 66
     1
 10
0
 20
0
 30
0.0
 70
     1
 40
0
 41
0
  0
VERTEX
  8
0
 10
0.693631
 20
1.21018
 30
0.0
 40
0
 41
0
  0
VERTEX
  8
0
 10
0.693631
 20
1.21517
 30
0.0
 40
0
 41
0
  0
VERTEX
  8
0
 10
0.689725
 20
1.23003
 30
0.0
 40
0
 41
0
  0
VERTEX
  8
0
 10
0.679471
 20
1.24419
 30
0.0
 40
0
 41
0
  0
VERTEX
  8
0
 10
0.664931
 20
1.25266
 30
0.0
 40
0
 41
0
  0
VERTEX
  8
0
 10
0.648329
 20
1.25548
 30
0.0
 40
0
 41
0
  0
VERTEX
  8
0
 10
0.631728
 20
1.25266
 30
0.0
 40
0
 41
0
  0
VERTEX
  8
0
 10
0.617188
 20
1.24419
 30
0.0
 40
0
 41
0
  0
VERTEX
  8
0
 10
0.606933
 20
1.23003
 30
0.0
 40
0
 41
0
  0
VERTEX
  8
0
 10
0.603082
 20
1.21517
 30
0.0
 40
0
 41
0
  0
VERTEX
  8
0
 10
0.603082
 20
1.21018
 30
0.0
 40
0
 41
0
  0
VERTEX
  8
0
 10
0.603082
 20
1.20524
 30
0.0
 40
0
 41
0
  0
VERTEX
  8
0
 10
0.606933
 20
1.19038
 30
0.0
 40
0
 41
0
  0
VERTEX
  8
0
 10
0.617188
 20
1.17622
 30
0.0
 40
0
 41
0
  0
VERTEX
  8
0
 10
0.631728
 20
1.16775
 30
0.0
 40
0
 41
0
  0
VERTEX
  8
0
 10
0.648329
 20
1.16493
 30
0.0
 40
0
 41
0
  0
VERTEX
  8
0
 10
0.664931
 20
1.16775
 30
0.0
 40
0
 41
0
  0
VERTEX
  8
0
 10
0.679471
 20
1.17622
 30
0.0
 40
0
 41
0
  0
VERTEX
  8
0
 10
0.689725
 20
1.19038
 30
0.0
 40
0
 41
0
  0
VERTEX
  8
0
 10
0.693631
 20
1.20524
 30
0.0
 40
0
 41
0
  0
VERTEX
  8
0
 10
0.693631
 20
1.21018
 30
0.0
 40
0
 41
0
  0
SEQEND
 8
0
  0
POLYLINE
  8
0
 62
     173
 66
     1
 10
0
 20
0
 30
0.0
 70
     1
 40
0
 41
0
  0
VERTEX
  8
0
 10
0.742839
 20
1.30859
 30
0.0
 40
0
 41
0
  0
VERTEX
  8
0
 10
0.742839
 20
1.31358
 30
0.0
 40
0
 41
0
  0
VERTEX
  8
0
 10
0.738932
 20
1.32845
 30
0.0
 40
0
 41
0
  0
VERTEX
  8
0
 10
0.728678
 20
1.34261
 30
0.0
 40
0
 41
0
  0
VERTEX
  8
0
 10
0.714139
 20
1.35107
 30
0.0
 40
0
 41
0
  0
VERTEX
  8
0
 10
0.697537
 20
1.3539
 30
0.0
 40
0
 41
0
  0
VERTEX
  8
0
 10
0.680935
 20
1.35107
 30
0.0
 40
0
 41
0
  0
VERTEX
  8
0
 10
0.666396
 20
1.34261
 30
0.0
 40
0
 41
0
  0
VERTEX
  8
0
 10
0.656142
 20
1.32845
 30
0.0
 40
0
 41
0
  0
VERTEX
  8
0
 10
0.652289
 20
1.31358
 30
0.0
 40
0
 41
0
  0
VERTEX
  8
0
 10
0.652289
 20
1.30859
 30
0.0
 40
0
 41
0
  0
VERTEX
  8
0
 10
0.652289
 20
1.30366
 30
0.0
 40
0
 41
0
  0
VERTEX
  8
0
 10
0.656142
 20
1.28879
 30
0.0
 40
0
 41
0
  0
VERTEX
  8
0
 10
0.666396
 20
1.27463
 30
0.0
 40
0
 41
0
  0
VERTEX
  8
0
 10
0.680935
 20
1.26617
 30
0.0
 40
0
 41
0
  0
VERTEX
  8
0
 10
0.697537
 20
1.26335
 30
0.0
 40
0
 41
0
  0
VERTEX
  8
0
 10
0.714139
 20
1.26617
 30
0.0
 40
0
 41
0
  0
VERTEX
  8
0
 10
0.728678
 20
1.27463
 30
0.0
 40
0
 41
0
  0
VERTEX
  8
0
 10
0.738932
 20
1.28879
 30
0.0
 40
0
 41
0
  0
VERTEX
  8
0
 10
0.742839
 20
1.30366
 30
0.0
 40
0
 41
0
  0
VERTEX
  8
0
 10
0.742839
 20
1.30859
 30
0.0
 40
0
 41
0
  0
SEQEND
 8
0
  0
POLYLINE
  8
0
 62
     173
 66
     1
 10
0
 20
0
 30
0.0
 70
     1
 40
0
 41
0
  0
VERTEX
  8
0
 10
0.644422
 20
1.30859
 30
0.0
 40
0
 41
0
  0
VERTEX
  8
0
 10
0.644422
 20
1.31358
 30
0.0
 40
0
 41
0
  0
VERTEX
  8
0
 10
0.640517
 20
1.32845
 30
0.0
 40
0
 41
0
  0
VERTEX
  8
0
 10
0.630262
 20
1.34261
 30
0.0
 40
0
 41
0
  0
VERTEX
  8
0
 10
0.615722
 20
1.35107
 30
0.0
 40
0
 41
0
  0
VERTEX
  8
0
 10
0.599121
 20
1.3539
 30
0.0
 40
0
 41
0
  0
VERTEX
  8
0
 10
0.582519
 20
1.35107
 30
0.0
 40
0
 41
0
  0
VERTEX
  8
0
 10
0.567979
 20
1.34261
 30
0.0
 40
0
 41
0
  0
VERTEX
  8
0
 10
0.557726
 20
1.32845
 30
0.0
 40
0
 41
0
  0
VERTEX
  8
0
 10
0.553874
 20
1.31358
 30
0.0
 40
0
 41
0
  0
VERTEX
  8
0
 10
0.553874
 20
1.30859
 30
0.0
 40
0
 41
0
  0
VERTEX
  8
0
 10
0.553874
 20
1.30366
 30
0.0
 40
0
 41
0
  0
VERTEX
  8
0
 10
0.557726
 20
1.28879
 30
0.0
 40
0
 41
0
  0
VERTEX
  8
0
 10
0.567979
 20
1.27463
 30
0.0
 40
0
 41
0
  0
VERTEX
  8
0
 10
0.582519
 20
1.26617
 30
0.0
 40
0
 41
0
  0
VERTEX
  8
0
 10
0.599121
 20
1.26335
 30
0.0
 40
0
 41
0
  0
VERTEX
  8
0
 10
0.615722
 20
1.26617
 30
0.0
 40
0
 41
0
  0
VERTEX
  8
0
 10
0.630262
 20
1.27463
 30
0.0
 40
0
 41
0
  0
VERTEX
  8
0
 10
0.640517
 20
1.28879
 30
0.0
 40
0
 41
0
  0
VERTEX
  8
0
 10
0.644422
 20
1.30366
 30
0.0
 40
0
 41
0
  0
VERTEX
  8
0
 10
0.644422
 20
1.30859
 30
0.0
 40
0
 41
0
  0
SEQEND
 8
0
  0
POLYLINE
  8
0
 62
     173
 66
     1
 10
0
 20
0
 30
0.0
 70
     1
 40
0
 41
0
  0
VERTEX
  8
0
 10
0.772353
 20
1.00347
 30
0.0
 40
0
 41
0
  0
VERTEX
  8
0
 10
0.772353
 20
1.00846
 30
0.0
 40
0
 41
0
  0
VERTEX
  8
0
 10
0.768446
 20
1.02333
 30
0.0
 40
0
 41
0
  0
VERTEX
  8
0
 10
0.758192
 20
1.03749
 30
0.0
 40
0
 41
0
  0
VERTEX
  8
0
 10
0.743653
 20
1.04595
 30
0.0
 40
0
 41
0
  0
VERTEX
  8
0
 10
0.727051
 20
1.04877
 30
0.0
 40
0
 41
0
  0
VERTEX
  8
0
 10
0.710449
 20
1.04595
 30
0.0
 40
0
 41
0
  0
VERTEX
  8
0
 10
0.69591
 20
1.03749
 30
0.0
 40
0
 41
0
  0
VERTEX
  8
0
 10
0.685656
 20
1.02333
 30
0.0
 40
0
 41
0
  0
VERTEX
  8
0
 10
0.681803
 20
1.00846
 30
0.0
 40
0
 41
0
  0
VERTEX
  8
0
 10
0.681803
 20
1.00347
 30
0.0
 40
0
 41
0
  0
VERTEX
  8
0
 10
0.681803
 20
0.998535
 30
0.0
 40
0
 41
0
  0
VERTEX
  8
0
 10
0.685656
 20
0.98367
 30
0.0
 40
0
 41
0
  0
VERTEX
  8
0
 10
0.69591
 20
0.96951
 30
0.0
 40
0
 41
0
  0
VERTEX
  8
0
 10
0.710449
 20
0.961046
 30
0.0
 40
0
 41
0
  0
VERTEX
  8
0
 10
0.727051
 20
0.958225
 30
0.0
 40
0
 41
0
  0
VERTEX
  8
0
 10
0.743653
 20
0.961046
 30
0.0
 40
0
 41
0
  0
VERTEX
  8
0
 10
0.758192
 20
0.96951
 30
0.0
 40
0
 41
0
  0
VERTEX
  8
0
 10
0.768446
 20
0.98367
 30
0.0
 40
0
 41
0
  0
VERTEX
  8
0
 10
0.772353
 20
0.998535
 30
0.0
 40
0
 41
0
  0
VERTEX
  8
0
 10
0.772353
 20
1.00347
 30
0.0
 40
0
 41
0
  0
SEQEND
 8
0
  0
POLYLINE
  8
0
 62
     173
 66
     1
 10
0
 20
0
 30
0.0
 70
     1
 40
0
 41
0
  0
VERTEX
  8
0
 10
0.782226
 20
1.14128
 30
0.0
 40
0
 41
0
  0
VERTEX
  8
0
 10
0.782226
 20
1.14627
 30
0.0
 40
0
 41
0
  0
VERTEX
  8
0
 10
0.778321
 20
1.16113
 30
0.0
 40
0
 41
0
  0
VERTEX
  8
0
 10
0.768067
 20
1.17529
 30
0.0
 40
0
 41
0
  0
VERTEX
  8
0
 10
0.753526
 20
1.18376
 30
0.0
 40
0
 41
0
  0
VERTEX
  8
0
 10
0.736925
 20
1.18658
 30
0.0
 40
0
 41
0
  0
VERTEX
  8
0
 10
0.720324
 20
1.18376
 30
0.0
 40
0
 41
0
  0
VERTEX
  8
0
 10
0.705783
 20
1.17529
 30
0.0
 40
0
 41
0
  0
VERTEX
  8
0
 10
0.695529
 20
1.16113
 30
0.0
 40
0
 41
0
  0
VERTEX
  8
0
 10
0.691678
 20
1.14627
 30
0.0
 40
0
 41
0
  0
VERTEX
  8
0
 10
0.691678
 20
1.14128
 30
0.0
 40
0
 41
0
  0
VERTEX
  8
0
 10
0.691678
 20
1.13634
 30
0.0
 40
0
 41
0
  0
VERTEX
  8
0
 10
0.695529
 20
1.12147
 30
0.0
 40
0
 41
0
  0
VERTEX
  8
0
 10
0.705783
 20
1.10731
 30
0.0
 40
0
 41
0
  0
VERTEX
  8
0
 10
0.720324
 20
1.09885
 30
0.0
 40
0
 41
0
  0
VERTEX
  8
0
 10
0.736925
 20
1.09603
 30
0.0
 40
0
 41
0
  0
VERTEX
  8
0
 10
0.753526
 20
1.09885
 30
0.0
 40
0
 41
0
  0
VERTEX
  8
0
 10
0.768067
 20
1.10731
 30
0.0
 40
0
 41
0
  0
VERTEX
  8
0
 10
0.778321
 20
1.12147
 30
0.0
 40
0
 41
0
  0
VERTEX
  8
0
 10
0.782226
 20
1.13634
 30
0.0
 40
0
 41
0
  0
VERTEX
  8
0
 10
0.782226
 20
1.14128
 30
0.0
 40
0
 41
0
  0
SEQEND
 8
0
  0
POLYLINE
  8
0
 62
     173
 66
     1
 10
0
 20
0
 30
0.0
 70
     1
 40
0
 41
0
  0
VERTEX
  8
0
 10
1.42199
 20
1.722
 30
0.0
 40
0
 41
0
  0
VERTEX
  8
0
 10
1.42199
 20
1.727
 30
0.0
 40
0
 41
0
  0
VERTEX
  8
0
 10
1.41808
 20
1.74181
 30
0.0
 40
0
 41
0
  0
VERTEX
  8
0
 10
1.40782
 20
1.75597
 30
0.0
 40
0
 41
0
  0
VERTEX
  8
0
 10
1.39328
 20
1.76443
 30
0.0
 40
0
 41
0
  0
VERTEX
  8
0
 10
1.37668
 20
1.76725
 30
0.0
 40
0
 41
0
  0
VERTEX
  8
0
 10
1.36008
 20
1.76443
 30
0.0
 40
0
 41
0
  0
VERTEX
  8
0
 10
1.34554
 20
1.75597
 30
0.0
 40
0
 41
0
  0
VERTEX
  8
0
 10
1.33529
 20
1.74181
 30
0.0
 40
0
 41
0
  0
VERTEX
  8
0
 10
1.33143
 20
1.727
 30
0.0
 40
0
 41
0
  0
VERTEX
  8
0
 10
1.33143
 20
1.722
 30
0.0
 40
0
 41
0
  0
VERTEX
  8
0
 10
1.33143
 20
1.71707
 30
0.0
 40
0
 41
0
  0
VERTEX
  8
0
 10
1.33529
 20
1.70221
 30
0.0
 40
0
 41
0
  0
VERTEX
  8
0
 10
1.34554
 20
1.68804
 30
0.0
 40
0
 41
0
  0
VERTEX
  8
0
 10
1.36008
 20
1.67958
 30
0.0
 40
0
 41
0
  0
VERTEX
  8
0
 10
1.37668
 20
1.67676
 30
0.0
 40
0
 41
0
  0
VERTEX
  8
0
 10
1.39328
 20
1.67958
 30
0.0
 40
0
 41
0
  0
VERTEX
  8
0
 10
1.40782
 20
1.68804
 30
0.0
 40
0
 41
0
  0
VERTEX
  8
0
 10
1.41808
 20
1.70221
 30
0.0
 40
0
 41
0
  0
VERTEX
  8
0
 10
1.42199
 20
1.71707
 30
0.0
 40
0
 41
0
  0
VERTEX
  8
0
 10
1.42199
 20
1.722
 30
0.0
 40
0
 41
0
  0
SEQEND
 8
0
  0
POLYLINE
  8
0
 62
     173
 66
     1
 10
0
 20
0
 30
0.0
 70
     1
 40
0
 41
0
  0
VERTEX
  8
0
 10
1.42199
 20
1.62354
 30
0.0
 40
0
 41
0
  0
VERTEX
  8
0
 10
1.42199
 20
1.62853
 30
0.0
 40
0
 41
0
  0
VERTEX
  8
0
 10
1.41808
 20
1.64339
 30
0.0
 40
0
 41
0
  0
VERTEX
  8
0
 10
1.40782
 20
1.65756
 30
0.0
 40
0
 41
0
  0
VERTEX
  8
0
 10
1.39328
 20
1.66601
 30
0.0
 40
0
 41
0
  0
VERTEX
  8
0
 10
1.37668
 20
1.66883
 30
0.0
 40
0
 41
0
  0
VERTEX
  8
0
 10
1.36008
 20
1.66601
 30
0.0
 40
0
 41
0
  0
VERTEX
  8
0
 10
1.34554
 20
1.65756
 30
0.0
 40
0
 41
0
  0
VERTEX
  8
0
 10
1.33529
 20
1.64339
 30
0.0
 40
0
 41
0
  0
VERTEX
  8
0
 10
1.33143
 20
1.62853
 30
0.0
 40
0
 41
0
  0
VERTEX
  8
0
 10
1.33143
 20
1.62354
 30
0.0
 40
0
 41
0
  0
VERTEX
  8
0
 10
1.33143
 20
1.6186
 30
0.0
 40
0
 41
0
  0
VERTEX
  8
0
 10
1.33529
 20
1.60379
 30
0.0
 40
0
 41
0
  0
VERTEX
  8
0
 10
1.34554
 20
1.58963
 30
0.0
 40
0
 41
0
  0
VERTEX
  8
0
 10
1.36008
 20
1.58117
 30
0.0
 40
0
 41
0
  0
VERTEX
  8
0
 10
1.37668
 20
1.57829
 30
0.0
 40
0
 41
0
  0
VERTEX
  8
0
 10
1.39328
 20
1.58117
 30
0.0
 40
0
 41
0
  0
VERTEX
  8
0
 10
1.40782
 20
1.58963
 30
0.0
 40
0
 41
0
  0
VERTEX
  8
0
 10
1.41808
 20
1.60379
 30
0.0
 40
0
 41
0
  0
VERTEX
  8
0
 10
1.42199
 20
1.6186
 30
0.0
 40
0
 41
0
  0
VERTEX
  8
0
 10
1.42199
 20
1.62354
 30
0.0
 40
0
 41
0
  0
SEQEND
 8
0
  0
POLYLINE
  8
0
 62
     173
 66
     1
 10
0
 20
0
 30
0.0
 70
     1
 40
0
 41
0
  0
VERTEX
  8
0
 10
0.718642
 20
0.126682
 30
0.0
 40
0
 41
0
  0
VERTEX
  8
0
 10
0.764649
 20
0.126682
 30
0.0
 40
0
 41
0
  0
VERTEX
  8
0
 10
0.764649
 20
0.10867
 30
0.0
 40
0
 41
0
  0
VERTEX
  8
0
 10
0.718642
 20
0.10867
 30
0.0
 40
0
 41
0
  0
VERTEX
  8
0
 10
0.718642
 20
0.126682
 30
0.0
 40
0
 41
0
  0
SEQEND
 8
0
  0
POLYLINE
  8
0
 62
     173
 66
     1
 10
0
 20
0
 30
0.0
 70
     1
 40
0
 41
0
  0
VERTEX
  8
0
 10
0.807671
 20
0.126682
 30
0.0
 40
0
 41
0
  0
VERTEX
  8
0
 10
0.853678
 20
0.126682
 30
0.0
 40
0
 41
0
  0
VERTEX
  8
0
 10
0.853678
 20
0.10867
 30
0.0
 40
0
 41
0
  0
VERTEX
  8
0
 10
0.807671
 20
0.10867
 30
0.0
 40
0
 41
0
  0
VERTEX
  8
0
 10
0.807671
 20
0.126682
 30
0.0
 40
0
 41
0
  0
SEQEND
 8
0
  0
ENDSEC
  0
EOF
