  0
SECTION
  2
HEADER
  9
$ACADVER
  1
AC1009
  9
$FILLMODE
 70
 0
  9
$SPLFRAME
 70
 1
  9
$EXTMIN
 10
0
 20
0
 30
0.0
  9
$EXTMAX
 10
41.6667
 20
41.6667
 30
0.0
  0
ENDSEC
  0
SECTION
  2
TABLES
  0
TABLE
  2
LAYER
 70
1
  0
LAYER
  2
0
 70
     0
 62
     7
  6
CONTINUOUS
  0
ENDTAB
  0
ENDSEC
  0
SECTION
  2
ENTITIES
  0
POLYLINE
  8
0
 62
     13
 66
     1
 10
0
 20
0
 30
0.0
 70
     1
 40
0
 41
0
  0
VERTEX
  8
0
 10
0.0852322
 20
0.470053
 30
0.0
 40
0
 41
0
  0
VERTEX
  8
0
 10
0.117242
 20
0.470053
 30
0.0
 40
0
 41
0
  0
VERTEX
  8
0
 10
0.117242
 20
0.403049
 30
0.0
 40
0
 41
0
  0
VERTEX
  8
0
 10
0.0852322
 20
0.403049
 30
0.0
 40
0
 41
0
  0
VERTEX
  8
0
 10
0.0852322
 20
0.470053
 30
0.0
 40
0
 41
0
  0
SEQEND
 8
0
  0
POLYLINE
  8
0
 62
     13
 66
     1
 10
0
 20
0
 30
0.0
 70
     1
 40
0
 41
0
  0
VERTEX
  8
0
 10
0.0754124
 20
0.952365
 30
0.0
 40
0
 41
0
  0
VERTEX
  8
0
 10
0.107422
 20
0.952365
 30
0.0
 40
0
 41
0
  0
VERTEX
  8
0
 10
0.107422
 20
0.885363
 30
0.0
 40
0
 41
0
  0
VERTEX
  8
0
 10
0.0754124
 20
0.885363
 30
0.0
 40
0
 41
0
  0
VERTEX
  8
0
 10
0.0754124
 20
0.952365
 30
0.0
 40
0
 41
0
  0
SEQEND
 8
0
  0
POLYLINE
  8
0
 62
     13
 66
     1
 10
0
 20
0
 30
0.0
 70
     1
 40
0
 41
0
  0
VERTEX
  8
0
 10
0.195258
 20
0.470053
 30
0.0
 40
0
 41
0
  0
VERTEX
  8
0
 10
0.227268
 20
0.470053
 30
0.0
 40
0
 41
0
  0
VERTEX
  8
0
 10
0.227268
 20
0.403049
 30
0.0
 40
0
 41
0
  0
VERTEX
  8
0
 10
0.195258
 20
0.403049
 30
0.0
 40
0
 41
0
  0
VERTEX
  8
0
 10
0.195258
 20
0.470053
 30
0.0
 40
0
 41
0
  0
SEQEND
 8
0
  0
POLYLINE
  8
0
 62
     13
 66
     1
 10
0
 20
0
 30
0.0
 70
     1
 40
0
 41
0
  0
VERTEX
  8
0
 10
0.185385
 20
0.952365
 30
0.0
 40
0
 41
0
  0
VERTEX
  8
0
 10
0.217393
 20
0.952365
 30
0.0
 40
0
 41
0
  0
VERTEX
  8
0
 10
0.217393
 20
0.885363
 30
0.0
 40
0
 41
0
  0
VERTEX
  8
0
 10
0.185385
 20
0.885363
 30
0.0
 40
0
 41
0
  0
VERTEX
  8
0
 10
0.185385
 20
0.952365
 30
0.0
 40
0
 41
0
  0
SEQEND
 8
0
  0
POLYLINE
  8
0
 62
     13
 66
     1
 10
0
 20
0
 30
0.0
 70
     1
 40
0
 41
0
  0
VERTEX
  8
0
 10
0.557671
 20
0.952365
 30
0.0
 40
0
 41
0
  0
VERTEX
  8
0
 10
0.589681
 20
0.952365
 30
0.0
 40
0
 41
0
  0
VERTEX
  8
0
 10
0.589681
 20
0.885363
 30
0.0
 40
0
 41
0
  0
VERTEX
  8
0
 10
0.557671
 20
0.885363
 30
0.0
 40
0
 41
0
  0
VERTEX
  8
0
 10
0.557671
 20
0.952365
 30
0.0
 40
0
 41
0
  0
SEQEND
 8
0
  0
POLYLINE
  8
0
 62
     13
 66
     1
 10
0
 20
0
 30
0.0
 70
     1
 40
0
 41
0
  0
VERTEX
  8
0
 10
0.667697
 20
0.952365
 30
0.0
 40
0
 41
0
  0
VERTEX
  8
0
 10
0.699707
 20
0.952365
 30
0.0
 40
0
 41
0
  0
VERTEX
  8
0
 10
0.699707
 20
0.885363
 30
0.0
 40
0
 41
0
  0
VERTEX
  8
0
 10
0.667697
 20
0.885363
 30
0.0
 40
0
 41
0
  0
VERTEX
  8
0
 10
0.667697
 20
0.952365
 30
0.0
 40
0
 41
0
  0
SEQEND
 8
0
  0
POLYLINE
  8
0
 62
     13
 66
     1
 10
0
 20
0
 30
0.0
 70
     1
 40
0
 41
0
  0
VERTEX
  8
0
 10
1.23682
 20
0.381456
 30
0.0
 40
0
 41
0
  0
VERTEX
  8
0
 10
1.26883
 20
0.381456
 30
0.0
 40
0
 41
0
  0
VERTEX
  8
0
 10
1.26883
 20
0.314453
 30
0.0
 40
0
 41
0
  0
VERTEX
  8
0
 10
1.23682
 20
0.314453
 30
0.0
 40
0
 41
0
  0
VERTEX
  8
0
 10
1.23682
 20
0.381456
 30
0.0
 40
0
 41
0
  0
SEQEND
 8
0
  0
POLYLINE
  8
0
 62
     13
 66
     1
 10
0
 20
0
 30
0.0
 70
     1
 40
0
 41
0
  0
VERTEX
  8
0
 10
1.34679
 20
0.381456
 30
0.0
 40
0
 41
0
  0
VERTEX
  8
0
 10
1.3788
 20
0.381456
 30
0.0
 40
0
 41
0
  0
VERTEX
  8
0
 10
1.3788
 20
0.314453
 30
0.0
 40
0
 41
0
  0
VERTEX
  8
0
 10
1.34679
 20
0.314453
 30
0.0
 40
0
 41
0
  0
VERTEX
  8
0
 10
1.34679
 20
0.381456
 30
0.0
 40
0
 41
0
  0
SEQEND
 8
0
  0
POLYLINE
  8
0
 62
     13
 66
     1
 10
0
 20
0
 30
0.0
 70
     1
 40
0
 41
0
  0
VERTEX
  8
0
 10
0.354167
 20
1.24148
 30
0.0
 40
0
 41
0
  0
VERTEX
  8
0
 10
0.412164
 20
1.24148
 30
0.0
 40
0
 41
0
  0
VERTEX
  8
0
 10
0.412164
 20
1.20649
 30
0.0
 40
0
 41
0
  0
VERTEX
  8
0
 10
0.354167
 20
1.20649
 30
0.0
 40
0
 41
0
  0
VERTEX
  8
0
 10
0.354167
 20
1.24148
 30
0.0
 40
0
 41
0
  0
SEQEND
 8
0
  0
POLYLINE
  8
0
 62
     13
 66
     1
 10
0
 20
0
 30
0.0
 70
     1
 40
0
 41
0
  0
VERTEX
  8
0
 10
0.354167
 20
1.15044
 30
0.0
 40
0
 41
0
  0
VERTEX
  8
0
 10
0.412164
 20
1.15044
 30
0.0
 40
0
 41
0
  0
VERTEX
  8
0
 10
0.412164
 20
1.11545
 30
0.0
 40
0
 41
0
  0
VERTEX
  8
0
 10
0.354167
 20
1.11545
 30
0.0
 40
0
 41
0
  0
VERTEX
  8
0
 10
0.354167
 20
1.15044
 30
0.0
 40
0
 41
0
  0
SEQEND
 8
0
  0
POLYLINE
  8
0
 62
     13
 66
     1
 10
0
 20
0
 30
0.0
 70
     1
 40
0
 41
0
  0
VERTEX
  8
0
 10
0.354167
 20
1.33247
 30
0.0
 40
0
 41
0
  0
VERTEX
  8
0
 10
0.412164
 20
1.33247
 30
0.0
 40
0
 41
0
  0
VERTEX
  8
0
 10
0.412164
 20
1.29747
 30
0.0
 40
0
 41
0
  0
VERTEX
  8
0
 10
0.354167
 20
1.29747
 30
0.0
 40
0
 41
0
  0
VERTEX
  8
0
 10
0.354167
 20
1.33247
 30
0.0
 40
0
 41
0
  0
SEQEND
 8
0
  0
POLYLINE
  8
0
 62
     13
 66
     1
 10
0
 20
0
 30
0.0
 70
     1
 40
0
 41
0
  0
VERTEX
  8
0
 10
0.142253
 20
0.54796
 30
0.0
 40
0
 41
0
  0
VERTEX
  8
0
 10
0.181803
 20
0.54796
 30
0.0
 40
0
 41
0
  0
VERTEX
  8
0
 10
0.181803
 20
0.525933
 30
0.0
 40
0
 41
0
  0
VERTEX
  8
0
 10
0.142253
 20
0.525933
 30
0.0
 40
0
 41
0
  0
VERTEX
  8
0
 10
0.142253
 20
0.54796
 30
0.0
 40
0
 41
0
  0
SEQEND
 8
0
  0
POLYLINE
  8
0
 62
     13
 66
     1
 10
0
 20
0
 30
0.0
 70
     1
 40
0
 41
0
  0
VERTEX
  8
0
 10
0.142253
 20
0.585394
 30
0.0
 40
0
 41
0
  0
VERTEX
  8
0
 10
0.181803
 20
0.585394
 30
0.0
 40
0
 41
0
  0
VERTEX
  8
0
 10
0.181803
 20
0.563368
 30
0.0
 40
0
 41
0
  0
VERTEX
  8
0
 10
0.142253
 20
0.563368
 30
0.0
 40
0
 41
0
  0
VERTEX
  8
0
 10
0.142253
 20
0.585394
 30
0.0
 40
0
 41
0
  0
SEQEND
 8
0
  0
POLYLINE
  8
0
 62
     13
 66
     1
 10
0
 20
0
 30
0.0
 70
     1
 40
0
 41
0
  0
VERTEX
  8
0
 10
0.142253
 20
0.622775
 30
0.0
 40
0
 41
0
  0
VERTEX
  8
0
 10
0.181803
 20
0.622775
 30
0.0
 40
0
 41
0
  0
VERTEX
  8
0
 10
0.181803
 20
0.600749
 30
0.0
 40
0
 41
0
  0
VERTEX
  8
0
 10
0.142253
 20
0.600749
 30
0.0
 40
0
 41
0
  0
VERTEX
  8
0
 10
0.142253
 20
0.622775
 30
0.0
 40
0
 41
0
  0
SEQEND
 8
0
  0
POLYLINE
  8
0
 62
     13
 66
     1
 10
0
 20
0
 30
0.0
 70
     1
 40
0
 41
0
  0
VERTEX
  8
0
 10
0.248807
 20
0.585394
 30
0.0
 40
0
 41
0
  0
VERTEX
  8
0
 10
0.288357
 20
0.585394
 30
0.0
 40
0
 41
0
  0
VERTEX
  8
0
 10
0.288357
 20
0.563368
 30
0.0
 40
0
 41
0
  0
VERTEX
  8
0
 10
0.248807
 20
0.563368
 30
0.0
 40
0
 41
0
  0
VERTEX
  8
0
 10
0.248807
 20
0.585394
 30
0.0
 40
0
 41
0
  0
SEQEND
 8
0
  0
POLYLINE
  8
0
 62
     13
 66
     1
 10
0
 20
0
 30
0.0
 70
     1
 40
0
 41
0
  0
VERTEX
  8
0
 10
0.248807
 20
0.54796
 30
0.0
 40
0
 41
0
  0
VERTEX
  8
0
 10
0.288357
 20
0.54796
 30
0.0
 40
0
 41
0
  0
VERTEX
  8
0
 10
0.288357
 20
0.525933
 30
0.0
 40
0
 41
0
  0
VERTEX
  8
0
 10
0.248807
 20
0.525933
 30
0.0
 40
0
 41
0
  0
VERTEX
  8
0
 10
0.248807
 20
0.54796
 30
0.0
 40
0
 41
0
  0
SEQEND
 8
0
  0
POLYLINE
  8
0
 62
     13
 66
     1
 10
0
 20
0
 30
0.0
 70
     1
 40
0
 41
0
  0
VERTEX
  8
0
 10
0.248807
 20
0.622775
 30
0.0
 40
0
 41
0
  0
VERTEX
  8
0
 10
0.288357
 20
0.622775
 30
0.0
 40
0
 41
0
  0
VERTEX
  8
0
 10
0.288357
 20
0.600749
 30
0.0
 40
0
 41
0
  0
VERTEX
  8
0
 10
0.248807
 20
0.600749
 30
0.0
 40
0
 41
0
  0
VERTEX
  8
0
 10
0.248807
 20
0.622775
 30
0.0
 40
0
 41
0
  0
SEQEND
 8
0
  0
POLYLINE
  8
0
 62
     13
 66
     1
 10
0
 20
0
 30
0.0
 70
     1
 40
0
 41
0
  0
VERTEX
  8
0
 10
0.184028
 20
0.574382
 30
0.0
 40
0
 41
0
  0
VERTEX
  8
0
 10
0.184028
 20
0.578504
 30
0.0
 40
0
 41
0
  0
VERTEX
  8
0
 10
0.177137
 20
0.590875
 30
0.0
 40
0
 41
0
  0
VERTEX
  8
0
 10
0.162001
 20
0.596354
 30
0.0
 40
0
 41
0
  0
VERTEX
  8
0
 10
0.146864
 20
0.590875
 30
0.0
 40
0
 41
0
  0
VERTEX
  8
0
 10
0.140028
 20
0.578504
 30
0.0
 40
0
 41
0
  0
VERTEX
  8
0
 10
0.140028
 20
0.574382
 30
0.0
 40
0
 41
0
  0
VERTEX
  8
0
 10
0.140028
 20
0.570258
 30
0.0
 40
0
 41
0
  0
VERTEX
  8
0
 10
0.146864
 20
0.557889
 30
0.0
 40
0
 41
0
  0
VERTEX
  8
0
 10
0.162001
 20
0.552408
 30
0.0
 40
0
 41
0
  0
VERTEX
  8
0
 10
0.177137
 20
0.557889
 30
0.0
 40
0
 41
0
  0
VERTEX
  8
0
 10
0.184028
 20
0.570258
 30
0.0
 40
0
 41
0
  0
VERTEX
  8
0
 10
0.184028
 20
0.574382
 30
0.0
 40
0
 41
0
  0
SEQEND
 8
0
  0
POLYLINE
  8
0
 62
     13
 66
     1
 10
0
 20
0
 30
0.0
 70
     1
 40
0
 41
0
  0
VERTEX
  8
0
 10
0.11339
 20
0.918838
 30
0.0
 40
0
 41
0
  0
VERTEX
  8
0
 10
0.11339
 20
0.923014
 30
0.0
 40
0
 41
0
  0
VERTEX
  8
0
 10
0.1065
 20
0.935385
 30
0.0
 40
0
 41
0
  0
VERTEX
  8
0
 10
0.0913629
 20
0.940864
 30
0.0
 40
0
 41
0
  0
VERTEX
  8
0
 10
0.0762261
 20
0.935385
 30
0.0
 40
0
 41
0
  0
VERTEX
  8
0
 10
0.0693901
 20
0.923014
 30
0.0
 40
0
 41
0
  0
VERTEX
  8
0
 10
0.0693901
 20
0.918838
 30
0.0
 40
0
 41
0
  0
VERTEX
  8
0
 10
0.0693901
 20
0.914714
 30
0.0
 40
0
 41
0
  0
VERTEX
  8
0
 10
0.0762261
 20
0.902344
 30
0.0
 40
0
 41
0
  0
VERTEX
  8
0
 10
0.0913629
 20
0.896864
 30
0.0
 40
0
 41
0
  0
VERTEX
  8
0
 10
0.1065
 20
0.902344
 30
0.0
 40
0
 41
0
  0
VERTEX
  8
0
 10
0.11339
 20
0.914714
 30
0.0
 40
0
 41
0
  0
VERTEX
  8
0
 10
0.11339
 20
0.918838
 30
0.0
 40
0
 41
0
  0
SEQEND
 8
0
  0
POLYLINE
  8
0
 62
     13
 66
     1
 10
0
 20
0
 30
0.0
 70
     1
 40
0
 41
0
  0
VERTEX
  8
0
 10
0.197917
 20
1.42079
 30
0.0
 40
0
 41
0
  0
VERTEX
  8
0
 10
0.197917
 20
1.42497
 30
0.0
 40
0
 41
0
  0
VERTEX
  8
0
 10
0.191026
 20
1.43733
 30
0.0
 40
0
 41
0
  0
VERTEX
  8
0
 10
0.17589
 20
1.44282
 30
0.0
 40
0
 41
0
  0
VERTEX
  8
0
 10
0.160753
 20
1.43733
 30
0.0
 40
0
 41
0
  0
VERTEX
  8
0
 10
0.153917
 20
1.42497
 30
0.0
 40
0
 41
0
  0
VERTEX
  8
0
 10
0.153917
 20
1.42079
 30
0.0
 40
0
 41
0
  0
VERTEX
  8
0
 10
0.153917
 20
1.41672
 30
0.0
 40
0
 41
0
  0
VERTEX
  8
0
 10
0.160753
 20
1.40435
 30
0.0
 40
0
 41
0
  0
VERTEX
  8
0
 10
0.17589
 20
1.39882
 30
0.0
 40
0
 41
0
  0
VERTEX
  8
0
 10
0.191026
 20
1.40435
 30
0.0
 40
0
 41
0
  0
VERTEX
  8
0
 10
0.197917
 20
1.41672
 30
0.0
 40
0
 41
0
  0
VERTEX
  8
0
 10
0.197917
 20
1.42079
 30
0.0
 40
0
 41
0
  0
SEQEND
 8
0
  0
POLYLINE
  8
0
 62
     13
 66
     1
 10
0
 20
0
 30
0.0
 70
     1
 40
0
 41
0
  0
VERTEX
  8
0
 10
0.290582
 20
0.611763
 30
0.0
 40
0
 41
0
  0
VERTEX
  8
0
 10
0.290582
 20
0.61594
 30
0.0
 40
0
 41
0
  0
VERTEX
  8
0
 10
0.283692
 20
0.62831
 30
0.0
 40
0
 41
0
  0
VERTEX
  8
0
 10
0.268554
 20
0.633789
 30
0.0
 40
0
 41
0
  0
VERTEX
  8
0
 10
0.253418
 20
0.62831
 30
0.0
 40
0
 41
0
  0
VERTEX
  8
0
 10
0.246582
 20
0.61594
 30
0.0
 40
0
 41
0
  0
VERTEX
  8
0
 10
0.246582
 20
0.611763
 30
0.0
 40
0
 41
0
  0
VERTEX
  8
0
 10
0.246582
 20
0.607639
 30
0.0
 40
0
 41
0
  0
VERTEX
  8
0
 10
0.253418
 20
0.595269
 30
0.0
 40
0
 41
0
  0
VERTEX
  8
0
 10
0.268554
 20
0.589789
 30
0.0
 40
0
 41
0
  0
VERTEX
  8
0
 10
0.283692
 20
0.595269
 30
0.0
 40
0
 41
0
  0
VERTEX
  8
0
 10
0.290582
 20
0.607639
 30
0.0
 40
0
 41
0
  0
VERTEX
  8
0
 10
0.290582
 20
0.611763
 30
0.0
 40
0
 41
0
  0
SEQEND
 8
0
  0
POLYLINE
  8
0
 62
     13
 66
     1
 10
0
 20
0
 30
0.0
 70
     1
 40
0
 41
0
  0
VERTEX
  8
0
 10
0.414442
 20
0.15115
 30
0.0
 40
0
 41
0
  0
VERTEX
  8
0
 10
0.414442
 20
0.155274
 30
0.0
 40
0
 41
0
  0
VERTEX
  8
0
 10
0.407553
 20
0.167643
 30
0.0
 40
0
 41
0
  0
VERTEX
  8
0
 10
0.392415
 20
0.173122
 30
0.0
 40
0
 41
0
  0
VERTEX
  8
0
 10
0.377279
 20
0.167643
 30
0.0
 40
0
 41
0
  0
VERTEX
  8
0
 10
0.370443
 20
0.155274
 30
0.0
 40
0
 41
0
  0
VERTEX
  8
0
 10
0.370443
 20
0.15115
 30
0.0
 40
0
 41
0
  0
VERTEX
  8
0
 10
0.370443
 20
0.147026
 30
0.0
 40
0
 41
0
  0
VERTEX
  8
0
 10
0.377279
 20
0.134657
 30
0.0
 40
0
 41
0
  0
VERTEX
  8
0
 10
0.392415
 20
0.129178
 30
0.0
 40
0
 41
0
  0
VERTEX
  8
0
 10
0.407553
 20
0.134657
 30
0.0
 40
0
 41
0
  0
VERTEX
  8
0
 10
0.414442
 20
0.147026
 30
0.0
 40
0
 41
0
  0
VERTEX
  8
0
 10
0.414442
 20
0.15115
 30
0.0
 40
0
 41
0
  0
SEQEND
 8
0
  0
POLYLINE
  8
0
 62
     13
 66
     1
 10
0
 20
0
 30
0.0
 70
     1
 40
0
 41
0
  0
VERTEX
  8
0
 10
0.341581
 20
0.210178
 30
0.0
 40
0
 41
0
  0
VERTEX
  8
0
 10
0.341581
 20
0.214356
 30
0.0
 40
0
 41
0
  0
VERTEX
  8
0
 10
0.33469
 20
0.226725
 30
0.0
 40
0
 41
0
  0
VERTEX
  8
0
 10
0.319553
 20
0.232206
 30
0.0
 40
0
 41
0
  0
VERTEX
  8
0
 10
0.304417
 20
0.226725
 30
0.0
 40
0
 41
0
  0
VERTEX
  8
0
 10
0.297581
 20
0.214356
 30
0.0
 40
0
 41
0
  0
VERTEX
  8
0
 10
0.297581
 20
0.210178
 30
0.0
 40
0
 41
0
  0
VERTEX
  8
0
 10
0.297581
 20
0.206054
 30
0.0
 40
0
 41
0
  0
VERTEX
  8
0
 10
0.304417
 20
0.193685
 30
0.0
 40
0
 41
0
  0
VERTEX
  8
0
 10
0.319553
 20
0.188206
 30
0.0
 40
0
 41
0
  0
VERTEX
  8
0
 10
0.33469
 20
0.193685
 30
0.0
 40
0
 41
0
  0
VERTEX
  8
0
 10
0.341581
 20
0.206054
 30
0.0
 40
0
 41
0
  0
VERTEX
  8
0
 10
0.341581
 20
0.210178
 30
0.0
 40
0
 41
0
  0
SEQEND
 8
0
  0
POLYLINE
  8
0
 62
     13
 66
     1
 10
0
 20
0
 30
0.0
 70
     1
 40
0
 41
0
  0
VERTEX
  8
0
 10
0.408583
 20
0.210178
 30
0.0
 40
0
 41
0
  0
VERTEX
  8
0
 10
0.408583
 20
0.214356
 30
0.0
 40
0
 41
0
  0
VERTEX
  8
0
 10
0.401693
 20
0.226725
 30
0.0
 40
0
 41
0
  0
VERTEX
  8
0
 10
0.386556
 20
0.232206
 30
0.0
 40
0
 41
0
  0
VERTEX
  8
0
 10
0.371419
 20
0.226725
 30
0.0
 40
0
 41
0
  0
VERTEX
  8
0
 10
0.364583
 20
0.214356
 30
0.0
 40
0
 41
0
  0
VERTEX
  8
0
 10
0.364583
 20
0.210178
 30
0.0
 40
0
 41
0
  0
VERTEX
  8
0
 10
0.364583
 20
0.206054
 30
0.0
 40
0
 41
0
  0
VERTEX
  8
0
 10
0.371419
 20
0.193685
 30
0.0
 40
0
 41
0
  0
VERTEX
  8
0
 10
0.386556
 20
0.188206
 30
0.0
 40
0
 41
0
  0
VERTEX
  8
0
 10
0.401693
 20
0.193685
 30
0.0
 40
0
 41
0
  0
VERTEX
  8
0
 10
0.408583
 20
0.206054
 30
0.0
 40
0
 41
0
  0
VERTEX
  8
0
 10
0.408583
 20
0.210178
 30
0.0
 40
0
 41
0
  0
SEQEND
 8
0
  0
POLYLINE
  8
0
 62
     13
 66
     1
 10
0
 20
0
 30
0.0
 70
     1
 40
0
 41
0
  0
VERTEX
  8
0
 10
0.444011
 20
0.958225
 30
0.0
 40
0
 41
0
  0
VERTEX
  8
0
 10
0.444011
 20
0.962349
 30
0.0
 40
0
 41
0
  0
VERTEX
  8
0
 10
0.437121
 20
0.974718
 30
0.0
 40
0
 41
0
  0
VERTEX
  8
0
 10
0.421983
 20
0.980197
 30
0.0
 40
0
 41
0
  0
VERTEX
  8
0
 10
0.406847
 20
0.974718
 30
0.0
 40
0
 41
0
  0
VERTEX
  8
0
 10
0.400011
 20
0.962349
 30
0.0
 40
0
 41
0
  0
VERTEX
  8
0
 10
0.400011
 20
0.958225
 30
0.0
 40
0
 41
0
  0
VERTEX
  8
0
 10
0.400011
 20
0.954101
 30
0.0
 40
0
 41
0
  0
VERTEX
  8
0
 10
0.406847
 20
0.941732
 30
0.0
 40
0
 41
0
  0
VERTEX
  8
0
 10
0.421983
 20
0.936253
 30
0.0
 40
0
 41
0
  0
VERTEX
  8
0
 10
0.437121
 20
0.941732
 30
0.0
 40
0
 41
0
  0
VERTEX
  8
0
 10
0.444011
 20
0.954101
 30
0.0
 40
0
 41
0
  0
VERTEX
  8
0
 10
0.444011
 20
0.958225
 30
0.0
 40
0
 41
0
  0
SEQEND
 8
0
  0
POLYLINE
  8
0
 62
     13
 66
     1
 10
0
 20
0
 30
0.0
 70
     1
 40
0
 41
0
  0
VERTEX
  8
0
 10
0.414442
 20
1.27317
 30
0.0
 40
0
 41
0
  0
VERTEX
  8
0
 10
0.414442
 20
1.27734
 30
0.0
 40
0
 41
0
  0
VERTEX
  8
0
 10
0.407553
 20
1.28971
 30
0.0
 40
0
 41
0
  0
VERTEX
  8
0
 10
0.392415
 20
1.29519
 30
0.0
 40
0
 41
0
  0
VERTEX
  8
0
 10
0.377279
 20
1.28971
 30
0.0
 40
0
 41
0
  0
VERTEX
  8
0
 10
0.370443
 20
1.27734
 30
0.0
 40
0
 41
0
  0
VERTEX
  8
0
 10
0.370443
 20
1.27317
 30
0.0
 40
0
 41
0
  0
VERTEX
  8
0
 10
0.370443
 20
1.26904
 30
0.0
 40
0
 41
0
  0
VERTEX
  8
0
 10
0.377279
 20
1.25667
 30
0.0
 40
0
 41
0
  0
VERTEX
  8
0
 10
0.392415
 20
1.25119
 30
0.0
 40
0
 41
0
  0
VERTEX
  8
0
 10
0.407553
 20
1.25667
 30
0.0
 40
0
 41
0
  0
VERTEX
  8
0
 10
0.414442
 20
1.26904
 30
0.0
 40
0
 41
0
  0
VERTEX
  8
0
 10
0.414442
 20
1.27317
 30
0.0
 40
0
 41
0
  0
SEQEND
 8
0
  0
POLYLINE
  8
0
 62
     13
 66
     1
 10
0
 20
0
 30
0.0
 70
     1
 40
0
 41
0
  0
VERTEX
  8
0
 10
0.414442
 20
1.48969
 30
0.0
 40
0
 41
0
  0
VERTEX
  8
0
 10
0.414442
 20
1.49387
 30
0.0
 40
0
 41
0
  0
VERTEX
  8
0
 10
0.407553
 20
1.50624
 30
0.0
 40
0
 41
0
  0
VERTEX
  8
0
 10
0.392415
 20
1.51172
 30
0.0
 40
0
 41
0
  0
VERTEX
  8
0
 10
0.377279
 20
1.50624
 30
0.0
 40
0
 41
0
  0
VERTEX
  8
0
 10
0.370443
 20
1.49387
 30
0.0
 40
0
 41
0
  0
VERTEX
  8
0
 10
0.370443
 20
1.48969
 30
0.0
 40
0
 41
0
  0
VERTEX
  8
0
 10
0.370443
 20
1.48562
 30
0.0
 40
0
 41
0
  0
VERTEX
  8
0
 10
0.377279
 20
1.47325
 30
0.0
 40
0
 41
0
  0
VERTEX
  8
0
 10
0.392415
 20
1.46772
 30
0.0
 40
0
 41
0
  0
VERTEX
  8
0
 10
0.407553
 20
1.47325
 30
0.0
 40
0
 41
0
  0
VERTEX
  8
0
 10
0.414442
 20
1.48562
 30
0.0
 40
0
 41
0
  0
VERTEX
  8
0
 10
0.414442
 20
1.48969
 30
0.0
 40
0
 41
0
  0
SEQEND
 8
0
  0
POLYLINE
  8
0
 62
     13
 66
     1
 10
0
 20
0
 30
0.0
 70
     1
 40
0
 41
0
  0
VERTEX
  8
0
 10
0.424317
 20
1.6964
 30
0.0
 40
0
 41
0
  0
VERTEX
  8
0
 10
0.424317
 20
1.70057
 30
0.0
 40
0
 41
0
  0
VERTEX
  8
0
 10
0.417426
 20
1.71294
 30
0.0
 40
0
 41
0
  0
VERTEX
  8
0
 10
0.402289
 20
1.71843
 30
0.0
 40
0
 41
0
  0
VERTEX
  8
0
 10
0.387153
 20
1.71294
 30
0.0
 40
0
 41
0
  0
VERTEX
  8
0
 10
0.380317
 20
1.70057
 30
0.0
 40
0
 41
0
  0
VERTEX
  8
0
 10
0.380317
 20
1.6964
 30
0.0
 40
0
 41
0
  0
VERTEX
  8
0
 10
0.380317
 20
1.69228
 30
0.0
 40
0
 41
0
  0
VERTEX
  8
0
 10
0.387153
 20
1.6799
 30
0.0
 40
0
 41
0
  0
VERTEX
  8
0
 10
0.402289
 20
1.67443
 30
0.0
 40
0
 41
0
  0
VERTEX
  8
0
 10
0.417426
 20
1.6799
 30
0.0
 40
0
 41
0
  0
VERTEX
  8
0
 10
0.424317
 20
1.69228
 30
0.0
 40
0
 41
0
  0
VERTEX
  8
0
 10
0.424317
 20
1.6964
 30
0.0
 40
0
 41
0
  0
SEQEND
 8
0
  0
POLYLINE
  8
0
 62
     13
 66
     1
 10
0
 20
0
 30
0.0
 70
     1
 40
0
 41
0
  0
VERTEX
  8
0
 10
0.531467
 20
0.17079
 30
0.0
 40
0
 41
0
  0
VERTEX
  8
0
 10
0.531467
 20
0.174968
 30
0.0
 40
0
 41
0
  0
VERTEX
  8
0
 10
0.524576
 20
0.187338
 30
0.0
 40
0
 41
0
  0
VERTEX
  8
0
 10
0.50944
 20
0.192817
 30
0.0
 40
0
 41
0
  0
VERTEX
  8
0
 10
0.494303
 20
0.187338
 30
0.0
 40
0
 41
0
  0
VERTEX
  8
0
 10
0.487468
 20
0.174968
 30
0.0
 40
0
 41
0
  0
VERTEX
  8
0
 10
0.487468
 20
0.17079
 30
0.0
 40
0
 41
0
  0
VERTEX
  8
0
 10
0.487468
 20
0.166721
 30
0.0
 40
0
 41
0
  0
VERTEX
  8
0
 10
0.494303
 20
0.154351
 30
0.0
 40
0
 41
0
  0
VERTEX
  8
0
 10
0.50944
 20
0.148817
 30
0.0
 40
0
 41
0
  0
VERTEX
  8
0
 10
0.524576
 20
0.154351
 30
0.0
 40
0
 41
0
  0
VERTEX
  8
0
 10
0.531467
 20
0.166721
 30
0.0
 40
0
 41
0
  0
VERTEX
  8
0
 10
0.531467
 20
0.17079
 30
0.0
 40
0
 41
0
  0
SEQEND
 8
0
  0
POLYLINE
  8
0
 62
     13
 66
     1
 10
0
 20
0
 30
0.0
 70
     1
 40
0
 41
0
  0
VERTEX
  8
0
 10
0.57194
 20
0.328287
 30
0.0
 40
0
 41
0
  0
VERTEX
  8
0
 10
0.57194
 20
0.332465
 30
0.0
 40
0
 41
0
  0
VERTEX
  8
0
 10
0.56505
 20
0.344835
 30
0.0
 40
0
 41
0
  0
VERTEX
  8
0
 10
0.549914
 20
0.350315
 30
0.0
 40
0
 41
0
  0
VERTEX
  8
0
 10
0.534776
 20
0.344835
 30
0.0
 40
0
 41
0
  0
VERTEX
  8
0
 10
0.52794
 20
0.332465
 30
0.0
 40
0
 41
0
  0
VERTEX
  8
0
 10
0.52794
 20
0.328287
 30
0.0
 40
0
 41
0
  0
VERTEX
  8
0
 10
0.52794
 20
0.324164
 30
0.0
 40
0
 41
0
  0
VERTEX
  8
0
 10
0.534776
 20
0.311794
 30
0.0
 40
0
 41
0
  0
VERTEX
  8
0
 10
0.549914
 20
0.306315
 30
0.0
 40
0
 41
0
  0
VERTEX
  8
0
 10
0.56505
 20
0.311794
 30
0.0
 40
0
 41
0
  0
VERTEX
  8
0
 10
0.57194
 20
0.324164
 30
0.0
 40
0
 41
0
  0
VERTEX
  8
0
 10
0.57194
 20
0.328287
 30
0.0
 40
0
 41
0
  0
SEQEND
 8
0
  0
POLYLINE
  8
0
 62
     13
 66
     1
 10
0
 20
0
 30
0.0
 70
     1
 40
0
 41
0
  0
VERTEX
  8
0
 10
0.57194
 20
0.447483
 30
0.0
 40
0
 41
0
  0
VERTEX
  8
0
 10
0.57194
 20
0.45166
 30
0.0
 40
0
 41
0
  0
VERTEX
  8
0
 10
0.56505
 20
0.464031
 30
0.0
 40
0
 41
0
  0
VERTEX
  8
0
 10
0.549914
 20
0.46951
 30
0.0
 40
0
 41
0
  0
VERTEX
  8
0
 10
0.534776
 20
0.464031
 30
0.0
 40
0
 41
0
  0
VERTEX
  8
0
 10
0.52794
 20
0.45166
 30
0.0
 40
0
 41
0
  0
VERTEX
  8
0
 10
0.52794
 20
0.447483
 30
0.0
 40
0
 41
0
  0
VERTEX
  8
0
 10
0.52794
 20
0.443414
 30
0.0
 40
0
 41
0
  0
VERTEX
  8
0
 10
0.534776
 20
0.431044
 30
0.0
 40
0
 41
0
  0
VERTEX
  8
0
 10
0.549914
 20
0.42551
 30
0.0
 40
0
 41
0
  0
VERTEX
  8
0
 10
0.56505
 20
0.431044
 30
0.0
 40
0
 41
0
  0
VERTEX
  8
0
 10
0.57194
 20
0.443414
 30
0.0
 40
0
 41
0
  0
VERTEX
  8
0
 10
0.57194
 20
0.447483
 30
0.0
 40
0
 41
0
  0
SEQEND
 8
0
  0
POLYLINE
  8
0
 62
     13
 66
     1
 10
0
 20
0
 30
0.0
 70
     1
 40
0
 41
0
  0
VERTEX
  8
0
 10
0.473525
 20
0.544814
 30
0.0
 40
0
 41
0
  0
VERTEX
  8
0
 10
0.473525
 20
0.54899
 30
0.0
 40
0
 41
0
  0
VERTEX
  8
0
 10
0.466635
 20
0.561361
 30
0.0
 40
0
 41
0
  0
VERTEX
  8
0
 10
0.451497
 20
0.56684
 30
0.0
 40
0
 41
0
  0
VERTEX
  8
0
 10
0.436361
 20
0.561361
 30
0.0
 40
0
 41
0
  0
VERTEX
  8
0
 10
0.429525
 20
0.54899
 30
0.0
 40
0
 41
0
  0
VERTEX
  8
0
 10
0.429525
 20
0.544814
 30
0.0
 40
0
 41
0
  0
VERTEX
  8
0
 10
0.429525
 20
0.540744
 30
0.0
 40
0
 41
0
  0
VERTEX
  8
0
 10
0.436361
 20
0.528375
 30
0.0
 40
0
 41
0
  0
VERTEX
  8
0
 10
0.451497
 20
0.52284
 30
0.0
 40
0
 41
0
  0
VERTEX
  8
0
 10
0.466635
 20
0.528375
 30
0.0
 40
0
 41
0
  0
VERTEX
  8
0
 10
0.473525
 20
0.540744
 30
0.0
 40
0
 41
0
  0
VERTEX
  8
0
 10
0.473525
 20
0.544814
 30
0.0
 40
0
 41
0
  0
SEQEND
 8
0
  0
POLYLINE
  8
0
 62
     13
 66
     1
 10
0
 20
0
 30
0.0
 70
     1
 40
0
 41
0
  0
VERTEX
  8
0
 10
0.46365
 20
0.653103
 30
0.0
 40
0
 41
0
  0
VERTEX
  8
0
 10
0.46365
 20
0.657281
 30
0.0
 40
0
 41
0
  0
VERTEX
  8
0
 10
0.45676
 20
0.66965
 30
0.0
 40
0
 41
0
  0
VERTEX
  8
0
 10
0.441624
 20
0.675131
 30
0.0
 40
0
 41
0
  0
VERTEX
  8
0
 10
0.426486
 20
0.66965
 30
0.0
 40
0
 41
0
  0
VERTEX
  8
0
 10
0.41965
 20
0.657281
 30
0.0
 40
0
 41
0
  0
VERTEX
  8
0
 10
0.41965
 20
0.653103
 30
0.0
 40
0
 41
0
  0
VERTEX
  8
0
 10
0.41965
 20
0.648981
 30
0.0
 40
0
 41
0
  0
VERTEX
  8
0
 10
0.426486
 20
0.63661
 30
0.0
 40
0
 41
0
  0
VERTEX
  8
0
 10
0.441624
 20
0.631131
 30
0.0
 40
0
 41
0
  0
VERTEX
  8
0
 10
0.45676
 20
0.63661
 30
0.0
 40
0
 41
0
  0
VERTEX
  8
0
 10
0.46365
 20
0.648981
 30
0.0
 40
0
 41
0
  0
VERTEX
  8
0
 10
0.46365
 20
0.653103
 30
0.0
 40
0
 41
0
  0
SEQEND
 8
0
  0
POLYLINE
  8
0
 62
     13
 66
     1
 10
0
 20
0
 30
0.0
 70
     1
 40
0
 41
0
  0
VERTEX
  8
0
 10
0.512858
 20
1.57829
 30
0.0
 40
0
 41
0
  0
VERTEX
  8
0
 10
0.512858
 20
1.58247
 30
0.0
 40
0
 41
0
  0
VERTEX
  8
0
 10
0.505968
 20
1.59483
 30
0.0
 40
0
 41
0
  0
VERTEX
  8
0
 10
0.490831
 20
1.60032
 30
0.0
 40
0
 41
0
  0
VERTEX
  8
0
 10
0.475694
 20
1.59483
 30
0.0
 40
0
 41
0
  0
VERTEX
  8
0
 10
0.468858
 20
1.58247
 30
0.0
 40
0
 41
0
  0
VERTEX
  8
0
 10
0.468858
 20
1.57829
 30
0.0
 40
0
 41
0
  0
VERTEX
  8
0
 10
0.468858
 20
1.57417
 30
0.0
 40
0
 41
0
  0
VERTEX
  8
0
 10
0.475694
 20
1.56179
 30
0.0
 40
0
 41
0
  0
VERTEX
  8
0
 10
0.490831
 20
1.55632
 30
0.0
 40
0
 41
0
  0
VERTEX
  8
0
 10
0.505968
 20
1.56179
 30
0.0
 40
0
 41
0
  0
VERTEX
  8
0
 10
0.512858
 20
1.57417
 30
0.0
 40
0
 41
0
  0
VERTEX
  8
0
 10
0.512858
 20
1.57829
 30
0.0
 40
0
 41
0
  0
SEQEND
 8
0
  0
POLYLINE
  8
0
 62
     13
 66
     1
 10
0
 20
0
 30
0.0
 70
     1
 40
0
 41
0
  0
VERTEX
  8
0
 10
0.709744
 20
0.15115
 30
0.0
 40
0
 41
0
  0
VERTEX
  8
0
 10
0.709744
 20
0.155274
 30
0.0
 40
0
 41
0
  0
VERTEX
  8
0
 10
0.702854
 20
0.167643
 30
0.0
 40
0
 41
0
  0
VERTEX
  8
0
 10
0.687717
 20
0.173122
 30
0.0
 40
0
 41
0
  0
VERTEX
  8
0
 10
0.672581
 20
0.167643
 30
0.0
 40
0
 41
0
  0
VERTEX
  8
0
 10
0.665744
 20
0.155274
 30
0.0
 40
0
 41
0
  0
VERTEX
  8
0
 10
0.665744
 20
0.15115
 30
0.0
 40
0
 41
0
  0
VERTEX
  8
0
 10
0.665744
 20
0.147026
 30
0.0
 40
0
 41
0
  0
VERTEX
  8
0
 10
0.672581
 20
0.134657
 30
0.0
 40
0
 41
0
  0
VERTEX
  8
0
 10
0.687717
 20
0.129178
 30
0.0
 40
0
 41
0
  0
VERTEX
  8
0
 10
0.702854
 20
0.134657
 30
0.0
 40
0
 41
0
  0
VERTEX
  8
0
 10
0.709744
 20
0.147026
 30
0.0
 40
0
 41
0
  0
VERTEX
  8
0
 10
0.709744
 20
0.15115
 30
0.0
 40
0
 41
0
  0
SEQEND
 8
0
  0
POLYLINE
  8
0
 62
     13
 66
     1
 10
0
 20
0
 30
0.0
 70
     1
 40
0
 41
0
  0
VERTEX
  8
0
 10
0.630968
 20
0.328287
 30
0.0
 40
0
 41
0
  0
VERTEX
  8
0
 10
0.630968
 20
0.332465
 30
0.0
 40
0
 41
0
  0
VERTEX
  8
0
 10
0.624078
 20
0.344835
 30
0.0
 40
0
 41
0
  0
VERTEX
  8
0
 10
0.608942
 20
0.350315
 30
0.0
 40
0
 41
0
  0
VERTEX
  8
0
 10
0.593804
 20
0.344835
 30
0.0
 40
0
 41
0
  0
VERTEX
  8
0
 10
0.586968
 20
0.332465
 30
0.0
 40
0
 41
0
  0
VERTEX
  8
0
 10
0.586968
 20
0.328287
 30
0.0
 40
0
 41
0
  0
VERTEX
  8
0
 10
0.586968
 20
0.324164
 30
0.0
 40
0
 41
0
  0
VERTEX
  8
0
 10
0.593804
 20
0.311794
 30
0.0
 40
0
 41
0
  0
VERTEX
  8
0
 10
0.608942
 20
0.306315
 30
0.0
 40
0
 41
0
  0
VERTEX
  8
0
 10
0.624078
 20
0.311794
 30
0.0
 40
0
 41
0
  0
VERTEX
  8
0
 10
0.630968
 20
0.324164
 30
0.0
 40
0
 41
0
  0
VERTEX
  8
0
 10
0.630968
 20
0.328287
 30
0.0
 40
0
 41
0
  0
SEQEND
 8
0
  0
POLYLINE
  8
0
 62
     13
 66
     1
 10
0
 20
0
 30
0.0
 70
     1
 40
0
 41
0
  0
VERTEX
  8
0
 10
0.699869
 20
0.229872
 30
0.0
 40
0
 41
0
  0
VERTEX
  8
0
 10
0.699869
 20
0.23405
 30
0.0
 40
0
 41
0
  0
VERTEX
  8
0
 10
0.692979
 20
0.246419
 30
0.0
 40
0
 41
0
  0
VERTEX
  8
0
 10
0.677843
 20
0.251899
 30
0.0
 40
0
 41
0
  0
VERTEX
  8
0
 10
0.662706
 20
0.246419
 30
0.0
 40
0
 41
0
  0
VERTEX
  8
0
 10
0.655871
 20
0.23405
 30
0.0
 40
0
 41
0
  0
VERTEX
  8
0
 10
0.655871
 20
0.229872
 30
0.0
 40
0
 41
0
  0
VERTEX
  8
0
 10
0.655871
 20
0.225749
 30
0.0
 40
0
 41
0
  0
VERTEX
  8
0
 10
0.662706
 20
0.213379
 30
0.0
 40
0
 41
0
  0
VERTEX
  8
0
 10
0.677843
 20
0.2079
 30
0.0
 40
0
 41
0
  0
VERTEX
  8
0
 10
0.692979
 20
0.213379
 30
0.0
 40
0
 41
0
  0
VERTEX
  8
0
 10
0.699869
 20
0.225749
 30
0.0
 40
0
 41
0
  0
VERTEX
  8
0
 10
0.699869
 20
0.229872
 30
0.0
 40
0
 41
0
  0
SEQEND
 8
0
  0
POLYLINE
  8
0
 62
     13
 66
     1
 10
0
 20
0
 30
0.0
 70
     1
 40
0
 41
0
  0
VERTEX
  8
0
 10
0.651747
 20
0.238607
 30
0.0
 40
0
 41
0
  0
VERTEX
  8
0
 10
0.651747
 20
0.242785
 30
0.0
 40
0
 41
0
  0
VERTEX
  8
0
 10
0.644857
 20
0.255154
 30
0.0
 40
0
 41
0
  0
VERTEX
  8
0
 10
0.629719
 20
0.260633
 30
0.0
 40
0
 41
0
  0
VERTEX
  8
0
 10
0.614583
 20
0.255154
 30
0.0
 40
0
 41
0
  0
VERTEX
  8
0
 10
0.607747
 20
0.242785
 30
0.0
 40
0
 41
0
  0
VERTEX
  8
0
 10
0.607747
 20
0.238607
 30
0.0
 40
0
 41
0
  0
VERTEX
  8
0
 10
0.607747
 20
0.234537
 30
0.0
 40
0
 41
0
  0
VERTEX
  8
0
 10
0.614583
 20
0.222168
 30
0.0
 40
0
 41
0
  0
VERTEX
  8
0
 10
0.629719
 20
0.216635
 30
0.0
 40
0
 41
0
  0
VERTEX
  8
0
 10
0.644857
 20
0.222168
 30
0.0
 40
0
 41
0
  0
VERTEX
  8
0
 10
0.651747
 20
0.234537
 30
0.0
 40
0
 41
0
  0
VERTEX
  8
0
 10
0.651747
 20
0.238607
 30
0.0
 40
0
 41
0
  0
SEQEND
 8
0
  0
POLYLINE
  8
0
 62
     13
 66
     1
 10
0
 20
0
 30
0.0
 70
     1
 40
0
 41
0
  0
VERTEX
  8
0
 10
0.591635
 20
0.918838
 30
0.0
 40
0
 41
0
  0
VERTEX
  8
0
 10
0.591635
 20
0.923014
 30
0.0
 40
0
 41
0
  0
VERTEX
  8
0
 10
0.584744
 20
0.935385
 30
0.0
 40
0
 41
0
  0
VERTEX
  8
0
 10
0.569607
 20
0.940864
 30
0.0
 40
0
 41
0
  0
VERTEX
  8
0
 10
0.554471
 20
0.935385
 30
0.0
 40
0
 41
0
  0
VERTEX
  8
0
 10
0.547635
 20
0.923014
 30
0.0
 40
0
 41
0
  0
VERTEX
  8
0
 10
0.547635
 20
0.918838
 30
0.0
 40
0
 41
0
  0
VERTEX
  8
0
 10
0.547635
 20
0.914714
 30
0.0
 40
0
 41
0
  0
VERTEX
  8
0
 10
0.554471
 20
0.902344
 30
0.0
 40
0
 41
0
  0
VERTEX
  8
0
 10
0.569607
 20
0.896864
 30
0.0
 40
0
 41
0
  0
VERTEX
  8
0
 10
0.584744
 20
0.902344
 30
0.0
 40
0
 41
0
  0
VERTEX
  8
0
 10
0.591635
 20
0.914714
 30
0.0
 40
0
 41
0
  0
VERTEX
  8
0
 10
0.591635
 20
0.918838
 30
0.0
 40
0
 41
0
  0
SEQEND
 8
0
  0
POLYLINE
  8
0
 62
     13
 66
     1
 10
0
 20
0
 30
0.0
 70
     1
 40
0
 41
0
  0
VERTEX
  8
0
 10
0.705675
 20
0.918838
 30
0.0
 40
0
 41
0
  0
VERTEX
  8
0
 10
0.705675
 20
0.923014
 30
0.0
 40
0
 41
0
  0
VERTEX
  8
0
 10
0.698785
 20
0.935385
 30
0.0
 40
0
 41
0
  0
VERTEX
  8
0
 10
0.683649
 20
0.940864
 30
0.0
 40
0
 41
0
  0
VERTEX
  8
0
 10
0.668511
 20
0.935385
 30
0.0
 40
0
 41
0
  0
VERTEX
  8
0
 10
0.661675
 20
0.923014
 30
0.0
 40
0
 41
0
  0
VERTEX
  8
0
 10
0.661675
 20
0.918838
 30
0.0
 40
0
 41
0
  0
VERTEX
  8
0
 10
0.661675
 20
0.914714
 30
0.0
 40
0
 41
0
  0
VERTEX
  8
0
 10
0.668511
 20
0.902344
 30
0.0
 40
0
 41
0
  0
VERTEX
  8
0
 10
0.683649
 20
0.896864
 30
0.0
 40
0
 41
0
  0
VERTEX
  8
0
 10
0.698785
 20
0.902344
 30
0.0
 40
0
 41
0
  0
VERTEX
  8
0
 10
0.705675
 20
0.914714
 30
0.0
 40
0
 41
0
  0
VERTEX
  8
0
 10
0.705675
 20
0.918838
 30
0.0
 40
0
 41
0
  0
SEQEND
 8
0
  0
POLYLINE
  8
0
 62
     13
 66
     1
 10
0
 20
0
 30
0.0
 70
     1
 40
0
 41
0
  0
VERTEX
  8
0
 10
0.590983
 20
1.47922
 30
0.0
 40
0
 41
0
  0
VERTEX
  8
0
 10
0.590983
 20
1.4834
 30
0.0
 40
0
 41
0
  0
VERTEX
  8
0
 10
0.584093
 20
1.49576
 30
0.0
 40
0
 41
0
  0
VERTEX
  8
0
 10
0.568956
 20
1.50125
 30
0.0
 40
0
 41
0
  0
VERTEX
  8
0
 10
0.553819
 20
1.49576
 30
0.0
 40
0
 41
0
  0
VERTEX
  8
0
 10
0.546983
 20
1.4834
 30
0.0
 40
0
 41
0
  0
VERTEX
  8
0
 10
0.546983
 20
1.47922
 30
0.0
 40
0
 41
0
  0
VERTEX
  8
0
 10
0.546983
 20
1.4751
 30
0.0
 40
0
 41
0
  0
VERTEX
  8
0
 10
0.553819
 20
1.46272
 30
0.0
 40
0
 41
0
  0
VERTEX
  8
0
 10
0.568956
 20
1.45725
 30
0.0
 40
0
 41
0
  0
VERTEX
  8
0
 10
0.584093
 20
1.46272
 30
0.0
 40
0
 41
0
  0
VERTEX
  8
0
 10
0.590983
 20
1.4751
 30
0.0
 40
0
 41
0
  0
VERTEX
  8
0
 10
0.590983
 20
1.47922
 30
0.0
 40
0
 41
0
  0
SEQEND
 8
0
  0
POLYLINE
  8
0
 62
     13
 66
     1
 10
0
 20
0
 30
0.0
 70
     1
 40
0
 41
0
  0
VERTEX
  8
0
 10
0.699869
 20
1.42486
 30
0.0
 40
0
 41
0
  0
VERTEX
  8
0
 10
0.699869
 20
1.42904
 30
0.0
 40
0
 41
0
  0
VERTEX
  8
0
 10
0.692979
 20
1.4414
 30
0.0
 40
0
 41
0
  0
VERTEX
  8
0
 10
0.677843
 20
1.44689
 30
0.0
 40
0
 41
0
  0
VERTEX
  8
0
 10
0.662706
 20
1.4414
 30
0.0
 40
0
 41
0
  0
VERTEX
  8
0
 10
0.655871
 20
1.42904
 30
0.0
 40
0
 41
0
  0
VERTEX
  8
0
 10
0.655871
 20
1.42486
 30
0.0
 40
0
 41
0
  0
VERTEX
  8
0
 10
0.655871
 20
1.42074
 30
0.0
 40
0
 41
0
  0
VERTEX
  8
0
 10
0.662706
 20
1.40836
 30
0.0
 40
0
 41
0
  0
VERTEX
  8
0
 10
0.677843
 20
1.40289
 30
0.0
 40
0
 41
0
  0
VERTEX
  8
0
 10
0.692979
 20
1.40836
 30
0.0
 40
0
 41
0
  0
VERTEX
  8
0
 10
0.699869
 20
1.42074
 30
0.0
 40
0
 41
0
  0
VERTEX
  8
0
 10
0.699869
 20
1.42486
 30
0.0
 40
0
 41
0
  0
SEQEND
 8
0
  0
POLYLINE
  8
0
 62
     13
 66
     1
 10
0
 20
0
 30
0.0
 70
     1
 40
0
 41
0
  0
VERTEX
  8
0
 10
0.749078
 20
0.229872
 30
0.0
 40
0
 41
0
  0
VERTEX
  8
0
 10
0.749078
 20
0.23405
 30
0.0
 40
0
 41
0
  0
VERTEX
  8
0
 10
0.742188
 20
0.246419
 30
0.0
 40
0
 41
0
  0
VERTEX
  8
0
 10
0.727051
 20
0.251899
 30
0.0
 40
0
 41
0
  0
VERTEX
  8
0
 10
0.711914
 20
0.246419
 30
0.0
 40
0
 41
0
  0
VERTEX
  8
0
 10
0.705078
 20
0.23405
 30
0.0
 40
0
 41
0
  0
VERTEX
  8
0
 10
0.705078
 20
0.229872
 30
0.0
 40
0
 41
0
  0
VERTEX
  8
0
 10
0.705078
 20
0.225749
 30
0.0
 40
0
 41
0
  0
VERTEX
  8
0
 10
0.711914
 20
0.213379
 30
0.0
 40
0
 41
0
  0
VERTEX
  8
0
 10
0.727051
 20
0.2079
 30
0.0
 40
0
 41
0
  0
VERTEX
  8
0
 10
0.742188
 20
0.213379
 30
0.0
 40
0
 41
0
  0
VERTEX
  8
0
 10
0.749078
 20
0.225749
 30
0.0
 40
0
 41
0
  0
VERTEX
  8
0
 10
0.749078
 20
0.229872
 30
0.0
 40
0
 41
0
  0
SEQEND
 8
0
  0
POLYLINE
  8
0
 62
     13
 66
     1
 10
0
 20
0
 30
0.0
 70
     1
 40
0
 41
0
  0
VERTEX
  8
0
 10
0.817979
 20
0.220107
 30
0.0
 40
0
 41
0
  0
VERTEX
  8
0
 10
0.817979
 20
0.224283
 30
0.0
 40
0
 41
0
  0
VERTEX
  8
0
 10
0.811089
 20
0.236654
 30
0.0
 40
0
 41
0
  0
VERTEX
  8
0
 10
0.795953
 20
0.242133
 30
0.0
 40
0
 41
0
  0
VERTEX
  8
0
 10
0.780817
 20
0.236654
 30
0.0
 40
0
 41
0
  0
VERTEX
  8
0
 10
0.773981
 20
0.224283
 30
0.0
 40
0
 41
0
  0
VERTEX
  8
0
 10
0.773981
 20
0.220107
 30
0.0
 40
0
 41
0
  0
VERTEX
  8
0
 10
0.773981
 20
0.215983
 30
0.0
 40
0
 41
0
  0
VERTEX
  8
0
 10
0.780817
 20
0.203614
 30
0.0
 40
0
 41
0
  0
VERTEX
  8
0
 10
0.795953
 20
0.198133
 30
0.0
 40
0
 41
0
  0
VERTEX
  8
0
 10
0.811089
 20
0.203614
 30
0.0
 40
0
 41
0
  0
VERTEX
  8
0
 10
0.817979
 20
0.215983
 30
0.0
 40
0
 41
0
  0
VERTEX
  8
0
 10
0.817979
 20
0.220107
 30
0.0
 40
0
 41
0
  0
SEQEND
 8
0
  0
POLYLINE
  8
0
 62
     13
 66
     1
 10
0
 20
0
 30
0.0
 70
     1
 40
0
 41
0
  0
VERTEX
  8
0
 10
0.729438
 20
0.338163
 30
0.0
 40
0
 41
0
  0
VERTEX
  8
0
 10
0.729438
 20
0.342285
 30
0.0
 40
0
 41
0
  0
VERTEX
  8
0
 10
0.722547
 20
0.354656
 30
0.0
 40
0
 41
0
  0
VERTEX
  8
0
 10
0.707411
 20
0.360135
 30
0.0
 40
0
 41
0
  0
VERTEX
  8
0
 10
0.692275
 20
0.354656
 30
0.0
 40
0
 41
0
  0
VERTEX
  8
0
 10
0.685439
 20
0.342285
 30
0.0
 40
0
 41
0
  0
VERTEX
  8
0
 10
0.685439
 20
0.338163
 30
0.0
 40
0
 41
0
  0
VERTEX
  8
0
 10
0.685439
 20
0.334039
 30
0.0
 40
0
 41
0
  0
VERTEX
  8
0
 10
0.692275
 20
0.321669
 30
0.0
 40
0
 41
0
  0
VERTEX
  8
0
 10
0.707411
 20
0.316189
 30
0.0
 40
0
 41
0
  0
VERTEX
  8
0
 10
0.722547
 20
0.321669
 30
0.0
 40
0
 41
0
  0
VERTEX
  8
0
 10
0.729438
 20
0.334039
 30
0.0
 40
0
 41
0
  0
VERTEX
  8
0
 10
0.729438
 20
0.338163
 30
0.0
 40
0
 41
0
  0
SEQEND
 8
0
  0
POLYLINE
  8
0
 62
     13
 66
     1
 10
0
 20
0
 30
0.0
 70
     1
 40
0
 41
0
  0
VERTEX
  8
0
 10
0.749078
 20
0.456272
 30
0.0
 40
0
 41
0
  0
VERTEX
  8
0
 10
0.749078
 20
0.460394
 30
0.0
 40
0
 41
0
  0
VERTEX
  8
0
 10
0.742188
 20
0.472765
 30
0.0
 40
0
 41
0
  0
VERTEX
  8
0
 10
0.727051
 20
0.478244
 30
0.0
 40
0
 41
0
  0
VERTEX
  8
0
 10
0.711914
 20
0.472765
 30
0.0
 40
0
 41
0
  0
VERTEX
  8
0
 10
0.705078
 20
0.460394
 30
0.0
 40
0
 41
0
  0
VERTEX
  8
0
 10
0.705078
 20
0.456272
 30
0.0
 40
0
 41
0
  0
VERTEX
  8
0
 10
0.705078
 20
0.452149
 30
0.0
 40
0
 41
0
  0
VERTEX
  8
0
 10
0.711914
 20
0.439779
 30
0.0
 40
0
 41
0
  0
VERTEX
  8
0
 10
0.727051
 20
0.434299
 30
0.0
 40
0
 41
0
  0
VERTEX
  8
0
 10
0.742188
 20
0.439779
 30
0.0
 40
0
 41
0
  0
VERTEX
  8
0
 10
0.749078
 20
0.452149
 30
0.0
 40
0
 41
0
  0
VERTEX
  8
0
 10
0.749078
 20
0.456272
 30
0.0
 40
0
 41
0
  0
SEQEND
 8
0
  0
POLYLINE
  8
0
 62
     13
 66
     1
 10
0
 20
0
 30
0.0
 70
     1
 40
0
 41
0
  0
VERTEX
  8
0
 10
0.739258
 20
0.39719
 30
0.0
 40
0
 41
0
  0
VERTEX
  8
0
 10
0.739258
 20
0.401367
 30
0.0
 40
0
 41
0
  0
VERTEX
  8
0
 10
0.732368
 20
0.413738
 30
0.0
 40
0
 41
0
  0
VERTEX
  8
0
 10
0.717231
 20
0.419217
 30
0.0
 40
0
 41
0
  0
VERTEX
  8
0
 10
0.702094
 20
0.413738
 30
0.0
 40
0
 41
0
  0
VERTEX
  8
0
 10
0.695258
 20
0.401367
 30
0.0
 40
0
 41
0
  0
VERTEX
  8
0
 10
0.695258
 20
0.39719
 30
0.0
 40
0
 41
0
  0
VERTEX
  8
0
 10
0.695258
 20
0.393067
 30
0.0
 40
0
 41
0
  0
VERTEX
  8
0
 10
0.702094
 20
0.380697
 30
0.0
 40
0
 41
0
  0
VERTEX
  8
0
 10
0.717231
 20
0.375217
 30
0.0
 40
0
 41
0
  0
VERTEX
  8
0
 10
0.732368
 20
0.380697
 30
0.0
 40
0
 41
0
  0
VERTEX
  8
0
 10
0.739258
 20
0.393067
 30
0.0
 40
0
 41
0
  0
VERTEX
  8
0
 10
0.739258
 20
0.39719
 30
0.0
 40
0
 41
0
  0
SEQEND
 8
0
  0
POLYLINE
  8
0
 62
     13
 66
     1
 10
0
 20
0
 30
0.0
 70
     1
 40
0
 41
0
  0
VERTEX
  8
0
 10
0.739258
 20
0.702311
 30
0.0
 40
0
 41
0
  0
VERTEX
  8
0
 10
0.739258
 20
0.706489
 30
0.0
 40
0
 41
0
  0
VERTEX
  8
0
 10
0.732368
 20
0.718858
 30
0.0
 40
0
 41
0
  0
VERTEX
  8
0
 10
0.717231
 20
0.724338
 30
0.0
 40
0
 41
0
  0
VERTEX
  8
0
 10
0.702094
 20
0.718858
 30
0.0
 40
0
 41
0
  0
VERTEX
  8
0
 10
0.695258
 20
0.706489
 30
0.0
 40
0
 41
0
  0
VERTEX
  8
0
 10
0.695258
 20
0.702311
 30
0.0
 40
0
 41
0
  0
VERTEX
  8
0
 10
0.695258
 20
0.698188
 30
0.0
 40
0
 41
0
  0
VERTEX
  8
0
 10
0.702094
 20
0.685818
 30
0.0
 40
0
 41
0
  0
VERTEX
  8
0
 10
0.717231
 20
0.680339
 30
0.0
 40
0
 41
0
  0
VERTEX
  8
0
 10
0.732368
 20
0.685818
 30
0.0
 40
0
 41
0
  0
VERTEX
  8
0
 10
0.739258
 20
0.698188
 30
0.0
 40
0
 41
0
  0
VERTEX
  8
0
 10
0.739258
 20
0.702311
 30
0.0
 40
0
 41
0
  0
SEQEND
 8
0
  0
POLYLINE
  8
0
 62
     13
 66
     1
 10
0
 20
0
 30
0.0
 70
     1
 40
0
 41
0
  0
VERTEX
  8
0
 10
0.817979
 20
0.702311
 30
0.0
 40
0
 41
0
  0
VERTEX
  8
0
 10
0.817979
 20
0.706489
 30
0.0
 40
0
 41
0
  0
VERTEX
  8
0
 10
0.811089
 20
0.718858
 30
0.0
 40
0
 41
0
  0
VERTEX
  8
0
 10
0.795953
 20
0.724338
 30
0.0
 40
0
 41
0
  0
VERTEX
  8
0
 10
0.780817
 20
0.718858
 30
0.0
 40
0
 41
0
  0
VERTEX
  8
0
 10
0.773981
 20
0.706489
 30
0.0
 40
0
 41
0
  0
VERTEX
  8
0
 10
0.773981
 20
0.702311
 30
0.0
 40
0
 41
0
  0
VERTEX
  8
0
 10
0.773981
 20
0.698188
 30
0.0
 40
0
 41
0
  0
VERTEX
  8
0
 10
0.780817
 20
0.685818
 30
0.0
 40
0
 41
0
  0
VERTEX
  8
0
 10
0.795953
 20
0.680339
 30
0.0
 40
0
 41
0
  0
VERTEX
  8
0
 10
0.811089
 20
0.685818
 30
0.0
 40
0
 41
0
  0
VERTEX
  8
0
 10
0.817979
 20
0.698188
 30
0.0
 40
0
 41
0
  0
VERTEX
  8
0
 10
0.817979
 20
0.702311
 30
0.0
 40
0
 41
0
  0
SEQEND
 8
0
  0
POLYLINE
  8
0
 62
     13
 66
     1
 10
0
 20
0
 30
0.0
 70
     1
 40
0
 41
0
  0
VERTEX
  8
0
 10
0.788465
 20
0.771213
 30
0.0
 40
0
 41
0
  0
VERTEX
  8
0
 10
0.788465
 20
0.77539
 30
0.0
 40
0
 41
0
  0
VERTEX
  8
0
 10
0.781575
 20
0.787761
 30
0.0
 40
0
 41
0
  0
VERTEX
  8
0
 10
0.766439
 20
0.79324
 30
0.0
 40
0
 41
0
  0
VERTEX
  8
0
 10
0.751303
 20
0.787761
 30
0.0
 40
0
 41
0
  0
VERTEX
  8
0
 10
0.744467
 20
0.77539
 30
0.0
 40
0
 41
0
  0
VERTEX
  8
0
 10
0.744467
 20
0.771213
 30
0.0
 40
0
 41
0
  0
VERTEX
  8
0
 10
0.744467
 20
0.76709
 30
0.0
 40
0
 41
0
  0
VERTEX
  8
0
 10
0.751303
 20
0.754719
 30
0.0
 40
0
 41
0
  0
VERTEX
  8
0
 10
0.766439
 20
0.74924
 30
0.0
 40
0
 41
0
  0
VERTEX
  8
0
 10
0.781575
 20
0.754719
 30
0.0
 40
0
 41
0
  0
VERTEX
  8
0
 10
0.788465
 20
0.76709
 30
0.0
 40
0
 41
0
  0
VERTEX
  8
0
 10
0.788465
 20
0.771213
 30
0.0
 40
0
 41
0
  0
SEQEND
 8
0
  0
POLYLINE
  8
0
 62
     13
 66
     1
 10
0
 20
0
 30
0.0
 70
     1
 40
0
 41
0
  0
VERTEX
  8
0
 10
0.965657
 20
0.338163
 30
0.0
 40
0
 41
0
  0
VERTEX
  8
0
 10
0.965657
 20
0.342285
 30
0.0
 40
0
 41
0
  0
VERTEX
  8
0
 10
0.958768
 20
0.354656
 30
0.0
 40
0
 41
0
  0
VERTEX
  8
0
 10
0.943631
 20
0.360135
 30
0.0
 40
0
 41
0
  0
VERTEX
  8
0
 10
0.928494
 20
0.354656
 30
0.0
 40
0
 41
0
  0
VERTEX
  8
0
 10
0.921658
 20
0.342285
 30
0.0
 40
0
 41
0
  0
VERTEX
  8
0
 10
0.921658
 20
0.338163
 30
0.0
 40
0
 41
0
  0
VERTEX
  8
0
 10
0.921658
 20
0.334039
 30
0.0
 40
0
 41
0
  0
VERTEX
  8
0
 10
0.928494
 20
0.321669
 30
0.0
 40
0
 41
0
  0
VERTEX
  8
0
 10
0.943631
 20
0.316189
 30
0.0
 40
0
 41
0
  0
VERTEX
  8
0
 10
0.958768
 20
0.321669
 30
0.0
 40
0
 41
0
  0
VERTEX
  8
0
 10
0.965657
 20
0.334039
 30
0.0
 40
0
 41
0
  0
VERTEX
  8
0
 10
0.965657
 20
0.338163
 30
0.0
 40
0
 41
0
  0
SEQEND
 8
0
  0
POLYLINE
  8
0
 62
     13
 66
     1
 10
0
 20
0
 30
0.0
 70
     1
 40
0
 41
0
  0
VERTEX
  8
0
 10
0.849175
 20
0.339789
 30
0.0
 40
0
 41
0
  0
VERTEX
  8
0
 10
0.849175
 20
0.343967
 30
0.0
 40
0
 41
0
  0
VERTEX
  8
0
 10
0.842285
 20
0.356337
 30
0.0
 40
0
 41
0
  0
VERTEX
  8
0
 10
0.827149
 20
0.361817
 30
0.0
 40
0
 41
0
  0
VERTEX
  8
0
 10
0.812011
 20
0.356337
 30
0.0
 40
0
 41
0
  0
VERTEX
  8
0
 10
0.805176
 20
0.343967
 30
0.0
 40
0
 41
0
  0
VERTEX
  8
0
 10
0.805176
 20
0.339789
 30
0.0
 40
0
 41
0
  0
VERTEX
  8
0
 10
0.805176
 20
0.335667
 30
0.0
 40
0
 41
0
  0
VERTEX
  8
0
 10
0.812011
 20
0.323296
 30
0.0
 40
0
 41
0
  0
VERTEX
  8
0
 10
0.827149
 20
0.317817
 30
0.0
 40
0
 41
0
  0
VERTEX
  8
0
 10
0.842285
 20
0.323296
 30
0.0
 40
0
 41
0
  0
VERTEX
  8
0
 10
0.849175
 20
0.335667
 30
0.0
 40
0
 41
0
  0
VERTEX
  8
0
 10
0.849175
 20
0.339789
 30
0.0
 40
0
 41
0
  0
SEQEND
 8
0
  0
POLYLINE
  8
0
 62
     13
 66
     1
 10
0
 20
0
 30
0.0
 70
     1
 40
0
 41
0
  0
VERTEX
  8
0
 10
0.968479
 20
0.456272
 30
0.0
 40
0
 41
0
  0
VERTEX
  8
0
 10
0.968479
 20
0.460394
 30
0.0
 40
0
 41
0
  0
VERTEX
  8
0
 10
0.961589
 20
0.472765
 30
0.0
 40
0
 41
0
  0
VERTEX
  8
0
 10
0.946451
 20
0.478244
 30
0.0
 40
0
 41
0
  0
VERTEX
  8
0
 10
0.931315
 20
0.472765
 30
0.0
 40
0
 41
0
  0
VERTEX
  8
0
 10
0.924479
 20
0.460394
 30
0.0
 40
0
 41
0
  0
VERTEX
  8
0
 10
0.924479
 20
0.456272
 30
0.0
 40
0
 41
0
  0
VERTEX
  8
0
 10
0.924479
 20
0.452149
 30
0.0
 40
0
 41
0
  0
VERTEX
  8
0
 10
0.931315
 20
0.439779
 30
0.0
 40
0
 41
0
  0
VERTEX
  8
0
 10
0.946451
 20
0.434299
 30
0.0
 40
0
 41
0
  0
VERTEX
  8
0
 10
0.961589
 20
0.439779
 30
0.0
 40
0
 41
0
  0
VERTEX
  8
0
 10
0.968479
 20
0.452149
 30
0.0
 40
0
 41
0
  0
VERTEX
  8
0
 10
0.968479
 20
0.456272
 30
0.0
 40
0
 41
0
  0
SEQEND
 8
0
  0
POLYLINE
  8
0
 62
     13
 66
     1
 10
0
 20
0
 30
0.0
 70
     1
 40
0
 41
0
  0
VERTEX
  8
0
 10
0.906575
 20
0.347982
 30
0.0
 40
0
 41
0
  0
VERTEX
  8
0
 10
0.906575
 20
0.35216
 30
0.0
 40
0
 41
0
  0
VERTEX
  8
0
 10
0.899685
 20
0.364529
 30
0.0
 40
0
 41
0
  0
VERTEX
  8
0
 10
0.884549
 20
0.370008
 30
0.0
 40
0
 41
0
  0
VERTEX
  8
0
 10
0.869412
 20
0.364529
 30
0.0
 40
0
 41
0
  0
VERTEX
  8
0
 10
0.862576
 20
0.35216
 30
0.0
 40
0
 41
0
  0
VERTEX
  8
0
 10
0.862576
 20
0.347982
 30
0.0
 40
0
 41
0
  0
VERTEX
  8
0
 10
0.862576
 20
0.343858
 30
0.0
 40
0
 41
0
  0
VERTEX
  8
0
 10
0.869412
 20
0.331489
 30
0.0
 40
0
 41
0
  0
VERTEX
  8
0
 10
0.884549
 20
0.32601
 30
0.0
 40
0
 41
0
  0
VERTEX
  8
0
 10
0.899685
 20
0.331489
 30
0.0
 40
0
 41
0
  0
VERTEX
  8
0
 10
0.906575
 20
0.343858
 30
0.0
 40
0
 41
0
  0
VERTEX
  8
0
 10
0.906575
 20
0.347982
 30
0.0
 40
0
 41
0
  0
SEQEND
 8
0
  0
POLYLINE
  8
0
 62
     13
 66
     1
 10
0
 20
0
 30
0.0
 70
     1
 40
0
 41
0
  0
VERTEX
  8
0
 10
0.925185
 20
0.544814
 30
0.0
 40
0
 41
0
  0
VERTEX
  8
0
 10
0.925185
 20
0.54899
 30
0.0
 40
0
 41
0
  0
VERTEX
  8
0
 10
0.918294
 20
0.561361
 30
0.0
 40
0
 41
0
  0
VERTEX
  8
0
 10
0.903157
 20
0.56684
 30
0.0
 40
0
 41
0
  0
VERTEX
  8
0
 10
0.888021
 20
0.561361
 30
0.0
 40
0
 41
0
  0
VERTEX
  8
0
 10
0.881185
 20
0.54899
 30
0.0
 40
0
 41
0
  0
VERTEX
  8
0
 10
0.881185
 20
0.544814
 30
0.0
 40
0
 41
0
  0
VERTEX
  8
0
 10
0.881185
 20
0.540744
 30
0.0
 40
0
 41
0
  0
VERTEX
  8
0
 10
0.888021
 20
0.528375
 30
0.0
 40
0
 41
0
  0
VERTEX
  8
0
 10
0.903157
 20
0.52284
 30
0.0
 40
0
 41
0
  0
VERTEX
  8
0
 10
0.918294
 20
0.528375
 30
0.0
 40
0
 41
0
  0
VERTEX
  8
0
 10
0.925185
 20
0.540744
 30
0.0
 40
0
 41
0
  0
VERTEX
  8
0
 10
0.925185
 20
0.544814
 30
0.0
 40
0
 41
0
  0
SEQEND
 8
0
  0
POLYLINE
  8
0
 62
     13
 66
     1
 10
0
 20
0
 30
0.0
 70
     1
 40
0
 41
0
  0
VERTEX
  8
0
 10
0.847547
 20
0.771213
 30
0.0
 40
0
 41
0
  0
VERTEX
  8
0
 10
0.847547
 20
0.77539
 30
0.0
 40
0
 41
0
  0
VERTEX
  8
0
 10
0.840657
 20
0.787761
 30
0.0
 40
0
 41
0
  0
VERTEX
  8
0
 10
0.825521
 20
0.79324
 30
0.0
 40
0
 41
0
  0
VERTEX
  8
0
 10
0.810385
 20
0.787761
 30
0.0
 40
0
 41
0
  0
VERTEX
  8
0
 10
0.803549
 20
0.77539
 30
0.0
 40
0
 41
0
  0
VERTEX
  8
0
 10
0.803549
 20
0.771213
 30
0.0
 40
0
 41
0
  0
VERTEX
  8
0
 10
0.803549
 20
0.76709
 30
0.0
 40
0
 41
0
  0
VERTEX
  8
0
 10
0.810385
 20
0.754719
 30
0.0
 40
0
 41
0
  0
VERTEX
  8
0
 10
0.825521
 20
0.74924
 30
0.0
 40
0
 41
0
  0
VERTEX
  8
0
 10
0.840657
 20
0.754719
 30
0.0
 40
0
 41
0
  0
VERTEX
  8
0
 10
0.847547
 20
0.76709
 30
0.0
 40
0
 41
0
  0
VERTEX
  8
0
 10
0.847547
 20
0.771213
 30
0.0
 40
0
 41
0
  0
SEQEND
 8
0
  0
POLYLINE
  8
0
 62
     13
 66
     1
 10
0
 20
0
 30
0.0
 70
     1
 40
0
 41
0
  0
VERTEX
  8
0
 10
1.09359
 20
0.229872
 30
0.0
 40
0
 41
0
  0
VERTEX
  8
0
 10
1.09359
 20
0.23405
 30
0.0
 40
0
 41
0
  0
VERTEX
  8
0
 10
1.0867
 20
0.246419
 30
0.0
 40
0
 41
0
  0
VERTEX
  8
0
 10
1.07156
 20
0.251899
 30
0.0
 40
0
 41
0
  0
VERTEX
  8
0
 10
1.05642
 20
0.246419
 30
0.0
 40
0
 41
0
  0
VERTEX
  8
0
 10
1.04959
 20
0.23405
 30
0.0
 40
0
 41
0
  0
VERTEX
  8
0
 10
1.04959
 20
0.229872
 30
0.0
 40
0
 41
0
  0
VERTEX
  8
0
 10
1.04959
 20
0.225749
 30
0.0
 40
0
 41
0
  0
VERTEX
  8
0
 10
1.05642
 20
0.213379
 30
0.0
 40
0
 41
0
  0
VERTEX
  8
0
 10
1.07156
 20
0.2079
 30
0.0
 40
0
 41
0
  0
VERTEX
  8
0
 10
1.0867
 20
0.213379
 30
0.0
 40
0
 41
0
  0
VERTEX
  8
0
 10
1.09359
 20
0.225749
 30
0.0
 40
0
 41
0
  0
VERTEX
  8
0
 10
1.09359
 20
0.229872
 30
0.0
 40
0
 41
0
  0
SEQEND
 8
0
  0
POLYLINE
  8
0
 62
     13
 66
     1
 10
0
 20
0
 30
0.0
 70
     1
 40
0
 41
0
  0
VERTEX
  8
0
 10
1.02468
 20
0.356717
 30
0.0
 40
0
 41
0
  0
VERTEX
  8
0
 10
1.02468
 20
0.360894
 30
0.0
 40
0
 41
0
  0
VERTEX
  8
0
 10
1.0178
 20
0.373264
 30
0.0
 40
0
 41
0
  0
VERTEX
  8
0
 10
1.00266
 20
0.378743
 30
0.0
 40
0
 41
0
  0
VERTEX
  8
0
 10
0.987522
 20
0.373264
 30
0.0
 40
0
 41
0
  0
VERTEX
  8
0
 10
0.980686
 20
0.360894
 30
0.0
 40
0
 41
0
  0
VERTEX
  8
0
 10
0.980686
 20
0.356717
 30
0.0
 40
0
 41
0
  0
VERTEX
  8
0
 10
0.980686
 20
0.352647
 30
0.0
 40
0
 41
0
  0
VERTEX
  8
0
 10
0.987522
 20
0.340278
 30
0.0
 40
0
 41
0
  0
VERTEX
  8
0
 10
1.00266
 20
0.334744
 30
0.0
 40
0
 41
0
  0
VERTEX
  8
0
 10
1.0178
 20
0.340278
 30
0.0
 40
0
 41
0
  0
VERTEX
  8
0
 10
1.02468
 20
0.352647
 30
0.0
 40
0
 41
0
  0
VERTEX
  8
0
 10
1.02468
 20
0.356717
 30
0.0
 40
0
 41
0
  0
SEQEND
 8
0
  0
POLYLINE
  8
0
 62
     13
 66
     1
 10
0
 20
0
 30
0.0
 70
     1
 40
0
 41
0
  0
VERTEX
  8
0
 10
0.995171
 20
0.781033
 30
0.0
 40
0
 41
0
  0
VERTEX
  8
0
 10
0.995171
 20
0.785211
 30
0.0
 40
0
 41
0
  0
VERTEX
  8
0
 10
0.988282
 20
0.797581
 30
0.0
 40
0
 41
0
  0
VERTEX
  8
0
 10
0.973144
 20
0.80306
 30
0.0
 40
0
 41
0
  0
VERTEX
  8
0
 10
0.958008
 20
0.797581
 30
0.0
 40
0
 41
0
  0
VERTEX
  8
0
 10
0.951172
 20
0.785211
 30
0.0
 40
0
 41
0
  0
VERTEX
  8
0
 10
0.951172
 20
0.781033
 30
0.0
 40
0
 41
0
  0
VERTEX
  8
0
 10
0.951172
 20
0.776964
 30
0.0
 40
0
 41
0
  0
VERTEX
  8
0
 10
0.958008
 20
0.764594
 30
0.0
 40
0
 41
0
  0
VERTEX
  8
0
 10
0.973144
 20
0.75906
 30
0.0
 40
0
 41
0
  0
VERTEX
  8
0
 10
0.988282
 20
0.764594
 30
0.0
 40
0
 41
0
  0
VERTEX
  8
0
 10
0.995171
 20
0.776964
 30
0.0
 40
0
 41
0
  0
VERTEX
  8
0
 10
0.995171
 20
0.781033
 30
0.0
 40
0
 41
0
  0
SEQEND
 8
0
  0
POLYLINE
  8
0
 62
     13
 66
     1
 10
0
 20
0
 30
0.0
 70
     1
 40
0
 41
0
  0
VERTEX
  8
0
 10
1.09359
 20
0.781033
 30
0.0
 40
0
 41
0
  0
VERTEX
  8
0
 10
1.09359
 20
0.785211
 30
0.0
 40
0
 41
0
  0
VERTEX
  8
0
 10
1.0867
 20
0.797581
 30
0.0
 40
0
 41
0
  0
VERTEX
  8
0
 10
1.07156
 20
0.80306
 30
0.0
 40
0
 41
0
  0
VERTEX
  8
0
 10
1.05642
 20
0.797581
 30
0.0
 40
0
 41
0
  0
VERTEX
  8
0
 10
1.04959
 20
0.785211
 30
0.0
 40
0
 41
0
  0
VERTEX
  8
0
 10
1.04959
 20
0.781033
 30
0.0
 40
0
 41
0
  0
VERTEX
  8
0
 10
1.04959
 20
0.776964
 30
0.0
 40
0
 41
0
  0
VERTEX
  8
0
 10
1.05642
 20
0.764594
 30
0.0
 40
0
 41
0
  0
VERTEX
  8
0
 10
1.07156
 20
0.75906
 30
0.0
 40
0
 41
0
  0
VERTEX
  8
0
 10
1.0867
 20
0.764594
 30
0.0
 40
0
 41
0
  0
VERTEX
  8
0
 10
1.09359
 20
0.776964
 30
0.0
 40
0
 41
0
  0
VERTEX
  8
0
 10
1.09359
 20
0.781033
 30
0.0
 40
0
 41
0
  0
SEQEND
 8
0
  0
POLYLINE
  8
0
 62
     13
 66
     1
 10
0
 20
0
 30
0.0
 70
     1
 40
0
 41
0
  0
VERTEX
  8
0
 10
1.04438
 20
0.781033
 30
0.0
 40
0
 41
0
  0
VERTEX
  8
0
 10
1.04438
 20
0.785211
 30
0.0
 40
0
 41
0
  0
VERTEX
  8
0
 10
1.03749
 20
0.797581
 30
0.0
 40
0
 41
0
  0
VERTEX
  8
0
 10
1.02235
 20
0.80306
 30
0.0
 40
0
 41
0
  0
VERTEX
  8
0
 10
1.00722
 20
0.797581
 30
0.0
 40
0
 41
0
  0
VERTEX
  8
0
 10
1.00038
 20
0.785211
 30
0.0
 40
0
 41
0
  0
VERTEX
  8
0
 10
1.00038
 20
0.781033
 30
0.0
 40
0
 41
0
  0
VERTEX
  8
0
 10
1.00038
 20
0.776964
 30
0.0
 40
0
 41
0
  0
VERTEX
  8
0
 10
1.00722
 20
0.764594
 30
0.0
 40
0
 41
0
  0
VERTEX
  8
0
 10
1.02235
 20
0.75906
 30
0.0
 40
0
 41
0
  0
VERTEX
  8
0
 10
1.03749
 20
0.764594
 30
0.0
 40
0
 41
0
  0
VERTEX
  8
0
 10
1.04438
 20
0.776964
 30
0.0
 40
0
 41
0
  0
VERTEX
  8
0
 10
1.04438
 20
0.781033
 30
0.0
 40
0
 41
0
  0
SEQEND
 8
0
  0
POLYLINE
  8
0
 62
     13
 66
     1
 10
0
 20
0
 30
0.0
 70
     1
 40
0
 41
0
  0
VERTEX
  8
0
 10
1.13189
 20
0.477051
 30
0.0
 40
0
 41
0
  0
VERTEX
  8
0
 10
1.13189
 20
0.481174
 30
0.0
 40
0
 41
0
  0
VERTEX
  8
0
 10
1.125
 20
0.493544
 30
0.0
 40
0
 41
0
  0
VERTEX
  8
0
 10
1.10986
 20
0.499024
 30
0.0
 40
0
 41
0
  0
VERTEX
  8
0
 10
1.09473
 20
0.493544
 30
0.0
 40
0
 41
0
  0
VERTEX
  8
0
 10
1.08789
 20
0.481174
 30
0.0
 40
0
 41
0
  0
VERTEX
  8
0
 10
1.08789
 20
0.477051
 30
0.0
 40
0
 41
0
  0
VERTEX
  8
0
 10
1.08789
 20
0.472928
 30
0.0
 40
0
 41
0
  0
VERTEX
  8
0
 10
1.09473
 20
0.460558
 30
0.0
 40
0
 41
0
  0
VERTEX
  8
0
 10
1.10986
 20
0.455078
 30
0.0
 40
0
 41
0
  0
VERTEX
  8
0
 10
1.125
 20
0.460558
 30
0.0
 40
0
 41
0
  0
VERTEX
  8
0
 10
1.13189
 20
0.472928
 30
0.0
 40
0
 41
0
  0
VERTEX
  8
0
 10
1.13189
 20
0.477051
 30
0.0
 40
0
 41
0
  0
SEQEND
 8
0
  0
POLYLINE
  8
0
 62
     13
 66
     1
 10
0
 20
0
 30
0.0
 70
     1
 40
0
 41
0
  0
VERTEX
  8
0
 10
1.18538
 20
0.784233
 30
0.0
 40
0
 41
0
  0
VERTEX
  8
0
 10
1.18538
 20
0.788411
 30
0.0
 40
0
 41
0
  0
VERTEX
  8
0
 10
1.17849
 20
0.800782
 30
0.0
 40
0
 41
0
  0
VERTEX
  8
0
 10
1.16336
 20
0.806261
 30
0.0
 40
0
 41
0
  0
VERTEX
  8
0
 10
1.14822
 20
0.800782
 30
0.0
 40
0
 41
0
  0
VERTEX
  8
0
 10
1.14138
 20
0.788411
 30
0.0
 40
0
 41
0
  0
VERTEX
  8
0
 10
1.14138
 20
0.784233
 30
0.0
 40
0
 41
0
  0
VERTEX
  8
0
 10
1.14138
 20
0.780111
 30
0.0
 40
0
 41
0
  0
VERTEX
  8
0
 10
1.14822
 20
0.76774
 30
0.0
 40
0
 41
0
  0
VERTEX
  8
0
 10
1.16336
 20
0.762261
 30
0.0
 40
0
 41
0
  0
VERTEX
  8
0
 10
1.17849
 20
0.76774
 30
0.0
 40
0
 41
0
  0
VERTEX
  8
0
 10
1.18538
 20
0.780111
 30
0.0
 40
0
 41
0
  0
VERTEX
  8
0
 10
1.18538
 20
0.784233
 30
0.0
 40
0
 41
0
  0
SEQEND
 8
0
  0
POLYLINE
  8
0
 62
     13
 66
     1
 10
0
 20
0
 30
0.0
 70
     1
 40
0
 41
0
  0
VERTEX
  8
0
 10
1.1231
 20
0.893392
 30
0.0
 40
0
 41
0
  0
VERTEX
  8
0
 10
1.1231
 20
0.897515
 30
0.0
 40
0
 41
0
  0
VERTEX
  8
0
 10
1.11621
 20
0.909885
 30
0.0
 40
0
 41
0
  0
VERTEX
  8
0
 10
1.10107
 20
0.915365
 30
0.0
 40
0
 41
0
  0
VERTEX
  8
0
 10
1.08594
 20
0.909885
 30
0.0
 40
0
 41
0
  0
VERTEX
  8
0
 10
1.0791
 20
0.897515
 30
0.0
 40
0
 41
0
  0
VERTEX
  8
0
 10
1.0791
 20
0.893392
 30
0.0
 40
0
 41
0
  0
VERTEX
  8
0
 10
1.0791
 20
0.889268
 30
0.0
 40
0
 41
0
  0
VERTEX
  8
0
 10
1.08594
 20
0.876899
 30
0.0
 40
0
 41
0
  0
VERTEX
  8
0
 10
1.10107
 20
0.871419
 30
0.0
 40
0
 41
0
  0
VERTEX
  8
0
 10
1.11621
 20
0.876899
 30
0.0
 40
0
 41
0
  0
VERTEX
  8
0
 10
1.1231
 20
0.889268
 30
0.0
 40
0
 41
0
  0
VERTEX
  8
0
 10
1.1231
 20
0.893392
 30
0.0
 40
0
 41
0
  0
SEQEND
 8
0
  0
POLYLINE
  8
0
 62
     13
 66
     1
 10
0
 20
0
 30
0.0
 70
     1
 40
0
 41
0
  0
VERTEX
  8
0
 10
1.1231
 20
1.00336
 30
0.0
 40
0
 41
0
  0
VERTEX
  8
0
 10
1.1231
 20
1.00754
 30
0.0
 40
0
 41
0
  0
VERTEX
  8
0
 10
1.11621
 20
1.01991
 30
0.0
 40
0
 41
0
  0
VERTEX
  8
0
 10
1.10107
 20
1.02539
 30
0.0
 40
0
 41
0
  0
VERTEX
  8
0
 10
1.08594
 20
1.01991
 30
0.0
 40
0
 41
0
  0
VERTEX
  8
0
 10
1.0791
 20
1.00754
 30
0.0
 40
0
 41
0
  0
VERTEX
  8
0
 10
1.0791
 20
1.00336
 30
0.0
 40
0
 41
0
  0
VERTEX
  8
0
 10
1.0791
 20
0.99924
 30
0.0
 40
0
 41
0
  0
VERTEX
  8
0
 10
1.08594
 20
0.986871
 30
0.0
 40
0
 41
0
  0
VERTEX
  8
0
 10
1.10107
 20
0.981392
 30
0.0
 40
0
 41
0
  0
VERTEX
  8
0
 10
1.11621
 20
0.986871
 30
0.0
 40
0
 41
0
  0
VERTEX
  8
0
 10
1.1231
 20
0.99924
 30
0.0
 40
0
 41
0
  0
VERTEX
  8
0
 10
1.1231
 20
1.00336
 30
0.0
 40
0
 41
0
  0
SEQEND
 8
0
  0
POLYLINE
  8
0
 62
     13
 66
     1
 10
0
 20
0
 30
0.0
 70
     1
 40
0
 41
0
  0
VERTEX
  8
0
 10
1.13298
 20
1.17475
 30
0.0
 40
0
 41
0
  0
VERTEX
  8
0
 10
1.13298
 20
1.17893
 30
0.0
 40
0
 41
0
  0
VERTEX
  8
0
 10
1.12608
 20
1.1913
 30
0.0
 40
0
 41
0
  0
VERTEX
  8
0
 10
1.11095
 20
1.19678
 30
0.0
 40
0
 41
0
  0
VERTEX
  8
0
 10
1.09581
 20
1.1913
 30
0.0
 40
0
 41
0
  0
VERTEX
  8
0
 10
1.08898
 20
1.17893
 30
0.0
 40
0
 41
0
  0
VERTEX
  8
0
 10
1.08898
 20
1.17475
 30
0.0
 40
0
 41
0
  0
VERTEX
  8
0
 10
1.08898
 20
1.17063
 30
0.0
 40
0
 41
0
  0
VERTEX
  8
0
 10
1.09581
 20
1.15826
 30
0.0
 40
0
 41
0
  0
VERTEX
  8
0
 10
1.11095
 20
1.15278
 30
0.0
 40
0
 41
0
  0
VERTEX
  8
0
 10
1.12608
 20
1.15826
 30
0.0
 40
0
 41
0
  0
VERTEX
  8
0
 10
1.13298
 20
1.17063
 30
0.0
 40
0
 41
0
  0
VERTEX
  8
0
 10
1.13298
 20
1.17475
 30
0.0
 40
0
 41
0
  0
SEQEND
 8
0
  0
POLYLINE
  8
0
 62
     13
 66
     1
 10
0
 20
0
 30
0.0
 70
     1
 40
0
 41
0
  0
VERTEX
  8
0
 10
1.1231
 20
1.47922
 30
0.0
 40
0
 41
0
  0
VERTEX
  8
0
 10
1.1231
 20
1.4834
 30
0.0
 40
0
 41
0
  0
VERTEX
  8
0
 10
1.11621
 20
1.49576
 30
0.0
 40
0
 41
0
  0
VERTEX
  8
0
 10
1.10107
 20
1.50125
 30
0.0
 40
0
 41
0
  0
VERTEX
  8
0
 10
1.08594
 20
1.49576
 30
0.0
 40
0
 41
0
  0
VERTEX
  8
0
 10
1.0791
 20
1.4834
 30
0.0
 40
0
 41
0
  0
VERTEX
  8
0
 10
1.0791
 20
1.47922
 30
0.0
 40
0
 41
0
  0
VERTEX
  8
0
 10
1.0791
 20
1.4751
 30
0.0
 40
0
 41
0
  0
VERTEX
  8
0
 10
1.08594
 20
1.46272
 30
0.0
 40
0
 41
0
  0
VERTEX
  8
0
 10
1.10107
 20
1.45725
 30
0.0
 40
0
 41
0
  0
VERTEX
  8
0
 10
1.11621
 20
1.46272
 30
0.0
 40
0
 41
0
  0
VERTEX
  8
0
 10
1.1231
 20
1.4751
 30
0.0
 40
0
 41
0
  0
VERTEX
  8
0
 10
1.1231
 20
1.47922
 30
0.0
 40
0
 41
0
  0
SEQEND
 8
0
  0
POLYLINE
  8
0
 62
     13
 66
     1
 10
0
 20
0
 30
0.0
 70
     1
 40
0
 41
0
  0
VERTEX
  8
0
 10
1.30029
 20
0.165039
 30
0.0
 40
0
 41
0
  0
VERTEX
  8
0
 10
1.30029
 20
0.169162
 30
0.0
 40
0
 41
0
  0
VERTEX
  8
0
 10
1.2934
 20
0.181532
 30
0.0
 40
0
 41
0
  0
VERTEX
  8
0
 10
1.27827
 20
0.187011
 30
0.0
 40
0
 41
0
  0
VERTEX
  8
0
 10
1.26313
 20
0.181532
 30
0.0
 40
0
 41
0
  0
VERTEX
  8
0
 10
1.25629
 20
0.169162
 30
0.0
 40
0
 41
0
  0
VERTEX
  8
0
 10
1.25629
 20
0.165039
 30
0.0
 40
0
 41
0
  0
VERTEX
  8
0
 10
1.25629
 20
0.160915
 30
0.0
 40
0
 41
0
  0
VERTEX
  8
0
 10
1.26313
 20
0.148546
 30
0.0
 40
0
 41
0
  0
VERTEX
  8
0
 10
1.27827
 20
0.143067
 30
0.0
 40
0
 41
0
  0
VERTEX
  8
0
 10
1.2934
 20
0.148546
 30
0.0
 40
0
 41
0
  0
VERTEX
  8
0
 10
1.30029
 20
0.160915
 30
0.0
 40
0
 41
0
  0
VERTEX
  8
0
 10
1.30029
 20
0.165039
 30
0.0
 40
0
 41
0
  0
SEQEND
 8
0
  0
POLYLINE
  8
0
 62
     13
 66
     1
 10
0
 20
0
 30
0.0
 70
     1
 40
0
 41
0
  0
VERTEX
  8
0
 10
1.30029
 20
0.275011
 30
0.0
 40
0
 41
0
  0
VERTEX
  8
0
 10
1.30029
 20
0.279189
 30
0.0
 40
0
 41
0
  0
VERTEX
  8
0
 10
1.2934
 20
0.291558
 30
0.0
 40
0
 41
0
  0
VERTEX
  8
0
 10
1.27827
 20
0.297037
 30
0.0
 40
0
 41
0
  0
VERTEX
  8
0
 10
1.26313
 20
0.291558
 30
0.0
 40
0
 41
0
  0
VERTEX
  8
0
 10
1.25629
 20
0.279189
 30
0.0
 40
0
 41
0
  0
VERTEX
  8
0
 10
1.25629
 20
0.275011
 30
0.0
 40
0
 41
0
  0
VERTEX
  8
0
 10
1.25629
 20
0.270942
 30
0.0
 40
0
 41
0
  0
VERTEX
  8
0
 10
1.26313
 20
0.258572
 30
0.0
 40
0
 41
0
  0
VERTEX
  8
0
 10
1.27827
 20
0.253039
 30
0.0
 40
0
 41
0
  0
VERTEX
  8
0
 10
1.2934
 20
0.258572
 30
0.0
 40
0
 41
0
  0
VERTEX
  8
0
 10
1.30029
 20
0.270942
 30
0.0
 40
0
 41
0
  0
VERTEX
  8
0
 10
1.30029
 20
0.275011
 30
0.0
 40
0
 41
0
  0
SEQEND
 8
0
  0
POLYLINE
  8
0
 62
     13
 66
     1
 10
0
 20
0
 30
0.0
 70
     1
 40
0
 41
0
  0
VERTEX
  8
0
 10
1.27479
 20
0.347982
 30
0.0
 40
0
 41
0
  0
VERTEX
  8
0
 10
1.27479
 20
0.35216
 30
0.0
 40
0
 41
0
  0
VERTEX
  8
0
 10
1.2679
 20
0.364529
 30
0.0
 40
0
 41
0
  0
VERTEX
  8
0
 10
1.25277
 20
0.370008
 30
0.0
 40
0
 41
0
  0
VERTEX
  8
0
 10
1.23763
 20
0.364529
 30
0.0
 40
0
 41
0
  0
VERTEX
  8
0
 10
1.23079
 20
0.35216
 30
0.0
 40
0
 41
0
  0
VERTEX
  8
0
 10
1.23079
 20
0.347982
 30
0.0
 40
0
 41
0
  0
VERTEX
  8
0
 10
1.23079
 20
0.343858
 30
0.0
 40
0
 41
0
  0
VERTEX
  8
0
 10
1.23763
 20
0.331489
 30
0.0
 40
0
 41
0
  0
VERTEX
  8
0
 10
1.25277
 20
0.32601
 30
0.0
 40
0
 41
0
  0
VERTEX
  8
0
 10
1.2679
 20
0.331489
 30
0.0
 40
0
 41
0
  0
VERTEX
  8
0
 10
1.27479
 20
0.343858
 30
0.0
 40
0
 41
0
  0
VERTEX
  8
0
 10
1.27479
 20
0.347982
 30
0.0
 40
0
 41
0
  0
SEQEND
 8
0
  0
POLYLINE
  8
0
 62
     13
 66
     1
 10
0
 20
0
 30
0.0
 70
     1
 40
0
 41
0
  0
VERTEX
  8
0
 10
1.2806
 20
0.553603
 30
0.0
 40
0
 41
0
  0
VERTEX
  8
0
 10
1.2806
 20
0.557726
 30
0.0
 40
0
 41
0
  0
VERTEX
  8
0
 10
1.27371
 20
0.570096
 30
0.0
 40
0
 41
0
  0
VERTEX
  8
0
 10
1.25857
 20
0.575575
 30
0.0
 40
0
 41
0
  0
VERTEX
  8
0
 10
1.24343
 20
0.570096
 30
0.0
 40
0
 41
0
  0
VERTEX
  8
0
 10
1.2366
 20
0.557726
 30
0.0
 40
0
 41
0
  0
VERTEX
  8
0
 10
1.2366
 20
0.553603
 30
0.0
 40
0
 41
0
  0
VERTEX
  8
0
 10
1.2366
 20
0.549479
 30
0.0
 40
0
 41
0
  0
VERTEX
  8
0
 10
1.24343
 20
0.53711
 30
0.0
 40
0
 41
0
  0
VERTEX
  8
0
 10
1.25857
 20
0.531629
 30
0.0
 40
0
 41
0
  0
VERTEX
  8
0
 10
1.27371
 20
0.53711
 30
0.0
 40
0
 41
0
  0
VERTEX
  8
0
 10
1.2806
 20
0.549479
 30
0.0
 40
0
 41
0
  0
VERTEX
  8
0
 10
1.2806
 20
0.553603
 30
0.0
 40
0
 41
0
  0
SEQEND
 8
0
  0
POLYLINE
  8
0
 62
     13
 66
     1
 10
0
 20
0
 30
0.0
 70
     1
 40
0
 41
0
  0
VERTEX
  8
0
 10
1.31999
 20
0.781033
 30
0.0
 40
0
 41
0
  0
VERTEX
  8
0
 10
1.31999
 20
0.785211
 30
0.0
 40
0
 41
0
  0
VERTEX
  8
0
 10
1.3131
 20
0.797581
 30
0.0
 40
0
 41
0
  0
VERTEX
  8
0
 10
1.29796
 20
0.80306
 30
0.0
 40
0
 41
0
  0
VERTEX
  8
0
 10
1.28282
 20
0.797581
 30
0.0
 40
0
 41
0
  0
VERTEX
  8
0
 10
1.27599
 20
0.785211
 30
0.0
 40
0
 41
0
  0
VERTEX
  8
0
 10
1.27599
 20
0.781033
 30
0.0
 40
0
 41
0
  0
VERTEX
  8
0
 10
1.27599
 20
0.776964
 30
0.0
 40
0
 41
0
  0
VERTEX
  8
0
 10
1.28282
 20
0.764594
 30
0.0
 40
0
 41
0
  0
VERTEX
  8
0
 10
1.29796
 20
0.75906
 30
0.0
 40
0
 41
0
  0
VERTEX
  8
0
 10
1.3131
 20
0.764594
 30
0.0
 40
0
 41
0
  0
VERTEX
  8
0
 10
1.31999
 20
0.776964
 30
0.0
 40
0
 41
0
  0
VERTEX
  8
0
 10
1.31999
 20
0.781033
 30
0.0
 40
0
 41
0
  0
SEQEND
 8
0
  0
POLYLINE
  8
0
 62
     13
 66
     1
 10
0
 20
0
 30
0.0
 70
     1
 40
0
 41
0
  0
VERTEX
  8
0
 10
1.2806
 20
0.742785
 30
0.0
 40
0
 41
0
  0
VERTEX
  8
0
 10
1.2806
 20
0.746907
 30
0.0
 40
0
 41
0
  0
VERTEX
  8
0
 10
1.27371
 20
0.759278
 30
0.0
 40
0
 41
0
  0
VERTEX
  8
0
 10
1.25857
 20
0.764757
 30
0.0
 40
0
 41
0
  0
VERTEX
  8
0
 10
1.24343
 20
0.759278
 30
0.0
 40
0
 41
0
  0
VERTEX
  8
0
 10
1.2366
 20
0.746907
 30
0.0
 40
0
 41
0
  0
VERTEX
  8
0
 10
1.2366
 20
0.742785
 30
0.0
 40
0
 41
0
  0
VERTEX
  8
0
 10
1.2366
 20
0.738661
 30
0.0
 40
0
 41
0
  0
VERTEX
  8
0
 10
1.24343
 20
0.726292
 30
0.0
 40
0
 41
0
  0
VERTEX
  8
0
 10
1.25857
 20
0.720811
 30
0.0
 40
0
 41
0
  0
VERTEX
  8
0
 10
1.27371
 20
0.726292
 30
0.0
 40
0
 41
0
  0
VERTEX
  8
0
 10
1.2806
 20
0.738661
 30
0.0
 40
0
 41
0
  0
VERTEX
  8
0
 10
1.2806
 20
0.742785
 30
0.0
 40
0
 41
0
  0
SEQEND
 8
0
  0
POLYLINE
  8
0
 62
     13
 66
     1
 10
0
 20
0
 30
0.0
 70
     1
 40
0
 41
0
  0
VERTEX
  8
0
 10
1.2806
 20
0.829156
 30
0.0
 40
0
 41
0
  0
VERTEX
  8
0
 10
1.2806
 20
0.833333
 30
0.0
 40
0
 41
0
  0
VERTEX
  8
0
 10
1.27371
 20
0.845703
 30
0.0
 40
0
 41
0
  0
VERTEX
  8
0
 10
1.25857
 20
0.851183
 30
0.0
 40
0
 41
0
  0
VERTEX
  8
0
 10
1.24343
 20
0.845703
 30
0.0
 40
0
 41
0
  0
VERTEX
  8
0
 10
1.2366
 20
0.833333
 30
0.0
 40
0
 41
0
  0
VERTEX
  8
0
 10
1.2366
 20
0.829156
 30
0.0
 40
0
 41
0
  0
VERTEX
  8
0
 10
1.2366
 20
0.825088
 30
0.0
 40
0
 41
0
  0
VERTEX
  8
0
 10
1.24343
 20
0.812717
 30
0.0
 40
0
 41
0
  0
VERTEX
  8
0
 10
1.25857
 20
0.807183
 30
0.0
 40
0
 41
0
  0
VERTEX
  8
0
 10
1.27371
 20
0.812717
 30
0.0
 40
0
 41
0
  0
VERTEX
  8
0
 10
1.2806
 20
0.825088
 30
0.0
 40
0
 41
0
  0
VERTEX
  8
0
 10
1.2806
 20
0.829156
 30
0.0
 40
0
 41
0
  0
SEQEND
 8
0
  0
POLYLINE
  8
0
 62
     13
 66
     1
 10
0
 20
0
 30
0.0
 70
     1
 40
0
 41
0
  0
VERTEX
  8
0
 10
1.2806
 20
0.948351
 30
0.0
 40
0
 41
0
  0
VERTEX
  8
0
 10
1.2806
 20
0.952528
 30
0.0
 40
0
 41
0
  0
VERTEX
  8
0
 10
1.27371
 20
0.964899
 30
0.0
 40
0
 41
0
  0
VERTEX
  8
0
 10
1.25857
 20
0.970378
 30
0.0
 40
0
 41
0
  0
VERTEX
  8
0
 10
1.24343
 20
0.964899
 30
0.0
 40
0
 41
0
  0
VERTEX
  8
0
 10
1.2366
 20
0.952528
 30
0.0
 40
0
 41
0
  0
VERTEX
  8
0
 10
1.2366
 20
0.948351
 30
0.0
 40
0
 41
0
  0
VERTEX
  8
0
 10
1.2366
 20
0.944282
 30
0.0
 40
0
 41
0
  0
VERTEX
  8
0
 10
1.24343
 20
0.931913
 30
0.0
 40
0
 41
0
  0
VERTEX
  8
0
 10
1.25857
 20
0.926378
 30
0.0
 40
0
 41
0
  0
VERTEX
  8
0
 10
1.27371
 20
0.931913
 30
0.0
 40
0
 41
0
  0
VERTEX
  8
0
 10
1.2806
 20
0.944282
 30
0.0
 40
0
 41
0
  0
VERTEX
  8
0
 10
1.2806
 20
0.948351
 30
0.0
 40
0
 41
0
  0
SEQEND
 8
0
  0
POLYLINE
  8
0
 62
     13
 66
     1
 10
0
 20
0
 30
0.0
 70
     1
 40
0
 41
0
  0
VERTEX
  8
0
 10
1.4184
 20
0.781033
 30
0.0
 40
0
 41
0
  0
VERTEX
  8
0
 10
1.4184
 20
0.785211
 30
0.0
 40
0
 41
0
  0
VERTEX
  8
0
 10
1.41151
 20
0.797581
 30
0.0
 40
0
 41
0
  0
VERTEX
  8
0
 10
1.39638
 20
0.80306
 30
0.0
 40
0
 41
0
  0
VERTEX
  8
0
 10
1.38124
 20
0.797581
 30
0.0
 40
0
 41
0
  0
VERTEX
  8
0
 10
1.3744
 20
0.785211
 30
0.0
 40
0
 41
0
  0
VERTEX
  8
0
 10
1.3744
 20
0.781033
 30
0.0
 40
0
 41
0
  0
VERTEX
  8
0
 10
1.3744
 20
0.776964
 30
0.0
 40
0
 41
0
  0
VERTEX
  8
0
 10
1.38124
 20
0.764594
 30
0.0
 40
0
 41
0
  0
VERTEX
  8
0
 10
1.39638
 20
0.75906
 30
0.0
 40
0
 41
0
  0
VERTEX
  8
0
 10
1.41151
 20
0.764594
 30
0.0
 40
0
 41
0
  0
VERTEX
  8
0
 10
1.4184
 20
0.776964
 30
0.0
 40
0
 41
0
  0
VERTEX
  8
0
 10
1.4184
 20
0.781033
 30
0.0
 40
0
 41
0
  0
SEQEND
 8
0
  0
POLYLINE
  8
0
 62
     13
 66
     1
 10
0
 20
0
 30
0.0
 70
     1
 40
0
 41
0
  0
VERTEX
  8
0
 10
1.42714
 20
0.829156
 30
0.0
 40
0
 41
0
  0
VERTEX
  8
0
 10
1.42714
 20
0.833333
 30
0.0
 40
0
 41
0
  0
VERTEX
  8
0
 10
1.42025
 20
0.845703
 30
0.0
 40
0
 41
0
  0
VERTEX
  8
0
 10
1.40511
 20
0.851183
 30
0.0
 40
0
 41
0
  0
VERTEX
  8
0
 10
1.38997
 20
0.845703
 30
0.0
 40
0
 41
0
  0
VERTEX
  8
0
 10
1.38314
 20
0.833333
 30
0.0
 40
0
 41
0
  0
VERTEX
  8
0
 10
1.38314
 20
0.829156
 30
0.0
 40
0
 41
0
  0
VERTEX
  8
0
 10
1.38314
 20
0.825088
 30
0.0
 40
0
 41
0
  0
VERTEX
  8
0
 10
1.38997
 20
0.812717
 30
0.0
 40
0
 41
0
  0
VERTEX
  8
0
 10
1.40511
 20
0.807183
 30
0.0
 40
0
 41
0
  0
VERTEX
  8
0
 10
1.42025
 20
0.812717
 30
0.0
 40
0
 41
0
  0
VERTEX
  8
0
 10
1.42714
 20
0.825088
 30
0.0
 40
0
 41
0
  0
VERTEX
  8
0
 10
1.42714
 20
0.829156
 30
0.0
 40
0
 41
0
  0
SEQEND
 8
0
  0
POLYLINE
  8
0
 62
     13
 66
     1
 10
0
 20
0
 30
0.0
 70
     1
 40
0
 41
0
  0
VERTEX
  8
0
 10
1.42714
 20
1.03586
 30
0.0
 40
0
 41
0
  0
VERTEX
  8
0
 10
1.42714
 20
1.04004
 30
0.0
 40
0
 41
0
  0
VERTEX
  8
0
 10
1.42025
 20
1.05241
 30
0.0
 40
0
 41
0
  0
VERTEX
  8
0
 10
1.40511
 20
1.05789
 30
0.0
 40
0
 41
0
  0
VERTEX
  8
0
 10
1.38997
 20
1.05241
 30
0.0
 40
0
 41
0
  0
VERTEX
  8
0
 10
1.38314
 20
1.04004
 30
0.0
 40
0
 41
0
  0
VERTEX
  8
0
 10
1.38314
 20
1.03586
 30
0.0
 40
0
 41
0
  0
VERTEX
  8
0
 10
1.38314
 20
1.03174
 30
0.0
 40
0
 41
0
  0
VERTEX
  8
0
 10
1.38997
 20
1.01937
 30
0.0
 40
0
 41
0
  0
VERTEX
  8
0
 10
1.40511
 20
1.01389
 30
0.0
 40
0
 41
0
  0
VERTEX
  8
0
 10
1.42025
 20
1.01937
 30
0.0
 40
0
 41
0
  0
VERTEX
  8
0
 10
1.42714
 20
1.03174
 30
0.0
 40
0
 41
0
  0
VERTEX
  8
0
 10
1.42714
 20
1.03586
 30
0.0
 40
0
 41
0
  0
SEQEND
 8
0
  0
POLYLINE
  8
0
 62
     13
 66
     1
 10
0
 20
0
 30
0.0
 70
     1
 40
0
 41
0
  0
VERTEX
  8
0
 10
1.35932
 20
1.15506
 30
0.0
 40
0
 41
0
  0
VERTEX
  8
0
 10
1.35932
 20
1.15923
 30
0.0
 40
0
 41
0
  0
VERTEX
  8
0
 10
1.35243
 20
1.1716
 30
0.0
 40
0
 41
0
  0
VERTEX
  8
0
 10
1.33729
 20
1.17708
 30
0.0
 40
0
 41
0
  0
VERTEX
  8
0
 10
1.32216
 20
1.1716
 30
0.0
 40
0
 41
0
  0
VERTEX
  8
0
 10
1.31532
 20
1.15923
 30
0.0
 40
0
 41
0
  0
VERTEX
  8
0
 10
1.31532
 20
1.15506
 30
0.0
 40
0
 41
0
  0
VERTEX
  8
0
 10
1.31532
 20
1.15093
 30
0.0
 40
0
 41
0
  0
VERTEX
  8
0
 10
1.32216
 20
1.13856
 30
0.0
 40
0
 41
0
  0
VERTEX
  8
0
 10
1.33729
 20
1.13308
 30
0.0
 40
0
 41
0
  0
VERTEX
  8
0
 10
1.35243
 20
1.13856
 30
0.0
 40
0
 41
0
  0
VERTEX
  8
0
 10
1.35932
 20
1.15093
 30
0.0
 40
0
 41
0
  0
VERTEX
  8
0
 10
1.35932
 20
1.15506
 30
0.0
 40
0
 41
0
  0
SEQEND
 8
0
  0
POLYLINE
  8
0
 62
     13
 66
     1
 10
0
 20
0
 30
0.0
 70
     1
 40
0
 41
0
  0
VERTEX
  8
0
 10
0.370822
 20
1.59407
 30
0.0
 40
0
 41
0
  0
VERTEX
  8
0
 10
0.433811
 20
1.59407
 30
0.0
 40
0
 41
0
  0
VERTEX
  8
0
 10
0.433811
 20
1.56039
 30
0.0
 40
0
 41
0
  0
VERTEX
  8
0
 10
0.370822
 20
1.56039
 30
0.0
 40
0
 41
0
  0
VERTEX
  8
0
 10
0.370822
 20
1.59407
 30
0.0
 40
0
 41
0
  0
SEQEND
 8
0
  0
POLYLINE
  8
0
 62
     13
 66
     1
 10
0
 20
0
 30
0.0
 70
     1
 40
0
 41
0
  0
VERTEX
  8
0
 10
0.370822
 20
1.71436
 30
0.0
 40
0
 41
0
  0
VERTEX
  8
0
 10
0.433811
 20
1.71436
 30
0.0
 40
0
 41
0
  0
VERTEX
  8
0
 10
0.433811
 20
1.68067
 30
0.0
 40
0
 41
0
  0
VERTEX
  8
0
 10
0.370822
 20
1.68067
 30
0.0
 40
0
 41
0
  0
VERTEX
  8
0
 10
0.370822
 20
1.71436
 30
0.0
 40
0
 41
0
  0
SEQEND
 8
0
  0
POLYLINE
  8
0
 62
     13
 66
     1
 10
0
 20
0
 30
0.0
 70
     1
 40
0
 41
0
  0
VERTEX
  8
0
 10
1.12869
 20
0.570421
 30
0.0
 40
0
 41
0
  0
VERTEX
  8
0
 10
1.19168
 20
0.570421
 30
0.0
 40
0
 41
0
  0
VERTEX
  8
0
 10
1.19168
 20
0.536729
 30
0.0
 40
0
 41
0
  0
VERTEX
  8
0
 10
1.12869
 20
0.536729
 30
0.0
 40
0
 41
0
  0
VERTEX
  8
0
 10
1.12869
 20
0.570421
 30
0.0
 40
0
 41
0
  0
SEQEND
 8
0
  0
POLYLINE
  8
0
 62
     13
 66
     1
 10
0
 20
0
 30
0.0
 70
     1
 40
0
 41
0
  0
VERTEX
  8
0
 10
1.12869
 20
0.690701
 30
0.0
 40
0
 41
0
  0
VERTEX
  8
0
 10
1.19168
 20
0.690701
 30
0.0
 40
0
 41
0
  0
VERTEX
  8
0
 10
1.19168
 20
0.65701
 30
0.0
 40
0
 41
0
  0
VERTEX
  8
0
 10
1.12869
 20
0.65701
 30
0.0
 40
0
 41
0
  0
VERTEX
  8
0
 10
1.12869
 20
0.690701
 30
0.0
 40
0
 41
0
  0
SEQEND
 8
0
  0
POLYLINE
  8
0
 62
     13
 66
     1
 10
0
 20
0
 30
0.0
 70
     1
 40
0
 41
0
  0
VERTEX
  8
0
 10
1.22711
 20
0.570421
 30
0.0
 40
0
 41
0
  0
VERTEX
  8
0
 10
1.29009
 20
0.570421
 30
0.0
 40
0
 41
0
  0
VERTEX
  8
0
 10
1.29009
 20
0.536729
 30
0.0
 40
0
 41
0
  0
VERTEX
  8
0
 10
1.22711
 20
0.536729
 30
0.0
 40
0
 41
0
  0
VERTEX
  8
0
 10
1.22711
 20
0.570421
 30
0.0
 40
0
 41
0
  0
SEQEND
 8
0
  0
POLYLINE
  8
0
 62
     13
 66
     1
 10
0
 20
0
 30
0.0
 70
     1
 40
0
 41
0
  0
VERTEX
  8
0
 10
1.22711
 20
0.690701
 30
0.0
 40
0
 41
0
  0
VERTEX
  8
0
 10
1.29009
 20
0.690701
 30
0.0
 40
0
 41
0
  0
VERTEX
  8
0
 10
1.29009
 20
0.65701
 30
0.0
 40
0
 41
0
  0
VERTEX
  8
0
 10
1.22711
 20
0.65701
 30
0.0
 40
0
 41
0
  0
VERTEX
  8
0
 10
1.22711
 20
0.690701
 30
0.0
 40
0
 41
0
  0
SEQEND
 8
0
  0
POLYLINE
  8
0
 62
     13
 66
     1
 10
0
 20
0
 30
0.0
 70
     1
 40
0
 41
0
  0
VERTEX
  8
0
 10
1.22711
 20
1.05273
 30
0.0
 40
0
 41
0
  0
VERTEX
  8
0
 10
1.29009
 20
1.05273
 30
0.0
 40
0
 41
0
  0
VERTEX
  8
0
 10
1.29009
 20
1.01904
 30
0.0
 40
0
 41
0
  0
VERTEX
  8
0
 10
1.22711
 20
1.01904
 30
0.0
 40
0
 41
0
  0
VERTEX
  8
0
 10
1.22711
 20
1.05273
 30
0.0
 40
0
 41
0
  0
SEQEND
 8
0
  0
POLYLINE
  8
0
 62
     13
 66
     1
 10
0
 20
0
 30
0.0
 70
     1
 40
0
 41
0
  0
VERTEX
  8
0
 10
1.22711
 20
1.17301
 30
0.0
 40
0
 41
0
  0
VERTEX
  8
0
 10
1.29009
 20
1.17301
 30
0.0
 40
0
 41
0
  0
VERTEX
  8
0
 10
1.29009
 20
1.13932
 30
0.0
 40
0
 41
0
  0
VERTEX
  8
0
 10
1.22711
 20
1.13932
 30
0.0
 40
0
 41
0
  0
VERTEX
  8
0
 10
1.22711
 20
1.17301
 30
0.0
 40
0
 41
0
  0
SEQEND
 8
0
  0
POLYLINE
  8
0
 62
     13
 66
     1
 10
0
 20
0
 30
0.0
 70
     1
 40
0
 41
0
  0
VERTEX
  8
0
 10
0.454861
 20
0.152669
 30
0.0
 40
0
 41
0
  0
VERTEX
  8
0
 10
0.514865
 20
0.152669
 30
0.0
 40
0
 41
0
  0
VERTEX
  8
0
 10
0.514865
 20
0.0856663
 30
0.0
 40
0
 41
0
  0
VERTEX
  8
0
 10
0.454861
 20
0.0856663
 30
0.0
 40
0
 41
0
  0
VERTEX
  8
0
 10
0.454861
 20
0.152669
 30
0.0
 40
0
 41
0
  0
SEQEND
 8
0
  0
POLYLINE
  8
0
 62
     13
 66
     1
 10
0
 20
0
 30
0.0
 70
     1
 40
0
 41
0
  0
VERTEX
  8
0
 10
1.15587
 20
0.152669
 30
0.0
 40
0
 41
0
  0
VERTEX
  8
0
 10
1.21587
 20
0.152669
 30
0.0
 40
0
 41
0
  0
VERTEX
  8
0
 10
1.21587
 20
0.0856663
 30
0.0
 40
0
 41
0
  0
VERTEX
  8
0
 10
1.15587
 20
0.0856663
 30
0.0
 40
0
 41
0
  0
VERTEX
  8
0
 10
1.15587
 20
0.152669
 30
0.0
 40
0
 41
0
  0
SEQEND
 8
0
  0
POLYLINE
  8
0
 62
     13
 66
     1
 10
0
 20
0
 30
0.0
 70
     1
 40
0
 41
0
  0
VERTEX
  8
0
 10
0.0693901
 20
1.05859
 30
0.0
 40
0
 41
0
  0
VERTEX
  8
0
 10
0.103082
 20
1.05859
 30
0.0
 40
0
 41
0
  0
VERTEX
  8
0
 10
0.103082
 20
0.995606
 30
0.0
 40
0
 41
0
  0
VERTEX
  8
0
 10
0.0693901
 20
0.995606
 30
0.0
 40
0
 41
0
  0
VERTEX
  8
0
 10
0.0693901
 20
1.05859
 30
0.0
 40
0
 41
0
  0
SEQEND
 8
0
  0
POLYLINE
  8
0
 62
     13
 66
     1
 10
0
 20
0
 30
0.0
 70
     1
 40
0
 41
0
  0
VERTEX
  8
0
 10
0.1875
 20
0.753472
 30
0.0
 40
0
 41
0
  0
VERTEX
  8
0
 10
0.221192
 20
0.753472
 30
0.0
 40
0
 41
0
  0
VERTEX
  8
0
 10
0.221192
 20
0.690483
 30
0.0
 40
0
 41
0
  0
VERTEX
  8
0
 10
0.1875
 20
0.690483
 30
0.0
 40
0
 41
0
  0
VERTEX
  8
0
 10
0.1875
 20
0.753472
 30
0.0
 40
0
 41
0
  0
SEQEND
 8
0
  0
POLYLINE
  8
0
 62
     13
 66
     1
 10
0
 20
0
 30
0.0
 70
     1
 40
0
 41
0
  0
VERTEX
  8
0
 10
0.256401
 20
1.05859
 30
0.0
 40
0
 41
0
  0
VERTEX
  8
0
 10
0.290093
 20
1.05859
 30
0.0
 40
0
 41
0
  0
VERTEX
  8
0
 10
0.290093
 20
0.995606
 30
0.0
 40
0
 41
0
  0
VERTEX
  8
0
 10
0.256401
 20
0.995606
 30
0.0
 40
0
 41
0
  0
VERTEX
  8
0
 10
0.256401
 20
1.05859
 30
0.0
 40
0
 41
0
  0
SEQEND
 8
0
  0
POLYLINE
  8
0
 62
     13
 66
     1
 10
0
 20
0
 30
0.0
 70
     1
 40
0
 41
0
  0
VERTEX
  8
0
 10
0.189725
 20
1.05859
 30
0.0
 40
0
 41
0
  0
VERTEX
  8
0
 10
0.223415
 20
1.05859
 30
0.0
 40
0
 41
0
  0
VERTEX
  8
0
 10
0.223415
 20
0.995606
 30
0.0
 40
0
 41
0
  0
VERTEX
  8
0
 10
0.189725
 20
0.995606
 30
0.0
 40
0
 41
0
  0
VERTEX
  8
0
 10
0.189725
 20
1.05859
 30
0.0
 40
0
 41
0
  0
SEQEND
 8
0
  0
POLYLINE
  8
0
 62
     13
 66
     1
 10
0
 20
0
 30
0.0
 70
     1
 40
0
 41
0
  0
VERTEX
  8
0
 10
0.256401
 20
1.45231
 30
0.0
 40
0
 41
0
  0
VERTEX
  8
0
 10
0.290093
 20
1.45231
 30
0.0
 40
0
 41
0
  0
VERTEX
  8
0
 10
0.290093
 20
1.38932
 30
0.0
 40
0
 41
0
  0
VERTEX
  8
0
 10
0.256401
 20
1.38932
 30
0.0
 40
0
 41
0
  0
VERTEX
  8
0
 10
0.256401
 20
1.45231
 30
0.0
 40
0
 41
0
  0
SEQEND
 8
0
  0
POLYLINE
  8
0
 62
     13
 66
     1
 10
0
 20
0
 30
0.0
 70
     1
 40
0
 41
0
  0
VERTEX
  8
0
 10
0.307835
 20
0.753472
 30
0.0
 40
0
 41
0
  0
VERTEX
  8
0
 10
0.341525
 20
0.753472
 30
0.0
 40
0
 41
0
  0
VERTEX
  8
0
 10
0.341525
 20
0.690483
 30
0.0
 40
0
 41
0
  0
VERTEX
  8
0
 10
0.307835
 20
0.690483
 30
0.0
 40
0
 41
0
  0
VERTEX
  8
0
 10
0.307835
 20
0.753472
 30
0.0
 40
0
 41
0
  0
SEQEND
 8
0
  0
POLYLINE
  8
0
 62
     13
 66
     1
 10
0
 20
0
 30
0.0
 70
     1
 40
0
 41
0
  0
VERTEX
  8
0
 10
0.376736
 20
1.05859
 30
0.0
 40
0
 41
0
  0
VERTEX
  8
0
 10
0.410428
 20
1.05859
 30
0.0
 40
0
 41
0
  0
VERTEX
  8
0
 10
0.410428
 20
0.995606
 30
0.0
 40
0
 41
0
  0
VERTEX
  8
0
 10
0.376736
 20
0.995606
 30
0.0
 40
0
 41
0
  0
VERTEX
  8
0
 10
0.376736
 20
1.05859
 30
0.0
 40
0
 41
0
  0
SEQEND
 8
0
  0
POLYLINE
  8
0
 62
     13
 66
     1
 10
0
 20
0
 30
0.0
 70
     1
 40
0
 41
0
  0
VERTEX
  8
0
 10
0.376736
 20
1.45231
 30
0.0
 40
0
 41
0
  0
VERTEX
  8
0
 10
0.410428
 20
1.45231
 30
0.0
 40
0
 41
0
  0
VERTEX
  8
0
 10
0.410428
 20
1.38932
 30
0.0
 40
0
 41
0
  0
VERTEX
  8
0
 10
0.376736
 20
1.38932
 30
0.0
 40
0
 41
0
  0
VERTEX
  8
0
 10
0.376736
 20
1.45231
 30
0.0
 40
0
 41
0
  0
SEQEND
 8
0
  0
POLYLINE
  8
0
 62
     13
 66
     1
 10
0
 20
0
 30
0.0
 70
     1
 40
0
 41
0
  0
VERTEX
  8
0
 10
0.423719
 20
0.487739
 30
0.0
 40
0
 41
0
  0
VERTEX
  8
0
 10
0.457411
 20
0.487739
 30
0.0
 40
0
 41
0
  0
VERTEX
  8
0
 10
0.457411
 20
0.42475
 30
0.0
 40
0
 41
0
  0
VERTEX
  8
0
 10
0.423719
 20
0.42475
 30
0.0
 40
0
 41
0
  0
VERTEX
  8
0
 10
0.423719
 20
0.487739
 30
0.0
 40
0
 41
0
  0
SEQEND
 8
0
  0
POLYLINE
  8
0
 62
     13
 66
     1
 10
0
 20
0
 30
0.0
 70
     1
 40
0
 41
0
  0
VERTEX
  8
0
 10
0.544054
 20
0.487739
 30
0.0
 40
0
 41
0
  0
VERTEX
  8
0
 10
0.577746
 20
0.487739
 30
0.0
 40
0
 41
0
  0
VERTEX
  8
0
 10
0.577746
 20
0.42475
 30
0.0
 40
0
 41
0
  0
VERTEX
  8
0
 10
0.544054
 20
0.42475
 30
0.0
 40
0
 41
0
  0
VERTEX
  8
0
 10
0.544054
 20
0.487739
 30
0.0
 40
0
 41
0
  0
SEQEND
 8
0
  0
POLYLINE
  8
0
 62
     13
 66
     1
 10
0
 20
0
 30
0.0
 70
     1
 40
0
 41
0
  0
VERTEX
  8
0
 10
0.886339
 20
0.576335
 30
0.0
 40
0
 41
0
  0
VERTEX
  8
0
 10
0.920031
 20
0.576335
 30
0.0
 40
0
 41
0
  0
VERTEX
  8
0
 10
0.920031
 20
0.513346
 30
0.0
 40
0
 41
0
  0
VERTEX
  8
0
 10
0.886339
 20
0.513346
 30
0.0
 40
0
 41
0
  0
VERTEX
  8
0
 10
0.886339
 20
0.576335
 30
0.0
 40
0
 41
0
  0
SEQEND
 8
0
  0
POLYLINE
  8
0
 62
     13
 66
     1
 10
0
 20
0
 30
0.0
 70
     1
 40
0
 41
0
  0
VERTEX
  8
0
 10
1.00662
 20
0.576335
 30
0.0
 40
0
 41
0
  0
VERTEX
  8
0
 10
1.04031
 20
0.576335
 30
0.0
 40
0
 41
0
  0
VERTEX
  8
0
 10
1.04031
 20
0.513346
 30
0.0
 40
0
 41
0
  0
VERTEX
  8
0
 10
1.00662
 20
0.513346
 30
0.0
 40
0
 41
0
  0
VERTEX
  8
0
 10
1.00662
 20
0.576335
 30
0.0
 40
0
 41
0
  0
SEQEND
 8
0
  0
POLYLINE
  8
0
 62
     13
 66
     1
 10
0
 20
0
 30
0.0
 70
     1
 40
0
 41
0
  0
VERTEX
  8
0
 10
0.0971679
 20
1.28597
 30
0.0
 40
0
 41
0
  0
VERTEX
  8
0
 10
0.155165
 20
1.28597
 30
0.0
 40
0
 41
0
  0
VERTEX
  8
0
 10
0.155165
 20
1.16195
 30
0.0
 40
0
 41
0
  0
VERTEX
  8
0
 10
0.0971679
 20
1.16195
 30
0.0
 40
0
 41
0
  0
VERTEX
  8
0
 10
0.0971679
 20
1.28597
 30
0.0
 40
0
 41
0
  0
SEQEND
 8
0
  0
POLYLINE
  8
0
 62
     13
 66
     1
 10
0
 20
0
 30
0.0
 70
     1
 40
0
 41
0
  0
VERTEX
  8
0
 10
0.418024
 20
0.564888
 30
0.0
 40
0
 41
0
  0
VERTEX
  8
0
 10
0.485026
 20
0.564888
 30
0.0
 40
0
 41
0
  0
VERTEX
  8
0
 10
0.485026
 20
0.532878
 30
0.0
 40
0
 41
0
  0
VERTEX
  8
0
 10
0.418024
 20
0.532878
 30
0.0
 40
0
 41
0
  0
VERTEX
  8
0
 10
0.418024
 20
0.564888
 30
0.0
 40
0
 41
0
  0
SEQEND
 8
0
  0
POLYLINE
  8
0
 62
     13
 66
     1
 10
0
 20
0
 30
0.0
 70
     1
 40
0
 41
0
  0
VERTEX
  8
0
 10
0.418024
 20
0.674914
 30
0.0
 40
0
 41
0
  0
VERTEX
  8
0
 10
0.485026
 20
0.674914
 30
0.0
 40
0
 41
0
  0
VERTEX
  8
0
 10
0.485026
 20
0.642904
 30
0.0
 40
0
 41
0
  0
VERTEX
  8
0
 10
0.418024
 20
0.642904
 30
0.0
 40
0
 41
0
  0
VERTEX
  8
0
 10
0.418024
 20
0.674914
 30
0.0
 40
0
 41
0
  0
SEQEND
 8
0
  0
POLYLINE
  8
0
 62
     13
 66
     1
 10
0
 20
0
 30
0.0
 70
     1
 40
0
 41
0
  0
VERTEX
  8
0
 10
0.536133
 20
1.49007
 30
0.0
 40
0
 41
0
  0
VERTEX
  8
0
 10
0.603136
 20
1.49007
 30
0.0
 40
0
 41
0
  0
VERTEX
  8
0
 10
0.603136
 20
1.45806
 30
0.0
 40
0
 41
0
  0
VERTEX
  8
0
 10
0.536133
 20
1.45806
 30
0.0
 40
0
 41
0
  0
VERTEX
  8
0
 10
0.536133
 20
1.49007
 30
0.0
 40
0
 41
0
  0
SEQEND
 8
0
  0
POLYLINE
  8
0
 62
     13
 66
     1
 10
0
 20
0
 30
0.0
 70
     1
 40
0
 41
0
  0
VERTEX
  8
0
 10
0.536133
 20
1.6001
 30
0.0
 40
0
 41
0
  0
VERTEX
  8
0
 10
0.603136
 20
1.6001
 30
0.0
 40
0
 41
0
  0
VERTEX
  8
0
 10
0.603136
 20
1.56808
 30
0.0
 40
0
 41
0
  0
VERTEX
  8
0
 10
0.536133
 20
1.56808
 30
0.0
 40
0
 41
0
  0
VERTEX
  8
0
 10
0.536133
 20
1.6001
 30
0.0
 40
0
 41
0
  0
SEQEND
 8
0
  0
POLYLINE
  8
0
 62
     13
 66
     1
 10
0
 20
0
 30
0.0
 70
     1
 40
0
 41
0
  0
VERTEX
  8
0
 10
0.644368
 20
1.44086
 30
0.0
 40
0
 41
0
  0
VERTEX
  8
0
 10
0.711372
 20
1.44086
 30
0.0
 40
0
 41
0
  0
VERTEX
  8
0
 10
0.711372
 20
1.40886
 30
0.0
 40
0
 41
0
  0
VERTEX
  8
0
 10
0.644368
 20
1.40886
 30
0.0
 40
0
 41
0
  0
VERTEX
  8
0
 10
0.644368
 20
1.44086
 30
0.0
 40
0
 41
0
  0
SEQEND
 8
0
  0
POLYLINE
  8
0
 62
     13
 66
     1
 10
0
 20
0
 30
0.0
 70
     1
 40
0
 41
0
  0
VERTEX
  8
0
 10
0.644368
 20
1.55089
 30
0.0
 40
0
 41
0
  0
VERTEX
  8
0
 10
0.711372
 20
1.55089
 30
0.0
 40
0
 41
0
  0
VERTEX
  8
0
 10
0.711372
 20
1.51888
 30
0.0
 40
0
 41
0
  0
VERTEX
  8
0
 10
0.644368
 20
1.51888
 30
0.0
 40
0
 41
0
  0
VERTEX
  8
0
 10
0.644368
 20
1.55089
 30
0.0
 40
0
 41
0
  0
SEQEND
 8
0
  0
POLYLINE
  8
0
 62
     13
 66
     1
 10
0
 20
0
 30
0.0
 70
     1
 40
0
 41
0
  0
VERTEX
  8
0
 10
1.0676
 20
0.909397
 30
0.0
 40
0
 41
0
  0
VERTEX
  8
0
 10
1.1346
 20
0.909397
 30
0.0
 40
0
 41
0
  0
VERTEX
  8
0
 10
1.1346
 20
0.877388
 30
0.0
 40
0
 41
0
  0
VERTEX
  8
0
 10
1.0676
 20
0.877388
 30
0.0
 40
0
 41
0
  0
VERTEX
  8
0
 10
1.0676
 20
0.909397
 30
0.0
 40
0
 41
0
  0
SEQEND
 8
0
  0
POLYLINE
  8
0
 62
     13
 66
     1
 10
0
 20
0
 30
0.0
 70
     1
 40
0
 41
0
  0
VERTEX
  8
0
 10
1.0676
 20
1.01937
 30
0.0
 40
0
 41
0
  0
VERTEX
  8
0
 10
1.1346
 20
1.01937
 30
0.0
 40
0
 41
0
  0
VERTEX
  8
0
 10
1.1346
 20
0.987358
 30
0.0
 40
0
 41
0
  0
VERTEX
  8
0
 10
1.0676
 20
0.987358
 30
0.0
 40
0
 41
0
  0
VERTEX
  8
0
 10
1.0676
 20
1.01937
 30
0.0
 40
0
 41
0
  0
SEQEND
 8
0
  0
POLYLINE
  8
0
 62
     13
 66
     1
 10
0
 20
0
 30
0.0
 70
     1
 40
0
 41
0
  0
VERTEX
  8
0
 10
0.663032
 20
0.293186
 30
0.0
 40
0
 41
0
  0
VERTEX
  8
0
 10
0.673014
 20
0.293186
 30
0.0
 40
0
 41
0
  0
VERTEX
  8
0
 10
0.673014
 20
0.261176
 30
0.0
 40
0
 41
0
  0
VERTEX
  8
0
 10
0.663032
 20
0.261176
 30
0.0
 40
0
 41
0
  0
VERTEX
  8
0
 10
0.663032
 20
0.293186
 30
0.0
 40
0
 41
0
  0
SEQEND
 8
0
  0
POLYLINE
  8
0
 62
     13
 66
     1
 10
0
 20
0
 30
0.0
 70
     1
 40
0
 41
0
  0
VERTEX
  8
0
 10
0.643338
 20
0.293186
 30
0.0
 40
0
 41
0
  0
VERTEX
  8
0
 10
0.653321
 20
0.293186
 30
0.0
 40
0
 41
0
  0
VERTEX
  8
0
 10
0.653321
 20
0.261176
 30
0.0
 40
0
 41
0
  0
VERTEX
  8
0
 10
0.643338
 20
0.261176
 30
0.0
 40
0
 41
0
  0
VERTEX
  8
0
 10
0.643338
 20
0.293186
 30
0.0
 40
0
 41
0
  0
SEQEND
 8
0
  0
POLYLINE
  8
0
 62
     13
 66
     1
 10
0
 20
0
 30
0.0
 70
     1
 40
0
 41
0
  0
VERTEX
  8
0
 10
0.623699
 20
0.293186
 30
0.0
 40
0
 41
0
  0
VERTEX
  8
0
 10
0.633681
 20
0.293186
 30
0.0
 40
0
 41
0
  0
VERTEX
  8
0
 10
0.633681
 20
0.261176
 30
0.0
 40
0
 41
0
  0
VERTEX
  8
0
 10
0.623699
 20
0.261176
 30
0.0
 40
0
 41
0
  0
VERTEX
  8
0
 10
0.623699
 20
0.293186
 30
0.0
 40
0
 41
0
  0
SEQEND
 8
0
  0
POLYLINE
  8
0
 62
     13
 66
     1
 10
0
 20
0
 30
0.0
 70
     1
 40
0
 41
0
  0
VERTEX
  8
0
 10
0.604004
 20
0.293186
 30
0.0
 40
0
 41
0
  0
VERTEX
  8
0
 10
0.613986
 20
0.293186
 30
0.0
 40
0
 41
0
  0
VERTEX
  8
0
 10
0.613986
 20
0.261176
 30
0.0
 40
0
 41
0
  0
VERTEX
  8
0
 10
0.604004
 20
0.261176
 30
0.0
 40
0
 41
0
  0
VERTEX
  8
0
 10
0.604004
 20
0.293186
 30
0.0
 40
0
 41
0
  0
SEQEND
 8
0
  0
POLYLINE
  8
0
 62
     13
 66
     1
 10
0
 20
0
 30
0.0
 70
     1
 40
0
 41
0
  0
VERTEX
  8
0
 10
0.58431
 20
0.293186
 30
0.0
 40
0
 41
0
  0
VERTEX
  8
0
 10
0.594293
 20
0.293186
 30
0.0
 40
0
 41
0
  0
VERTEX
  8
0
 10
0.594293
 20
0.261176
 30
0.0
 40
0
 41
0
  0
VERTEX
  8
0
 10
0.58431
 20
0.261176
 30
0.0
 40
0
 41
0
  0
VERTEX
  8
0
 10
0.58431
 20
0.293186
 30
0.0
 40
0
 41
0
  0
SEQEND
 8
0
  0
POLYLINE
  8
0
 62
     13
 66
     1
 10
0
 20
0
 30
0.0
 70
     1
 40
0
 41
0
  0
VERTEX
  8
0
 10
0.564615
 20
0.293186
 30
0.0
 40
0
 41
0
  0
VERTEX
  8
0
 10
0.574599
 20
0.293186
 30
0.0
 40
0
 41
0
  0
VERTEX
  8
0
 10
0.574599
 20
0.261176
 30
0.0
 40
0
 41
0
  0
VERTEX
  8
0
 10
0.564615
 20
0.261176
 30
0.0
 40
0
 41
0
  0
VERTEX
  8
0
 10
0.564615
 20
0.293186
 30
0.0
 40
0
 41
0
  0
SEQEND
 8
0
  0
POLYLINE
  8
0
 62
     13
 66
     1
 10
0
 20
0
 30
0.0
 70
     1
 40
0
 41
0
  0
VERTEX
  8
0
 10
0.544922
 20
0.293186
 30
0.0
 40
0
 41
0
  0
VERTEX
  8
0
 10
0.554904
 20
0.293186
 30
0.0
 40
0
 41
0
  0
VERTEX
  8
0
 10
0.554904
 20
0.261176
 30
0.0
 40
0
 41
0
  0
VERTEX
  8
0
 10
0.544922
 20
0.261176
 30
0.0
 40
0
 41
0
  0
VERTEX
  8
0
 10
0.544922
 20
0.293186
 30
0.0
 40
0
 41
0
  0
SEQEND
 8
0
  0
POLYLINE
  8
0
 62
     13
 66
     1
 10
0
 20
0
 30
0.0
 70
     1
 40
0
 41
0
  0
VERTEX
  8
0
 10
0.781142
 20
0.293186
 30
0.0
 40
0
 41
0
  0
VERTEX
  8
0
 10
0.791124
 20
0.293186
 30
0.0
 40
0
 41
0
  0
VERTEX
  8
0
 10
0.791124
 20
0.261176
 30
0.0
 40
0
 41
0
  0
VERTEX
  8
0
 10
0.781142
 20
0.261176
 30
0.0
 40
0
 41
0
  0
VERTEX
  8
0
 10
0.781142
 20
0.293186
 30
0.0
 40
0
 41
0
  0
SEQEND
 8
0
  0
POLYLINE
  8
0
 62
     13
 66
     1
 10
0
 20
0
 30
0.0
 70
     1
 40
0
 41
0
  0
VERTEX
  8
0
 10
0.761447
 20
0.293186
 30
0.0
 40
0
 41
0
  0
VERTEX
  8
0
 10
0.771431
 20
0.293186
 30
0.0
 40
0
 41
0
  0
VERTEX
  8
0
 10
0.771431
 20
0.261176
 30
0.0
 40
0
 41
0
  0
VERTEX
  8
0
 10
0.761447
 20
0.261176
 30
0.0
 40
0
 41
0
  0
VERTEX
  8
0
 10
0.761447
 20
0.293186
 30
0.0
 40
0
 41
0
  0
SEQEND
 8
0
  0
POLYLINE
  8
0
 62
     13
 66
     1
 10
0
 20
0
 30
0.0
 70
     1
 40
0
 41
0
  0
VERTEX
  8
0
 10
0.741808
 20
0.293186
 30
0.0
 40
0
 41
0
  0
VERTEX
  8
0
 10
0.75179
 20
0.293186
 30
0.0
 40
0
 41
0
  0
VERTEX
  8
0
 10
0.75179
 20
0.261176
 30
0.0
 40
0
 41
0
  0
VERTEX
  8
0
 10
0.741808
 20
0.261176
 30
0.0
 40
0
 41
0
  0
VERTEX
  8
0
 10
0.741808
 20
0.293186
 30
0.0
 40
0
 41
0
  0
SEQEND
 8
0
  0
POLYLINE
  8
0
 62
     13
 66
     1
 10
0
 20
0
 30
0.0
 70
     1
 40
0
 41
0
  0
VERTEX
  8
0
 10
0.722114
 20
0.293186
 30
0.0
 40
0
 41
0
  0
VERTEX
  8
0
 10
0.732096
 20
0.293186
 30
0.0
 40
0
 41
0
  0
VERTEX
  8
0
 10
0.732096
 20
0.261176
 30
0.0
 40
0
 41
0
  0
VERTEX
  8
0
 10
0.722114
 20
0.261176
 30
0.0
 40
0
 41
0
  0
VERTEX
  8
0
 10
0.722114
 20
0.293186
 30
0.0
 40
0
 41
0
  0
SEQEND
 8
0
  0
POLYLINE
  8
0
 62
     13
 66
     1
 10
0
 20
0
 30
0.0
 70
     1
 40
0
 41
0
  0
VERTEX
  8
0
 10
0.702419
 20
0.293186
 30
0.0
 40
0
 41
0
  0
VERTEX
  8
0
 10
0.712403
 20
0.293186
 30
0.0
 40
0
 41
0
  0
VERTEX
  8
0
 10
0.712403
 20
0.261176
 30
0.0
 40
0
 41
0
  0
VERTEX
  8
0
 10
0.702419
 20
0.261176
 30
0.0
 40
0
 41
0
  0
VERTEX
  8
0
 10
0.702419
 20
0.293186
 30
0.0
 40
0
 41
0
  0
SEQEND
 8
0
  0
POLYLINE
  8
0
 62
     13
 66
     1
 10
0
 20
0
 30
0.0
 70
     1
 40
0
 41
0
  0
VERTEX
  8
0
 10
0.682726
 20
0.293186
 30
0.0
 40
0
 41
0
  0
VERTEX
  8
0
 10
0.692708
 20
0.293186
 30
0.0
 40
0
 41
0
  0
VERTEX
  8
0
 10
0.692708
 20
0.261176
 30
0.0
 40
0
 41
0
  0
VERTEX
  8
0
 10
0.682726
 20
0.261176
 30
0.0
 40
0
 41
0
  0
VERTEX
  8
0
 10
0.682726
 20
0.293186
 30
0.0
 40
0
 41
0
  0
SEQEND
 8
0
  0
POLYLINE
  8
0
 62
     13
 66
     1
 10
0
 20
0
 30
0.0
 70
     1
 40
0
 41
0
  0
VERTEX
  8
0
 10
0.918946
 20
0.293186
 30
0.0
 40
0
 41
0
  0
VERTEX
  8
0
 10
0.928928
 20
0.293186
 30
0.0
 40
0
 41
0
  0
VERTEX
  8
0
 10
0.928928
 20
0.261176
 30
0.0
 40
0
 41
0
  0
VERTEX
  8
0
 10
0.918946
 20
0.261176
 30
0.0
 40
0
 41
0
  0
VERTEX
  8
0
 10
0.918946
 20
0.293186
 30
0.0
 40
0
 41
0
  0
SEQEND
 8
0
  0
POLYLINE
  8
0
 62
     13
 66
     1
 10
0
 20
0
 30
0.0
 70
     1
 40
0
 41
0
  0
VERTEX
  8
0
 10
0.899251
 20
0.293186
 30
0.0
 40
0
 41
0
  0
VERTEX
  8
0
 10
0.909233
 20
0.293186
 30
0.0
 40
0
 41
0
  0
VERTEX
  8
0
 10
0.909233
 20
0.261176
 30
0.0
 40
0
 41
0
  0
VERTEX
  8
0
 10
0.899251
 20
0.261176
 30
0.0
 40
0
 41
0
  0
VERTEX
  8
0
 10
0.899251
 20
0.293186
 30
0.0
 40
0
 41
0
  0
SEQEND
 8
0
  0
POLYLINE
  8
0
 62
     13
 66
     1
 10
0
 20
0
 30
0.0
 70
     1
 40
0
 41
0
  0
VERTEX
  8
0
 10
0.879557
 20
0.293186
 30
0.0
 40
0
 41
0
  0
VERTEX
  8
0
 10
0.88954
 20
0.293186
 30
0.0
 40
0
 41
0
  0
VERTEX
  8
0
 10
0.88954
 20
0.261176
 30
0.0
 40
0
 41
0
  0
VERTEX
  8
0
 10
0.879557
 20
0.261176
 30
0.0
 40
0
 41
0
  0
VERTEX
  8
0
 10
0.879557
 20
0.293186
 30
0.0
 40
0
 41
0
  0
SEQEND
 8
0
  0
POLYLINE
  8
0
 62
     13
 66
     1
 10
0
 20
0
 30
0.0
 70
     1
 40
0
 41
0
  0
VERTEX
  8
0
 10
0.859918
 20
0.293186
 30
0.0
 40
0
 41
0
  0
VERTEX
  8
0
 10
0.8699
 20
0.293186
 30
0.0
 40
0
 41
0
  0
VERTEX
  8
0
 10
0.8699
 20
0.261176
 30
0.0
 40
0
 41
0
  0
VERTEX
  8
0
 10
0.859918
 20
0.261176
 30
0.0
 40
0
 41
0
  0
VERTEX
  8
0
 10
0.859918
 20
0.293186
 30
0.0
 40
0
 41
0
  0
SEQEND
 8
0
  0
POLYLINE
  8
0
 62
     13
 66
     1
 10
0
 20
0
 30
0.0
 70
     1
 40
0
 41
0
  0
VERTEX
  8
0
 10
0.840224
 20
0.293186
 30
0.0
 40
0
 41
0
  0
VERTEX
  8
0
 10
0.850206
 20
0.293186
 30
0.0
 40
0
 41
0
  0
VERTEX
  8
0
 10
0.850206
 20
0.261176
 30
0.0
 40
0
 41
0
  0
VERTEX
  8
0
 10
0.840224
 20
0.261176
 30
0.0
 40
0
 41
0
  0
VERTEX
  8
0
 10
0.840224
 20
0.293186
 30
0.0
 40
0
 41
0
  0
SEQEND
 8
0
  0
POLYLINE
  8
0
 62
     13
 66
     1
 10
0
 20
0
 30
0.0
 70
     1
 40
0
 41
0
  0
VERTEX
  8
0
 10
0.820529
 20
0.293186
 30
0.0
 40
0
 41
0
  0
VERTEX
  8
0
 10
0.830513
 20
0.293186
 30
0.0
 40
0
 41
0
  0
VERTEX
  8
0
 10
0.830513
 20
0.261176
 30
0.0
 40
0
 41
0
  0
VERTEX
  8
0
 10
0.820529
 20
0.261176
 30
0.0
 40
0
 41
0
  0
VERTEX
  8
0
 10
0.820529
 20
0.293186
 30
0.0
 40
0
 41
0
  0
SEQEND
 8
0
  0
POLYLINE
  8
0
 62
     13
 66
     1
 10
0
 20
0
 30
0.0
 70
     1
 40
0
 41
0
  0
VERTEX
  8
0
 10
0.800836
 20
0.293186
 30
0.0
 40
0
 41
0
  0
VERTEX
  8
0
 10
0.810818
 20
0.293186
 30
0.0
 40
0
 41
0
  0
VERTEX
  8
0
 10
0.810818
 20
0.261176
 30
0.0
 40
0
 41
0
  0
VERTEX
  8
0
 10
0.800836
 20
0.261176
 30
0.0
 40
0
 41
0
  0
VERTEX
  8
0
 10
0.800836
 20
0.293186
 30
0.0
 40
0
 41
0
  0
SEQEND
 8
0
  0
POLYLINE
  8
0
 62
     13
 66
     1
 10
0
 20
0
 30
0.0
 70
     1
 40
0
 41
0
  0
VERTEX
  8
0
 10
1.03706
 20
0.293186
 30
0.0
 40
0
 41
0
  0
VERTEX
  8
0
 10
1.04704
 20
0.293186
 30
0.0
 40
0
 41
0
  0
VERTEX
  8
0
 10
1.04704
 20
0.261176
 30
0.0
 40
0
 41
0
  0
VERTEX
  8
0
 10
1.03706
 20
0.261176
 30
0.0
 40
0
 41
0
  0
VERTEX
  8
0
 10
1.03706
 20
0.293186
 30
0.0
 40
0
 41
0
  0
SEQEND
 8
0
  0
POLYLINE
  8
0
 62
     13
 66
     1
 10
0
 20
0
 30
0.0
 70
     1
 40
0
 41
0
  0
VERTEX
  8
0
 10
1.01736
 20
0.293186
 30
0.0
 40
0
 41
0
  0
VERTEX
  8
0
 10
1.02734
 20
0.293186
 30
0.0
 40
0
 41
0
  0
VERTEX
  8
0
 10
1.02734
 20
0.261176
 30
0.0
 40
0
 41
0
  0
VERTEX
  8
0
 10
1.01736
 20
0.261176
 30
0.0
 40
0
 41
0
  0
VERTEX
  8
0
 10
1.01736
 20
0.293186
 30
0.0
 40
0
 41
0
  0
SEQEND
 8
0
  0
POLYLINE
  8
0
 62
     13
 66
     1
 10
0
 20
0
 30
0.0
 70
     1
 40
0
 41
0
  0
VERTEX
  8
0
 10
0.997667
 20
0.293186
 30
0.0
 40
0
 41
0
  0
VERTEX
  8
0
 10
1.00765
 20
0.293186
 30
0.0
 40
0
 41
0
  0
VERTEX
  8
0
 10
1.00765
 20
0.261176
 30
0.0
 40
0
 41
0
  0
VERTEX
  8
0
 10
0.997667
 20
0.261176
 30
0.0
 40
0
 41
0
  0
VERTEX
  8
0
 10
0.997667
 20
0.293186
 30
0.0
 40
0
 41
0
  0
SEQEND
 8
0
  0
POLYLINE
  8
0
 62
     13
 66
     1
 10
0
 20
0
 30
0.0
 70
     1
 40
0
 41
0
  0
VERTEX
  8
0
 10
0.978028
 20
0.293186
 30
0.0
 40
0
 41
0
  0
VERTEX
  8
0
 10
0.98801
 20
0.293186
 30
0.0
 40
0
 41
0
  0
VERTEX
  8
0
 10
0.98801
 20
0.261176
 30
0.0
 40
0
 41
0
  0
VERTEX
  8
0
 10
0.978028
 20
0.261176
 30
0.0
 40
0
 41
0
  0
VERTEX
  8
0
 10
0.978028
 20
0.293186
 30
0.0
 40
0
 41
0
  0
SEQEND
 8
0
  0
POLYLINE
  8
0
 62
     13
 66
     1
 10
0
 20
0
 30
0.0
 70
     1
 40
0
 41
0
  0
VERTEX
  8
0
 10
0.958333
 20
0.293186
 30
0.0
 40
0
 41
0
  0
VERTEX
  8
0
 10
0.968317
 20
0.293186
 30
0.0
 40
0
 41
0
  0
VERTEX
  8
0
 10
0.968317
 20
0.261176
 30
0.0
 40
0
 41
0
  0
VERTEX
  8
0
 10
0.958333
 20
0.261176
 30
0.0
 40
0
 41
0
  0
VERTEX
  8
0
 10
0.958333
 20
0.293186
 30
0.0
 40
0
 41
0
  0
SEQEND
 8
0
  0
POLYLINE
  8
0
 62
     13
 66
     1
 10
0
 20
0
 30
0.0
 70
     1
 40
0
 41
0
  0
VERTEX
  8
0
 10
0.938639
 20
0.293186
 30
0.0
 40
0
 41
0
  0
VERTEX
  8
0
 10
0.948622
 20
0.293186
 30
0.0
 40
0
 41
0
  0
VERTEX
  8
0
 10
0.948622
 20
0.261176
 30
0.0
 40
0
 41
0
  0
VERTEX
  8
0
 10
0.938639
 20
0.261176
 30
0.0
 40
0
 41
0
  0
VERTEX
  8
0
 10
0.938639
 20
0.293186
 30
0.0
 40
0
 41
0
  0
SEQEND
 8
0
  0
POLYLINE
  8
0
 62
     13
 66
     1
 10
0
 20
0
 30
0.0
 70
     1
 40
0
 41
0
  0
VERTEX
  8
0
 10
1.11583
 20
0.293186
 30
0.0
 40
0
 41
0
  0
VERTEX
  8
0
 10
1.12581
 20
0.293186
 30
0.0
 40
0
 41
0
  0
VERTEX
  8
0
 10
1.12581
 20
0.261176
 30
0.0
 40
0
 41
0
  0
VERTEX
  8
0
 10
1.11583
 20
0.261176
 30
0.0
 40
0
 41
0
  0
VERTEX
  8
0
 10
1.11583
 20
0.293186
 30
0.0
 40
0
 41
0
  0
SEQEND
 8
0
  0
POLYLINE
  8
0
 62
     13
 66
     1
 10
0
 20
0
 30
0.0
 70
     1
 40
0
 41
0
  0
VERTEX
  8
0
 10
1.09614
 20
0.293186
 30
0.0
 40
0
 41
0
  0
VERTEX
  8
0
 10
1.10612
 20
0.293186
 30
0.0
 40
0
 41
0
  0
VERTEX
  8
0
 10
1.10612
 20
0.261176
 30
0.0
 40
0
 41
0
  0
VERTEX
  8
0
 10
1.09614
 20
0.261176
 30
0.0
 40
0
 41
0
  0
VERTEX
  8
0
 10
1.09614
 20
0.293186
 30
0.0
 40
0
 41
0
  0
SEQEND
 8
0
  0
POLYLINE
  8
0
 62
     13
 66
     1
 10
0
 20
0
 30
0.0
 70
     1
 40
0
 41
0
  0
VERTEX
  8
0
 10
1.07644
 20
0.293186
 30
0.0
 40
0
 41
0
  0
VERTEX
  8
0
 10
1.08643
 20
0.293186
 30
0.0
 40
0
 41
0
  0
VERTEX
  8
0
 10
1.08643
 20
0.261176
 30
0.0
 40
0
 41
0
  0
VERTEX
  8
0
 10
1.07644
 20
0.261176
 30
0.0
 40
0
 41
0
  0
VERTEX
  8
0
 10
1.07644
 20
0.293186
 30
0.0
 40
0
 41
0
  0
SEQEND
 8
0
  0
POLYLINE
  8
0
 62
     13
 66
     1
 10
0
 20
0
 30
0.0
 70
     1
 40
0
 41
0
  0
VERTEX
  8
0
 10
1.05675
 20
0.293186
 30
0.0
 40
0
 41
0
  0
VERTEX
  8
0
 10
1.06673
 20
0.293186
 30
0.0
 40
0
 41
0
  0
VERTEX
  8
0
 10
1.06673
 20
0.261176
 30
0.0
 40
0
 41
0
  0
VERTEX
  8
0
 10
1.05675
 20
0.261176
 30
0.0
 40
0
 41
0
  0
VERTEX
  8
0
 10
1.05675
 20
0.293186
 30
0.0
 40
0
 41
0
  0
SEQEND
 8
0
  0
POLYLINE
  8
0
 62
     13
 66
     1
 10
0
 20
0
 30
0.0
 70
     1
 40
0
 41
0
  0
VERTEX
  8
0
 10
0.201932
 20
1.57829
 30
0.0
 40
0
 41
0
  0
VERTEX
  8
0
 10
0.201932
 20
1.58317
 30
0.0
 40
0
 41
0
  0
VERTEX
  8
0
 10
0.193793
 20
1.59782
 30
0.0
 40
0
 41
0
  0
VERTEX
  8
0
 10
0.17589
 20
1.60433
 30
0.0
 40
0
 41
0
  0
VERTEX
  8
0
 10
0.157986
 20
1.59782
 30
0.0
 40
0
 41
0
  0
VERTEX
  8
0
 10
0.149903
 20
1.58317
 30
0.0
 40
0
 41
0
  0
VERTEX
  8
0
 10
0.149903
 20
1.57829
 30
0.0
 40
0
 41
0
  0
VERTEX
  8
0
 10
0.149903
 20
1.57346
 30
0.0
 40
0
 41
0
  0
VERTEX
  8
0
 10
0.157986
 20
1.55881
 30
0.0
 40
0
 41
0
  0
VERTEX
  8
0
 10
0.17589
 20
1.55231
 30
0.0
 40
0
 41
0
  0
VERTEX
  8
0
 10
0.193793
 20
1.55881
 30
0.0
 40
0
 41
0
  0
VERTEX
  8
0
 10
0.201932
 20
1.57346
 30
0.0
 40
0
 41
0
  0
VERTEX
  8
0
 10
0.201932
 20
1.57829
 30
0.0
 40
0
 41
0
  0
SEQEND
 8
0
  0
POLYLINE
  8
0
 62
     13
 66
     1
 10
0
 20
0
 30
0.0
 70
     1
 40
0
 41
0
  0
VERTEX
  8
0
 10
0.280653
 20
1.57829
 30
0.0
 40
0
 41
0
  0
VERTEX
  8
0
 10
0.280653
 20
1.58317
 30
0.0
 40
0
 41
0
  0
VERTEX
  8
0
 10
0.272515
 20
1.59782
 30
0.0
 40
0
 41
0
  0
VERTEX
  8
0
 10
0.254665
 20
1.60433
 30
0.0
 40
0
 41
0
  0
VERTEX
  8
0
 10
0.236762
 20
1.59782
 30
0.0
 40
0
 41
0
  0
VERTEX
  8
0
 10
0.228678
 20
1.58317
 30
0.0
 40
0
 41
0
  0
VERTEX
  8
0
 10
0.228678
 20
1.57829
 30
0.0
 40
0
 41
0
  0
VERTEX
  8
0
 10
0.228678
 20
1.57346
 30
0.0
 40
0
 41
0
  0
VERTEX
  8
0
 10
0.236762
 20
1.55881
 30
0.0
 40
0
 41
0
  0
VERTEX
  8
0
 10
0.254665
 20
1.55231
 30
0.0
 40
0
 41
0
  0
VERTEX
  8
0
 10
0.272515
 20
1.55881
 30
0.0
 40
0
 41
0
  0
VERTEX
  8
0
 10
0.280653
 20
1.57346
 30
0.0
 40
0
 41
0
  0
VERTEX
  8
0
 10
0.280653
 20
1.57829
 30
0.0
 40
0
 41
0
  0
SEQEND
 8
0
  0
POLYLINE
  8
0
 62
     13
 66
     1
 10
0
 20
0
 30
0.0
 70
     1
 40
0
 41
0
  0
VERTEX
  8
0
 10
0.691678
 20
1.10585
 30
0.0
 40
0
 41
0
  0
VERTEX
  8
0
 10
0.691678
 20
1.11399
 30
0.0
 40
0
 41
0
  0
VERTEX
  8
0
 10
0.678114
 20
1.13835
 30
0.0
 40
0
 41
0
  0
VERTEX
  8
0
 10
0.648329
 20
1.14914
 30
0.0
 40
0
 41
0
  0
VERTEX
  8
0
 10
0.618544
 20
1.13835
 30
0.0
 40
0
 41
0
  0
VERTEX
  8
0
 10
0.605035
 20
1.11399
 30
0.0
 40
0
 41
0
  0
VERTEX
  8
0
 10
0.605035
 20
1.10585
 30
0.0
 40
0
 41
0
  0
VERTEX
  8
0
 10
0.605035
 20
1.09777
 30
0.0
 40
0
 41
0
  0
VERTEX
  8
0
 10
0.618544
 20
1.07341
 30
0.0
 40
0
 41
0
  0
VERTEX
  8
0
 10
0.648329
 20
1.06255
 30
0.0
 40
0
 41
0
  0
VERTEX
  8
0
 10
0.678114
 20
1.07341
 30
0.0
 40
0
 41
0
  0
VERTEX
  8
0
 10
0.691678
 20
1.09777
 30
0.0
 40
0
 41
0
  0
VERTEX
  8
0
 10
0.691678
 20
1.10585
 30
0.0
 40
0
 41
0
  0
SEQEND
 8
0
  0
POLYLINE
  8
0
 62
     13
 66
     1
 10
0
 20
0
 30
0.0
 70
     1
 40
0
 41
0
  0
VERTEX
  8
0
 10
0.691678
 20
1.24365
 30
0.0
 40
0
 41
0
  0
VERTEX
  8
0
 10
0.691678
 20
1.25179
 30
0.0
 40
0
 41
0
  0
VERTEX
  8
0
 10
0.678114
 20
1.27615
 30
0.0
 40
0
 41
0
  0
VERTEX
  8
0
 10
0.648329
 20
1.28695
 30
0.0
 40
0
 41
0
  0
VERTEX
  8
0
 10
0.618544
 20
1.27615
 30
0.0
 40
0
 41
0
  0
VERTEX
  8
0
 10
0.605035
 20
1.25179
 30
0.0
 40
0
 41
0
  0
VERTEX
  8
0
 10
0.605035
 20
1.24365
 30
0.0
 40
0
 41
0
  0
VERTEX
  8
0
 10
0.605035
 20
1.23557
 30
0.0
 40
0
 41
0
  0
VERTEX
  8
0
 10
0.618544
 20
1.21121
 30
0.0
 40
0
 41
0
  0
VERTEX
  8
0
 10
0.648329
 20
1.20036
 30
0.0
 40
0
 41
0
  0
VERTEX
  8
0
 10
0.678114
 20
1.21121
 30
0.0
 40
0
 41
0
  0
VERTEX
  8
0
 10
0.691678
 20
1.23557
 30
0.0
 40
0
 41
0
  0
VERTEX
  8
0
 10
0.691678
 20
1.24365
 30
0.0
 40
0
 41
0
  0
SEQEND
 8
0
  0
POLYLINE
  8
0
 62
     13
 66
     1
 10
0
 20
0
 30
0.0
 70
     1
 40
0
 41
0
  0
VERTEX
  8
0
 10
0.740886
 20
1.34207
 30
0.0
 40
0
 41
0
  0
VERTEX
  8
0
 10
0.740886
 20
1.35021
 30
0.0
 40
0
 41
0
  0
VERTEX
  8
0
 10
0.727322
 20
1.37457
 30
0.0
 40
0
 41
0
  0
VERTEX
  8
0
 10
0.697537
 20
1.38536
 30
0.0
 40
0
 41
0
  0
VERTEX
  8
0
 10
0.667751
 20
1.37457
 30
0.0
 40
0
 41
0
  0
VERTEX
  8
0
 10
0.654243
 20
1.35021
 30
0.0
 40
0
 41
0
  0
VERTEX
  8
0
 10
0.654243
 20
1.34207
 30
0.0
 40
0
 41
0
  0
VERTEX
  8
0
 10
0.654243
 20
1.33398
 30
0.0
 40
0
 41
0
  0
VERTEX
  8
0
 10
0.667751
 20
1.30962
 30
0.0
 40
0
 41
0
  0
VERTEX
  8
0
 10
0.697537
 20
1.29877
 30
0.0
 40
0
 41
0
  0
VERTEX
  8
0
 10
0.727322
 20
1.30962
 30
0.0
 40
0
 41
0
  0
VERTEX
  8
0
 10
0.740886
 20
1.33398
 30
0.0
 40
0
 41
0
  0
VERTEX
  8
0
 10
0.740886
 20
1.34207
 30
0.0
 40
0
 41
0
  0
SEQEND
 8
0
  0
POLYLINE
  8
0
 62
     13
 66
     1
 10
0
 20
0
 30
0.0
 70
     1
 40
0
 41
0
  0
VERTEX
  8
0
 10
0.642469
 20
1.34207
 30
0.0
 40
0
 41
0
  0
VERTEX
  8
0
 10
0.642469
 20
1.35021
 30
0.0
 40
0
 41
0
  0
VERTEX
  8
0
 10
0.628907
 20
1.37457
 30
0.0
 40
0
 41
0
  0
VERTEX
  8
0
 10
0.599121
 20
1.38536
 30
0.0
 40
0
 41
0
  0
VERTEX
  8
0
 10
0.569336
 20
1.37457
 30
0.0
 40
0
 41
0
  0
VERTEX
  8
0
 10
0.555826
 20
1.35021
 30
0.0
 40
0
 41
0
  0
VERTEX
  8
0
 10
0.555826
 20
1.34207
 30
0.0
 40
0
 41
0
  0
VERTEX
  8
0
 10
0.555826
 20
1.33398
 30
0.0
 40
0
 41
0
  0
VERTEX
  8
0
 10
0.569336
 20
1.30962
 30
0.0
 40
0
 41
0
  0
VERTEX
  8
0
 10
0.599121
 20
1.29877
 30
0.0
 40
0
 41
0
  0
VERTEX
  8
0
 10
0.628907
 20
1.30962
 30
0.0
 40
0
 41
0
  0
VERTEX
  8
0
 10
0.642469
 20
1.33398
 30
0.0
 40
0
 41
0
  0
VERTEX
  8
0
 10
0.642469
 20
1.34207
 30
0.0
 40
0
 41
0
  0
SEQEND
 8
0
  0
POLYLINE
  8
0
 62
     13
 66
     1
 10
0
 20
0
 30
0.0
 70
     1
 40
0
 41
0
  0
VERTEX
  8
0
 10
0.7704
 20
1.03695
 30
0.0
 40
0
 41
0
  0
VERTEX
  8
0
 10
0.7704
 20
1.04508
 30
0.0
 40
0
 41
0
  0
VERTEX
  8
0
 10
0.756836
 20
1.06944
 30
0.0
 40
0
 41
0
  0
VERTEX
  8
0
 10
0.727106
 20
1.08024
 30
0.0
 40
0
 41
0
  0
VERTEX
  8
0
 10
0.697319
 20
1.06944
 30
0.0
 40
0
 41
0
  0
VERTEX
  8
0
 10
0.683811
 20
1.04508
 30
0.0
 40
0
 41
0
  0
VERTEX
  8
0
 10
0.683811
 20
1.03695
 30
0.0
 40
0
 41
0
  0
VERTEX
  8
0
 10
0.683811
 20
1.02886
 30
0.0
 40
0
 41
0
  0
VERTEX
  8
0
 10
0.697319
 20
1.0045
 30
0.0
 40
0
 41
0
  0
VERTEX
  8
0
 10
0.727106
 20
0.993653
 30
0.0
 40
0
 41
0
  0
VERTEX
  8
0
 10
0.756836
 20
1.0045
 30
0.0
 40
0
 41
0
  0
VERTEX
  8
0
 10
0.7704
 20
1.02886
 30
0.0
 40
0
 41
0
  0
VERTEX
  8
0
 10
0.7704
 20
1.03695
 30
0.0
 40
0
 41
0
  0
SEQEND
 8
0
  0
POLYLINE
  8
0
 62
     13
 66
     1
 10
0
 20
0
 30
0.0
 70
     1
 40
0
 41
0
  0
VERTEX
  8
0
 10
0.780274
 20
1.17475
 30
0.0
 40
0
 41
0
  0
VERTEX
  8
0
 10
0.780274
 20
1.18289
 30
0.0
 40
0
 41
0
  0
VERTEX
  8
0
 10
0.76671
 20
1.20725
 30
0.0
 40
0
 41
0
  0
VERTEX
  8
0
 10
0.736925
 20
1.21804
 30
0.0
 40
0
 41
0
  0
VERTEX
  8
0
 10
0.70714
 20
1.20725
 30
0.0
 40
0
 41
0
  0
VERTEX
  8
0
 10
0.693631
 20
1.18289
 30
0.0
 40
0
 41
0
  0
VERTEX
  8
0
 10
0.693631
 20
1.17475
 30
0.0
 40
0
 41
0
  0
VERTEX
  8
0
 10
0.693631
 20
1.16667
 30
0.0
 40
0
 41
0
  0
VERTEX
  8
0
 10
0.70714
 20
1.14231
 30
0.0
 40
0
 41
0
  0
VERTEX
  8
0
 10
0.736925
 20
1.13146
 30
0.0
 40
0
 41
0
  0
VERTEX
  8
0
 10
0.76671
 20
1.14231
 30
0.0
 40
0
 41
0
  0
VERTEX
  8
0
 10
0.780274
 20
1.16667
 30
0.0
 40
0
 41
0
  0
VERTEX
  8
0
 10
0.780274
 20
1.17475
 30
0.0
 40
0
 41
0
  0
SEQEND
 8
0
  0
POLYLINE
  8
0
 62
     13
 66
     1
 10
0
 20
0
 30
0.0
 70
     1
 40
0
 41
0
  0
VERTEX
  8
0
 10
1.42003
 20
1.75549
 30
0.0
 40
0
 41
0
  0
VERTEX
  8
0
 10
1.42003
 20
1.76361
 30
0.0
 40
0
 41
0
  0
VERTEX
  8
0
 10
1.40647
 20
1.78797
 30
0.0
 40
0
 41
0
  0
VERTEX
  8
0
 10
1.37668
 20
1.79878
 30
0.0
 40
0
 41
0
  0
VERTEX
  8
0
 10
1.3469
 20
1.78797
 30
0.0
 40
0
 41
0
  0
VERTEX
  8
0
 10
1.33339
 20
1.76361
 30
0.0
 40
0
 41
0
  0
VERTEX
  8
0
 10
1.33339
 20
1.75549
 30
0.0
 40
0
 41
0
  0
VERTEX
  8
0
 10
1.33339
 20
1.7474
 30
0.0
 40
0
 41
0
  0
VERTEX
  8
0
 10
1.3469
 20
1.72299
 30
0.0
 40
0
 41
0
  0
VERTEX
  8
0
 10
1.37668
 20
1.71218
 30
0.0
 40
0
 41
0
  0
VERTEX
  8
0
 10
1.40647
 20
1.72299
 30
0.0
 40
0
 41
0
  0
VERTEX
  8
0
 10
1.42003
 20
1.7474
 30
0.0
 40
0
 41
0
  0
VERTEX
  8
0
 10
1.42003
 20
1.75549
 30
0.0
 40
0
 41
0
  0
SEQEND
 8
0
  0
POLYLINE
  8
0
 62
     13
 66
     1
 10
0
 20
0
 30
0.0
 70
     1
 40
0
 41
0
  0
VERTEX
  8
0
 10
1.42003
 20
1.65701
 30
0.0
 40
0
 41
0
  0
VERTEX
  8
0
 10
1.42003
 20
1.66515
 30
0.0
 40
0
 41
0
  0
VERTEX
  8
0
 10
1.40647
 20
1.68956
 30
0.0
 40
0
 41
0
  0
VERTEX
  8
0
 10
1.37668
 20
1.70036
 30
0.0
 40
0
 41
0
  0
VERTEX
  8
0
 10
1.3469
 20
1.68956
 30
0.0
 40
0
 41
0
  0
VERTEX
  8
0
 10
1.33339
 20
1.66515
 30
0.0
 40
0
 41
0
  0
VERTEX
  8
0
 10
1.33339
 20
1.65701
 30
0.0
 40
0
 41
0
  0
VERTEX
  8
0
 10
1.33339
 20
1.64893
 30
0.0
 40
0
 41
0
  0
VERTEX
  8
0
 10
1.3469
 20
1.62457
 30
0.0
 40
0
 41
0
  0
VERTEX
  8
0
 10
1.37668
 20
1.61372
 30
0.0
 40
0
 41
0
  0
VERTEX
  8
0
 10
1.40647
 20
1.62457
 30
0.0
 40
0
 41
0
  0
VERTEX
  8
0
 10
1.42003
 20
1.64893
 30
0.0
 40
0
 41
0
  0
VERTEX
  8
0
 10
1.42003
 20
1.65701
 30
0.0
 40
0
 41
0
  0
SEQEND
 8
0
  0
POLYLINE
  8
0
 62
     13
 66
     1
 10
0
 20
0
 30
0.0
 70
     1
 40
0
 41
0
  0
VERTEX
  8
0
 10
0.260579
 20
0.469997
 30
0.0
 40
0
 41
0
  0
VERTEX
  8
0
 10
0.300076
 20
0.469997
 30
0.0
 40
0
 41
0
  0
VERTEX
  8
0
 10
0.300076
 20
0.344021
 30
0.0
 40
0
 41
0
  0
VERTEX
  8
0
 10
0.260579
 20
0.344021
 30
0.0
 40
0
 41
0
  0
VERTEX
  8
0
 10
0.260579
 20
0.469997
 30
0.0
 40
0
 41
0
  0
SEQEND
 8
0
  0
POLYLINE
  8
0
 62
     13
 66
     1
 10
0
 20
0
 30
0.0
 70
     1
 40
0
 41
0
  0
VERTEX
  8
0
 10
0.34706
 20
0.469997
 30
0.0
 40
0
 41
0
  0
VERTEX
  8
0
 10
0.386556
 20
0.469997
 30
0.0
 40
0
 41
0
  0
VERTEX
  8
0
 10
0.386556
 20
0.344021
 30
0.0
 40
0
 41
0
  0
VERTEX
  8
0
 10
0.34706
 20
0.344021
 30
0.0
 40
0
 41
0
  0
VERTEX
  8
0
 10
0.34706
 20
0.469997
 30
0.0
 40
0
 41
0
  0
SEQEND
 8
0
  0
POLYLINE
  8
0
 62
     13
 66
     1
 10
0
 20
0
 30
0.0
 70
     1
 40
0
 41
0
  0
VERTEX
  8
0
 10
0.913032
 20
0.640788
 30
0.0
 40
0
 41
0
  0
VERTEX
  8
0
 10
0.927029
 20
0.640788
 30
0.0
 40
0
 41
0
  0
VERTEX
  8
0
 10
0.927029
 20
0.610786
 30
0.0
 40
0
 41
0
  0
VERTEX
  8
0
 10
0.913032
 20
0.610786
 30
0.0
 40
0
 41
0
  0
VERTEX
  8
0
 10
0.913032
 20
0.640788
 30
0.0
 40
0
 41
0
  0
SEQEND
 8
0
  0
POLYLINE
  8
0
 62
     13
 66
     1
 10
0
 20
0
 30
0.0
 70
     1
 40
0
 41
0
  0
VERTEX
  8
0
 10
0.881511
 20
0.640788
 30
0.0
 40
0
 41
0
  0
VERTEX
  8
0
 10
0.895508
 20
0.640788
 30
0.0
 40
0
 41
0
  0
VERTEX
  8
0
 10
0.895508
 20
0.610786
 30
0.0
 40
0
 41
0
  0
VERTEX
  8
0
 10
0.881511
 20
0.610786
 30
0.0
 40
0
 41
0
  0
VERTEX
  8
0
 10
0.881511
 20
0.640788
 30
0.0
 40
0
 41
0
  0
SEQEND
 8
0
  0
POLYLINE
  8
0
 62
     13
 66
     1
 10
0
 20
0
 30
0.0
 70
     1
 40
0
 41
0
  0
VERTEX
  8
0
 10
0.881511
 20
0.73481
 30
0.0
 40
0
 41
0
  0
VERTEX
  8
0
 10
0.895508
 20
0.73481
 30
0.0
 40
0
 41
0
  0
VERTEX
  8
0
 10
0.895508
 20
0.704807
 30
0.0
 40
0
 41
0
  0
VERTEX
  8
0
 10
0.881511
 20
0.704807
 30
0.0
 40
0
 41
0
  0
VERTEX
  8
0
 10
0.881511
 20
0.73481
 30
0.0
 40
0
 41
0
  0
SEQEND
 8
0
  0
POLYLINE
  8
0
 62
     13
 66
     1
 10
0
 20
0
 30
0.0
 70
     1
 40
0
 41
0
  0
VERTEX
  8
0
 10
0.913032
 20
0.73481
 30
0.0
 40
0
 41
0
  0
VERTEX
  8
0
 10
0.927029
 20
0.73481
 30
0.0
 40
0
 41
0
  0
VERTEX
  8
0
 10
0.927029
 20
0.704807
 30
0.0
 40
0
 41
0
  0
VERTEX
  8
0
 10
0.913032
 20
0.704807
 30
0.0
 40
0
 41
0
  0
VERTEX
  8
0
 10
0.913032
 20
0.73481
 30
0.0
 40
0
 41
0
  0
SEQEND
 8
0
  0
POLYLINE
  8
0
 62
     13
 66
     1
 10
0
 20
0
 30
0.0
 70
     1
 40
0
 41
0
  0
VERTEX
  8
0
 10
1.03901
 20
0.640788
 30
0.0
 40
0
 41
0
  0
VERTEX
  8
0
 10
1.05301
 20
0.640788
 30
0.0
 40
0
 41
0
  0
VERTEX
  8
0
 10
1.05301
 20
0.610786
 30
0.0
 40
0
 41
0
  0
VERTEX
  8
0
 10
1.03901
 20
0.610786
 30
0.0
 40
0
 41
0
  0
VERTEX
  8
0
 10
1.03901
 20
0.640788
 30
0.0
 40
0
 41
0
  0
SEQEND
 8
0
  0
POLYLINE
  8
0
 62
     13
 66
     1
 10
0
 20
0
 30
0.0
 70
     1
 40
0
 41
0
  0
VERTEX
  8
0
 10
1.00749
 20
0.640788
 30
0.0
 40
0
 41
0
  0
VERTEX
  8
0
 10
1.02148
 20
0.640788
 30
0.0
 40
0
 41
0
  0
VERTEX
  8
0
 10
1.02148
 20
0.610786
 30
0.0
 40
0
 41
0
  0
VERTEX
  8
0
 10
1.00749
 20
0.610786
 30
0.0
 40
0
 41
0
  0
VERTEX
  8
0
 10
1.00749
 20
0.640788
 30
0.0
 40
0
 41
0
  0
SEQEND
 8
0
  0
POLYLINE
  8
0
 62
     13
 66
     1
 10
0
 20
0
 30
0.0
 70
     1
 40
0
 41
0
  0
VERTEX
  8
0
 10
0.976019
 20
0.640788
 30
0.0
 40
0
 41
0
  0
VERTEX
  8
0
 10
0.990018
 20
0.640788
 30
0.0
 40
0
 41
0
  0
VERTEX
  8
0
 10
0.990018
 20
0.610786
 30
0.0
 40
0
 41
0
  0
VERTEX
  8
0
 10
0.976019
 20
0.610786
 30
0.0
 40
0
 41
0
  0
VERTEX
  8
0
 10
0.976019
 20
0.640788
 30
0.0
 40
0
 41
0
  0
SEQEND
 8
0
  0
POLYLINE
  8
0
 62
     13
 66
     1
 10
0
 20
0
 30
0.0
 70
     1
 40
0
 41
0
  0
VERTEX
  8
0
 10
0.944499
 20
0.640788
 30
0.0
 40
0
 41
0
  0
VERTEX
  8
0
 10
0.958496
 20
0.640788
 30
0.0
 40
0
 41
0
  0
VERTEX
  8
0
 10
0.958496
 20
0.610786
 30
0.0
 40
0
 41
0
  0
VERTEX
  8
0
 10
0.944499
 20
0.610786
 30
0.0
 40
0
 41
0
  0
VERTEX
  8
0
 10
0.944499
 20
0.640788
 30
0.0
 40
0
 41
0
  0
SEQEND
 8
0
  0
POLYLINE
  8
0
 62
     13
 66
     1
 10
0
 20
0
 30
0.0
 70
     1
 40
0
 41
0
  0
VERTEX
  8
0
 10
0.944499
 20
0.73481
 30
0.0
 40
0
 41
0
  0
VERTEX
  8
0
 10
0.958496
 20
0.73481
 30
0.0
 40
0
 41
0
  0
VERTEX
  8
0
 10
0.958496
 20
0.704807
 30
0.0
 40
0
 41
0
  0
VERTEX
  8
0
 10
0.944499
 20
0.704807
 30
0.0
 40
0
 41
0
  0
VERTEX
  8
0
 10
0.944499
 20
0.73481
 30
0.0
 40
0
 41
0
  0
SEQEND
 8
0
  0
POLYLINE
  8
0
 62
     13
 66
     1
 10
0
 20
0
 30
0.0
 70
     1
 40
0
 41
0
  0
VERTEX
  8
0
 10
0.976019
 20
0.73481
 30
0.0
 40
0
 41
0
  0
VERTEX
  8
0
 10
0.990018
 20
0.73481
 30
0.0
 40
0
 41
0
  0
VERTEX
  8
0
 10
0.990018
 20
0.704807
 30
0.0
 40
0
 41
0
  0
VERTEX
  8
0
 10
0.976019
 20
0.704807
 30
0.0
 40
0
 41
0
  0
VERTEX
  8
0
 10
0.976019
 20
0.73481
 30
0.0
 40
0
 41
0
  0
SEQEND
 8
0
  0
POLYLINE
  8
0
 62
     13
 66
     1
 10
0
 20
0
 30
0.0
 70
     1
 40
0
 41
0
  0
VERTEX
  8
0
 10
1.00749
 20
0.73481
 30
0.0
 40
0
 41
0
  0
VERTEX
  8
0
 10
1.02148
 20
0.73481
 30
0.0
 40
0
 41
0
  0
VERTEX
  8
0
 10
1.02148
 20
0.704807
 30
0.0
 40
0
 41
0
  0
VERTEX
  8
0
 10
1.00749
 20
0.704807
 30
0.0
 40
0
 41
0
  0
VERTEX
  8
0
 10
1.00749
 20
0.73481
 30
0.0
 40
0
 41
0
  0
SEQEND
 8
0
  0
POLYLINE
  8
0
 62
     13
 66
     1
 10
0
 20
0
 30
0.0
 70
     1
 40
0
 41
0
  0
VERTEX
  8
0
 10
1.03901
 20
0.73481
 30
0.0
 40
0
 41
0
  0
VERTEX
  8
0
 10
1.05301
 20
0.73481
 30
0.0
 40
0
 41
0
  0
VERTEX
  8
0
 10
1.05301
 20
0.704807
 30
0.0
 40
0
 41
0
  0
VERTEX
  8
0
 10
1.03901
 20
0.704807
 30
0.0
 40
0
 41
0
  0
VERTEX
  8
0
 10
1.03901
 20
0.73481
 30
0.0
 40
0
 41
0
  0
SEQEND
 8
0
  0
POLYLINE
  8
0
 62
     13
 66
     1
 10
0
 20
0
 30
0.0
 70
     1
 40
0
 41
0
  0
VERTEX
  8
0
 10
1.07048
 20
0.640788
 30
0.0
 40
0
 41
0
  0
VERTEX
  8
0
 10
1.08447
 20
0.640788
 30
0.0
 40
0
 41
0
  0
VERTEX
  8
0
 10
1.08447
 20
0.610786
 30
0.0
 40
0
 41
0
  0
VERTEX
  8
0
 10
1.07048
 20
0.610786
 30
0.0
 40
0
 41
0
  0
VERTEX
  8
0
 10
1.07048
 20
0.640788
 30
0.0
 40
0
 41
0
  0
SEQEND
 8
0
  0
POLYLINE
  8
0
 62
     13
 66
     1
 10
0
 20
0
 30
0.0
 70
     1
 40
0
 41
0
  0
VERTEX
  8
0
 10
1.07048
 20
0.73481
 30
0.0
 40
0
 41
0
  0
VERTEX
  8
0
 10
1.08447
 20
0.73481
 30
0.0
 40
0
 41
0
  0
VERTEX
  8
0
 10
1.08447
 20
0.704807
 30
0.0
 40
0
 41
0
  0
VERTEX
  8
0
 10
1.07048
 20
0.704807
 30
0.0
 40
0
 41
0
  0
VERTEX
  8
0
 10
1.07048
 20
0.73481
 30
0.0
 40
0
 41
0
  0
SEQEND
 8
0
  0
POLYLINE
  8
0
 62
     13
 66
     1
 10
0
 20
0
 30
0.0
 70
     1
 40
0
 41
0
  0
VERTEX
  8
0
 10
0.275174
 20
0.8361
 30
0.0
 40
0
 41
0
  0
VERTEX
  8
0
 10
0.2972
 20
0.8361
 30
0.0
 40
0
 41
0
  0
VERTEX
  8
0
 10
0.2972
 20
0.79655
 30
0.0
 40
0
 41
0
  0
VERTEX
  8
0
 10
0.275174
 20
0.79655
 30
0.0
 40
0
 41
0
  0
VERTEX
  8
0
 10
0.275174
 20
0.8361
 30
0.0
 40
0
 41
0
  0
SEQEND
 8
0
  0
POLYLINE
  8
0
 62
     13
 66
     1
 10
0
 20
0
 30
0.0
 70
     1
 40
0
 41
0
  0
VERTEX
  8
0
 10
0.275174
 20
0.942708
 30
0.0
 40
0
 41
0
  0
VERTEX
  8
0
 10
0.2972
 20
0.942708
 30
0.0
 40
0
 41
0
  0
VERTEX
  8
0
 10
0.2972
 20
0.903157
 30
0.0
 40
0
 41
0
  0
VERTEX
  8
0
 10
0.275174
 20
0.903157
 30
0.0
 40
0
 41
0
  0
VERTEX
  8
0
 10
0.275174
 20
0.942708
 30
0.0
 40
0
 41
0
  0
SEQEND
 8
0
  0
POLYLINE
  8
0
 62
     13
 66
     1
 10
0
 20
0
 30
0.0
 70
     1
 40
0
 41
0
  0
VERTEX
  8
0
 10
0.349935
 20
0.8361
 30
0.0
 40
0
 41
0
  0
VERTEX
  8
0
 10
0.371962
 20
0.8361
 30
0.0
 40
0
 41
0
  0
VERTEX
  8
0
 10
0.371962
 20
0.79655
 30
0.0
 40
0
 41
0
  0
VERTEX
  8
0
 10
0.349935
 20
0.79655
 30
0.0
 40
0
 41
0
  0
VERTEX
  8
0
 10
0.349935
 20
0.8361
 30
0.0
 40
0
 41
0
  0
SEQEND
 8
0
  0
POLYLINE
  8
0
 62
     13
 66
     1
 10
0
 20
0
 30
0.0
 70
     1
 40
0
 41
0
  0
VERTEX
  8
0
 10
0.312554
 20
0.942708
 30
0.0
 40
0
 41
0
  0
VERTEX
  8
0
 10
0.334581
 20
0.942708
 30
0.0
 40
0
 41
0
  0
VERTEX
  8
0
 10
0.334581
 20
0.903157
 30
0.0
 40
0
 41
0
  0
VERTEX
  8
0
 10
0.312554
 20
0.903157
 30
0.0
 40
0
 41
0
  0
VERTEX
  8
0
 10
0.312554
 20
0.942708
 30
0.0
 40
0
 41
0
  0
SEQEND
 8
0
  0
POLYLINE
  8
0
 62
     13
 66
     1
 10
0
 20
0
 30
0.0
 70
     1
 40
0
 41
0
  0
VERTEX
  8
0
 10
0.349935
 20
0.942708
 30
0.0
 40
0
 41
0
  0
VERTEX
  8
0
 10
0.371962
 20
0.942708
 30
0.0
 40
0
 41
0
  0
VERTEX
  8
0
 10
0.371962
 20
0.903157
 30
0.0
 40
0
 41
0
  0
VERTEX
  8
0
 10
0.349935
 20
0.903157
 30
0.0
 40
0
 41
0
  0
VERTEX
  8
0
 10
0.349935
 20
0.942708
 30
0.0
 40
0
 41
0
  0
SEQEND
 8
0
  0
POLYLINE
  8
0
 62
     13
 66
     1
 10
0
 20
0
 30
0.0
 70
     1
 40
0
 41
0
  0
VERTEX
  8
0
 10
0.299587
 20
0.233669
 30
0.0
 40
0
 41
0
  0
VERTEX
  8
0
 10
0.339572
 20
0.233669
 30
0.0
 40
0
 41
0
  0
VERTEX
  8
0
 10
0.339572
 20
0.186686
 30
0.0
 40
0
 41
0
  0
VERTEX
  8
0
 10
0.299587
 20
0.186686
 30
0.0
 40
0
 41
0
  0
VERTEX
  8
0
 10
0.299587
 20
0.233669
 30
0.0
 40
0
 41
0
  0
SEQEND
 8
0
  0
POLYLINE
  8
0
 62
     13
 66
     1
 10
0
 20
0
 30
0.0
 70
     1
 40
0
 41
0
  0
VERTEX
  8
0
 10
0.36659
 20
0.233669
 30
0.0
 40
0
 41
0
  0
VERTEX
  8
0
 10
0.406575
 20
0.233669
 30
0.0
 40
0
 41
0
  0
VERTEX
  8
0
 10
0.406575
 20
0.186686
 30
0.0
 40
0
 41
0
  0
VERTEX
  8
0
 10
0.36659
 20
0.186686
 30
0.0
 40
0
 41
0
  0
VERTEX
  8
0
 10
0.36659
 20
0.233669
 30
0.0
 40
0
 41
0
  0
SEQEND
 8
0
  0
POLYLINE
  8
0
 62
     13
 66
     1
 10
0
 20
0
 30
0.0
 70
     1
 40
0
 41
0
  0
VERTEX
  8
0
 10
0.929633
 20
0.480849
 30
0.0
 40
0
 41
0
  0
VERTEX
  8
0
 10
0.963325
 20
0.480849
 30
0.0
 40
0
 41
0
  0
VERTEX
  8
0
 10
0.963325
 20
0.43164
 30
0.0
 40
0
 41
0
  0
VERTEX
  8
0
 10
0.929633
 20
0.43164
 30
0.0
 40
0
 41
0
  0
VERTEX
  8
0
 10
0.929633
 20
0.480849
 30
0.0
 40
0
 41
0
  0
SEQEND
 8
0
  0
POLYLINE
  8
0
 62
     13
 66
     1
 10
0
 20
0
 30
0.0
 70
     1
 40
0
 41
0
  0
VERTEX
  8
0
 10
1.00271
 20
0.480849
 30
0.0
 40
0
 41
0
  0
VERTEX
  8
0
 10
1.0364
 20
0.480849
 30
0.0
 40
0
 41
0
  0
VERTEX
  8
0
 10
1.0364
 20
0.43164
 30
0.0
 40
0
 41
0
  0
VERTEX
  8
0
 10
1.00271
 20
0.43164
 30
0.0
 40
0
 41
0
  0
VERTEX
  8
0
 10
1.00271
 20
0.480849
 30
0.0
 40
0
 41
0
  0
SEQEND
 8
0
  0
POLYLINE
  8
0
 62
     13
 66
     1
 10
0
 20
0
 30
0.0
 70
     1
 40
0
 41
0
  0
VERTEX
  8
0
 10
0.36849
 20
0.744249
 30
0.0
 40
0
 41
0
  0
VERTEX
  8
0
 10
0.411404
 20
0.744249
 30
0.0
 40
0
 41
0
  0
VERTEX
  8
0
 10
0.411404
 20
0.699761
 30
0.0
 40
0
 41
0
  0
VERTEX
  8
0
 10
0.36849
 20
0.699761
 30
0.0
 40
0
 41
0
  0
VERTEX
  8
0
 10
0.36849
 20
0.744249
 30
0.0
 40
0
 41
0
  0
SEQEND
 8
0
  0
POLYLINE
  8
0
 62
     13
 66
     1
 10
0
 20
0
 30
0.0
 70
     1
 40
0
 41
0
  0
VERTEX
  8
0
 10
0.432563
 20
0.744249
 30
0.0
 40
0
 41
0
  0
VERTEX
  8
0
 10
0.475478
 20
0.744249
 30
0.0
 40
0
 41
0
  0
VERTEX
  8
0
 10
0.475478
 20
0.699761
 30
0.0
 40
0
 41
0
  0
VERTEX
  8
0
 10
0.432563
 20
0.699761
 30
0.0
 40
0
 41
0
  0
VERTEX
  8
0
 10
0.432563
 20
0.744249
 30
0.0
 40
0
 41
0
  0
SEQEND
 8
0
  0
POLYLINE
  8
0
 62
     13
 66
     1
 10
0
 20
0
 30
0.0
 70
     1
 40
0
 41
0
  0
VERTEX
  8
0
 10
1.44928
 20
0.491699
 30
0.0
 40
0
 41
0
  0
VERTEX
  8
0
 10
1.44928
 20
0.493707
 30
0.0
 40
0
 41
0
  0
VERTEX
  8
0
 10
1.44125
 20
0.499729
 30
0.0
 40
0
 41
0
  0
VERTEX
  8
0
 10
1.43326
 20
0.493707
 30
0.0
 40
0
 41
0
  0
VERTEX
  8
0
 10
1.43326
 20
0.491699
 30
0.0
 40
0
 41
0
  0
VERTEX
  8
0
 10
1.43326
 20
0.489746
 30
0.0
 40
0
 41
0
  0
VERTEX
  8
0
 10
1.44125
 20
0.483724
 30
0.0
 40
0
 41
0
  0
VERTEX
  8
0
 10
1.44928
 20
0.489746
 30
0.0
 40
0
 41
0
  0
VERTEX
  8
0
 10
1.44928
 20
0.491699
 30
0.0
 40
0
 41
0
  0
SEQEND
 8
0
  0
POLYLINE
  8
0
 62
     13
 66
     1
 10
0
 20
0
 30
0.0
 70
     1
 40
0
 41
0
  0
VERTEX
  8
0
 10
1.42231
 20
0.491699
 30
0.0
 40
0
 41
0
  0
VERTEX
  8
0
 10
1.42231
 20
0.493707
 30
0.0
 40
0
 41
0
  0
VERTEX
  8
0
 10
1.41428
 20
0.499729
 30
0.0
 40
0
 41
0
  0
VERTEX
  8
0
 10
1.40631
 20
0.493707
 30
0.0
 40
0
 41
0
  0
VERTEX
  8
0
 10
1.40631
 20
0.491699
 30
0.0
 40
0
 41
0
  0
VERTEX
  8
0
 10
1.40631
 20
0.489746
 30
0.0
 40
0
 41
0
  0
VERTEX
  8
0
 10
1.41428
 20
0.483724
 30
0.0
 40
0
 41
0
  0
VERTEX
  8
0
 10
1.42231
 20
0.489746
 30
0.0
 40
0
 41
0
  0
VERTEX
  8
0
 10
1.42231
 20
0.491699
 30
0.0
 40
0
 41
0
  0
SEQEND
 8
0
  0
POLYLINE
  8
0
 62
     13
 66
     1
 10
0
 20
0
 30
0.0
 70
     1
 40
0
 41
0
  0
VERTEX
  8
0
 10
1.44928
 20
0.676704
 30
0.0
 40
0
 41
0
  0
VERTEX
  8
0
 10
1.44928
 20
0.678711
 30
0.0
 40
0
 41
0
  0
VERTEX
  8
0
 10
1.44125
 20
0.684733
 30
0.0
 40
0
 41
0
  0
VERTEX
  8
0
 10
1.43326
 20
0.678711
 30
0.0
 40
0
 41
0
  0
VERTEX
  8
0
 10
1.43326
 20
0.676704
 30
0.0
 40
0
 41
0
  0
VERTEX
  8
0
 10
1.43326
 20
0.67475
 30
0.0
 40
0
 41
0
  0
VERTEX
  8
0
 10
1.44125
 20
0.668728
 30
0.0
 40
0
 41
0
  0
VERTEX
  8
0
 10
1.44928
 20
0.67475
 30
0.0
 40
0
 41
0
  0
VERTEX
  8
0
 10
1.44928
 20
0.676704
 30
0.0
 40
0
 41
0
  0
SEQEND
 8
0
  0
POLYLINE
  8
0
 62
     13
 66
     1
 10
0
 20
0
 30
0.0
 70
     1
 40
0
 41
0
  0
VERTEX
  8
0
 10
1.42231
 20
0.676704
 30
0.0
 40
0
 41
0
  0
VERTEX
  8
0
 10
1.42231
 20
0.678711
 30
0.0
 40
0
 41
0
  0
VERTEX
  8
0
 10
1.41428
 20
0.684733
 30
0.0
 40
0
 41
0
  0
VERTEX
  8
0
 10
1.40631
 20
0.678711
 30
0.0
 40
0
 41
0
  0
VERTEX
  8
0
 10
1.40631
 20
0.676704
 30
0.0
 40
0
 41
0
  0
VERTEX
  8
0
 10
1.40631
 20
0.67475
 30
0.0
 40
0
 41
0
  0
VERTEX
  8
0
 10
1.41428
 20
0.668728
 30
0.0
 40
0
 41
0
  0
VERTEX
  8
0
 10
1.42231
 20
0.67475
 30
0.0
 40
0
 41
0
  0
VERTEX
  8
0
 10
1.42231
 20
0.676704
 30
0.0
 40
0
 41
0
  0
SEQEND
 8
0
  0
POLYLINE
  8
0
 62
     13
 66
     1
 10
0
 20
0
 30
0.0
 70
     1
 40
0
 41
0
  0
VERTEX
  8
0
 10
1.44928
 20
0.737739
 30
0.0
 40
0
 41
0
  0
VERTEX
  8
0
 10
1.44928
 20
0.739746
 30
0.0
 40
0
 41
0
  0
VERTEX
  8
0
 10
1.44125
 20
0.745768
 30
0.0
 40
0
 41
0
  0
VERTEX
  8
0
 10
1.43326
 20
0.739746
 30
0.0
 40
0
 41
0
  0
VERTEX
  8
0
 10
1.43326
 20
0.737739
 30
0.0
 40
0
 41
0
  0
VERTEX
  8
0
 10
1.43326
 20
0.735786
 30
0.0
 40
0
 41
0
  0
VERTEX
  8
0
 10
1.44125
 20
0.729764
 30
0.0
 40
0
 41
0
  0
VERTEX
  8
0
 10
1.44928
 20
0.735786
 30
0.0
 40
0
 41
0
  0
VERTEX
  8
0
 10
1.44928
 20
0.737739
 30
0.0
 40
0
 41
0
  0
SEQEND
 8
0
  0
POLYLINE
  8
0
 62
     13
 66
     1
 10
0
 20
0
 30
0.0
 70
     1
 40
0
 41
0
  0
VERTEX
  8
0
 10
1.42231
 20
0.737739
 30
0.0
 40
0
 41
0
  0
VERTEX
  8
0
 10
1.42231
 20
0.739746
 30
0.0
 40
0
 41
0
  0
VERTEX
  8
0
 10
1.41428
 20
0.745768
 30
0.0
 40
0
 41
0
  0
VERTEX
  8
0
 10
1.40631
 20
0.739746
 30
0.0
 40
0
 41
0
  0
VERTEX
  8
0
 10
1.40631
 20
0.737739
 30
0.0
 40
0
 41
0
  0
VERTEX
  8
0
 10
1.40631
 20
0.735786
 30
0.0
 40
0
 41
0
  0
VERTEX
  8
0
 10
1.41428
 20
0.729764
 30
0.0
 40
0
 41
0
  0
VERTEX
  8
0
 10
1.42231
 20
0.735786
 30
0.0
 40
0
 41
0
  0
VERTEX
  8
0
 10
1.42231
 20
0.737739
 30
0.0
 40
0
 41
0
  0
SEQEND
 8
0
  0
POLYLINE
  8
0
 62
     13
 66
     1
 10
0
 20
0
 30
0.0
 70
     1
 40
0
 41
0
  0
VERTEX
  8
0
 10
1.44928
 20
0.922743
 30
0.0
 40
0
 41
0
  0
VERTEX
  8
0
 10
1.44928
 20
0.92475
 30
0.0
 40
0
 41
0
  0
VERTEX
  8
0
 10
1.44125
 20
0.930772
 30
0.0
 40
0
 41
0
  0
VERTEX
  8
0
 10
1.43326
 20
0.92475
 30
0.0
 40
0
 41
0
  0
VERTEX
  8
0
 10
1.43326
 20
0.922743
 30
0.0
 40
0
 41
0
  0
VERTEX
  8
0
 10
1.43326
 20
0.92079
 30
0.0
 40
0
 41
0
  0
VERTEX
  8
0
 10
1.44125
 20
0.914768
 30
0.0
 40
0
 41
0
  0
VERTEX
  8
0
 10
1.44928
 20
0.92079
 30
0.0
 40
0
 41
0
  0
VERTEX
  8
0
 10
1.44928
 20
0.922743
 30
0.0
 40
0
 41
0
  0
SEQEND
 8
0
  0
POLYLINE
  8
0
 62
     13
 66
     1
 10
0
 20
0
 30
0.0
 70
     1
 40
0
 41
0
  0
VERTEX
  8
0
 10
1.42231
 20
0.922743
 30
0.0
 40
0
 41
0
  0
VERTEX
  8
0
 10
1.42231
 20
0.92475
 30
0.0
 40
0
 41
0
  0
VERTEX
  8
0
 10
1.41428
 20
0.930772
 30
0.0
 40
0
 41
0
  0
VERTEX
  8
0
 10
1.40631
 20
0.92475
 30
0.0
 40
0
 41
0
  0
VERTEX
  8
0
 10
1.40631
 20
0.922743
 30
0.0
 40
0
 41
0
  0
VERTEX
  8
0
 10
1.40631
 20
0.92079
 30
0.0
 40
0
 41
0
  0
VERTEX
  8
0
 10
1.41428
 20
0.914768
 30
0.0
 40
0
 41
0
  0
VERTEX
  8
0
 10
1.42231
 20
0.92079
 30
0.0
 40
0
 41
0
  0
VERTEX
  8
0
 10
1.42231
 20
0.922743
 30
0.0
 40
0
 41
0
  0
SEQEND
 8
0
  0
POLYLINE
  8
0
 62
     13
 66
     1
 10
0
 20
0
 30
0.0
 70
     1
 40
0
 41
0
  0
VERTEX
  8
0
 10
1.44928
 20
0.983832
 30
0.0
 40
0
 41
0
  0
VERTEX
  8
0
 10
1.44928
 20
0.98584
 30
0.0
 40
0
 41
0
  0
VERTEX
  8
0
 10
1.44125
 20
0.991808
 30
0.0
 40
0
 41
0
  0
VERTEX
  8
0
 10
1.43326
 20
0.98584
 30
0.0
 40
0
 41
0
  0
VERTEX
  8
0
 10
1.43326
 20
0.983832
 30
0.0
 40
0
 41
0
  0
VERTEX
  8
0
 10
1.43326
 20
0.981879
 30
0.0
 40
0
 41
0
  0
VERTEX
  8
0
 10
1.44125
 20
0.975857
 30
0.0
 40
0
 41
0
  0
VERTEX
  8
0
 10
1.44928
 20
0.981879
 30
0.0
 40
0
 41
0
  0
VERTEX
  8
0
 10
1.44928
 20
0.983832
 30
0.0
 40
0
 41
0
  0
SEQEND
 8
0
  0
POLYLINE
  8
0
 62
     13
 66
     1
 10
0
 20
0
 30
0.0
 70
     1
 40
0
 41
0
  0
VERTEX
  8
0
 10
1.42231
 20
0.983832
 30
0.0
 40
0
 41
0
  0
VERTEX
  8
0
 10
1.42231
 20
0.98584
 30
0.0
 40
0
 41
0
  0
VERTEX
  8
0
 10
1.41428
 20
0.991808
 30
0.0
 40
0
 41
0
  0
VERTEX
  8
0
 10
1.40631
 20
0.98584
 30
0.0
 40
0
 41
0
  0
VERTEX
  8
0
 10
1.40631
 20
0.983832
 30
0.0
 40
0
 41
0
  0
VERTEX
  8
0
 10
1.40631
 20
0.981879
 30
0.0
 40
0
 41
0
  0
VERTEX
  8
0
 10
1.41428
 20
0.975857
 30
0.0
 40
0
 41
0
  0
VERTEX
  8
0
 10
1.42231
 20
0.981879
 30
0.0
 40
0
 41
0
  0
VERTEX
  8
0
 10
1.42231
 20
0.983832
 30
0.0
 40
0
 41
0
  0
SEQEND
 8
0
  0
POLYLINE
  8
0
 62
     13
 66
     1
 10
0
 20
0
 30
0.0
 70
     1
 40
0
 41
0
  0
VERTEX
  8
0
 10
1.44928
 20
1.16884
 30
0.0
 40
0
 41
0
  0
VERTEX
  8
0
 10
1.44928
 20
1.17084
 30
0.0
 40
0
 41
0
  0
VERTEX
  8
0
 10
1.44125
 20
1.17681
 30
0.0
 40
0
 41
0
  0
VERTEX
  8
0
 10
1.43326
 20
1.17084
 30
0.0
 40
0
 41
0
  0
VERTEX
  8
0
 10
1.43326
 20
1.16884
 30
0.0
 40
0
 41
0
  0
VERTEX
  8
0
 10
1.43326
 20
1.16688
 30
0.0
 40
0
 41
0
  0
VERTEX
  8
0
 10
1.44125
 20
1.16086
 30
0.0
 40
0
 41
0
  0
VERTEX
  8
0
 10
1.44928
 20
1.16688
 30
0.0
 40
0
 41
0
  0
VERTEX
  8
0
 10
1.44928
 20
1.16884
 30
0.0
 40
0
 41
0
  0
SEQEND
 8
0
  0
POLYLINE
  8
0
 62
     13
 66
     1
 10
0
 20
0
 30
0.0
 70
     1
 40
0
 41
0
  0
VERTEX
  8
0
 10
1.42231
 20
1.16884
 30
0.0
 40
0
 41
0
  0
VERTEX
  8
0
 10
1.42231
 20
1.17084
 30
0.0
 40
0
 41
0
  0
VERTEX
  8
0
 10
1.41428
 20
1.17681
 30
0.0
 40
0
 41
0
  0
VERTEX
  8
0
 10
1.40631
 20
1.17084
 30
0.0
 40
0
 41
0
  0
VERTEX
  8
0
 10
1.40631
 20
1.16884
 30
0.0
 40
0
 41
0
  0
VERTEX
  8
0
 10
1.40631
 20
1.16688
 30
0.0
 40
0
 41
0
  0
VERTEX
  8
0
 10
1.41428
 20
1.16086
 30
0.0
 40
0
 41
0
  0
VERTEX
  8
0
 10
1.42231
 20
1.16688
 30
0.0
 40
0
 41
0
  0
VERTEX
  8
0
 10
1.42231
 20
1.16884
 30
0.0
 40
0
 41
0
  0
SEQEND
 8
0
  0
POLYLINE
  8
0
 62
     13
 66
     1
 10
0
 20
0
 30
0.0
 70
     1
 40
0
 41
0
  0
VERTEX
  8
0
 10
1.41379
 20
0.507215
 30
0.0
 40
0
 41
0
  0
VERTEX
  8
0
 10
1.41086
 20
0.507215
 30
0.0
 40
0
 41
0
  0
VERTEX
  8
0
 10
1.40213
 20
0.502388
 30
0.0
 40
0
 41
0
  0
VERTEX
  8
0
 10
1.39828
 20
0.491699
 30
0.0
 40
0
 41
0
  0
VERTEX
  8
0
 10
1.40213
 20
0.481065
 30
0.0
 40
0
 41
0
  0
VERTEX
  8
0
 10
1.41086
 20
0.476183
 30
0.0
 40
0
 41
0
  0
VERTEX
  8
0
 10
1.41379
 20
0.476183
 30
0.0
 40
0
 41
0
  0
VERTEX
  8
0
 10
1.44179
 20
0.476183
 30
0.0
 40
0
 41
0
  0
VERTEX
  8
0
 10
1.44467
 20
0.476183
 30
0.0
 40
0
 41
0
  0
VERTEX
  8
0
 10
1.4534
 20
0.481065
 30
0.0
 40
0
 41
0
  0
VERTEX
  8
0
 10
1.45725
 20
0.491699
 30
0.0
 40
0
 41
0
  0
VERTEX
  8
0
 10
1.4534
 20
0.502388
 30
0.0
 40
0
 41
0
  0
VERTEX
  8
0
 10
1.44467
 20
0.507215
 30
0.0
 40
0
 41
0
  0
VERTEX
  8
0
 10
1.44179
 20
0.507215
 30
0.0
 40
0
 41
0
  0
VERTEX
  8
0
 10
1.41379
 20
0.507215
 30
0.0
 40
0
 41
0
  0
SEQEND
 8
0
  0
POLYLINE
  8
0
 62
     13
 66
     1
 10
0
 20
0
 30
0.0
 70
     1
 40
0
 41
0
  0
VERTEX
  8
0
 10
1.41379
 20
0.692219
 30
0.0
 40
0
 41
0
  0
VERTEX
  8
0
 10
1.41086
 20
0.692219
 30
0.0
 40
0
 41
0
  0
VERTEX
  8
0
 10
1.40213
 20
0.687392
 30
0.0
 40
0
 41
0
  0
VERTEX
  8
0
 10
1.39828
 20
0.676704
 30
0.0
 40
0
 41
0
  0
VERTEX
  8
0
 10
1.40213
 20
0.666069
 30
0.0
 40
0
 41
0
  0
VERTEX
  8
0
 10
1.41086
 20
0.661187
 30
0.0
 40
0
 41
0
  0
VERTEX
  8
0
 10
1.41379
 20
0.661187
 30
0.0
 40
0
 41
0
  0
VERTEX
  8
0
 10
1.44179
 20
0.661187
 30
0.0
 40
0
 41
0
  0
VERTEX
  8
0
 10
1.44467
 20
0.661187
 30
0.0
 40
0
 41
0
  0
VERTEX
  8
0
 10
1.4534
 20
0.666069
 30
0.0
 40
0
 41
0
  0
VERTEX
  8
0
 10
1.45725
 20
0.676704
 30
0.0
 40
0
 41
0
  0
VERTEX
  8
0
 10
1.4534
 20
0.687392
 30
0.0
 40
0
 41
0
  0
VERTEX
  8
0
 10
1.44467
 20
0.692219
 30
0.0
 40
0
 41
0
  0
VERTEX
  8
0
 10
1.44179
 20
0.692219
 30
0.0
 40
0
 41
0
  0
VERTEX
  8
0
 10
1.41379
 20
0.692219
 30
0.0
 40
0
 41
0
  0
SEQEND
 8
0
  0
POLYLINE
  8
0
 62
     13
 66
     1
 10
0
 20
0
 30
0.0
 70
     1
 40
0
 41
0
  0
VERTEX
  8
0
 10
1.41379
 20
0.753256
 30
0.0
 40
0
 41
0
  0
VERTEX
  8
0
 10
1.41086
 20
0.753256
 30
0.0
 40
0
 41
0
  0
VERTEX
  8
0
 10
1.40213
 20
0.748426
 30
0.0
 40
0
 41
0
  0
VERTEX
  8
0
 10
1.39828
 20
0.737793
 30
0.0
 40
0
 41
0
  0
VERTEX
  8
0
 10
1.40213
 20
0.72716
 30
0.0
 40
0
 41
0
  0
VERTEX
  8
0
 10
1.41086
 20
0.722276
 30
0.0
 40
0
 41
0
  0
VERTEX
  8
0
 10
1.41379
 20
0.722276
 30
0.0
 40
0
 41
0
  0
VERTEX
  8
0
 10
1.44179
 20
0.722276
 30
0.0
 40
0
 41
0
  0
VERTEX
  8
0
 10
1.44467
 20
0.722276
 30
0.0
 40
0
 41
0
  0
VERTEX
  8
0
 10
1.4534
 20
0.72716
 30
0.0
 40
0
 41
0
  0
VERTEX
  8
0
 10
1.45725
 20
0.737793
 30
0.0
 40
0
 41
0
  0
VERTEX
  8
0
 10
1.4534
 20
0.748426
 30
0.0
 40
0
 41
0
  0
VERTEX
  8
0
 10
1.44467
 20
0.753256
 30
0.0
 40
0
 41
0
  0
VERTEX
  8
0
 10
1.44179
 20
0.753256
 30
0.0
 40
0
 41
0
  0
VERTEX
  8
0
 10
1.41379
 20
0.753256
 30
0.0
 40
0
 41
0
  0
SEQEND
 8
0
  0
POLYLINE
  8
0
 62
     13
 66
     1
 10
0
 20
0
 30
0.0
 70
     1
 40
0
 41
0
  0
VERTEX
  8
0
 10
1.41379
 20
0.93826
 30
0.0
 40
0
 41
0
  0
VERTEX
  8
0
 10
1.41086
 20
0.93826
 30
0.0
 40
0
 41
0
  0
VERTEX
  8
0
 10
1.40213
 20
0.933431
 30
0.0
 40
0
 41
0
  0
VERTEX
  8
0
 10
1.39828
 20
0.922797
 30
0.0
 40
0
 41
0
  0
VERTEX
  8
0
 10
1.40213
 20
0.912164
 30
0.0
 40
0
 41
0
  0
VERTEX
  8
0
 10
1.41086
 20
0.907281
 30
0.0
 40
0
 41
0
  0
VERTEX
  8
0
 10
1.41379
 20
0.907281
 30
0.0
 40
0
 41
0
  0
VERTEX
  8
0
 10
1.44179
 20
0.907281
 30
0.0
 40
0
 41
0
  0
VERTEX
  8
0
 10
1.44467
 20
0.907281
 30
0.0
 40
0
 41
0
  0
VERTEX
  8
0
 10
1.4534
 20
0.912164
 30
0.0
 40
0
 41
0
  0
VERTEX
  8
0
 10
1.45725
 20
0.922797
 30
0.0
 40
0
 41
0
  0
VERTEX
  8
0
 10
1.4534
 20
0.933431
 30
0.0
 40
0
 41
0
  0
VERTEX
  8
0
 10
1.44467
 20
0.93826
 30
0.0
 40
0
 41
0
  0
VERTEX
  8
0
 10
1.44179
 20
0.93826
 30
0.0
 40
0
 41
0
  0
VERTEX
  8
0
 10
1.41379
 20
0.93826
 30
0.0
 40
0
 41
0
  0
SEQEND
 8
0
  0
POLYLINE
  8
0
 62
     13
 66
     1
 10
0
 20
0
 30
0.0
 70
     1
 40
0
 41
0
  0
VERTEX
  8
0
 10
1.41379
 20
0.999349
 30
0.0
 40
0
 41
0
  0
VERTEX
  8
0
 10
1.41086
 20
0.999349
 30
0.0
 40
0
 41
0
  0
VERTEX
  8
0
 10
1.40213
 20
0.994521
 30
0.0
 40
0
 41
0
  0
VERTEX
  8
0
 10
1.39828
 20
0.983832
 30
0.0
 40
0
 41
0
  0
VERTEX
  8
0
 10
1.40213
 20
0.973199
 30
0.0
 40
0
 41
0
  0
VERTEX
  8
0
 10
1.41086
 20
0.968317
 30
0.0
 40
0
 41
0
  0
VERTEX
  8
0
 10
1.41379
 20
0.968317
 30
0.0
 40
0
 41
0
  0
VERTEX
  8
0
 10
1.44179
 20
0.968317
 30
0.0
 40
0
 41
0
  0
VERTEX
  8
0
 10
1.44467
 20
0.968317
 30
0.0
 40
0
 41
0
  0
VERTEX
  8
0
 10
1.4534
 20
0.973199
 30
0.0
 40
0
 41
0
  0
VERTEX
  8
0
 10
1.45725
 20
0.983832
 30
0.0
 40
0
 41
0
  0
VERTEX
  8
0
 10
1.4534
 20
0.994521
 30
0.0
 40
0
 41
0
  0
VERTEX
  8
0
 10
1.44467
 20
0.999349
 30
0.0
 40
0
 41
0
  0
VERTEX
  8
0
 10
1.44179
 20
0.999349
 30
0.0
 40
0
 41
0
  0
VERTEX
  8
0
 10
1.41379
 20
0.999349
 30
0.0
 40
0
 41
0
  0
SEQEND
 8
0
  0
POLYLINE
  8
0
 62
     13
 66
     1
 10
0
 20
0
 30
0.0
 70
     1
 40
0
 41
0
  0
VERTEX
  8
0
 10
1.41379
 20
1.1843
 30
0.0
 40
0
 41
0
  0
VERTEX
  8
0
 10
1.41086
 20
1.1843
 30
0.0
 40
0
 41
0
  0
VERTEX
  8
0
 10
1.40213
 20
1.17947
 30
0.0
 40
0
 41
0
  0
VERTEX
  8
0
 10
1.39828
 20
1.16884
 30
0.0
 40
0
 41
0
  0
VERTEX
  8
0
 10
1.40213
 20
1.1582
 30
0.0
 40
0
 41
0
  0
VERTEX
  8
0
 10
1.41086
 20
1.15332
 30
0.0
 40
0
 41
0
  0
VERTEX
  8
0
 10
1.41379
 20
1.15332
 30
0.0
 40
0
 41
0
  0
VERTEX
  8
0
 10
1.44179
 20
1.15332
 30
0.0
 40
0
 41
0
  0
VERTEX
  8
0
 10
1.44467
 20
1.15332
 30
0.0
 40
0
 41
0
  0
VERTEX
  8
0
 10
1.4534
 20
1.1582
 30
0.0
 40
0
 41
0
  0
VERTEX
  8
0
 10
1.45725
 20
1.16884
 30
0.0
 40
0
 41
0
  0
VERTEX
  8
0
 10
1.4534
 20
1.17947
 30
0.0
 40
0
 41
0
  0
VERTEX
  8
0
 10
1.44467
 20
1.1843
 30
0.0
 40
0
 41
0
  0
VERTEX
  8
0
 10
1.44179
 20
1.1843
 30
0.0
 40
0
 41
0
  0
VERTEX
  8
0
 10
1.41379
 20
1.1843
 30
0.0
 40
0
 41
0
  0
SEQEND
 8
0
  0
ENDSEC
  0
EOF
