G04 ================== begin FILE IDENTIFICATION RECORD ==================*
G04 Layout Name:  design3.brd*
G04 Film Name:    BOTTOM*
G04 File Format:  Gerber RS274X*
G04 File Origin:  Cadence Allegro 17.4-S037*
G04 Origin Date:  Tue Aug  8 18:28:54 2023*
G04 *
G04 Layer:  ETCH/BOTTOM*
G04 Layer:  PIN/BOTTOM*
G04 Layer:  VIA CLASS/BOTTOM*
G04 *
G04 Offset:    (0.0000 0.0000)*
G04 Mirror:    No*
G04 Mode:      Positive*
G04 Rotation:  0*
G04 FullContactRelief:  No*
G04 UndefLineWidth:     0.0000*
G04 ================== end FILE IDENTIFICATION RECORD ====================*
%FSLAX25Y25*MOMM*%
%IR0*IPPOS*OFA0.00000B0.00000*MIA0B0*SFA1.00000B1.00000*%
%ADD23C,.4064*%
%ADD11C,.6096*%
%ADD22R,1.7018X.8128*%
%ADD20R,.8128X1.7018*%
%ADD25R,1.397X.8128*%
%ADD19R,1.1684X.4572*%
%ADD13R,.889X1.2954*%
%ADD24O,1.4986X.7874*%
%ADD10R,1.5999X.8555*%
%ADD15R,.8555X1.5999*%
%ADD18C,2.*%
%ADD14R,.7112X.254*%
%ADD12C,1.3208*%
%ADD21R,3.7084X3.7084*%
%ADD17R,.8382X.889*%
%ADD16R,.889X.8382*%
%ADD26C,.2*%
%ADD27C,.25*%
G75*
%LPD*%
G75*
G54D10*
X40575000Y21122220D03*
Y21427780D03*
X40825000Y21122220D03*
Y21427780D03*
X41100000Y21122220D03*
Y21427780D03*
X41500000Y21572220D03*
X41250000D03*
X41500000Y21877780D03*
X41250000D03*
X42650000Y21647220D03*
Y21952780D03*
X43300000Y22322220D03*
Y22847220D03*
Y22627780D03*
Y23152780D03*
Y24397220D03*
Y24702780D03*
X43550000Y24397220D03*
Y24702780D03*
G54D20*
X42460300Y21125000D03*
X42739700D03*
X43310300Y24200000D03*
X43589700D03*
G54D11*
X40514670Y22200000D03*
X40335300Y23075000D03*
X40550000Y24350000D03*
X40785330Y22295000D03*
X41100000Y21125000D03*
X40914910Y21275000D03*
X41085090D03*
X41175000Y23175000D03*
X41100000Y23975000D03*
Y24525000D03*
X41125000Y25050000D03*
X41397220Y21175000D03*
X41500000Y21575000D03*
Y21877780D03*
X41250000Y22125000D03*
X41225000Y22400000D03*
X41350000Y24750000D03*
X41850000Y21125000D03*
X41650000Y21575000D03*
X41825000Y21325000D03*
X41702780Y21347220D03*
X41550000Y23075000D03*
X41839700D03*
X41548370Y24498370D03*
X41825000Y24360300D03*
X41950000Y21325000D03*
X42125000Y21300220D03*
X41900000Y21600000D03*
X41950000Y21900000D03*
X41925000Y21750000D03*
Y22525000D03*
X42125000D03*
X42050000Y22700000D03*
X42500000Y21600000D03*
X42204230Y21604220D03*
X42507220Y21900000D03*
X42350000Y21625000D03*
X42397220Y22125000D03*
X42200000Y22700000D03*
X42825000Y21325000D03*
X42650000Y21647220D03*
X42575000Y22725000D03*
X42825000D03*
X42700000D03*
X42922220Y21952780D03*
X43058090Y22733090D03*
X42900000Y23010300D03*
Y23289700D03*
X42925000Y23725000D03*
X42900000Y24498370D03*
X43350000Y21160300D03*
Y21439700D03*
X43285300Y21625000D03*
X43300000Y22147220D03*
X43400000Y22725000D03*
X43300000Y22627780D03*
Y22847220D03*
Y23150000D03*
X43650000Y22725000D03*
X43672220Y22847220D03*
Y23372220D03*
X43500000Y23675000D03*
G54D21*
X42349570Y23853920D03*
G54D12*
X40550000Y24750000D03*
X40750000D03*
G54D13*
X40650000Y25075000D03*
G54D22*
X43350000Y21160300D03*
Y21439700D03*
G54D14*
X40549670Y25150000D03*
Y25100000D03*
Y25050000D03*
Y25000000D03*
X40750330D03*
Y25050000D03*
Y25100000D03*
Y25150000D03*
G54D23*
X43764040Y21990050D03*
X43695460D03*
X43764040Y22459950D03*
X43695460D03*
X43764040Y22615050D03*
X43695460D03*
X43764040Y23084950D03*
X43695460D03*
X43764040Y23240050D03*
X43695460D03*
X43764040Y23709950D03*
X43695460D03*
G54D15*
X41397220Y21175000D03*
X41702780D03*
X43297220Y23950000D03*
X43602780D03*
G54D24*
X43729750Y21990050D03*
Y22459950D03*
Y22615050D03*
Y23084950D03*
Y23240050D03*
Y23709950D03*
G54D16*
X41501500Y22866910D03*
X41628500D03*
X41755500D03*
X41882500D03*
X42009500D03*
X42136500D03*
X42263500D03*
X42390500D03*
X42517500D03*
X42644500D03*
X42771500D03*
X42898500D03*
G54D25*
X43675140Y22110060D03*
Y22225000D03*
Y22339940D03*
Y22735060D03*
Y22850000D03*
Y22964940D03*
Y23360060D03*
Y23475000D03*
Y23589940D03*
G54D26*
G01X40550000Y24350000D02*
X40400000Y24500000D01*
Y25025000D01*
X40425000Y25050000D01*
X40549670D01*
G01X41341910Y24498370D02*
Y24495830D01*
X41096080Y24250000D01*
X40550000D01*
X40350000Y24450000D01*
Y25050000D01*
X40400000Y25100000D01*
X40549670D01*
G01X41341910Y24371370D02*
Y24368830D01*
X41148080Y24175000D01*
X40550000D01*
X40300000Y24425000D01*
Y25075000D01*
X40375000Y25150000D01*
X40549670D01*
G01X41100000Y21125000D02*
X40930480D01*
X40927700Y21122220D01*
X40825000D01*
G01X40575000D02*
X40825000D01*
G01Y21427780D02*
X41100000D01*
G01X40575000D02*
X40825000D01*
G01X40785330Y22295000D02*
X41020000D01*
X41125000Y22400000D01*
X41225000D01*
G01X40549670Y25050000D02*
X40625000D01*
X40650000Y25075000D01*
G01D02*
Y25100000D01*
X40700000Y25150000D01*
X40750330D01*
G01X40650000Y25075000D02*
Y25069960D01*
X40719960Y25000000D01*
X40750330D01*
G01X41100000Y21427780D02*
X41202700D01*
X41250000Y21475080D01*
Y21572220D01*
G01X41500000D02*
X41250000D01*
G01X41341910Y22974370D02*
X41449370D01*
X41550000Y23075000D01*
G01X41750000Y23550000D02*
X41650000D01*
X41463630Y23736370D01*
X41341910D01*
G01X41950000Y23375000D02*
X41700000D01*
X41465630Y23609370D01*
X41341910D01*
G01X41750000Y23900000D02*
X41627300D01*
X41536930Y23990370D01*
X41341910D01*
G01X41975000Y23725000D02*
X41700000D01*
X41561630Y23863370D01*
X41341910D01*
G01Y24117370D02*
X41469670D01*
X41502300Y24150000D01*
X41625000D01*
G01X41341910Y24244370D02*
X41406520D01*
X41462150Y24300000D01*
X41725000D01*
X41875000Y24150000D01*
G01X41341910Y24498370D02*
X41548370D01*
G01X41825000Y24360300D02*
X41771820D01*
X41760750Y24371370D01*
X41341910D01*
G01X41350000Y24750000D02*
Y24633460D01*
X41341910Y24625370D01*
G01X42349570Y24750000D02*
X41350000D01*
G01X41702780Y21175000D02*
Y21347220D01*
G01X41628500Y22866910D02*
Y21871500D01*
X41900000Y21600000D01*
G01X41755500Y22866910D02*
Y21919500D01*
X41925000Y21750000D01*
G01X41986970Y21125000D02*
X41850000D01*
G01X41882500Y22866910D02*
X41879960D01*
X41821990Y22808940D01*
Y22028010D01*
X41950000Y21900000D01*
G01X41925000Y22525000D02*
X42125000D01*
G01X42136500Y22866910D02*
Y22763500D01*
X42200000Y22700000D01*
G01X42009500Y22866910D02*
Y22740500D01*
X42050000Y22700000D01*
G01X42460300Y21125000D02*
X42213030D01*
G01X42349570Y24750000D02*
Y23853920D01*
G01X43058090Y24625370D02*
Y24627910D01*
X42936000Y24750000D01*
X42349570D01*
G01X42739700Y21125000D02*
Y21239700D01*
X42825000Y21325000D01*
G01X42650000Y21952780D02*
X42922220D01*
G01X43058090Y22974370D02*
Y22733090D01*
G01X42900000Y23010300D02*
Y22933020D01*
X42898500Y22931520D01*
Y22866910D01*
G01X42925000Y23725000D02*
X42993480Y23656520D01*
Y23174510D01*
X43000000Y23167990D01*
Y23162000D01*
X43058090Y23103910D01*
Y23101370D01*
G01Y23863370D02*
X43121460Y23800000D01*
X43375000D01*
X43500000Y23675000D01*
G01X43675140Y22850000D02*
X43645930D01*
X43500000Y22995930D01*
Y23425000D01*
X43188630Y23736370D01*
X43058090D01*
G01X43525000Y22345930D02*
Y22900000D01*
X43450000Y22975000D01*
Y23375000D01*
X43215630Y23609370D01*
X43058090D01*
G01X42900000Y24498370D02*
X43058090D01*
G01D02*
X43152560D01*
X43253710Y24397220D01*
X43300000D01*
G01X43058090Y24371370D02*
X43138930D01*
X43209150Y24301150D01*
X43253600D01*
X43310300Y24244450D01*
Y24200000D01*
G01X43058090Y24625370D02*
X43176300D01*
X43253710Y24702780D01*
X43300000D01*
G01Y22322220D02*
X43501290D01*
X43525000Y22345930D01*
G01X43310300Y24200000D02*
Y24065780D01*
X43297220Y24052700D01*
Y23950000D01*
G01X43550000Y24397220D02*
X43300000D01*
G01X43550000Y24702780D02*
X43300000D01*
G01X43675140Y22110060D02*
X43767690D01*
X43800000Y22142370D01*
Y22307630D01*
G01D02*
X43767690Y22339940D01*
X43675140D01*
G01Y22225000D02*
X43645930D01*
X43525000Y22345930D01*
G01X43675140Y22735060D02*
X43767690D01*
X43800000Y22767370D01*
G01Y22932630D02*
X43767690Y22964940D01*
X43675140D01*
G01X43800000Y23392370D02*
X43767690Y23360060D01*
X43675140D01*
G01X43500000Y23675000D02*
Y23621820D01*
X43512610Y23609210D01*
Y23608320D01*
X43645930Y23475000D01*
X43675140D01*
G01Y23589940D02*
X43767690D01*
X43800000Y23557630D01*
Y23392370D01*
G01X43602780Y23950000D02*
Y23662300D01*
X43675140Y23589940D01*
G01X43602780Y23950000D02*
Y23987220D01*
X43700000Y24084440D01*
Y24655480D01*
X43652700Y24702780D01*
X43550000D01*
G01X43589700Y24200000D02*
Y24357520D01*
X43550000Y24397220D01*
G01X43800000Y22307630D02*
Y22400000D01*
X43827380Y22427380D01*
Y22485670D01*
X43800000Y22513050D01*
Y22561950D01*
X43827380Y22589330D01*
Y22640770D01*
X43800000Y22668150D01*
Y22767370D01*
G01D02*
Y22932630D01*
G01D02*
Y23025000D01*
X43827380Y23052380D01*
Y23110670D01*
X43800000Y23138050D01*
Y23186950D01*
X43827380Y23214330D01*
Y23265770D01*
X43800000Y23293150D01*
Y23392370D01*
G54D17*
X41341910Y23228370D03*
Y23101370D03*
Y22974370D03*
Y23482370D03*
Y23355370D03*
Y23863370D03*
Y23736370D03*
Y23609370D03*
Y24117370D03*
Y23990370D03*
Y24498370D03*
Y24371370D03*
Y24244370D03*
Y24625370D03*
X43058090Y22974370D03*
Y23101370D03*
Y23228370D03*
Y23355370D03*
Y23482370D03*
Y23609370D03*
Y23736370D03*
Y23863370D03*
Y23990370D03*
Y24117370D03*
Y24244370D03*
Y24371370D03*
Y24498370D03*
Y24625370D03*
G54D27*
G01X41250000Y22125000D02*
X41150000D01*
X41025000Y22000000D01*
X40714670D01*
X40514670Y22200000D01*
G01X41100000Y24525000D02*
X40600000D01*
X40550000Y24575000D01*
Y24750000D01*
G01D02*
X40614520Y24814520D01*
X40648750D01*
X40811090Y24976860D01*
Y25023140D01*
X40784230Y25050000D01*
G01X40750330Y25100000D02*
Y25050000D01*
G01X40784230D02*
X41125000D01*
G01X40750330D02*
X40784230D01*
G01X41500000Y21877780D02*
X41250000D01*
G54D18*
X41750000Y23550000D03*
Y23900000D03*
X41875000Y24150000D03*
X41625000D03*
X41950000Y23375000D03*
X41975000Y23725000D03*
X43600000Y25200000D03*
Y24950000D03*
G54D19*
X41986970Y21125000D03*
X42213030D03*
M02*
