G04 ================== begin FILE IDENTIFICATION RECORD ==================*
G04 Layout Name:  temp.brd*
G04 Film Name:    SIGNAL1*
G04 File Format:  Gerber RS274X*
G04 File Origin:  Cadence Allegro 17.4-S037*
G04 Origin Date:  Wed Oct 18 21:54:26 2023*
G04 *
G04 Layer:  ETCH/SIGNAL1*
G04 Layer:  PIN/SIGNAL1*
G04 Layer:  VIA CLASS/SIGNAL1*
G04 *
G04 Offset:    (0.0000 0.0000)*
G04 Mirror:    No*
G04 Mode:      Positive*
G04 Rotation:  0*
G04 FullContactRelief:  No*
G04 UndefLineWidth:     0.0000*
G04 ================== end FILE IDENTIFICATION RECORD ====================*
%FSLAX25Y25*MOMM*%
%IR0*IPPOS*OFA0.00000B0.00000*MIA0B0*SFA1.00000B1.00000*%
%ADD13C,.4064*%
%ADD10C,.6096*%
%ADD14O,1.4986X.7874*%
%ADD12C,2.*%
%ADD11C,1.3208*%
%ADD15C,.2*%
%ADD16C,.25*%
%ADD18C,.864*%
%ADD17C,2.3004*%
%ADD19C,1.5752*%
G75*
%LPD*%
G75*
G36*
G01X40234140Y25346730D02*
X43924790D01*
Y20948170D01*
X40234140D01*
Y25346730D01*
G37*
%LPC*%
G75*
G36*
G01X43694190Y23762040D02*
X43765310D01*
G02Y23657860I0J-52090D01*
G01X43694190D01*
G02Y23762040I0J52090D01*
G37*
G36*
G01Y23292140D02*
X43765310D01*
G02Y23187960I0J-52090D01*
G01X43694190D01*
G02Y23292140I0J52090D01*
G37*
G36*
G01Y23137040D02*
X43765310D01*
G02Y23032860I0J-52090D01*
G01X43694190D01*
G02Y23137040I0J52090D01*
G37*
G36*
G01Y22667140D02*
X43765310D01*
G02Y22562960I0J-52090D01*
G01X43694190D01*
G02Y22667140I0J52090D01*
G37*
G36*
G01Y22512040D02*
X43765310D01*
G02Y22407860I0J-52090D01*
G01X43694190D01*
G02Y22512040I0J52090D01*
G37*
G36*
G01Y22042140D02*
X43765310D01*
G02Y21937960I0J-52090D01*
G01X43694190D01*
G02Y22042140I0J52090D01*
G37*
G36*
G01X41189160Y23850170D02*
X41107030Y23932310D01*
X41104610Y23932050D01*
G02X41100000Y23931800I-4641J42948D01*
G02X41143200Y23975000I0J43200D01*
G02X41142950Y23970390I-43198J31D01*
G01X41142690Y23967970D01*
X41232210Y23878450D01*
G02X41239600Y23860620I-17828J-17836D01*
G01Y23214380D01*
G02X41232210Y23196550I-25218J6D01*
G01X41217690Y23182030D01*
X41217950Y23179610D01*
G02X41218200Y23175000I-42948J-4641D01*
G02X41175000Y23131800I-43200J0D01*
G02X41139930Y23149780I0J43192D01*
G01X40585450D01*
X40492830Y23057170D01*
G02X40475000Y23049780I-17836J17828D01*
G01X40370370D01*
G02X40335300Y23031800I-35070J25212D01*
G02Y23118200I0J43200D01*
G02X40370370Y23100220I0J-43192D01*
G01X40464550D01*
X40557170Y23192830D01*
G02X40575000Y23200220I17836J-17828D01*
G01X41139930D01*
G02X41175000Y23218200I35070J-25212D01*
G02X41179610Y23217950I-31J-43198D01*
G01X41182030Y23217690D01*
X41189160Y23224830D01*
Y23850170D01*
G37*
G36*
G01X42530290Y24337580D02*
X41861740D01*
G02X41825000Y24317100I-36740J22715D01*
G02Y24403500I0J43200D01*
G02X41861740Y24383020I0J-43195D01*
G01X42539700D01*
G02X42555770Y24376370I8J-22723D01*
G01X42716070Y24216070D01*
G02X42722720Y24200000I-16073J-16062D01*
G01Y22761740D01*
G02X42743200Y22725000I-22715J-36740D01*
G02X42656800I-43200J0D01*
G02X42677280Y22761740I43195J0D01*
G01Y24190590D01*
X42530290Y24337580D01*
G37*
G36*
G01X41673590Y21315370D02*
G02X41659580Y21347220I29199J31850D01*
G02X41745980I43200J0D01*
G02X41731970Y21315370I-43209J0D01*
G03X41738830Y21297720I6862J-7491D01*
G01X41765590D01*
X41782890Y21315020D01*
X41782440Y21317610D01*
G02X41781800Y21325000I42558J7408D01*
G02X41825000Y21281800I43200J0D01*
G02X41817610Y21282440I18J43198D01*
G01X41815020Y21282890D01*
X41791070Y21258930D01*
G02X41775000Y21252280I-16062J16073D01*
G01X41121830D01*
G02X41085090Y21231800I-36740J22715D01*
G02Y21318200I0J43200D01*
G02X41121830Y21297720I0J-43195D01*
G01X41666730D01*
G03X41673590Y21315370I-2J10159D01*
G37*
G36*
G01X42457890Y21590020D02*
X42457440Y21592610D01*
G02X42456800Y21600000I42558J7408D01*
G02X42500000Y21556800I43200J0D01*
G02X42492610Y21557440I18J43198D01*
G01X42490020Y21557890D01*
X42441070Y21508930D01*
G02X42425000Y21502280I-16062J16073D01*
G01X41800000D01*
G02X41783930Y21508930I-8J22723D01*
G01X41740590Y21552280D01*
X41686740D01*
G02X41650000Y21531800I-36740J22715D01*
G02Y21618200I0J43200D01*
G02X41686740Y21597720I0J-43195D01*
G01X41750000D01*
G02X41766070Y21591070I8J-22723D01*
G01X41809410Y21547720D01*
X41867240D01*
G03X41873480Y21565900I2J10160D01*
G02X41856800Y21600000I26516J34100D01*
G02X41943200I43200J0D01*
G02X41926520Y21565900I-43196J0D01*
G03X41932760Y21547720I6238J-8020D01*
G01X42415590D01*
X42457890Y21590020D01*
G37*
G36*
G01X42177280Y22663260D02*
G02X42156800Y22700000I22715J36740D01*
G02X42243200I43200J0D01*
G02X42222720Y22663260I-43195J0D01*
G01Y21784410D01*
X42340020Y21667110D01*
X42342610Y21667560D01*
G02X42350000Y21668200I7408J-42558D01*
G02X42306800Y21625000I0J-43200D01*
G02X42307440Y21632390I43198J-18D01*
G01X42307890Y21634980D01*
X42183930Y21758930D01*
G02X42177280Y21775000I16073J16062D01*
G01Y22492240D01*
G03X42159100Y22498480I-10160J2D01*
G02X42090900I-34100J26516D01*
G03X42072720Y22492240I-8020J-6238D01*
G01Y21834410D01*
X42166070Y21741070D01*
G02X42172720Y21725000I-16073J-16062D01*
G01Y21667860D01*
X42194250Y21646330D01*
X42196840Y21646780D01*
G02X42204230Y21647420I7408J-42558D01*
G02X42161030Y21604220I0J-43200D01*
G02X42161670Y21611610I43198J-18D01*
G01X42162120Y21614200D01*
X42133930Y21642380D01*
G02X42127280Y21658450I16073J16062D01*
G01Y21715590D01*
X42033930Y21808930D01*
G02X42027280Y21825000I16073J16062D01*
G01Y22663260D01*
G02X42006800Y22700000I22715J36740D01*
G02X42093200I43200J0D01*
G02X42072720Y22663260I-43195J0D01*
G01Y22557760D01*
G03X42090900Y22551520I10160J-2D01*
G02X42159100I34100J-26516D01*
G03X42177280Y22557760I8020J6238D01*
G01Y22663260D01*
G37*
G54D18*
X41100000Y21125000D03*
X43350000Y21160300D03*
X41950000Y21325000D03*
X42125000Y21300220D03*
X42825000Y21325000D03*
X41500000Y21877780D03*
X41950000Y21900000D03*
X41925000Y21750000D03*
X42650000Y21647220D03*
X43285300Y21625000D03*
X40514670Y22200000D03*
X41250000Y22125000D03*
X42397220D03*
X40785330Y22295000D03*
X41225000Y22400000D03*
X41925000Y22525000D03*
X42825000Y22725000D03*
X43058090Y22733090D03*
X43300000Y22847220D03*
X43672220D03*
X41550000Y23075000D03*
X42900000Y23010300D03*
X42925000Y23725000D03*
X43500000Y23675000D03*
X41100000Y24525000D03*
X41548370Y24498370D03*
X42900000D03*
X41125000Y25050000D03*
G54D17*
X41750000Y23550000D03*
X41950000Y23375000D03*
X41750000Y23900000D03*
X41975000Y23725000D03*
X41875000Y24150000D03*
X41625000D03*
X43600000Y25200000D03*
Y24950000D03*
G54D19*
X40550000Y24750000D03*
X40750000D03*
%LPD*%
G75*
G54D10*
X40514670Y22200000D03*
X40335300Y23075000D03*
X40550000Y24350000D03*
X40785330Y22295000D03*
X41100000Y21125000D03*
X40914910Y21275000D03*
X41085090D03*
X41175000Y23175000D03*
X41100000Y23975000D03*
Y24525000D03*
X41125000Y25050000D03*
X41397220Y21175000D03*
X41500000Y21575000D03*
Y21877780D03*
X41250000Y22125000D03*
X41225000Y22400000D03*
X41350000Y24750000D03*
X41850000Y21125000D03*
X41650000Y21575000D03*
X41825000Y21325000D03*
X41702780Y21347220D03*
X41550000Y23075000D03*
X41839700D03*
X41548370Y24498370D03*
X41825000Y24360300D03*
X41950000Y21325000D03*
X42125000Y21300220D03*
X41900000Y21600000D03*
X41950000Y21900000D03*
X41925000Y21750000D03*
Y22525000D03*
X42125000D03*
X42050000Y22700000D03*
X42500000Y21600000D03*
X42204230Y21604220D03*
X42507220Y21900000D03*
X42350000Y21625000D03*
X42397220Y22125000D03*
X42200000Y22700000D03*
X42825000Y21325000D03*
X42650000Y21647220D03*
X42575000Y22725000D03*
X42825000D03*
X42700000D03*
X42922220Y21952780D03*
X43058090Y22733090D03*
X42900000Y23010300D03*
Y23289700D03*
X42925000Y23725000D03*
X42900000Y24498370D03*
X43350000Y21160300D03*
Y21439700D03*
X43285300Y21625000D03*
X43300000Y22147220D03*
X43400000Y22725000D03*
X43300000Y22627780D03*
Y22847220D03*
Y23150000D03*
X43650000Y22725000D03*
X43672220Y22847220D03*
Y23372220D03*
X43500000Y23675000D03*
G54D11*
X40550000Y24750000D03*
X40750000D03*
G54D12*
X41750000Y23550000D03*
Y23900000D03*
X41875000Y24150000D03*
X41625000D03*
X41950000Y23375000D03*
X41975000Y23725000D03*
X43600000Y25200000D03*
Y24950000D03*
G54D13*
X43764040Y21990050D03*
X43695460D03*
X43764040Y22459950D03*
X43695460D03*
X43764040Y22615050D03*
X43695460D03*
X43764040Y23084950D03*
X43695460D03*
X43764040Y23240050D03*
X43695460D03*
X43764040Y23709950D03*
X43695460D03*
G54D14*
X43729750Y21990050D03*
Y22459950D03*
Y22615050D03*
Y23084950D03*
Y23240050D03*
Y23709950D03*
G54D15*
G01X40750000Y24666160D02*
Y24750000D01*
G01D02*
Y24833840D01*
G01X40666160Y24750000D02*
X40750000D01*
G01D02*
X40833840D01*
G01X41085090Y21275000D02*
X41775000D01*
X41825000Y21325000D01*
G01X42500000Y21600000D02*
X42425000Y21525000D01*
X41800000D01*
X41750000Y21575000D01*
X41650000D01*
G01X42204230Y21604220D02*
X42150000Y21658450D01*
Y21725000D01*
X42050000Y21825000D01*
Y22700000D01*
G01X41825000Y24360300D02*
X42539700D01*
X42700000Y24200000D01*
Y22725000D01*
G01X42200000Y22700000D02*
Y21775000D01*
X42350000Y21625000D01*
G54D16*
G01X40335300Y23075000D02*
X40475000D01*
X40575000Y23175000D01*
X41175000D01*
G01X41100000Y23975000D02*
X41214380Y23860620D01*
Y23214380D01*
X41175000Y23175000D01*
M02*
