G04 ================== begin FILE IDENTIFICATION RECORD ==================*
G04 Layout Name:  design3.brd*
G04 Film Name:    SIGNAL2*
G04 File Format:  Gerber RS274X*
G04 File Origin:  Cadence Allegro 17.4-S037*
G04 Origin Date:  Tue Aug  8 18:28:54 2023*
G04 *
G04 Layer:  ETCH/SIGNAL2*
G04 Layer:  PIN/SIGNAL2*
G04 Layer:  VIA CLASS/SIGNAL2*
G04 *
G04 Offset:    (0.0000 0.0000)*
G04 Mirror:    No*
G04 Mode:      Positive*
G04 Rotation:  0*
G04 FullContactRelief:  No*
G04 UndefLineWidth:     0.0000*
G04 ================== end FILE IDENTIFICATION RECORD ====================*
%FSLAX25Y25*MOMM*%
%IR0*IPPOS*OFA0.00000B0.00000*MIA0B0*SFA1.00000B1.00000*%
%ADD13C,.4064*%
%ADD10C,.6096*%
%ADD14O,1.4986X.7874*%
%ADD12C,2.*%
%ADD11C,1.3208*%
%ADD15C,.2*%
%ADD16C,.864*%
%ADD17C,2.3004*%
%ADD18C,1.5752*%
G75*
%LPD*%
G75*
G36*
G01X43925000Y20950000D02*
X40250000D01*
Y25350000D01*
X43925000D01*
Y20950000D01*
G37*
%LPC*%
G75*
G36*
G01X42592220Y24475650D02*
X41585110D01*
G02X41548370Y24455170I-36740J22715D01*
G02Y24541570I0J43200D01*
G02X41585110Y24521090I0J-43195D01*
G01X42601630D01*
G02X42617700Y24514440I8J-22723D01*
G01X42791070Y24341070D01*
G02X42797720Y24325000I-16073J-16062D01*
G01Y22784410D01*
X42815020Y22767110D01*
X42817610Y22767560D01*
G02X42825000Y22768200I7408J-42558D01*
G02X42781800Y22725000I0J-43200D01*
G02X42782440Y22732390I43198J-18D01*
G01X42782890Y22734980D01*
X42758930Y22758930D01*
G02X42752280Y22775000I16073J16062D01*
G01Y24315590D01*
X42592220Y24475650D01*
G37*
G36*
G01X41758930Y22141070D02*
G02X41775000Y22147720I16062J-16073D01*
G01X42360480D01*
G02X42397220Y22168200I36740J-22715D01*
G02Y22081800I0J-43200D01*
G02X42360480Y22102280I0J43195D01*
G01X41784410D01*
X41672720Y21990590D01*
Y21611740D01*
G02X41693200Y21575000I-22715J-36740D01*
G02X41650000Y21531800I-43200J0D01*
G02X41642610Y21532440I18J43198D01*
G01X41640020Y21532890D01*
X41216070Y21108930D01*
G02X41200000Y21102280I-16062J16073D01*
G01X41136740D01*
G02X41100000Y21081800I-36740J22715D01*
G02Y21168200I0J43200D01*
G02X41136740Y21147720I0J-43195D01*
G01X41190590D01*
X41607890Y21565020D01*
X41607440Y21567610D01*
G02X41606800Y21575000I42558J7408D01*
G02X41627280Y21611740I43195J0D01*
G01Y22000000D01*
G02X41633930Y22016070I22723J8D01*
G01X41758930Y22141070D01*
G37*
G36*
G01X43694190Y22042140D02*
X43765310D01*
G02Y21937960I0J-52090D01*
G01X43694190D01*
G02Y22042140I0J52090D01*
G37*
G36*
G01Y22512040D02*
X43765310D01*
G02Y22407860I0J-52090D01*
G01X43694190D01*
G02Y22512040I0J52090D01*
G37*
G36*
G01Y22667140D02*
X43765310D01*
G02Y22562960I0J-52090D01*
G01X43694190D01*
G02Y22667140I0J52090D01*
G37*
G36*
G01Y23137040D02*
X43765310D01*
G02Y23032860I0J-52090D01*
G01X43694190D01*
G02Y23137040I0J52090D01*
G37*
G36*
G01Y23292140D02*
X43765310D01*
G02Y23187960I0J-52090D01*
G01X43694190D01*
G02Y23292140I0J52090D01*
G37*
G36*
G01Y23762040D02*
X43765310D01*
G02Y23657860I0J-52090D01*
G01X43694190D01*
G02Y23762040I0J52090D01*
G37*
G36*
G01X43333930Y25216070D02*
G02X43350000Y25222720I16062J-16073D01*
G01X43487170D01*
X43488100Y25226620D01*
G02X43600000Y25315020I111900J-26624D01*
G02Y25084980I0J-115020D01*
G02X43488100Y25173380I0J115024D01*
G01X43487170Y25177280D01*
X43359410D01*
X43165020Y24982890D01*
Y24821680D01*
G03X43182360Y24814490I10160J-2D01*
G01X43333930Y24966070D01*
G02X43350000Y24972720I16062J-16073D01*
G01X43487170D01*
X43488100Y24976620D01*
G02X43600000Y25065020I111900J-26624D01*
G02Y24834980I0J-115020D01*
G02X43488100Y24923380I0J115024D01*
G01X43487170Y24927280D01*
X43359410D01*
X43197720Y24765590D01*
Y22753090D01*
G02X43191070Y22737020I-22723J-8D01*
G01X43171070Y22717020D01*
G02X43155000Y22710370I-16062J16073D01*
G01X43094830D01*
G02X43058090Y22689890I-36740J22715D01*
G02Y22776290I0J43200D01*
G02X43094830Y22755810I0J-43195D01*
G01X43145590D01*
X43152280Y22762500D01*
Y24520620D01*
G03X43134940Y24527810I-10160J2D01*
G01X42947720Y24340590D01*
Y23761740D01*
G02X42968200Y23725000I-22715J-36740D01*
G02X42881800I-43200J0D01*
G02X42902280Y23761740I43195J0D01*
G01Y24350000D01*
G02X42908930Y24366070I22723J8D01*
G01X43119580Y24576710D01*
Y24992300D01*
G02X43126230Y25008370I22723J8D01*
G01X43333930Y25216070D01*
G37*
G36*
G01X42850890Y21222720D02*
X43243190Y21615020D01*
X43242740Y21617610D01*
G02X43242100Y21625000I42558J7408D01*
G02X43285300Y21581800I43200J0D01*
G02X43277910Y21582440I18J43198D01*
G01X43275320Y21582890D01*
X42892790Y21200360D01*
G03X42899980Y21183020I7188J-7180D01*
G01X43313260D01*
G02X43350000Y21203500I36740J-22715D01*
G02Y21117100I0J-43200D01*
G02X43313260Y21137580I0J43195D01*
G01X42061520D01*
G02X42045450Y21144230I-8J22723D01*
G01X41933930Y21255750D01*
G02X41927280Y21271820I16073J16062D01*
G01Y21288260D01*
G02X41906800Y21325000I22715J36740D01*
G02X41993200I43200J0D01*
G02X41974870Y21289680I-43194J0D01*
G01X41972720Y21288160D01*
Y21281230D01*
X42070930Y21183020D01*
X42185540D01*
G03X42192730Y21200360I2J10160D01*
G01X42134980Y21258110D01*
X42132390Y21257660D01*
G02X42125000Y21257020I-7408J42558D01*
G02X42168200Y21300220I0J43200D01*
G02X42167560Y21292830I-43198J18D01*
G01X42167110Y21290240D01*
X42234630Y21222720D01*
X42850890D01*
G37*
G54D16*
X42650000Y21647220D03*
X42825000Y21325000D03*
X41825000Y24360300D03*
X43500000Y23675000D03*
X41125000Y25050000D03*
X42900000Y24498370D03*
X41100000Y24525000D03*
X42900000Y23010300D03*
X41175000Y23175000D03*
X40335300Y23075000D03*
X43672220Y22847220D03*
X43300000D03*
X42200000Y22700000D03*
X42050000D03*
X42125000Y22525000D03*
X41925000D03*
X41225000Y22400000D03*
X40785330Y22295000D03*
X41250000Y22125000D03*
X40514670Y22200000D03*
X41925000Y21750000D03*
X41950000Y21900000D03*
X41500000Y21877780D03*
X42204230Y21604220D03*
X41900000Y21600000D03*
X41702780Y21347220D03*
X41825000Y21325000D03*
X41085090Y21275000D03*
X42700000Y22725000D03*
X41550000Y23075000D03*
X42500000Y21600000D03*
X42350000Y21625000D03*
X41100000Y23975000D03*
G54D17*
X41875000Y24150000D03*
X41625000D03*
X41975000Y23725000D03*
X41750000Y23900000D03*
X41950000Y23375000D03*
X41750000Y23550000D03*
G54D18*
X40750000Y24750000D03*
X40550000D03*
%LPD*%
G75*
G54D10*
X40514670Y22200000D03*
X40335300Y23075000D03*
X40550000Y24350000D03*
X40785330Y22295000D03*
X41100000Y21125000D03*
X40914910Y21275000D03*
X41085090D03*
X41175000Y23175000D03*
X41100000Y23975000D03*
Y24525000D03*
X41125000Y25050000D03*
X41397220Y21175000D03*
X41500000Y21575000D03*
Y21877780D03*
X41250000Y22125000D03*
X41225000Y22400000D03*
X41350000Y24750000D03*
X41850000Y21125000D03*
X41650000Y21575000D03*
X41825000Y21325000D03*
X41702780Y21347220D03*
X41550000Y23075000D03*
X41839700D03*
X41548370Y24498370D03*
X41825000Y24360300D03*
X41950000Y21325000D03*
X42125000Y21300220D03*
X41900000Y21600000D03*
X41950000Y21900000D03*
X41925000Y21750000D03*
Y22525000D03*
X42125000D03*
X42050000Y22700000D03*
X42500000Y21600000D03*
X42204230Y21604220D03*
X42507220Y21900000D03*
X42350000Y21625000D03*
X42397220Y22125000D03*
X42200000Y22700000D03*
X42825000Y21325000D03*
X42650000Y21647220D03*
X42575000Y22725000D03*
X42825000D03*
X42700000D03*
X42922220Y21952780D03*
X43058090Y22733090D03*
X42900000Y23010300D03*
Y23289700D03*
X42925000Y23725000D03*
X42900000Y24498370D03*
X43350000Y21160300D03*
Y21439700D03*
X43285300Y21625000D03*
X43300000Y22147220D03*
X43400000Y22725000D03*
X43300000Y22627780D03*
Y22847220D03*
Y23150000D03*
X43650000Y22725000D03*
X43672220Y22847220D03*
Y23372220D03*
X43500000Y23675000D03*
G54D11*
X40550000Y24750000D03*
X40750000D03*
G54D12*
X41750000Y23550000D03*
Y23900000D03*
X41875000Y24150000D03*
X41625000D03*
X41950000Y23375000D03*
X41975000Y23725000D03*
X43600000Y25200000D03*
Y24950000D03*
G54D13*
X43764040Y21990050D03*
X43695460D03*
X43764040Y22459950D03*
X43695460D03*
X43764040Y22615050D03*
X43695460D03*
X43764040Y23084950D03*
X43695460D03*
X43764040Y23240050D03*
X43695460D03*
X43764040Y23709950D03*
X43695460D03*
G54D14*
X43729750Y21990050D03*
Y22459950D03*
Y22615050D03*
Y23084950D03*
Y23240050D03*
Y23709950D03*
G54D15*
G01X40750000Y24666160D02*
Y24750000D01*
G01D02*
Y24833840D01*
G01X40666160Y24750000D02*
X40750000D01*
G01D02*
X40833840D01*
G01X41650000Y21575000D02*
X41200000Y21125000D01*
X41100000D01*
G01X41650000Y21575000D02*
Y22000000D01*
X41775000Y22125000D01*
X42397220D01*
G01X41548370Y24498370D02*
X42601630D01*
X42775000Y24325000D01*
Y22775000D01*
X42825000Y22725000D01*
G01X41950000Y21325000D02*
Y21271820D01*
X42061520Y21160300D01*
X43350000D01*
G01X42125000Y21300220D02*
X42225220Y21200000D01*
X42860300D01*
X43285300Y21625000D01*
G01X43600000Y24950000D02*
X43350000D01*
X43175000Y24775000D01*
Y22753090D01*
X43155000Y22733090D01*
X43058090D01*
G01X43600000Y25200000D02*
X43350000D01*
X43142300Y24992300D01*
Y24567300D01*
X42925000Y24350000D01*
Y23725000D01*
M02*
