G04 ================== begin FILE IDENTIFICATION RECORD ==================*
G04 Layout Name:  temp.brd*
G04 Film Name:    SILKSCREEN_TOP*
G04 File Format:  Gerber RS274X*
G04 File Origin:  Cadence Allegro 17.4-S037*
G04 Origin Date:  Wed Oct 18 21:54:26 2023*
G04 *
G04 Layer:  PACKAGE GEOMETRY/SILKSCREEN_TOP*
G04 Layer:  BOARD GEOMETRY/SILKSCREEN_TOP*
G04 *
G04 Offset:    (0.0000 0.0000)*
G04 Mirror:    No*
G04 Mode:      Positive*
G04 Rotation:  0*
G04 FullContactRelief:  No*
G04 UndefLineWidth:     0.1000*
G04 ================== end FILE IDENTIFICATION RECORD ====================*
%FSLAX25Y25*MOMM*%
%IR0*IPPOS*OFA0.00000B0.00000*MIA0B0*SFA1.00000B1.00000*%
%ADD10C,.127*%
%ADD11C,.1524*%
%ADD12C,.1*%
G75*
%LPD*%
G75*
G54D10*
G01X42150000Y24050000D02*
Y23650000D01*
X42550000D01*
Y24050000D01*
X42150000D01*
G01Y24028400D02*
X42550000D01*
G01X42150000Y24003000D02*
X42550000D01*
G01X42150000Y23977600D02*
X42550000D01*
G01X42150000Y23952200D02*
X42550000D01*
G01X42150000Y23926800D02*
X42550000D01*
G01X42150000Y23901400D02*
X42550000D01*
G01X42150000Y23876000D02*
X42550000D01*
G01X42150000Y23850600D02*
X42550000D01*
G01X42150000Y23825200D02*
X42550000D01*
G01X42150000Y23799800D02*
X42550000D01*
G01X42150000Y23774400D02*
X42550000D01*
G01X42150000Y23749000D02*
X42550000D01*
G01X42150000Y23723600D02*
X42550000D01*
G01X42150000Y23698200D02*
X42550000D01*
G01X42150000Y23672800D02*
X42550000D01*
G01X42164000Y23650000D02*
Y24050000D01*
G01X42189400Y23650000D02*
Y24050000D01*
G01X42214800Y23650000D02*
Y24050000D01*
G01X42240200Y23650000D02*
Y24050000D01*
G01X42265600Y23650000D02*
Y24050000D01*
G01X42291000Y23650000D02*
Y24050000D01*
G01X42316400Y23650000D02*
Y24050000D01*
G01X42341800Y23650000D02*
Y24050000D01*
G01X42367200Y23650000D02*
Y24050000D01*
G01X42392600Y23650000D02*
Y24050000D01*
G01X42418000Y23650000D02*
Y24050000D01*
G01X42443400Y23650000D02*
Y24050000D01*
G01X42468800Y23650000D02*
Y24050000D01*
G01X42494200Y23650000D02*
Y24050000D01*
G01X42519600Y23650000D02*
Y24050000D01*
G01X42545000Y23650000D02*
Y24050000D01*
G54D11*
G01X40431690Y21752210D02*
X40568310D01*
G01Y21947790D02*
X40431690D01*
G01X40543310Y23172790D02*
X40406690D01*
G01Y22977210D02*
X40543310D01*
G01X40554250Y23442700D02*
X40395750D01*
G01Y23257300D02*
X40554250D01*
G01X40342660Y24602300D02*
X40957340D01*
G01X40342660Y25387160D02*
Y24602300D01*
G01X40957340Y25387160D02*
X40342660D01*
G01X40696400Y21775000D02*
G02I-7620J0D01*
G01X40552210Y22032360D02*
X40747790D01*
G01X40695750Y22482300D02*
X40854250D01*
G01X40747790Y22367640D02*
X40552210D01*
G01X40854250Y22667700D02*
X40695750D01*
G01X40757360Y23047790D02*
Y22852210D01*
G01X40551880Y23502020D02*
X40948120D01*
G01X40551880Y24197980D02*
Y23502020D01*
G01X40948120Y24197980D02*
X40551880D01*
G01X40898490Y21612440D02*
X40951510D01*
G01X41152210Y22343310D02*
Y22206690D01*
G01X40951510Y21937560D02*
X40898490D01*
G01X41092640Y22852210D02*
Y23047790D01*
G01X40891210Y22852210D02*
X40958790D01*
G01X40948120Y23502020D02*
Y24197980D01*
G01X41127190Y23387720D02*
G02I-12700J0D01*
G01X41029250Y23442700D02*
X40870750D01*
G01Y23257300D02*
X41029250D01*
G01Y24442700D02*
X40870750D01*
G01Y24257300D02*
X41029250D01*
G01X40957340Y24602300D02*
Y25387160D01*
G01X41032300Y24979250D02*
Y24820750D01*
G01X41439820Y20942190D02*
X43010180D01*
G01X41287740Y21457810D02*
Y21162150D01*
G01X41454030Y21457810D02*
X41287740D01*
G01X41295750Y21807300D02*
X41454250D01*
G01Y21992700D02*
X41295750D01*
G01X41347790Y22206690D02*
Y22343310D01*
G01X41217700Y24820750D02*
Y24979250D01*
G01X41452210Y24693310D02*
Y24556690D01*
G01X41631690Y22977210D02*
X41768310D01*
G01Y23172790D02*
X41631690D01*
G01X41727210Y24568310D02*
Y24431690D01*
G01X41647790Y24556690D02*
Y24693310D01*
G01X41922790Y24431690D02*
Y24568310D01*
G01X42307900Y22627800D02*
Y22272200D01*
G01X42580750Y21824800D02*
X42619250D01*
G01X42470750Y22032300D02*
X42629250D01*
G01Y22217700D02*
X42470750D01*
G01X42619250Y21975200D02*
X42580750D01*
G01X43162260Y21457810D02*
X42995970D01*
G01X42957300Y22379250D02*
Y22220750D01*
G01X42892100Y22272200D02*
Y22627800D01*
G01X42847620Y22657640D02*
G02I-7620J0D01*
G01X42802210Y23218310D02*
Y23081690D01*
G01X42997790D02*
Y23218310D01*
G01X43162260Y21162150D02*
Y21457810D01*
G01X43356690Y21527210D02*
X43493310D01*
G01Y21722790D02*
X43356690D01*
G01X43142700Y22220750D02*
Y22379250D01*
G01X43392700Y22220750D02*
Y22379250D01*
G01X43207300D02*
Y22220750D01*
G01Y23604250D02*
Y23445750D01*
G01X43392700D02*
Y23604250D01*
G54D12*
G01X41470320Y23588500D02*
Y23525000D01*
G01X41454740Y23588500D02*
X41485900D01*
G01X41511300Y23525000D02*
Y23588500D01*
X41524850D01*
X41530260Y23585320D01*
X41534330Y23581090D01*
X41537720Y23574740D01*
X41540420Y23567330D01*
X41541100Y23556750D01*
X41540420Y23546170D01*
X41537720Y23538760D01*
X41534330Y23532410D01*
X41530260Y23528170D01*
X41524850Y23525000D01*
X41511300D01*
G01X41582080D02*
X41576660Y23526060D01*
X41571920Y23530290D01*
X41567860Y23536640D01*
X41565150Y23544050D01*
X41563790Y23552520D01*
Y23560980D01*
X41565150Y23569450D01*
X41567860Y23576860D01*
X41571920Y23583210D01*
X41576660Y23587440D01*
X41582080Y23588500D01*
X41587500Y23587440D01*
X41592240Y23583210D01*
X41596300Y23576860D01*
X41599010Y23569450D01*
X41600370Y23560980D01*
Y23552520D01*
X41599010Y23544050D01*
X41596300Y23536640D01*
X41592240Y23530290D01*
X41587500Y23526060D01*
X41582080Y23525000D01*
G01X41470320Y23938500D02*
Y23875000D01*
G01X41454740Y23938500D02*
X41485900D01*
G01X41508590Y23875000D02*
Y23938500D01*
X41526200Y23885580D01*
X41543810Y23938500D01*
Y23875000D01*
G01X41567860Y23883460D02*
X41573270Y23878170D01*
X41579370Y23875000D01*
X41584790D01*
X41590210Y23878170D01*
X41594270Y23883460D01*
X41596300Y23890880D01*
X41594950Y23898280D01*
X41591560Y23904630D01*
X41585470Y23908870D01*
X41577340Y23910980D01*
X41572600Y23915220D01*
X41570560Y23922620D01*
X41571920Y23930030D01*
X41575310Y23935320D01*
X41580050Y23938500D01*
X41584790D01*
X41589530Y23936380D01*
X41593600Y23931090D01*
G01X41573170Y23022080D02*
X41569110Y23015730D01*
X41564360Y23012560D01*
X41558950Y23011500D01*
X41552170Y23013620D01*
X41547430Y23018910D01*
X41546080Y23025260D01*
X41546750Y23031610D01*
X41549460Y23036900D01*
X41563010Y23047480D01*
X41569110Y23054890D01*
X41573170Y23065480D01*
X41574520Y23075000D01*
X41546080D01*
G01X41670320Y23413500D02*
Y23350000D01*
G01X41654740Y23413500D02*
X41685900D01*
G01X41741100Y23408210D02*
X41737040Y23411380D01*
X41732300Y23413500D01*
X41726880D01*
X41720780Y23410320D01*
X41716040Y23405030D01*
X41712650Y23398680D01*
X41709940Y23388100D01*
X41709270Y23378570D01*
X41710620Y23369050D01*
X41712650Y23362700D01*
X41716720Y23356350D01*
X41721460Y23352120D01*
X41726200Y23350000D01*
X41730940D01*
X41735680Y23352120D01*
X41739750Y23355290D01*
X41743130Y23359520D01*
G01X41767180Y23350000D02*
Y23413500D01*
G01X41792920D02*
X41767180Y23374340D01*
G01X41796980Y23350000D02*
X41778690Y23392330D01*
G01X41695320Y23763500D02*
Y23700000D01*
G01X41679740Y23763500D02*
X41710900D01*
G01X41736300Y23700000D02*
Y23763500D01*
X41749850D01*
X41755260Y23760320D01*
X41759330Y23756090D01*
X41762720Y23749740D01*
X41765420Y23742330D01*
X41766100Y23731750D01*
X41765420Y23721170D01*
X41762720Y23713760D01*
X41759330Y23707410D01*
X41755260Y23703170D01*
X41749850Y23700000D01*
X41736300D01*
G01X41798950Y23763500D02*
X41815210D01*
G01X41807080D02*
Y23700000D01*
G01X41798950D02*
X41815210D01*
G01X41602920Y24498170D02*
X41609270Y24494110D01*
X41612440Y24489360D01*
X41613500Y24483950D01*
X41611380Y24477170D01*
X41606090Y24472430D01*
X41599740Y24471080D01*
X41593390Y24471750D01*
X41588100Y24474460D01*
X41577520Y24488010D01*
X41570110Y24494110D01*
X41559520Y24498170D01*
X41550000Y24499520D01*
Y24471080D01*
G01X41877920Y24373170D02*
X41884270Y24369110D01*
X41887440Y24364360D01*
X41888500Y24358950D01*
X41886380Y24352170D01*
X41881090Y24347430D01*
X41874740Y24346080D01*
X41868390Y24346750D01*
X41863100Y24349460D01*
X41852520Y24363010D01*
X41845110Y24369110D01*
X41834520Y24373170D01*
X41825000Y24374520D01*
Y24346080D01*
G01X41550000Y24764700D02*
X41613500D01*
X41600800Y24772830D01*
G01X41550000D02*
Y24756570D01*
G01X41825000Y24639700D02*
X41888500D01*
X41875800Y24647830D01*
G01X41825000D02*
Y24631570D01*
G01X41839700Y23075000D02*
Y23011500D01*
X41847830Y23024200D01*
G01Y23075000D02*
X41831570D01*
G01X42045320Y24188500D02*
Y24125000D01*
G01X42029740Y24188500D02*
X42060900D01*
G01X42086980Y24125000D02*
X42115420Y24188500D01*
G01X42086980D02*
X42115420Y24125000D01*
G01X42369380Y23853920D02*
Y23917420D01*
X42394440Y23871910D01*
X42360580D01*
G01X42321630Y23853920D02*
Y23917420D01*
X42329760Y23904720D01*
G01Y23853920D02*
X42313500D01*
G01X43755420Y24950000D02*
Y25013500D01*
X43768970D01*
X43774380Y25010320D01*
X43778450Y25006090D01*
X43781840Y24999740D01*
X43784540Y24992330D01*
X43785220Y24981750D01*
X43784540Y24971170D01*
X43781840Y24963760D01*
X43778450Y24957410D01*
X43774380Y24953170D01*
X43768970Y24950000D01*
X43755420D01*
G01X43818750Y24971170D02*
X43835010D01*
G01X43826200Y24984930D02*
Y24957410D01*
G01X43755420Y25200000D02*
Y25263500D01*
X43768970D01*
X43774380Y25260320D01*
X43778450Y25256090D01*
X43781840Y25249740D01*
X43784540Y25242330D01*
X43785220Y25231750D01*
X43784540Y25221170D01*
X43781840Y25213760D01*
X43778450Y25207410D01*
X43774380Y25203170D01*
X43768970Y25200000D01*
X43755420D01*
G01X43817390Y25221170D02*
X43835010D01*
M02*
