G04 ================== begin FILE IDENTIFICATION RECORD ==================*
G04 Layout Name:  temp.brd*
G04 Film Name:    SILKSCREEN_BOTTOM*
G04 File Format:  Gerber RS274X*
G04 File Origin:  Cadence Allegro 17.4-S037*
G04 Origin Date:  Wed Oct 18 21:54:26 2023*
G04 *
G04 Layer:  PACKAGE GEOMETRY/SILKSCREEN_BOTTOM*
G04 Layer:  BOARD GEOMETRY/SILKSCREEN_BOTTOM*
G04 *
G04 Offset:    (0.0000 0.0000)*
G04 Mirror:    No*
G04 Mode:      Positive*
G04 Rotation:  0*
G04 FullContactRelief:  No*
G04 UndefLineWidth:     0.1000*
G04 ================== end FILE IDENTIFICATION RECORD ====================*
%FSLAX25Y25*MOMM*%
%IR0*IPPOS*OFA0.00000B0.00000*MIA0B0*SFA1.00000B1.00000*%
%ADD10C,.1524*%
%ADD11C,.508*%
%ADD12C,.1*%
G75*
%LPD*%
G75*
G36*
G01X41249200Y23674550D02*
Y23636450D01*
X41274600D01*
Y23674550D01*
X41249200D01*
G37*
G36*
G01Y24944550D02*
Y24906450D01*
X41274600D01*
Y24944550D01*
X41249200D01*
G37*
G36*
G01X42282550Y22799600D02*
Y22774200D01*
X42244450D01*
Y22799600D01*
X42282550D01*
G37*
G36*
G01X42663550Y25400400D02*
Y25425800D01*
X42625450D01*
Y25400400D01*
X42663550D01*
G37*
G36*
G01X43150800Y23801550D02*
Y23763450D01*
X43125400D01*
Y23801550D01*
X43150800D01*
G37*
G54D10*
G01X40482300Y21195750D02*
Y21354250D01*
G01X40732300Y21195750D02*
Y21354250D01*
G01X40667700D02*
Y21195750D01*
G01X40701260Y24956890D02*
X40598740D01*
G01X40851130Y25150000D02*
G02I-10160J0D01*
G01X40598740Y25193110D02*
X40701260D01*
G01X41007300Y21195750D02*
Y21354250D01*
G01X40917700D02*
Y21195750D01*
G01X41157300Y21645750D02*
Y21804250D01*
G01X41192700Y21354250D02*
Y21195750D01*
G01X41629250Y21082300D02*
X41470750D01*
G01Y21267700D02*
X41629250D01*
G01X41407300Y21645750D02*
Y21804250D01*
G01X41342700D02*
Y21645750D01*
G01X41426330Y22812220D02*
X41286870D01*
G01D02*
Y23199480D01*
G01Y25000520D02*
Y25387780D01*
G01D02*
X43113130D01*
G01X41592700Y21804250D02*
Y21645750D01*
G01X41997130Y21205010D02*
X42202870D01*
G01Y21044990D02*
X41997130D01*
G01X42531690Y21222790D02*
X42668310D01*
G01Y21027210D02*
X42531690D01*
G01X42742700Y21879250D02*
Y21720750D01*
G01X42557300D02*
Y21879250D01*
G01X43113130Y22812220D02*
X42973670D01*
G01X43113130Y23199480D02*
Y22812220D01*
G01Y25387780D02*
Y25000520D01*
G01X43252210Y21231690D02*
Y21368310D01*
G01X43447790D02*
Y21231690D01*
G01X43207300Y22395750D02*
Y22554250D01*
G01X43392700D02*
Y22395750D01*
G01X43207300Y22920750D02*
Y23079250D01*
G01X43392700D02*
Y22920750D01*
G01X43370750Y24042700D02*
X43529250D01*
G01Y23857300D02*
X43370750D01*
G01X43518310Y24102210D02*
X43381690D01*
G01X43207300Y24470750D02*
Y24629250D01*
G01X43392700D02*
Y24470750D01*
G01X43381690Y24297790D02*
X43518310D01*
G01X43457300Y24470750D02*
Y24629250D01*
G01X43642700D02*
Y24470750D01*
G01X43968510Y21972270D02*
X43835740D01*
G01X43968510Y22477730D02*
Y21972270D01*
G01X43835740Y22477730D02*
X43968510D01*
G01Y22597270D02*
X43835740D01*
G01X43968510Y23102730D02*
Y22597270D01*
G01X43835740Y23102730D02*
X43968510D01*
G01Y23222270D02*
X43835740D01*
G01X43968510Y23727730D02*
Y23222270D01*
G01X43835740Y23727730D02*
X43968510D01*
G54D11*
G01X43713240Y22655530D02*
G02I-38100J0D01*
G01Y23280530D02*
G02I-38100J0D01*
G54D12*
G01X41571610Y25213500D02*
X41554680Y25150000D01*
X41537750Y25213500D01*
G01X41486610Y25150000D02*
Y25192330D01*
G01Y25184930D02*
X41489320Y25189160D01*
X41493380Y25191270D01*
X41498120Y25192330D01*
X41502860Y25190220D01*
X41506930Y25185980D01*
X41509640Y25179630D01*
X41510990Y25171170D01*
X41509640Y25162700D01*
X41506930Y25156350D01*
X41502860Y25152120D01*
X41498120Y25150000D01*
X41493380Y25151060D01*
X41489320Y25154230D01*
X41486610Y25158460D01*
G01X41442920Y25150000D02*
Y25213500D01*
G01X41397200Y25178570D02*
X41375520D01*
X41377560Y25185980D01*
X41380940Y25190220D01*
X41385690Y25192330D01*
X41390430Y25191270D01*
X41394490Y25188100D01*
X41397200Y25180690D01*
X41398560Y25174340D01*
Y25167990D01*
X41397200Y25161640D01*
X41393810Y25155290D01*
X41389750Y25151060D01*
X41385010Y25150000D01*
X41380270Y25152120D01*
X41375520Y25158460D01*
G01X41342680Y25150000D02*
Y25192330D01*
G01Y25181750D02*
X41339970Y25187040D01*
X41335900Y25191270D01*
X41330480Y25192330D01*
X41325740Y25191270D01*
X41321680Y25187040D01*
X41319640Y25179630D01*
Y25150000D01*
G01X41285440Y25192330D02*
X41265120D01*
X41285440Y25150000D01*
X41265120D01*
G01X41230920Y25192330D02*
Y25162700D01*
X41228210Y25155290D01*
X41224140Y25151060D01*
X41219400Y25150000D01*
X41214660Y25151060D01*
X41210590Y25155290D01*
X41207880Y25162700D01*
G01Y25150000D02*
Y25192330D01*
G01X41173680Y25178570D02*
X41152000D01*
X41154040Y25185980D01*
X41157420Y25190220D01*
X41162170Y25192330D01*
X41166910Y25191270D01*
X41170970Y25188100D01*
X41173680Y25180690D01*
X41175040Y25174340D01*
Y25167990D01*
X41173680Y25161640D01*
X41170290Y25155290D01*
X41166230Y25151060D01*
X41161490Y25150000D01*
X41156750Y25152120D01*
X41152000Y25158460D01*
G01X41107640Y25150000D02*
Y25213500D01*
G01X41039570Y25150000D02*
Y25192330D01*
G01Y25184930D02*
X41042280Y25189160D01*
X41046340Y25191270D01*
X41051080Y25192330D01*
X41055820Y25190220D01*
X41059890Y25185980D01*
X41062600Y25179630D01*
X41063950Y25171170D01*
X41062600Y25162700D01*
X41059890Y25156350D01*
X41055820Y25152120D01*
X41051080Y25150000D01*
X41046340Y25151060D01*
X41042280Y25154230D01*
X41039570Y25158460D01*
G01X40940000Y25213500D02*
Y25150000D01*
G01X40955580Y25213500D02*
X40924420D01*
G01X40884120Y25147880D02*
X40885470Y25148940D01*
Y25151060D01*
X40884120Y25152120D01*
X40882770Y25151060D01*
Y25148940D01*
X40884120Y25147880D01*
G01X41569580Y25275000D02*
Y25338500D01*
X41556030D01*
X41550620Y25335320D01*
X41546550Y25331090D01*
X41543160Y25324740D01*
X41540460Y25317330D01*
X41539780Y25306750D01*
X41540460Y25296170D01*
X41543160Y25288760D01*
X41546550Y25282410D01*
X41550620Y25278170D01*
X41556030Y25275000D01*
X41569580D01*
G01X41508960Y25303570D02*
X41487280D01*
X41489320Y25310980D01*
X41492700Y25315220D01*
X41497450Y25317330D01*
X41502190Y25316270D01*
X41506250Y25313100D01*
X41508960Y25305690D01*
X41510320Y25299340D01*
Y25292990D01*
X41508960Y25286640D01*
X41505570Y25280290D01*
X41501510Y25276060D01*
X41496770Y25275000D01*
X41492030Y25277120D01*
X41487280Y25283460D01*
G01X41453080Y25282410D02*
X41449690Y25278170D01*
X41444950Y25275000D01*
X41440890D01*
X41436820Y25277120D01*
X41434110Y25280290D01*
X41432760Y25284520D01*
X41433440Y25290880D01*
X41436150Y25294050D01*
X41448340Y25300400D01*
X41451050Y25307810D01*
X41449690Y25313100D01*
X41446980Y25316270D01*
X41442920Y25317330D01*
X41438860Y25316270D01*
X41434790Y25313100D01*
G01X41387040Y25317330D02*
Y25275000D01*
G01Y25334270D02*
X41388390Y25335320D01*
Y25337440D01*
X41387040Y25338500D01*
X41385690Y25337440D01*
Y25335320D01*
X41387040Y25334270D01*
G01X41340640Y25259120D02*
X41335900Y25254890D01*
X41330480Y25253830D01*
X41325740Y25254890D01*
X41321680Y25260180D01*
X41318970Y25267590D01*
Y25317330D01*
G01Y25308870D02*
X41321680Y25313100D01*
X41325740Y25316270D01*
X41330480Y25317330D01*
X41335900Y25315220D01*
X41339290Y25310980D01*
X41342000Y25303570D01*
X41343350Y25296170D01*
X41342680Y25289820D01*
X41339970Y25282410D01*
X41335900Y25277120D01*
X41330480Y25275000D01*
X41326420Y25276060D01*
X41321680Y25280290D01*
X41318970Y25284520D01*
G01X41286800Y25275000D02*
Y25317330D01*
G01Y25306750D02*
X41284090Y25312040D01*
X41280020Y25316270D01*
X41274600Y25317330D01*
X41269860Y25316270D01*
X41265800Y25312040D01*
X41263760Y25304630D01*
Y25275000D01*
G01X41229560Y25303570D02*
X41207880D01*
X41209920Y25310980D01*
X41213300Y25315220D01*
X41218050Y25317330D01*
X41222790Y25316270D01*
X41226850Y25313100D01*
X41229560Y25305690D01*
X41230920Y25299340D01*
Y25292990D01*
X41229560Y25286640D01*
X41226170Y25280290D01*
X41222110Y25276060D01*
X41217370Y25275000D01*
X41212630Y25277120D01*
X41207880Y25283460D01*
G01X41151330Y25338500D02*
Y25275000D01*
G01Y25284520D02*
X41154040Y25279230D01*
X41158100Y25276060D01*
X41162840Y25275000D01*
X41168260Y25277120D01*
X41172330Y25282410D01*
X41175040Y25288760D01*
X41175710Y25296170D01*
X41175040Y25303570D01*
X41172330Y25309930D01*
X41168260Y25315220D01*
X41162840Y25317330D01*
X41158100Y25316270D01*
X41154710Y25314160D01*
X41151330Y25309930D01*
G01X41063950Y25275000D02*
Y25338500D01*
G01Y25306750D02*
X41060570Y25313100D01*
X41056500Y25316270D01*
X41052440Y25317330D01*
X41046340Y25315220D01*
X41042280Y25310980D01*
X41039570Y25303570D01*
Y25295110D01*
X41040920Y25286640D01*
X41043630Y25280290D01*
X41048370Y25276060D01*
X41052440Y25275000D01*
X41056500Y25276060D01*
X41060570Y25279230D01*
X41063950Y25284520D01*
G01X41010100Y25255950D02*
X41006040Y25253830D01*
X41000620Y25255950D01*
X40997230Y25260180D01*
X40994530Y25265480D01*
X40990460Y25282410D01*
X40981660Y25317330D01*
G01X41003330D02*
X40990460Y25282410D01*
M02*
