G04 ================== begin FILE IDENTIFICATION RECORD ==================*
G04 Layout Name:  design3.brd*
G04 Film Name:    SILKSCREEN_BOTTOM*
G04 File Format:  Gerber RS274X*
G04 File Origin:  Cadence Allegro 17.4-S037*
G04 Origin Date:  Tue Aug  8 18:28:54 2023*
G04 *
G04 Layer:  PACKAGE GEOMETRY/SILKSCREEN_BOTTOM*
G04 Layer:  BOARD GEOMETRY/SILKSCREEN_BOTTOM*
G04 *
G04 Offset:    (0.0000 0.0000)*
G04 Mirror:    No*
G04 Mode:      Positive*
G04 Rotation:  0*
G04 FullContactRelief:  No*
G04 UndefLineWidth:     0.1000*
G04 ================== end FILE IDENTIFICATION RECORD ====================*
%FSLAX25Y25*MOMM*%
%IR0*IPPOS*OFA0.00000B0.00000*MIA0B0*SFA1.00000B1.00000*%
%ADD10C,.1524*%
%ADD11C,.508*%
G75*
%LPD*%
G75*
G36*
G01X41249200Y23674550D02*
Y23636450D01*
X41274600D01*
Y23674550D01*
X41249200D01*
G37*
G36*
G01Y24944550D02*
Y24906450D01*
X41274600D01*
Y24944550D01*
X41249200D01*
G37*
G36*
G01X42282550Y22799600D02*
Y22774200D01*
X42244450D01*
Y22799600D01*
X42282550D01*
G37*
G36*
G01X42663550Y25400400D02*
Y25425800D01*
X42625450D01*
Y25400400D01*
X42663550D01*
G37*
G36*
G01X43150800Y23801550D02*
Y23763450D01*
X43125400D01*
Y23801550D01*
X43150800D01*
G37*
G54D10*
G01X40482300Y21195750D02*
Y21354250D01*
G01X40732300Y21195750D02*
Y21354250D01*
G01X40667700D02*
Y21195750D01*
G01X40701260Y24956890D02*
X40598740D01*
G01X40851130Y25150000D02*
G02I-10160J0D01*
G01X40598740Y25193110D02*
X40701260D01*
G01X41007300Y21195750D02*
Y21354250D01*
G01X40917700D02*
Y21195750D01*
G01X41157300Y21645750D02*
Y21804250D01*
G01X41192700Y21354250D02*
Y21195750D01*
G01X41629250Y21082300D02*
X41470750D01*
G01Y21267700D02*
X41629250D01*
G01X41407300Y21645750D02*
Y21804250D01*
G01X41342700D02*
Y21645750D01*
G01X41426330Y22812220D02*
X41286870D01*
G01D02*
Y23199480D01*
G01Y25000520D02*
Y25387780D01*
G01D02*
X43113130D01*
G01X41592700Y21804250D02*
Y21645750D01*
G01X41997130Y21205010D02*
X42202870D01*
G01Y21044990D02*
X41997130D01*
G01X42531690Y21222790D02*
X42668310D01*
G01Y21027210D02*
X42531690D01*
G01X42742700Y21879250D02*
Y21720750D01*
G01X42557300D02*
Y21879250D01*
G01X43113130Y22812220D02*
X42973670D01*
G01X43113130Y23199480D02*
Y22812220D01*
G01Y25387780D02*
Y25000520D01*
G01X43252210Y21231690D02*
Y21368310D01*
G01X43447790D02*
Y21231690D01*
G01X43207300Y22395750D02*
Y22554250D01*
G01X43392700D02*
Y22395750D01*
G01X43207300Y22920750D02*
Y23079250D01*
G01X43392700D02*
Y22920750D01*
G01X43370750Y24042700D02*
X43529250D01*
G01Y23857300D02*
X43370750D01*
G01X43518310Y24102210D02*
X43381690D01*
G01X43207300Y24470750D02*
Y24629250D01*
G01X43392700D02*
Y24470750D01*
G01X43381690Y24297790D02*
X43518310D01*
G01X43457300Y24470750D02*
Y24629250D01*
G01X43642700D02*
Y24470750D01*
G01X43968510Y21972270D02*
X43835740D01*
G01X43968510Y22477730D02*
Y21972270D01*
G01X43835740Y22477730D02*
X43968510D01*
G01Y22597270D02*
X43835740D01*
G01X43968510Y23102730D02*
Y22597270D01*
G01X43835740Y23102730D02*
X43968510D01*
G01Y23222270D02*
X43835740D01*
G01X43968510Y23727730D02*
Y23222270D01*
G01X43835740Y23727730D02*
X43968510D01*
G54D11*
G01X43713240Y22655530D02*
G02I-38100J0D01*
G01Y23280530D02*
G02I-38100J0D01*
M02*
